<?xml version="1.0" standalone="no"?>
<!DOCTYPE svg PUBLIC "-//W3C//DTD SVG 1.1//EN" "http://www.w3.org/Graphics/SVG/1.1/DTD/svg11.dtd" >
<svg xmlns="http://www.w3.org/2000/svg" xmlns:xlink="http://www.w3.org/1999/xlink" version="1.1">
<metadata>
Created by FontForge 20170731 at Wed Jul  5 21:04:30 2017
 By Aleksey,,,
Copyright (c) 2017 by __Designer__. All rights reserved.
</metadata>
<defs>
<font id="INDIGO-Regular" horiz-adv-x="776" >
  <font-face 
    font-family="INDIGO"
    font-weight="400"
    font-stretch="normal"
    units-per-em="2048"
    panose-1="0 0 5 0 0 0 0 0 0 0"
    ascent="1536"
    descent="-512"
    x-height="1434"
    cap-height="1434"
    bbox="-162 -360 1679 1808"
    underline-thickness="102"
    underline-position="-939"
    unicode-range="U+000D-F6C3"
  />
<missing-glyph horiz-adv-x="1122" 
d="M102 0v1434h918v-1434h-918zM250 158h112l189 483l188 -483h127l-225 575l211 541h-113l-176 -447l-174 447h-125l211 -541z" />
    <glyph glyph-name=".notdef" horiz-adv-x="1122" 
d="M102 0v1434h918v-1434h-918zM250 158h112l189 483l188 -483h127l-225 575l211 541h-113l-176 -447l-174 447h-125l211 -541z" />
    <glyph glyph-name=".null" horiz-adv-x="0" 
 />
    <glyph glyph-name="nonmarkingreturn" horiz-adv-x="1000" 
 />
    <glyph glyph-name="uni000D" unicode="&#xd;" horiz-adv-x="317" 
 />
    <glyph glyph-name="space" unicode=" " horiz-adv-x="317" 
 />
    <glyph glyph-name="exclam" unicode="!" horiz-adv-x="284" 
d="M82 717v717h121v-717l-15 -400h-90zM84 0v186h117v-186h-117z" />
    <glyph glyph-name="quotedbl" unicode="&#x22;" horiz-adv-x="471" 
d="M82 1434h117l-15 -367h-88zM272 1434h117l-16 -367h-84z" />
    <glyph glyph-name="numbersign" unicode="#" horiz-adv-x="825" 
d="M47 446l8 89h129l47 446h-131l9 88h131l36 365h101l-37 -365h219l37 365h100l-37 -365h119l-8 -88h-121l-45 -446h119l-8 -89h-121l-47 -446h-98l45 446h-220l-47 -446h-100l49 446h-129zM285 535h219l45 446h-219z" />
    <glyph glyph-name="dollar" unicode="$" 
d="M74 354v84h114v-90q0 -115 48.5 -177t148.5 -62q197 0 197 239q0 74 -32 131.5t-76 98t-126 100.5q-88 63 -141 111.5t-90 120t-37 169.5q0 154 64.5 246t195.5 107v120h100v-120q133 -13 196.5 -107t63.5 -246v-35h-112v41q0 113 -47 177.5t-148 64.5q-98 0 -145 -63.5
t-47 -176.5q0 -76 31.5 -134t78.5 -100t125 -97q88 -63 140.5 -111.5t89 -120t36.5 -170.5q0 -150 -64.5 -245t-197.5 -109v-113h-100v113q-135 12 -200.5 107.5t-65.5 246.5z" />
    <glyph glyph-name="percent" unicode="%" horiz-adv-x="1243" 
d="M74 766v442q0 104 49 168t147 64q101 0 151 -63.5t50 -168.5v-442q0 -106 -50 -168.5t-151 -62.5q-98 0 -147 62t-49 169zM154 760q0 -154 116 -154q63 0 92 42t29 112v452q0 70 -28.5 112t-92.5 42q-116 0 -116 -154v-452zM297 0l565 1434h76l-565 -1434h-76zM774 227
v441q0 104 49 166.5t150 62.5q100 0 148 -62.5t48 -166.5v-441q0 -106 -48 -168.5t-148 -62.5t-149.5 63.5t-49.5 167.5zM854 221q0 -68 28.5 -110.5t90.5 -42.5q61 0 90 43t29 110v451q0 70 -29 110.5t-90 40.5q-62 0 -90.5 -41t-28.5 -110v-451z" />
    <glyph glyph-name="ampersand" unicode="&#x26;" horiz-adv-x="817" 
d="M84 317v138q0 109 45 187.5t135 109.5q-90 29 -135 106.5t-45 185.5v35q0 172 85 263.5t255 91.5h215v-111h-211q-223 0 -223 -240v-63q0 -96 48 -155.5t134 -63.5h199v160h119v-160h73v-107h-73v-508q0 -66 6 -106.5t28 -79.5h-125q-27 55 -28 133q-31 -72 -91.5 -108.5
t-142.5 -36.5q-135 0 -201.5 87t-66.5 242zM205 326q0 -109 48 -168.5t144 -59.5q82 0 134.5 48.5t54.5 136.5v411h-187q-94 0 -144 -63.5t-50 -173.5v-131z" />
    <glyph glyph-name="quotesingle" unicode="'" horiz-adv-x="272" 
d="M78 1434h117l-17 -367h-86z" />
    <glyph glyph-name="parenleft" unicode="(" horiz-adv-x="475" 
d="M92 317v801q0 162 63.5 239t221.5 77h49v-101h-43q-96 0 -133 -53t-37 -162v-801q0 -111 37 -163t133 -52h43v-102h-49q-158 0 -221.5 78t-63.5 239z" />
    <glyph glyph-name="parenright" unicode=")" horiz-adv-x="475" 
d="M49 0v102h43q96 0 134 52.5t38 162.5v801q0 109 -38 162t-134 53h-43v101h49q158 0 221.5 -77t63.5 -239v-801q0 -162 -63.5 -239.5t-221.5 -77.5h-49z" />
    <glyph glyph-name="asterisk" unicode="*" horiz-adv-x="772" 
d="M37 1130l31 97l294 -119l-28 317h102l-26 -317l295 115l30 -97l-309 -65l203 -242l-80 -59l-164 274l-162 -274l-80 59l203 242z" />
    <glyph glyph-name="plus" unicode="+" horiz-adv-x="786" 
d="M61 672v90h289v289h88v-289h287v-90h-287v-293h-88v293h-289z" />
    <glyph glyph-name="comma" unicode="," horiz-adv-x="251" 
d="M72 -166l41 164l-39 2v188h116v-178l-67 -176h-51z" />
    <glyph glyph-name="hyphen" unicode="-" horiz-adv-x="534" 
d="M76 664v106h381v-106h-381z" />
    <glyph glyph-name="period" unicode="." horiz-adv-x="239" 
d="M61 0v188h117v-188h-117z" />
    <glyph glyph-name="slash" unicode="/" horiz-adv-x="737" 
d="M33 0l565 1434h107l-566 -1434h-106z" />
    <glyph glyph-name="zero" unicode="0" horiz-adv-x="600" 
d="M82 227v969q0 66 11 117t59.5 91t148.5 40q139 0 178 -70.5t39 -173.5v-977q0 -102 -39 -172.5t-178 -70.5q-100 0 -148.5 39.5t-59.5 91t-11 116.5zM201 195q0 -55 30.5 -84t69.5 -29q37 0 68.5 28.5t31.5 84.5v1034q0 55 -31.5 83.5t-68.5 28.5q-39 0 -69.5 -28.5
t-30.5 -83.5v-1034z" />
    <glyph glyph-name="one" unicode="1" horiz-adv-x="505" 
d="M20 1257l205 168h121v-1325h141v-100h-399v100h139v1192h-2l-143 -108z" />
    <glyph glyph-name="two" unicode="2" horiz-adv-x="579" 
d="M61 0v55q0 80 35 174.5t109 247.5q16 39 53 117l18 43q55 123 82 194.5t27 120.5v279q0 55 -31.5 83.5t-70.5 28.5t-70 -28.5t-31 -83.5v-373h-119v340q0 66 11.5 117t59.5 91t149 40q139 0 180 -73t41 -171v-250q0 -80 -38 -178t-106 -235l-34 -70q-72 -143 -102.5 -222
t-30.5 -143h311v-104h-443z" />
    <glyph glyph-name="three" unicode="3" horiz-adv-x="602" 
d="M61 1053v153q0 100 41 173t179 73q133 0 175 -67.5t42 -165.5v-256q0 -117 -70 -187v-2q59 -37 75.5 -91t16.5 -124v-344q0 -96 -43 -165.5t-176 -69.5q-135 0 -177 71.5t-42 171.5v203h119v-231q0 -53 30.5 -83t69.5 -30q41 0 70.5 28.5t29.5 84.5v397q0 55 -32.5 87
t-71.5 32h-53v102h59q37 0 57.5 29.5t20.5 89.5v305q0 55 -31 84t-69 29q-39 0 -70 -29t-31 -84v-184h-119z" />
    <glyph glyph-name="four" unicode="4" horiz-adv-x="581" 
d="M41 344v105l301 976h121v-979h86v-102h-86v-344h-119v344h-303zM145 446h201v689h-2l-199 -686v-3z" />
    <glyph glyph-name="five" unicode="5" horiz-adv-x="591" 
d="M74 223q0 -100 42 -171.5t177 -71.5q133 0 175 69.5t42 165.5v412q0 96 -44 164.5t-124 68.5q-49 0 -81 -18.5t-60 -57.5l28 539h271v102h-375l-43 -770h108q10 43 39 64.5t68 21.5q53 0 74.5 -30.5t21.5 -100.5v-415q0 -55 -30.5 -84t-69.5 -29t-69.5 28.5t-30.5 84.5
v110h-119v-82z" />
    <glyph glyph-name="six" unicode="6" horiz-adv-x="600" 
d="M82 225v989q0 100 38 170t167 70q94 0 140 -41t57.5 -93t11.5 -118v-168h-119v205q0 55 -29 84t-61 29q-33 0 -59.5 -29t-26.5 -84v-436h2q0 4 10 18.5t35.5 26.5t68.5 12q100 0 150.5 -60.5t50.5 -199.5v-360q0 -68 -11 -121t-59.5 -96t-146.5 -43q-137 0 -178 72.5
t-41 172.5zM201 195q0 -56 30.5 -84.5t69.5 -28.5t69.5 28.5t30.5 84.5v450q0 55 -30.5 84t-69.5 29t-69.5 -29t-30.5 -84v-450z" />
    <glyph glyph-name="seven" unicode="7" horiz-adv-x="497" 
d="M10 1323h346v-2q-182 -688 -188 -1323h113q0 301 48 648t148 679v100h-467v-102z" />
    <glyph glyph-name="eight" unicode="8" horiz-adv-x="600" 
d="M82 227v348q0 84 19.5 148.5t91.5 89.5q-72 25 -91.5 92.5t-19.5 179.5v117q0 66 11 117t59.5 91t148.5 40q139 0 178 -70.5t39 -173.5v-162q0 -83 -19.5 -144.5t-88.5 -86.5q70 -25 89 -88t19 -145v-357q0 -102 -39 -172.5t-178 -70.5q-100 0 -148.5 39.5t-59.5 91
t-11 116.5zM201 195q0 -55 30.5 -84t69.5 -29q37 0 68.5 28.5t31.5 84.5v450q0 55 -31.5 84t-68.5 29q-39 0 -69.5 -29t-30.5 -84v-450zM201 973q0 -55 30.5 -84t69.5 -29q37 0 68.5 29t31.5 84v262q0 55 -31.5 84t-68.5 29q-41 0 -70.5 -29t-29.5 -84v-262z" />
    <glyph glyph-name="nine" unicode="9" horiz-adv-x="600" 
d="M82 831v363q0 66 11 120t59.5 97t148.5 43q137 0 177 -72.5t40 -173.5v-989q0 -100 -38 -169.5t-167 -69.5q-94 0 -140 40.5t-57.5 93t-11.5 117.5v88h119v-124q0 -53 30 -83t60 -30q33 0 60.5 28.5t27.5 84.5v434h-2q0 -4 -11 -17.5t-36.5 -26t-68.5 -12.5
q-100 0 -150.5 60.5t-50.5 197.5zM201 786q0 -55 29.5 -82.5t70.5 -27.5q39 0 69.5 28.5t30.5 81.5v453q0 53 -30.5 83t-69.5 30q-41 0 -70.5 -29t-29.5 -84v-453z" />
    <glyph glyph-name="colon" unicode=":" horiz-adv-x="280" 
d="M82 205v188h117v-188h-117zM82 944v189h117v-189h-117z" />
    <glyph glyph-name="semicolon" unicode=";" horiz-adv-x="290" 
d="M92 55l17 133l100 -55l-14 -170l-62 -129l-35 47l33 119zM92 780v189h117v-189h-117z" />
    <glyph glyph-name="less" unicode="&#x3c;" horiz-adv-x="765" 
d="M68 672v90l616 268v-92l-502 -221l502 -221v-93z" />
    <glyph glyph-name="equal" unicode="=" horiz-adv-x="659" 
d="M76 561v90h508v-90h-508zM76 829v86h508v-86h-508z" />
    <glyph glyph-name="greater" unicode="&#x3e;" horiz-adv-x="765" 
d="M82 403v93l502 221l-502 221v92l616 -268v-90z" />
    <glyph glyph-name="question" unicode="?" horiz-adv-x="722" 
d="M55 977v102q0 168 76 267.5t234 99.5q159 0 235 -97.5t76 -265.5q0 -115 -39 -193.5t-117 -178.5q-70 -90 -103.5 -157t-33.5 -157q0 -37 10 -78h-108q-10 41 -11 80q0 104 35 177t105 165t105.5 167t35.5 182q0 248 -193 247q-100 0 -147 -67.5t-47 -182.5v-110h-113z
M279 0v186h116v-186h-116z" />
    <glyph glyph-name="at" unicode="@" horiz-adv-x="1394" 
d="M59 588q0 250 80 455.5t245 330.5t409 125q286 0 418 -155.5t132 -428.5q0 -172 -46 -316t-129 -228t-185 -84q-70 0 -107.5 37.5t-41.5 103.5q-66 -150 -211 -149q-102 0 -152.5 67.5t-50.5 181.5q0 18 4 64l22 203q14 137 79 217t177 80q145 0 183 -142l14 133h107
l-62 -585q-6 -47 11.5 -79t60.5 -32q84 0 136 85t74.5 205t22.5 236q0 233 -113.5 361.5t-347.5 128.5q-209 0 -349 -108.5t-207.5 -294t-67.5 -418.5q0 -285 134 -436.5t409 -151.5q233 0 391 123l-11 -109q-84 -59 -179 -83.5t-208 -24.5q-324 0 -482.5 180t-158.5 508z
M530 549q0 -166 140 -166q80 0 123 57.5t55 153.5l22 199q2 12 2 34q0 72 -34.5 115t-104.5 43q-82 0 -127 -54t-55 -147l-19 -190q-2 -16 -2 -45z" />
    <glyph glyph-name="A" unicode="A" horiz-adv-x="858" 
d="M41 0l299 1434h174l301 -1434h-121l-65 305h-412l-65 -305h-111zM236 410h376l-192 886z" />
    <glyph glyph-name="B" unicode="B" horiz-adv-x="780" 
d="M82 0v1434h309q160 0 230.5 -77t70.5 -233v-77q0 -121 -41 -190t-141 -93q109 -25 158 -103.5t49 -203.5v-123q0 -334 -320 -334h-315zM203 111h194q105 0 153 56t48 169v129q0 127 -56.5 181t-176.5 54h-162v-589zM203 811h143q121 0 173 45t52 168v88q0 109 -41 160
t-141 51h-186v-512z" />
    <glyph glyph-name="C" unicode="C" horiz-adv-x="761" 
d="M70 348v737q0 166 77.5 263.5t235.5 97.5q160 0 237.5 -97.5t77.5 -263.5v-122h-114v129q0 115 -47.5 179t-149.5 64q-100 0 -148.5 -65.5t-48.5 -177.5v-750q0 -113 48.5 -178.5t148.5 -65.5q102 0 149.5 64.5t47.5 179.5v176h114v-170q0 -166 -77.5 -263t-237.5 -97
q-158 0 -235.5 97t-77.5 263z" />
    <glyph glyph-name="D" unicode="D" horiz-adv-x="792" 
d="M82 0v1434h324q161 0 240 -94.5t79 -262.5v-723q0 -166 -80 -260t-239 -94h-324zM203 111h200q103 0 153 62.5t50 176.5v733q0 115 -50 177.5t-153 62.5h-200v-1212z" />
    <glyph glyph-name="E" unicode="E" horiz-adv-x="722" 
d="M82 0v1434h575v-111h-454v-543h375v-106h-375v-563h454v-111h-575z" />
    <glyph glyph-name="F" unicode="F" horiz-adv-x="681" 
d="M82 0v1434h555v-111h-434v-575h354v-111h-354v-637h-121z" />
    <glyph glyph-name="G" unicode="G" horiz-adv-x="768" 
d="M70 348v737q0 166 77.5 263.5t235.5 97.5q160 0 237.5 -97.5t77.5 -263.5v-112h-114v119q0 115 -47.5 179t-149.5 64q-100 0 -148.5 -65.5t-48.5 -177.5v-750q0 -113 48.5 -178.5t148.5 -65.5q102 0 149.5 64.5t47.5 179.5v301h-172v107h286v-402q0 -166 -77.5 -263
t-237.5 -97q-158 0 -235.5 97t-77.5 263z" />
    <glyph glyph-name="H" unicode="H" horiz-adv-x="813" 
d="M82 0v1434h121v-664h409v664h119v-1434h-119v664h-409v-664h-121z" />
    <glyph glyph-name="I" unicode="I" horiz-adv-x="284" 
d="M82 0v1434h121v-1434h-121z" />
    <glyph glyph-name="J" unicode="J" horiz-adv-x="507" 
d="M41 0v111q29 -2 49.5 -1t32.5 1q96 8 142 61t46 174v1088h121v-1082q0 -182 -78 -263t-217 -89q-20 -2 -55 -2q-27 0 -41 2z" />
    <glyph glyph-name="K" unicode="K" horiz-adv-x="819" 
d="M82 0v1434h121v-732l432 732h125l-391 -662l409 -772h-123l-358 651l-94 -147v-504h-121z" />
    <glyph glyph-name="L" unicode="L" horiz-adv-x="675" 
d="M82 0v1434h121v-1323h434v-111h-555z" />
    <glyph glyph-name="M" unicode="M" horiz-adv-x="1048" 
d="M80 0v1434h172l274 -1217l269 1217h172v-1434h-115v1225l-268 -1223h-121l-277 1215v-1217h-106z" />
    <glyph glyph-name="N" unicode="N" horiz-adv-x="815" 
d="M80 0v1434h156l389 -1139v1139h108v-1434h-127l-416 1229v-1229h-110z" />
    <glyph glyph-name="O" unicode="O" horiz-adv-x="780" 
d="M70 348v737q0 172 80.5 266.5t238.5 94.5t240 -94.5t82 -266.5v-737q0 -170 -82 -265t-240 -95t-238.5 95t-80.5 265zM190 342q0 -119 50.5 -181.5t148.5 -62.5q201 0 201 244v750q0 119 -50.5 181t-150.5 62q-98 0 -148.5 -62.5t-50.5 -180.5v-750z" />
    <glyph glyph-name="P" unicode="P" horiz-adv-x="747" 
d="M82 0v1434h303q162 0 237.5 -91.5t75.5 -257.5v-163q0 -172 -81.5 -257t-251.5 -85h-162v-580h-121zM203 690h162q110 0 161.5 53.5t51.5 171.5v177q0 115 -44.5 173t-148.5 58h-182v-633z" />
    <glyph glyph-name="Q" unicode="Q" horiz-adv-x="815" 
d="M70 348v737q0 166 79.5 263.5t239.5 97.5t241 -97.5t81 -263.5v-737q0 -145 -62 -237q14 -29 39 -40.5t64 -11.5h20v-108h-24q-125 0 -175 88q-74 -51 -184 -51q-158 0 -238.5 97t-80.5 263zM190 342q0 -115 49.5 -179.5t149.5 -64.5q102 0 151.5 64.5t49.5 179.5v750
q0 115 -49 179t-152 64q-100 0 -149.5 -64.5t-49.5 -178.5v-750z" />
    <glyph glyph-name="R" unicode="R" horiz-adv-x="788" 
d="M82 0v1434h307q162 0 236.5 -83t74.5 -243v-121q0 -125 -47 -197.5t-147 -99.5q102 -25 149 -99.5t47 -195.5v-223q0 -117 31 -172h-123q-16 33 -22 72t-6 100v225q0 129 -62.5 180.5t-183.5 51.5h-133v-629h-121zM203 739h139q121 0 180.5 48.5t59.5 175.5v135
q0 111 -46.5 168t-148.5 57h-184v-584z" />
    <glyph glyph-name="S" unicode="S" horiz-adv-x="745" 
d="M59 344v78h113v-84q0 -113 49 -176.5t150 -63.5q100 0 148 63.5t48 176.5q0 74 -31.5 133t-77.5 102t-124 103q-88 68 -141.5 119t-90 123.5t-36.5 171.5q0 168 77.5 262t231.5 94q157 0 234 -96.5t77 -259.5v-35h-115v41q0 113 -46 176t-146 63q-193 0 -193 -237
q0 -76 32 -135.5t78 -102.5t126 -104q88 -68 140 -118t89 -123t37 -171q0 -164 -79 -260t-236 -96q-158 0 -236 96t-78 260z" />
    <glyph glyph-name="T" unicode="T" horiz-adv-x="737" 
d="M27 1323v111h682v-111h-281v-1323h-121v1323h-280z" />
    <glyph glyph-name="U" unicode="U" 
d="M76 348v1086h121v-1092q0 -115 47 -179.5t147 -64.5t147.5 64.5t47.5 179.5v1092h114v-1086q0 -166 -76.5 -264t-236.5 -98q-158 0 -234.5 98t-76.5 264z" />
    <glyph glyph-name="V" unicode="V" horiz-adv-x="851" 
d="M41 1434h123l268 -1293l266 1293h113l-293 -1434h-180z" />
    <glyph glyph-name="W" unicode="W" horiz-adv-x="1198" 
d="M47 1434h119l194 -1272l191 1268h123l182 -1266l188 1270h107l-215 -1434h-158l-170 1092l-176 -1092h-168z" />
    <glyph glyph-name="X" unicode="X" horiz-adv-x="878" 
d="M47 0l309 741l-288 693h127l249 -598l252 598h115l-287 -693l307 -741h-129l-268 647l-270 -647h-117z" />
    <glyph glyph-name="Y" unicode="Y" horiz-adv-x="815" 
d="M33 1434h125l254 -734l254 734h116l-315 -897v-537h-121v537z" />
    <glyph glyph-name="Z" unicode="Z" horiz-adv-x="774" 
d="M59 0v111l529 1212h-504v111h629v-111l-531 -1212h525v-111h-648z" />
    <glyph glyph-name="bracketleft" unicode="[" horiz-adv-x="479" 
d="M92 0v1434h330v-101h-209v-1231h209v-102h-330z" />
    <glyph glyph-name="backslash" unicode="\" horiz-adv-x="737" 
d="M33 1434h106l566 -1434h-107z" />
    <glyph glyph-name="bracketright" unicode="]" horiz-adv-x="479" 
d="M57 0v102h209v1231h-209v101h330v-1434h-330z" />
    <glyph glyph-name="asciicircum" unicode="^" horiz-adv-x="817" 
d="M55 799l310 635h90l307 -635h-98l-256 522l-252 -522h-101z" />
    <glyph glyph-name="underscore" unicode="_" horiz-adv-x="1011" 
d="M27 -20h950v-91h-950v91z" />
    <glyph glyph-name="grave" unicode="`" horiz-adv-x="524" 
d="M139 1737h129l144 -201h-93z" />
    <glyph glyph-name="a" unicode="a" horiz-adv-x="858" 
d="M41 0l299 1434h174l301 -1434h-121l-65 305h-412l-65 -305h-111zM236 410h376l-192 886z" />
    <glyph glyph-name="b" unicode="b" horiz-adv-x="780" 
d="M82 0v1434h309q160 0 230.5 -77t70.5 -233v-77q0 -121 -41 -190t-141 -93q109 -25 158 -103.5t49 -203.5v-123q0 -334 -320 -334h-315zM203 111h194q105 0 153 56t48 169v129q0 127 -56.5 181t-176.5 54h-162v-589zM203 811h143q121 0 173 45t52 168v88q0 109 -41 160
t-141 51h-186v-512z" />
    <glyph glyph-name="c" unicode="c" horiz-adv-x="761" 
d="M70 348v737q0 166 77.5 263.5t235.5 97.5q160 0 237.5 -97.5t77.5 -263.5v-122h-114v129q0 115 -47.5 179t-149.5 64q-100 0 -148.5 -65.5t-48.5 -177.5v-750q0 -113 48.5 -178.5t148.5 -65.5q102 0 149.5 64.5t47.5 179.5v176h114v-170q0 -166 -77.5 -263t-237.5 -97
q-158 0 -235.5 97t-77.5 263z" />
    <glyph glyph-name="d" unicode="d" horiz-adv-x="792" 
d="M82 0v1434h324q161 0 240 -94.5t79 -262.5v-723q0 -166 -80 -260t-239 -94h-324zM203 111h200q103 0 153 62.5t50 176.5v733q0 115 -50 177.5t-153 62.5h-200v-1212z" />
    <glyph glyph-name="e" unicode="e" horiz-adv-x="722" 
d="M82 0v1434h575v-111h-454v-543h375v-106h-375v-563h454v-111h-575z" />
    <glyph glyph-name="f" unicode="f" horiz-adv-x="681" 
d="M82 0v1434h555v-111h-434v-575h354v-111h-354v-637h-121z" />
    <glyph glyph-name="g" unicode="g" horiz-adv-x="768" 
d="M70 348v737q0 166 77.5 263.5t235.5 97.5q160 0 237.5 -97.5t77.5 -263.5v-112h-114v119q0 115 -47.5 179t-149.5 64q-100 0 -148.5 -65.5t-48.5 -177.5v-750q0 -113 48.5 -178.5t148.5 -65.5q102 0 149.5 64.5t47.5 179.5v301h-172v107h286v-402q0 -166 -77.5 -263
t-237.5 -97q-158 0 -235.5 97t-77.5 263z" />
    <glyph glyph-name="h" unicode="h" horiz-adv-x="813" 
d="M82 0v1434h121v-664h409v664h119v-1434h-119v664h-409v-664h-121z" />
    <glyph glyph-name="i" unicode="i" horiz-adv-x="284" 
d="M82 0v1434h121v-1434h-121z" />
    <glyph glyph-name="j" unicode="j" horiz-adv-x="507" 
d="M41 0v111q29 -2 49.5 -1t32.5 1q96 8 142 61t46 174v1088h121v-1082q0 -182 -78 -263t-217 -89q-20 -2 -55 -2q-27 0 -41 2z" />
    <glyph glyph-name="k" unicode="k" horiz-adv-x="819" 
d="M82 0v1434h121v-732l432 732h125l-391 -662l409 -772h-123l-358 651l-94 -147v-504h-121z" />
    <glyph glyph-name="l" unicode="l" horiz-adv-x="675" 
d="M82 0v1434h121v-1323h434v-111h-555z" />
    <glyph glyph-name="m" unicode="m" horiz-adv-x="1048" 
d="M80 0v1434h172l274 -1217l269 1217h172v-1434h-115v1225l-268 -1223h-121l-277 1215v-1217h-106z" />
    <glyph glyph-name="n" unicode="n" horiz-adv-x="815" 
d="M80 0v1434h156l389 -1139v1139h108v-1434h-127l-416 1229v-1229h-110z" />
    <glyph glyph-name="o" unicode="o" horiz-adv-x="780" 
d="M70 348v737q0 166 79.5 263.5t239.5 97.5t241 -97.5t81 -263.5v-737q0 -166 -81 -263t-241 -97q-158 0 -238.5 97t-80.5 263zM190 342q0 -115 49.5 -179.5t149.5 -64.5q102 0 151.5 64.5t49.5 179.5v750q0 115 -49 179t-152 64q-100 0 -149.5 -64.5t-49.5 -178.5v-750z
" />
    <glyph glyph-name="p" unicode="p" horiz-adv-x="741" 
d="M82 0v1434h303q162 0 237.5 -91.5t75.5 -257.5v-163q0 -172 -81.5 -257t-251.5 -85h-162v-580h-121zM203 690h162q110 0 161.5 53.5t51.5 171.5v177q0 115 -44.5 173t-148.5 58h-182v-633z" />
    <glyph glyph-name="q" unicode="q" horiz-adv-x="794" 
d="M70 348v737q0 166 79.5 263.5t239.5 97.5t241 -97.5t81 -263.5v-737q0 -145 -62 -237q14 -29 39 -40.5t64 -11.5h20v-108h-24q-125 0 -175 88q-74 -51 -184 -51q-158 0 -238.5 97t-80.5 263zM190 342q0 -115 49.5 -179.5t149.5 -64.5q102 0 151.5 64.5t49.5 179.5v750
q0 115 -49 179t-152 64q-100 0 -149.5 -64.5t-49.5 -178.5v-750z" />
    <glyph glyph-name="r" unicode="r" horiz-adv-x="788" 
d="M82 0v1434h307q162 0 236.5 -83t74.5 -243v-121q0 -125 -47 -197.5t-147 -99.5q102 -25 149 -99.5t47 -195.5v-223q0 -117 31 -172h-123q-16 33 -22 72t-6 100v225q0 129 -62.5 180.5t-183.5 51.5h-133v-629h-121zM203 739h139q121 0 180.5 48.5t59.5 175.5v135
q0 111 -46.5 168t-148.5 57h-184v-584z" />
    <glyph glyph-name="s" unicode="s" horiz-adv-x="745" 
d="M59 344v78h113v-84q0 -113 49 -176.5t150 -63.5q100 0 148 63.5t48 176.5q0 74 -31.5 133t-77.5 102t-124 103q-88 68 -141.5 119t-90 123.5t-36.5 171.5q0 168 77.5 262t231.5 94q157 0 234 -96.5t77 -259.5v-35h-115v41q0 113 -46 176t-146 63q-193 0 -193 -237
q0 -76 32 -135.5t78 -102.5t126 -104q88 -68 140 -118t89 -123t37 -171q0 -164 -79 -260t-236 -96q-158 0 -236 96t-78 260z" />
    <glyph glyph-name="t" unicode="t" horiz-adv-x="731" 
d="M25 1323v111h680v-111h-281v-1323h-119v1323h-280z" />
    <glyph glyph-name="u" unicode="u" 
d="M76 348v1086h121v-1092q0 -115 47 -179.5t147 -64.5t147.5 64.5t47.5 179.5v1092h114v-1086q0 -166 -76.5 -264t-236.5 -98q-158 0 -234.5 98t-76.5 264z" />
    <glyph glyph-name="v" unicode="v" horiz-adv-x="851" 
d="M41 1434h123l268 -1293l266 1293h113l-293 -1434h-180z" />
    <glyph glyph-name="w" unicode="w" horiz-adv-x="1198" 
d="M47 1434h119l194 -1272l191 1268h123l182 -1266l188 1270h107l-215 -1434h-158l-170 1092l-176 -1092h-168z" />
    <glyph glyph-name="x" unicode="x" horiz-adv-x="878" 
d="M47 0l309 741l-288 693h127l249 -598l252 598h115l-287 -693l307 -741h-129l-268 647l-270 -647h-117z" />
    <glyph glyph-name="y" unicode="y" horiz-adv-x="815" 
d="M33 1434h125l254 -734l254 734h116l-315 -897v-537h-121v537z" />
    <glyph glyph-name="z" unicode="z" horiz-adv-x="774" 
d="M59 0v111l529 1212h-504v111h629v-111l-531 -1212h525v-111h-648z" />
    <glyph glyph-name="braceleft" unicode="{" horiz-adv-x="503" 
d="M41 664v106q76 10 98.5 46t26.5 122l16 281q14 215 191 215h82v-101h-41q-68 0 -93.5 -39t-29.5 -125l-12 -247q-4 -82 -30 -133.5t-102 -71.5q76 -20 100.5 -70.5t28.5 -134.5l15 -246q4 -86 29.5 -125t93.5 -39h41v-102h-82q-176 0 -191 215l-14 281q-4 86 -27.5 122.5
t-99.5 45.5z" />
    <glyph glyph-name="bar" unicode="|" horiz-adv-x="735" 
d="M324 -66v1565h102v-1565h-102z" />
    <glyph glyph-name="braceright" unicode="}" horiz-adv-x="505" 
d="M49 0v102h43q68 0 92.5 39t28.5 125l12 246q6 84 32 134t103 71q-76 20 -102.5 70.5t-32.5 136.5l-12 245q-4 86 -29.5 125t-91.5 39h-43v101h84q179 0 189 -217l14 -279q4 -86 27.5 -122t99.5 -46v-106q-76 -8 -99.5 -45t-27.5 -123l-17 -281q-14 -215 -186 -215h-84z
" />
    <glyph glyph-name="asciitilde" unicode="~" horiz-adv-x="786" 
d="M37 676q51 78 99 113.5t106 35.5q43 0 79.5 -16t92.5 -51q47 -29 77.5 -43.5t61.5 -14.5q39 0 66.5 25t68.5 86l62 -59q-49 -78 -95.5 -112t-103.5 -34q-39 0 -75 16.5t-89 49.5q-51 33 -82 47t-63 14q-41 0 -73 -26.5t-73 -85.5z" />
    <glyph glyph-name="uni00A0" unicode="&#xa0;" horiz-adv-x="317" 
 />
    <glyph glyph-name="exclamdown" unicode="&#xa1;" horiz-adv-x="284" 
d="M82 0v653l16 463h90l15 -463v-653h-121zM84 1247v187h117v-187h-117z" />
    <glyph glyph-name="cent" unicode="&#xa2;" 
d="M76 442v551q0 150 64.5 246t197.5 111v98h100v-98q135 -13 201 -105t66 -244v-71h-115v78q0 236 -197 235q-102 0 -149 -64.5t-47 -179.5v-563q0 -115 47 -179t149 -64q197 0 197 241v121h115v-115q0 -154 -66 -247t-201 -107v-100h-100v100q-133 12 -197.5 108.5
t-64.5 247.5z" />
    <glyph glyph-name="sterling" unicode="&#xa3;" horiz-adv-x="784" 
d="M68 0v106q86 53 144 140.5t58 193.5q0 27 -2 39h-174v96h158q-16 51 -66 154q-47 90 -71.5 167t-24.5 187q0 168 76 265.5t235 97.5q158 0 234 -99.5t76 -267.5v-98h-115v104q0 250 -190 250q-193 0 -193 -245q0 -106 22.5 -180t67.5 -169q51 -109 66 -166h288v-96h-278
q6 -90 -30 -177t-128 -191h490v-111h-643z" />
    <glyph glyph-name="currency" unicode="&#xa4;" horiz-adv-x="729" 
d="M72 475l100 98q-49 61 -49 144q0 82 49 141l-100 100l49 50l102 -99q61 49 139 49q82 0 144 -49l100 99l53 -50l-102 -100q49 -61 49 -141q0 -82 -49 -144l102 -98l-53 -49l-100 96q-61 -45 -144 -45q-78 0 -141 45l-100 -96zM201 717q0 -68 48 -116t113 -48q70 0 119 47
t49 117t-49 117t-119 47q-65 0 -113 -47.5t-48 -116.5z" />
    <glyph glyph-name="yen" unicode="&#xa5;" horiz-adv-x="843" 
d="M37 1434h127l262 -740l264 740h117l-318 -873h209v-67h-217v-138h217v-63h-217v-293h-119v293h-215v63h215v138h-215v67h205z" />
    <glyph glyph-name="brokenbar" unicode="&#xa6;" horiz-adv-x="737" 
d="M324 -66v660h102v-660h-102zM324 840v659h102v-659h-102z" />
    <glyph glyph-name="section" unicode="&#xa7;" horiz-adv-x="778" 
d="M76 125v76h114v-62q0 -82 56.5 -129t140.5 -47q80 0 137.5 43t57.5 121q0 70 -51.5 111t-161.5 90q-92 41 -150.5 76.5t-99.5 97t-41 151.5t56 159t145 103q-96 53 -148.5 111.5t-52.5 155.5q0 123 86 193.5t227 70.5q139 0 222 -73t83 -191v-45h-114v30q0 80 -53.5 128
t-135.5 48q-84 0 -139 -41.5t-55 -123.5q0 -68 52 -109t157 -88q94 -43 152 -80t99 -98.5t41 -153.5q0 -90 -50 -158.5t-136 -107.5q88 -47 138 -106.5t50 -155.5q0 -117 -89 -188.5t-224 -71.5q-141 0 -227 70.5t-86 193.5zM193 657q0 -84 56 -131t161 -94q76 18 126 75.5
t50 137.5t-52.5 129t-146.5 92q-80 -12 -137 -69.5t-57 -139.5z" />
    <glyph glyph-name="dieresis" unicode="&#xa8;" horiz-adv-x="387" 
d="M72 1522v178h106v-178h-106zM209 1522v178h106v-178h-106z" />
    <glyph glyph-name="copyright" unicode="&#xa9;" horiz-adv-x="1511" 
d="M55 717q0 205 90.5 368.5t250 258t360.5 94.5q200 0 360 -94.5t250 -258t90 -368.5t-90 -369t-250 -258t-360 -94q-201 0 -360.5 94t-250 258t-90.5 369zM137 717q0 -180 80 -326.5t220.5 -230.5t318.5 -84q176 0 318.5 84t222 230.5t79.5 326.5t-79.5 326.5t-222 230.5
t-318.5 84q-178 0 -318.5 -84t-220.5 -230.5t-80 -326.5zM528 518v395q0 117 54.5 185.5t165.5 68.5q108 0 162.5 -68.5t54.5 -185.5v-53h-82v60q0 166 -133 165q-70 0 -103 -44t-33 -121v-406q0 -78 33 -122t103 -44q133 0 133 166v86h82v-82q0 -117 -54.5 -184.5
t-162.5 -67.5q-111 0 -165.5 67.5t-54.5 184.5z" />
    <glyph glyph-name="ordfeminine" unicode="&#xaa;" horiz-adv-x="555" 
d="M68 874v9q0 236 331 239v109q0 68 -24.5 103.5t-81.5 35.5q-121 0 -121 -145v-31h-74v27q0 104 48.5 163.5t150.5 59.5q182 0 182 -223v-535h-69l-4 121q-20 -61 -63.5 -96t-104.5 -35q-84 0 -127 51t-43 147zM70 477v80h409v-80h-409zM150 881q0 -129 114 -129
q61 0 94 41t41 108v162q-112 -4 -180.5 -45t-68.5 -125v-12z" />
    <glyph glyph-name="guillemotleft" unicode="&#xab;" horiz-adv-x="595" 
d="M49 719l131 506h111l-131 -506l131 -520h-111zM305 719l131 506h111l-131 -506l131 -520h-111z" />
    <glyph glyph-name="logicalnot" unicode="&#xac;" horiz-adv-x="774" 
d="M61 674v88h652v-365h-88v277h-564z" />
    <glyph glyph-name="uni00AD" unicode="&#xad;" horiz-adv-x="534" 
d="M76 664v106h381v-106h-381z" />
    <glyph glyph-name="registered" unicode="&#xae;" horiz-adv-x="1511" 
d="M55 717q0 205 90.5 368.5t250 258t360.5 94.5q200 0 360 -94.5t250 -258t90 -368.5t-90 -369t-250 -258t-360 -94q-201 0 -360.5 94t-250 258t-90.5 369zM137 717q0 -180 80 -326.5t220.5 -230.5t318.5 -84q176 0 318.5 84t222 230.5t79.5 326.5t-79.5 326.5t-222 230.5
t-318.5 84q-178 0 -318.5 -84t-220.5 -230.5t-80 -326.5zM549 279v876h215q219 0 219 -229v-23q0 -82 -29.5 -134t-97.5 -73q68 -20 97.5 -70.5t29.5 -131.5v-95q0 -41 5 -69.5t20 -50.5h-90q-10 23 -14.5 49t-4.5 71v95q0 88 -45 122.5t-131 34.5h-88v-372h-86zM635 733
h106q80 0 118 34t38 118v33q0 78 -31.5 117.5t-105.5 39.5h-125v-342z" />
    <glyph glyph-name="macron" unicode="&#xaf;" horiz-adv-x="491" 
d="M41 1528v88h412v-88h-412z" />
    <glyph glyph-name="degree" unicode="&#xb0;" horiz-adv-x="419" 
d="M47 1290q0 68 47 114t115 46q67 0 115.5 -46t48.5 -114t-48.5 -115t-115.5 -47q-68 0 -115 47.5t-47 114.5zM106 1290q0 -43 30 -71.5t73 -28.5t72.5 28.5t29.5 71.5t-29.5 72t-72.5 29t-73 -29t-30 -72z" />
    <glyph glyph-name="plusminus" unicode="&#xb1;" horiz-adv-x="794" 
d="M76 379v88h278v225h-278v90h278v269h88v-269h277v-90h-277v-225h277v-88h-643z" />
    <glyph glyph-name="uni00B2" unicode="&#xb2;" horiz-adv-x="555" 
d="M84 719v59q0 109 44 182.5t130 163.5q76 82 113 141.5t37 139.5q0 162 -125 162q-63 0 -93 -43t-30 -115v-70h-76v66q0 106 50 170.5t153 64.5q102 0 151 -63.5t49 -169.5q0 -92 -42 -160.5t-126 -156.5q-78 -86 -116.5 -146.5t-38.5 -140.5v-10h313v-74h-393z" />
    <glyph glyph-name="uni00B3" unicode="&#xb3;" horiz-adv-x="555" 
d="M76 940v55h76v-61q0 -70 30.5 -111t91.5 -41q125 0 125 160v70q0 68 -32.5 105.5t-92.5 37.5h-59v74h61q55 0 89 39t34 100v37q0 160 -125 160q-61 0 -91.5 -41t-30.5 -111v-41h-76v35q0 109 50 170t153 61q100 0 149 -61t49 -170v-23q0 -70 -27.5 -118.5t-82.5 -69.5
q111 -37 110 -186v-70q0 -109 -49 -170t-149 -61q-102 0 -152.5 61t-50.5 170z" />
    <glyph glyph-name="acute" unicode="&#xb4;" horiz-adv-x="423" 
d="M63 1536l146 201h123l-180 -201h-89z" />
    <glyph glyph-name="uni00B5" unicode="&#xb5;" horiz-adv-x="794" 
d="M80 -188v1212h121v-678q0 -115 48 -179.5t146 -64.5t146.5 64.5t48.5 179.5v678h121v-1024h-111l2 170q-29 -84 -87 -132t-138 -48q-68 0 -113 34.5t-63 94.5v-307h-121z" />
    <glyph glyph-name="paragraph" unicode="&#xb6;" horiz-adv-x="798" 
d="M39 924v168q0 168 67.5 255t227.5 87h371v-1561h-89v1470h-227v-1470h-90v709q-135 4 -197.5 92t-62.5 250z" />
    <glyph glyph-name="periodcentered" unicode="&#xb7;" horiz-adv-x="280" 
d="M82 639v186h117v-186h-117z" />
    <glyph glyph-name="cedilla" unicode="&#xb8;" horiz-adv-x="499" 
d="M63 -172h84v-12q0 -37 30 -54.5t71 -19.5q41 0 70.5 19.5t29.5 58.5q0 43 -29.5 58.5t-80.5 15.5h-15v120h58v-94q71 0 112 -23.5t41 -78.5q0 -125 -186 -125q-80 0 -132.5 28.5t-52.5 92.5v14z" />
    <glyph glyph-name="uni00B9" unicode="&#xb9;" horiz-adv-x="372" 
d="M61 1446v61q62 2 98 34t56 87h59v-909h-79v784q-51 -47 -134 -57z" />
    <glyph glyph-name="ordmasculine" unicode="&#xba;" horiz-adv-x="559" 
d="M74 903v309q0 106 51 169t154 63q102 0 154 -62.5t52 -169.5v-309q0 -106 -52 -168.5t-154 -62.5t-153.5 62.5t-51.5 168.5zM76 479v80h409v-80h-409zM154 897q0 -72 30.5 -112t94.5 -40q66 0 96.5 40t30.5 112v322q0 72 -31 111.5t-96 39.5q-64 0 -94.5 -40t-30.5 -111
v-322z" />
    <glyph glyph-name="guillemotright" unicode="&#xbb;" horiz-adv-x="595" 
d="M49 199l131 520l-131 506h111l131 -506l-131 -520h-111zM305 199l131 520l-131 506h109l133 -506l-133 -520h-109z" />
    <glyph glyph-name="onequarter" unicode="&#xbc;" horiz-adv-x="1124" 
d="M117 1251v62q61 2 97 33.5t56 87.5h60v-910h-80v785q-51 -48 -133 -58zM260 0l565 1434h76l-565 -1434h-76zM614 190v74l293 645h90v-645h72v-74h-72v-190h-79v190h-304zM688 264h230v492z" />
    <glyph glyph-name="onehalf" unicode="&#xbd;" horiz-adv-x="1200" 
d="M117 1251v62q61 2 97 33.5t56 87.5h60v-910h-80v785q-51 -48 -133 -58zM229 0l566 1434h77l-565 -1434h-78zM729 0v59q0 109 44 182.5t130 164.5q76 82 113 141t37 139q0 162 -125 162q-61 0 -91 -43t-30 -115v-69h-78v65q0 106 50 171t153 65q102 0 151.5 -63.5
t49.5 -170.5q0 -92 -42 -159.5t-126 -155.5q-78 -86 -117 -146.5t-39 -140.5v-12h313v-74h-393z" />
    <glyph glyph-name="threequarters" unicode="&#xbe;" horiz-adv-x="1193" 
d="M76 745v56h76v-62q0 -70 30.5 -110.5t91.5 -40.5q125 0 125 160v69q0 68 -32.5 106t-92.5 38h-59v73h61q55 0 89 39t34 101v36q0 160 -125 160q-61 0 -91.5 -41t-30.5 -110v-41h-76v34q0 109 50 170.5t153 61.5q100 0 149 -61.5t49 -170.5v-22q0 -70 -27.5 -119
t-82.5 -70q111 -37 110 -186v-70q0 -109 -49 -170t-149 -61q-102 0 -152.5 61.5t-50.5 169.5zM340 0l565 1434h76l-565 -1434h-76zM684 190v74l293 645h90v-645h72v-74h-72v-190h-80v190h-303zM760 264h227v492z" />
    <glyph glyph-name="questiondown" unicode="&#xbf;" horiz-adv-x="722" 
d="M49 350q0 115 39 194t117 179q70 90 103.5 156.5t33.5 156.5q0 45 -8 78h106q13 -37 13 -80q0 -104 -35 -176t-105 -166q-72 -94 -107.5 -167.5t-35.5 -180.5q0 -248 192 -248q102 0 148.5 67.5t46.5 182.5v111h113v-103q0 -168 -77 -267t-235 -99t-233.5 97t-75.5 265z
M330 1247v187h116v-187h-116z" />
    <glyph glyph-name="Agrave" unicode="&#xc0;" horiz-adv-x="858" 
d="M41 0l299 1434h174l301 -1434h-121l-65 305h-412l-65 -305h-111zM236 410h376l-192 886zM244 1710h127l145 -201h-92z" />
    <glyph glyph-name="Aacute" unicode="&#xc1;" horiz-adv-x="858" 
d="M41 0l299 1434h174l301 -1434h-121l-65 305h-412l-65 -305h-111zM236 410h376l-192 886zM328 1509l145 203h123l-180 -203h-88z" />
    <glyph glyph-name="Acircumflex" unicode="&#xc2;" horiz-adv-x="858" 
d="M41 0l299 1434h174l301 -1434h-121l-65 305h-412l-65 -305h-111zM199 1509l174 193h106l174 -193h-108l-119 125l-119 -125h-108zM236 410h376l-192 886z" />
    <glyph glyph-name="Atilde" unicode="&#xc3;" horiz-adv-x="858" 
d="M41 0l299 1434h174l301 -1434h-121l-65 305h-412l-65 -305h-111zM193 1571q45 106 135 106q28 0 51.5 -9t54.5 -28q53 -29 82 -28q53 0 80 61l63 -43q-43 -104 -135 -104q-27 0 -49 8t-51 25q-49 31 -84 30q-57 0 -86 -61zM236 410h376l-192 886z" />
    <glyph glyph-name="Adieresis" unicode="&#xc4;" horiz-adv-x="858" 
d="M41 0l299 1434h174l301 -1434h-121l-65 305h-412l-65 -305h-111zM236 410h376l-192 886zM262 1509v177h107v-177h-107zM483 1509v177h107v-177h-107z" />
    <glyph glyph-name="Aring" unicode="&#xc5;" horiz-adv-x="858" 
d="M41 0l299 1434h174l301 -1434h-121l-65 305h-412l-65 -305h-111zM236 410h376l-192 886zM283 1655q0 59 41 99t102 40q59 0 100 -41t41 -98q0 -61 -41 -102.5t-100 -41.5q-61 0 -102 41t-41 103zM342 1655q0 -37 23.5 -59.5t60.5 -22.5q35 0 58.5 22.5t23.5 59.5
q0 33 -23.5 56.5t-58.5 23.5t-59.5 -23.5t-24.5 -56.5z" />
    <glyph glyph-name="AE" unicode="&#xc6;" horiz-adv-x="1185" 
d="M33 0l483 1434h604v-111h-415v-543h342v-106h-342v-563h415v-111h-534v309h-332l-107 -309h-114zM285 416h301v866z" />
    <glyph glyph-name="Ccedilla" unicode="&#xc7;" horiz-adv-x="761" 
d="M70 348v737q0 166 77.5 263.5t235.5 97.5q160 0 237.5 -97.5t77.5 -263.5v-122h-114v129q0 115 -47.5 179t-149.5 64q-100 0 -148.5 -65.5t-48.5 -177.5v-750q0 -113 48.5 -178.5t148.5 -65.5q102 0 149.5 64.5t47.5 179.5v176h114v-170q0 -158 -70.5 -255t-215.5 -105
v-66q70 0 110.5 -26.5t40.5 -77.5q0 -63 -51 -96t-135 -33q-82 0 -133 32.5t-51 92.5v14h81v-12q0 -33 30 -51.5t73 -20.5q45 0 74.5 19.5t29.5 56.5q0 70 -112 69h-17v99q-141 8 -211.5 106.5t-70.5 253.5z" />
    <glyph glyph-name="Egrave" unicode="&#xc8;" horiz-adv-x="722" 
d="M82 0v1434h575v-111h-454v-543h375v-106h-375v-563h454v-111h-575zM197 1726h127l145 -200h-92z" />
    <glyph glyph-name="Eacute" unicode="&#xc9;" horiz-adv-x="722" 
d="M82 0v1434h575v-111h-454v-543h375v-106h-375v-563h454v-111h-575zM285 1516l145 200h123l-182 -200h-86z" />
    <glyph glyph-name="Ecircumflex" unicode="&#xca;" horiz-adv-x="722" 
d="M82 0v1434h575v-111h-454v-543h375v-106h-375v-563h454v-111h-575zM141 1516l172 194h107l176 -194h-111l-118 129l-119 -129h-107z" />
    <glyph glyph-name="Edieresis" unicode="&#xcb;" horiz-adv-x="722" 
d="M82 0v1434h575v-111h-454v-543h375v-106h-375v-563h454v-111h-575zM205 1516v178h104v-178h-104zM424 1516v178h108v-178h-108z" />
    <glyph glyph-name="Igrave" unicode="&#xcc;" horiz-adv-x="286" 
d="M-51 1716h129l143 -200h-92zM82 0v1434h121v-1434h-121z" />
    <glyph glyph-name="Iacute" unicode="&#xcd;" horiz-adv-x="290" 
d="M63 1516l144 200h125l-180 -200h-89zM90 0v1434h121v-1434h-121z" />
    <glyph glyph-name="Icircumflex" unicode="&#xce;" horiz-adv-x="282" 
d="M-86 1516l174 192h107l174 -192h-109l-119 126l-118 -126h-109zM80 0v1434h123v-1434h-123z" />
    <glyph glyph-name="Idieresis" unicode="&#xcf;" horiz-adv-x="258" 
d="M-35 1516v178h107v-178h-107zM68 0v1434h120v-1434h-120zM186 1516v178h107v-178h-107z" />
    <glyph glyph-name="Eth" unicode="&#xd0;" horiz-adv-x="800" 
d="M-2 668v98h90v668h324q161 0 241 -94.5t80 -262.5v-723q0 -166 -80 -260t-241 -94h-324v668h-90zM209 111h201q102 0 152 62.5t50 176.5v733q0 115 -50 177.5t-152 62.5h-201v-557h174v-98h-174v-557z" />
    <glyph glyph-name="Ntilde" unicode="&#xd1;" horiz-adv-x="815" 
d="M80 0v1434h156l389 -1139v1139h108v-1434h-127l-416 1229v-1229h-110zM174 1583q45 106 143 107q27 0 50.5 -9.5t52.5 -25.5q4 -2 30.5 -15.5t51.5 -13.5q49 0 78 60l63 -41q-43 -107 -133 -107q-27 0 -50.5 9t-51.5 26q-29 16 -46.5 23.5t-37.5 7.5q-51 0 -86 -62z" />
    <glyph glyph-name="Ograve" unicode="&#xd2;" horiz-adv-x="780" 
d="M70 348v737q0 166 79.5 263.5t239.5 97.5t241 -97.5t81 -263.5v-737q0 -166 -81 -263t-241 -97q-158 0 -238.5 97t-80.5 263zM190 342q0 -115 49.5 -179.5t149.5 -64.5q102 0 151.5 64.5t49.5 179.5v750q0 115 -49 179t-152 64q-100 0 -149.5 -64.5t-49.5 -178.5v-750z
M207 1726h127l143 -200h-92z" />
    <glyph glyph-name="Oacute" unicode="&#xd3;" horiz-adv-x="780" 
d="M70 348v737q0 166 79.5 263.5t239.5 97.5t241 -97.5t81 -263.5v-737q0 -166 -81 -263t-241 -97q-158 0 -238.5 97t-80.5 263zM190 342q0 -115 49.5 -179.5t149.5 -64.5q102 0 151.5 64.5t49.5 179.5v750q0 115 -49 179t-152 64q-100 0 -149.5 -64.5t-49.5 -178.5v-750z
M303 1526l146 200h122l-180 -200h-88z" />
    <glyph glyph-name="Ocircumflex" unicode="&#xd4;" horiz-adv-x="780" 
d="M70 348v737q0 166 79.5 263.5t239.5 97.5t241 -97.5t81 -263.5v-737q0 -166 -81 -263t-241 -97q-158 0 -238.5 97t-80.5 263zM162 1522l174 194h106l176 -194h-110l-121 127l-117 -127h-108zM190 342q0 -115 49.5 -179.5t149.5 -64.5q102 0 151.5 64.5t49.5 179.5v750
q0 115 -49 179t-152 64q-100 0 -149.5 -64.5t-49.5 -178.5v-750z" />
    <glyph glyph-name="Otilde" unicode="&#xd5;" horiz-adv-x="780" 
d="M70 348v737q0 166 79.5 263.5t239.5 97.5t241 -97.5t81 -263.5v-737q0 -166 -81 -263t-241 -97q-158 0 -238.5 97t-80.5 263zM162 1581q47 104 141 105q27 0 48.5 -8.5t54.5 -26.5q49 -31 81 -31q49 0 80 61l62 -41q-39 -106 -131 -106q-27 0 -49.5 9t-51.5 26
q-53 31 -88 30q-51 0 -86 -61zM190 342q0 -115 49.5 -179.5t149.5 -64.5q102 0 151.5 64.5t49.5 179.5v750q0 115 -49 179t-152 64q-100 0 -149.5 -64.5t-49.5 -178.5v-750z" />
    <glyph glyph-name="Odieresis" unicode="&#xd6;" horiz-adv-x="780" 
d="M70 348v737q0 166 79.5 263.5t239.5 97.5t241 -97.5t81 -263.5v-737q0 -166 -81 -263t-241 -97q-158 0 -238.5 97t-80.5 263zM190 342q0 -115 49.5 -179.5t149.5 -64.5q102 0 151.5 64.5t49.5 179.5v750q0 115 -49 179t-152 64q-100 0 -149.5 -64.5t-49.5 -178.5v-750z
M225 1522v178h107v-178h-107zM446 1522v178h107v-178h-107z" />
    <glyph glyph-name="multiply" unicode="&#xd7;" horiz-adv-x="712" 
d="M80 500l215 217l-215 215l59 59l217 -215l217 215l60 -59l-217 -215l217 -217l-60 -60l-217 217l-217 -217z" />
    <glyph glyph-name="Ugrave" unicode="&#xd9;" 
d="M76 348v1086h121v-1092q0 -115 47 -179.5t147 -64.5t147.5 64.5t47.5 179.5v1092h114v-1086q0 -166 -76.5 -264t-236.5 -98q-158 0 -234.5 98t-76.5 264zM203 1716h129l143 -200h-92z" />
    <glyph glyph-name="Uacute" unicode="&#xda;" 
d="M76 348v1086h121v-1092q0 -115 47 -179.5t147 -64.5t147.5 64.5t47.5 179.5v1092h114v-1086q0 -166 -76.5 -264t-236.5 -98q-158 0 -234.5 98t-76.5 264zM313 1526l144 200h123l-181 -200h-86z" />
    <glyph glyph-name="Ucircumflex" unicode="&#xdb;" 
d="M76 348v1086h121v-1092q0 -115 47 -179.5t147 -64.5t147.5 64.5t47.5 179.5v1092h114v-1086q0 -166 -76.5 -264t-236.5 -98q-158 0 -234.5 98t-76.5 264zM164 1522l174 194h106l177 -194h-111l-121 127l-117 -127h-108z" />
    <glyph glyph-name="Udieresis" unicode="&#xdc;" 
d="M76 348v1086h121v-1092q0 -115 47 -179.5t147 -64.5t147.5 64.5t47.5 179.5v1092h114v-1086q0 -166 -76.5 -264t-236.5 -98q-158 0 -234.5 98t-76.5 264zM225 1520v178h107v-178h-107zM446 1520v178h109v-178h-109z" />
    <glyph glyph-name="Yacute" unicode="&#xdd;" horiz-adv-x="815" 
d="M33 1434h125l254 -734l254 734h116l-315 -897v-537h-121v537zM332 1516l147 200h121l-180 -200h-88z" />
    <glyph glyph-name="Thorn" unicode="&#xde;" horiz-adv-x="753" 
d="M82 0v1434h121v-232h182q162 0 237.5 -92t75.5 -258v-162q0 -172 -81.5 -258t-251.5 -86h-162v-346h-121zM203 457h162q110 0 161.5 53t51.5 172v176q0 115 -45.5 174.5t-147.5 59.5h-182v-635z" />
    <glyph glyph-name="germandbls" unicode="&#xdf;" horiz-adv-x="1462" 
d="M55 344v78h113v-84q0 -113 49 -176.5t150 -63.5q102 0 149 63.5t47 176.5q0 74 -31.5 133t-77.5 102t-124 103q-88 68 -141.5 119t-90.5 123.5t-37 171.5q0 168 77 262t233 94q157 0 234 -96.5t77 -259.5v-35h-115v41q0 113 -47 176t-147 63q-98 0 -144.5 -63.5
t-46.5 -173.5q0 -76 32 -135.5t78 -102.5t126 -104q88 -68 140 -118t89 -123t37 -171q0 -164 -78 -260t-237 -96q-158 0 -236 96t-78 260zM776 344v78h115v-84q0 -113 49 -176.5t150 -63.5q100 0 148 63.5t48 176.5q0 76 -31.5 134t-79 101t-124.5 103q-88 68 -141.5 119
t-90.5 123.5t-37 171.5q0 168 78 262t234 94q157 0 234 -96.5t77 -259.5v-35h-115v41q0 113 -46 176t-146 63t-147.5 -63.5t-47.5 -173.5q0 -76 32 -135.5t78 -102.5t126 -104q90 -70 142 -119t89 -123t37 -170q0 -164 -79 -260t-236 -96q-158 0 -237 96t-79 260z" />
    <glyph glyph-name="agrave" unicode="&#xe0;" horiz-adv-x="858" 
d="M41 0l299 1434h174l301 -1434h-121l-65 305h-412l-65 -305h-111zM236 410h376l-192 886zM244 1710h127l145 -201h-92z" />
    <glyph glyph-name="aacute" unicode="&#xe1;" horiz-adv-x="858" 
d="M41 0l299 1434h174l301 -1434h-121l-65 305h-412l-65 -305h-111zM236 410h376l-192 886zM328 1509l145 203h123l-180 -203h-88z" />
    <glyph glyph-name="acircumflex" unicode="&#xe2;" horiz-adv-x="858" 
d="M41 0l299 1434h174l301 -1434h-121l-65 305h-412l-65 -305h-111zM199 1509l174 193h106l174 -193h-108l-119 125l-119 -125h-108zM236 410h376l-192 886z" />
    <glyph glyph-name="atilde" unicode="&#xe3;" horiz-adv-x="858" 
d="M41 0l299 1434h174l301 -1434h-121l-65 305h-412l-65 -305h-111zM193 1571q45 106 135 106q28 0 51.5 -9t54.5 -28q53 -29 82 -28q55 0 82 61l61 -43q-43 -104 -135 -104q-27 0 -49 8t-53 25q-49 31 -84 30q-55 0 -84 -61zM236 410h376l-192 886z" />
    <glyph glyph-name="adieresis" unicode="&#xe4;" horiz-adv-x="858" 
d="M41 0l299 1434h174l301 -1434h-121l-65 305h-412l-65 -305h-111zM236 410h376l-192 886zM262 1509v177h107v-177h-107zM483 1509v177h107v-177h-107z" />
    <glyph glyph-name="aring" unicode="&#xe5;" horiz-adv-x="858" 
d="M41 0l299 1434h174l301 -1434h-121l-65 305h-412l-65 -305h-111zM236 410h376l-192 886zM283 1655q0 59 41 99t102 40q59 0 100 -41t41 -98q0 -61 -41 -102.5t-100 -41.5q-61 0 -102 41t-41 103zM342 1655q0 -37 23.5 -59.5t60.5 -22.5q35 0 58.5 22.5t23.5 59.5
q0 33 -23.5 56.5t-58.5 23.5t-59.5 -23.5t-24.5 -56.5z" />
    <glyph glyph-name="ae" unicode="&#xe6;" horiz-adv-x="1185" 
d="M33 0l483 1434h604v-111h-415v-543h342v-106h-342v-563h415v-111h-534v309h-332l-107 -309h-114zM285 416h301v866z" />
    <glyph glyph-name="ccedilla" unicode="&#xe7;" horiz-adv-x="761" 
d="M70 348v737q0 166 77.5 263.5t235.5 97.5q160 0 237.5 -97.5t77.5 -263.5v-122h-114v129q0 115 -47.5 179t-149.5 64q-100 0 -148.5 -65.5t-48.5 -177.5v-750q0 -113 48.5 -178.5t148.5 -65.5q102 0 149.5 64.5t47.5 179.5v176h114v-170q0 -158 -70.5 -255t-215.5 -105
v-62q70 -2 110.5 -29.5t40.5 -78.5q0 -63 -51 -96t-135 -33q-82 0 -133 32.5t-51 92.5v14h81v-12q0 -33 30 -51.5t73 -20.5q45 0 74.5 19.5t29.5 56.5q0 70 -112 69h-17v99q-141 8 -211.5 106.5t-70.5 253.5z" />
    <glyph glyph-name="egrave" unicode="&#xe8;" horiz-adv-x="722" 
d="M82 0v1434h575v-111h-454v-543h375v-106h-375v-563h454v-111h-575zM197 1726h127l145 -200h-92z" />
    <glyph glyph-name="eacute" unicode="&#xe9;" horiz-adv-x="722" 
d="M82 0v1434h575v-111h-454v-543h375v-106h-375v-563h454v-111h-575zM285 1516l145 200h123l-182 -200h-86z" />
    <glyph glyph-name="ecircumflex" unicode="&#xea;" horiz-adv-x="722" 
d="M82 0v1434h575v-111h-454v-543h375v-106h-375v-563h454v-111h-575zM141 1516l172 194h107l176 -194h-111l-118 129l-119 -129h-107z" />
    <glyph glyph-name="edieresis" unicode="&#xeb;" horiz-adv-x="722" 
d="M82 0v1434h575v-111h-454v-543h375v-106h-375v-563h454v-111h-575zM205 1516v178h104v-178h-104zM424 1516v178h108v-178h-108z" />
    <glyph glyph-name="igrave" unicode="&#xec;" horiz-adv-x="286" 
d="M-51 1716h129l143 -200h-92zM82 0v1434h121v-1434h-121z" />
    <glyph glyph-name="iacute" unicode="&#xed;" horiz-adv-x="290" 
d="M63 1516l144 200h125l-180 -200h-89zM90 0v1434h121v-1434h-121z" />
    <glyph glyph-name="icircumflex" unicode="&#xee;" horiz-adv-x="282" 
d="M-86 1516l174 192h107l174 -192h-109l-119 126l-118 -126h-109zM80 0v1434h123v-1434h-123z" />
    <glyph glyph-name="idieresis" unicode="&#xef;" horiz-adv-x="258" 
d="M-35 1516v178h107v-178h-107zM68 0v1434h120v-1434h-120zM186 1516v178h107v-178h-107z" />
    <glyph glyph-name="eth" unicode="&#xf0;" horiz-adv-x="798" 
d="M2 666v98h84v670h324q161 0 241 -94.5t80 -262.5v-723q0 -166 -80 -260t-241 -94h-324v666h-84zM207 111h201q102 0 152 62.5t50 176.5v733q0 115 -50 177.5t-154 62.5h-199v-559h174v-98h-174v-555z" />
    <glyph glyph-name="ntilde" unicode="&#xf1;" horiz-adv-x="815" 
d="M80 0v1434h156l389 -1139v1139h108v-1434h-127l-416 1229v-1229h-110zM174 1583q45 106 143 107q27 0 50.5 -9.5t52.5 -25.5q4 -2 30.5 -15.5t51.5 -13.5q49 0 78 60l63 -41q-43 -107 -133 -107q-27 0 -50.5 9t-51.5 26q-29 16 -46.5 23.5t-37.5 7.5q-51 0 -86 -62z" />
    <glyph glyph-name="ograve" unicode="&#xf2;" horiz-adv-x="780" 
d="M70 348v737q0 166 79.5 263.5t239.5 97.5t241 -97.5t81 -263.5v-737q0 -166 -81 -263t-241 -97q-158 0 -238.5 97t-80.5 263zM190 342q0 -115 49.5 -179.5t149.5 -64.5q102 0 151.5 64.5t49.5 179.5v750q0 115 -49 179t-152 64q-100 0 -149.5 -64.5t-49.5 -178.5v-750z
M207 1726h127l143 -200h-92z" />
    <glyph glyph-name="oacute" unicode="&#xf3;" horiz-adv-x="780" 
d="M70 348v737q0 166 79.5 263.5t239.5 97.5t241 -97.5t81 -263.5v-737q0 -166 -81 -263t-241 -97q-158 0 -238.5 97t-80.5 263zM190 342q0 -115 49.5 -179.5t149.5 -64.5q102 0 151.5 64.5t49.5 179.5v750q0 115 -49 179t-152 64q-100 0 -149.5 -64.5t-49.5 -178.5v-750z
M303 1526l146 200h122l-180 -200h-88z" />
    <glyph glyph-name="ocircumflex" unicode="&#xf4;" horiz-adv-x="780" 
d="M70 348v737q0 166 79.5 263.5t239.5 97.5t241 -97.5t81 -263.5v-737q0 -166 -81 -263t-241 -97q-158 0 -238.5 97t-80.5 263zM162 1522l174 194h106l176 -194h-110l-121 127l-117 -127h-108zM190 342q0 -115 49.5 -179.5t149.5 -64.5q102 0 151.5 64.5t49.5 179.5v750
q0 115 -49 179t-152 64q-100 0 -149.5 -64.5t-49.5 -178.5v-750z" />
    <glyph glyph-name="otilde" unicode="&#xf5;" horiz-adv-x="780" 
d="M70 348v737q0 166 79.5 263.5t239.5 97.5t241 -97.5t81 -263.5v-737q0 -166 -81 -263t-241 -97q-158 0 -238.5 97t-80.5 263zM162 1581q47 104 141 105q27 0 48.5 -8.5t54.5 -26.5q49 -31 81 -31q49 0 80 61l62 -41q-39 -106 -131 -106q-27 0 -49.5 9t-51.5 26
q-53 31 -88 30q-51 0 -86 -61zM190 342q0 -115 49.5 -179.5t149.5 -64.5q102 0 151.5 64.5t49.5 179.5v750q0 115 -49 179t-152 64q-100 0 -149.5 -64.5t-49.5 -178.5v-750z" />
    <glyph glyph-name="odieresis" unicode="&#xf6;" horiz-adv-x="780" 
d="M70 348v737q0 166 79.5 263.5t239.5 97.5t241 -97.5t81 -263.5v-737q0 -166 -81 -263t-241 -97q-158 0 -238.5 97t-80.5 263zM190 342q0 -115 49.5 -179.5t149.5 -64.5q102 0 151.5 64.5t49.5 179.5v750q0 115 -49 179t-152 64q-100 0 -149.5 -64.5t-49.5 -178.5v-750z
M225 1522v178h107v-178h-107zM446 1522v178h107v-178h-107z" />
    <glyph glyph-name="divide" unicode="&#xf7;" horiz-adv-x="651" 
d="M61 674v88h529v-88h-529zM266 387v188h117v-188h-117zM266 858v189h117v-189h-117z" />
    <glyph glyph-name="ugrave" unicode="&#xf9;" 
d="M76 348v1086h121v-1092q0 -115 47 -179.5t147 -64.5t147.5 64.5t47.5 179.5v1092h114v-1086q0 -166 -76.5 -264t-236.5 -98q-158 0 -234.5 98t-76.5 264zM203 1716h129l143 -200h-92z" />
    <glyph glyph-name="uacute" unicode="&#xfa;" 
d="M76 348v1086h121v-1092q0 -115 47 -179.5t147 -64.5t147.5 64.5t47.5 179.5v1092h114v-1086q0 -166 -76.5 -264t-236.5 -98q-158 0 -234.5 98t-76.5 264zM313 1526l144 200h123l-181 -200h-86z" />
    <glyph glyph-name="ucircumflex" unicode="&#xfb;" 
d="M76 348v1086h121v-1092q0 -115 47 -179.5t147 -64.5t147.5 64.5t47.5 179.5v1092h114v-1086q0 -166 -76.5 -264t-236.5 -98q-158 0 -234.5 98t-76.5 264zM164 1522l174 194h106l177 -194h-111l-121 127l-117 -127h-108z" />
    <glyph glyph-name="udieresis" unicode="&#xfc;" 
d="M76 348v1086h121v-1092q0 -115 47 -179.5t147 -64.5t147.5 64.5t47.5 179.5v1092h114v-1086q0 -166 -76.5 -264t-236.5 -98q-158 0 -234.5 98t-76.5 264zM225 1520v178h107v-178h-107zM446 1520v178h109v-178h-109z" />
    <glyph glyph-name="yacute" unicode="&#xfd;" horiz-adv-x="815" 
d="M33 1434h125l254 -734l254 734h116l-315 -897v-537h-121v537zM332 1516l147 200h121l-180 -200h-88z" />
    <glyph glyph-name="thorn" unicode="&#xfe;" horiz-adv-x="753" 
d="M82 0v1434h121v-232h182q162 0 237.5 -92t75.5 -258v-162q0 -172 -81.5 -258t-251.5 -86h-162v-346h-121zM203 457h162q110 0 161.5 53t51.5 172v176q0 115 -45.5 174.5t-147.5 59.5h-182v-635z" />
    <glyph glyph-name="ydieresis" unicode="&#xff;" horiz-adv-x="815" 
d="M33 1434h125l254 -734l254 734h116l-315 -897v-537h-121v537zM246 1516v178h106v-178h-106zM467 1516v178h106v-178h-106z" />
    <glyph glyph-name="Amacron" unicode="&#x100;" horiz-adv-x="858" 
d="M41 0l299 1434h174l301 -1434h-121l-65 305h-412l-65 -305h-111zM221 1548v86h412v-86h-412zM236 410h376l-192 886z" />
    <glyph glyph-name="amacron" unicode="&#x101;" horiz-adv-x="858" 
d="M41 0l299 1434h174l301 -1434h-121l-65 305h-412l-65 -305h-111zM221 1548v86h412v-86h-412zM236 410h376l-192 886z" />
    <glyph glyph-name="Abreve" unicode="&#x102;" horiz-adv-x="858" 
d="M41 0l299 1434h174l301 -1434h-121l-65 305h-412l-65 -305h-111zM223 1692h74q2 -57 37 -85t90 -28q57 0 94 27.5t39 85.5h74q-2 -88 -58.5 -139.5t-148.5 -51.5q-90 0 -144.5 51.5t-56.5 139.5zM236 410h376l-192 886z" />
    <glyph glyph-name="abreve" unicode="&#x103;" horiz-adv-x="858" 
d="M41 0l299 1434h174l301 -1434h-121l-65 305h-412l-65 -305h-111zM223 1692h74q2 -57 37 -85t90 -28q57 0 94 27.5t39 85.5h74q-2 -88 -58.5 -139.5t-148.5 -51.5q-90 0 -144.5 51.5t-56.5 139.5zM236 410h376l-192 886z" />
    <glyph glyph-name="Aogonek" unicode="&#x104;" horiz-adv-x="874" 
d="M41 0l299 1434h174l301 -1434h-39q-35 -29 -59.5 -72t-24.5 -78q0 -33 22.5 -51t57.5 -18q47 0 86 24v-69q-51 -25 -119 -25q-66 0 -104.5 29t-38.5 84q0 43 27.5 88t72.5 80l-67 313h-412l-65 -305h-111zM236 410h376l-192 886z" />
    <glyph glyph-name="aogonek" unicode="&#x105;" horiz-adv-x="874" 
d="M41 0l299 1434h174l301 -1434h-41q-35 -29 -58.5 -72t-23.5 -78q0 -33 22.5 -50t57.5 -17q51 0 86 22v-69q-51 -25 -119 -25q-66 0 -104.5 29t-38.5 84q0 43 27.5 88t72.5 80l-67 313h-412l-65 -305h-111zM236 410h376l-192 886z" />
    <glyph glyph-name="Cacute" unicode="&#x106;" horiz-adv-x="761" 
d="M70 348v737q0 166 77.5 263.5t235.5 97.5q160 0 237.5 -97.5t77.5 -263.5v-122h-114v129q0 115 -47.5 179t-149.5 64q-100 0 -148.5 -65.5t-48.5 -177.5v-750q0 -113 48.5 -178.5t148.5 -65.5q102 0 149.5 64.5t47.5 179.5v176h114v-170q0 -166 -77.5 -263t-237.5 -97
q-158 0 -235.5 97t-77.5 263zM305 1526l144 200h124l-182 -200h-86z" />
    <glyph glyph-name="cacute" unicode="&#x107;" horiz-adv-x="761" 
d="M70 348v737q0 166 77.5 263.5t235.5 97.5q160 0 237.5 -97.5t77.5 -263.5v-122h-114v129q0 115 -47.5 179t-149.5 64q-100 0 -148.5 -65.5t-48.5 -177.5v-750q0 -113 48.5 -178.5t148.5 -65.5q102 0 149.5 64.5t47.5 179.5v176h114v-170q0 -166 -77.5 -263t-237.5 -97
q-158 0 -235.5 97t-77.5 263zM305 1526l144 200h124l-182 -200h-86z" />
    <glyph glyph-name="Ccircumflex" unicode="&#x108;" horiz-adv-x="761" 
d="M70 348v737q0 166 77.5 263.5t235.5 97.5q160 0 237.5 -97.5t77.5 -263.5v-122h-114v129q0 115 -47.5 179t-149.5 64q-100 0 -148.5 -65.5t-48.5 -177.5v-750q0 -113 48.5 -178.5t148.5 -65.5q102 0 149.5 64.5t47.5 179.5v176h114v-170q0 -166 -77.5 -263t-237.5 -97
q-158 0 -235.5 97t-77.5 263zM164 1520l172 194h106l176 -194h-110l-119 127l-119 -127h-106z" />
    <glyph glyph-name="ccircumflex" unicode="&#x109;" horiz-adv-x="761" 
d="M70 348v737q0 166 77.5 263.5t235.5 97.5q160 0 237.5 -97.5t77.5 -263.5v-122h-114v129q0 115 -47.5 179t-149.5 64q-100 0 -148.5 -65.5t-48.5 -177.5v-750q0 -113 48.5 -178.5t148.5 -65.5q102 0 149.5 64.5t47.5 179.5v176h114v-170q0 -166 -77.5 -263t-237.5 -97
q-158 0 -235.5 97t-77.5 263zM164 1520l172 194h106l176 -194h-110l-119 127l-119 -127h-106z" />
    <glyph glyph-name="Cdotaccent" unicode="&#x10a;" horiz-adv-x="761" 
d="M70 348v737q0 166 77.5 263.5t235.5 97.5q160 0 237.5 -97.5t77.5 -263.5v-122h-114v129q0 115 -47.5 179t-149.5 64q-100 0 -148.5 -65.5t-48.5 -177.5v-750q0 -113 48.5 -178.5t148.5 -65.5q102 0 149.5 64.5t47.5 179.5v176h114v-170q0 -166 -77.5 -263t-237.5 -97
q-158 0 -235.5 97t-77.5 263zM332 1513v179h104v-179h-104z" />
    <glyph glyph-name="cdotaccent" unicode="&#x10b;" horiz-adv-x="761" 
d="M70 348v737q0 166 77.5 263.5t235.5 97.5q160 0 237.5 -97.5t77.5 -263.5v-122h-114v129q0 115 -47.5 179t-149.5 64q-100 0 -148.5 -65.5t-48.5 -177.5v-750q0 -113 48.5 -178.5t148.5 -65.5q102 0 149.5 64.5t47.5 179.5v176h114v-170q0 -166 -77.5 -263t-237.5 -97
q-158 0 -235.5 97t-77.5 263zM332 1513v179h104v-179h-104z" />
    <glyph glyph-name="Ccaron" unicode="&#x10c;" horiz-adv-x="761" 
d="M70 348v737q0 166 77.5 263.5t235.5 97.5q160 0 237.5 -97.5t77.5 -263.5v-122h-114v129q0 115 -47.5 179t-149.5 64q-100 0 -148.5 -65.5t-48.5 -177.5v-750q0 -113 48.5 -178.5t148.5 -65.5q102 0 149.5 64.5t47.5 179.5v176h114v-170q0 -166 -77.5 -263t-237.5 -97
q-158 0 -235.5 97t-77.5 263zM166 1714h106l119 -127l119 127h111l-177 -192h-106z" />
    <glyph glyph-name="ccaron" unicode="&#x10d;" horiz-adv-x="761" 
d="M70 348v737q0 166 77.5 263.5t235.5 97.5q160 0 237.5 -97.5t77.5 -263.5v-122h-114v129q0 115 -47.5 179t-149.5 64q-100 0 -148.5 -65.5t-48.5 -177.5v-750q0 -113 48.5 -178.5t148.5 -65.5q102 0 149.5 64.5t47.5 179.5v176h114v-170q0 -166 -77.5 -263t-237.5 -97
q-158 0 -235.5 97t-77.5 263zM166 1714h106l119 -127l119 127h111l-177 -192h-106z" />
    <glyph glyph-name="Dcaron" unicode="&#x10e;" horiz-adv-x="792" 
d="M82 0v1434h324q161 0 240 -94.5t79 -262.5v-723q0 -166 -80 -260t-239 -94h-324zM152 1708h106l119 -129l119 129h112l-176 -192h-106zM203 111h200q103 0 153 62.5t50 176.5v733q0 115 -50 177.5t-153 62.5h-200v-1212z" />
    <glyph glyph-name="dcaron" unicode="&#x10f;" horiz-adv-x="792" 
d="M82 0v1434h324q161 0 240 -94.5t79 -262.5v-723q0 -166 -80 -260t-239 -94h-324zM152 1708h106l119 -129l119 129h112l-176 -192h-106zM203 111h200q103 0 153 62.5t50 176.5v733q0 115 -50 177.5t-153 62.5h-200v-1212z" />
    <glyph glyph-name="Dcroat" unicode="&#x110;" horiz-adv-x="798" 
d="M2 666v98h84v670h324q161 0 241 -94.5t80 -262.5v-723q0 -166 -80 -260t-241 -94h-324v666h-84zM207 111h201q102 0 152 62.5t50 176.5v733q0 115 -50 177.5t-154 62.5h-199v-559h174v-98h-174v-555z" />
    <glyph glyph-name="dcroat" unicode="&#x111;" horiz-adv-x="798" 
d="M2 666v98h84v670h324q161 0 241 -94.5t80 -262.5v-723q0 -166 -80 -260t-241 -94h-324v666h-84zM207 111h201q102 0 152 62.5t50 176.5v733q0 115 -50 177.5t-154 62.5h-199v-559h174v-98h-174v-555z" />
    <glyph glyph-name="Emacron" unicode="&#x112;" horiz-adv-x="722" 
d="M82 0v1434h575v-111h-454v-543h375v-106h-375v-563h454v-111h-575zM162 1552v86h403v-86h-403z" />
    <glyph glyph-name="emacron" unicode="&#x113;" horiz-adv-x="722" 
d="M82 0v1434h575v-111h-454v-543h375v-106h-375v-563h454v-111h-575zM162 1552v86h403v-86h-403z" />
    <glyph glyph-name="Ebreve" unicode="&#x114;" horiz-adv-x="722" 
d="M82 0v1434h575v-111h-454v-543h375v-106h-375v-563h454v-111h-575zM162 1710h76q2 -57 36.5 -85t90.5 -28q57 0 93 28t38 85h75q-2 -88 -58 -139t-148 -51t-146.5 50t-56.5 140z" />
    <glyph glyph-name="ebreve" unicode="&#x115;" horiz-adv-x="722" 
d="M82 0v1434h575v-111h-454v-543h375v-106h-375v-563h454v-111h-575zM162 1710h76q2 -57 36.5 -85t90.5 -28q57 0 93 28t38 85h75q-2 -88 -58 -139t-148 -51t-146.5 50t-56.5 140z" />
    <glyph glyph-name="Edotaccent" unicode="&#x116;" horiz-adv-x="722" 
d="M82 0v1434h575v-111h-454v-543h375v-106h-375v-563h454v-111h-575zM317 1518v178h107v-178h-107z" />
    <glyph glyph-name="edotaccent" unicode="&#x117;" horiz-adv-x="722" 
d="M82 0v1434h575v-111h-454v-543h375v-106h-375v-563h454v-111h-575zM317 1518v178h107v-178h-107z" />
    <glyph glyph-name="Eogonek" unicode="&#x118;" horiz-adv-x="733" 
d="M82 0v1434h575v-111h-454v-543h375v-106h-375v-563h454v-111h-55q-37 -29 -61.5 -72t-24.5 -78q0 -33 22.5 -51t57.5 -18q43 0 86 24v-69q-51 -25 -119 -25q-66 0 -103.5 29t-37.5 84q0 45 32.5 92t84.5 84h-457z" />
    <glyph glyph-name="eogonek" unicode="&#x119;" horiz-adv-x="733" 
d="M82 0v1434h575v-111h-454v-543h375v-106h-375v-563h454v-111h-57q-37 -29 -60.5 -72t-23.5 -78q0 -33 22.5 -51t57.5 -18q43 0 86 24v-69q-51 -25 -119 -25q-66 0 -103.5 29t-37.5 84q0 45 32.5 92t84.5 84h-457z" />
    <glyph glyph-name="Ecaron" unicode="&#x11a;" horiz-adv-x="722" 
d="M82 0v1434h575v-111h-454v-543h375v-106h-375v-563h454v-111h-575zM145 1708h109l117 -127l118 127h111l-176 -192h-107z" />
    <glyph glyph-name="ecaron" unicode="&#x11b;" horiz-adv-x="722" 
d="M82 0v1434h575v-111h-454v-543h375v-106h-375v-563h454v-111h-575zM145 1708h109l117 -127l118 127h111l-176 -192h-107z" />
    <glyph glyph-name="Gcircumflex" unicode="&#x11c;" horiz-adv-x="768" 
d="M70 348v737q0 166 77.5 263.5t235.5 97.5q160 0 237.5 -97.5t77.5 -263.5v-112h-114v119q0 115 -47.5 179t-149.5 64q-100 0 -148.5 -65.5t-48.5 -177.5v-750q0 -113 48.5 -178.5t148.5 -65.5q102 0 149.5 64.5t47.5 179.5v301h-172v107h286v-402q0 -166 -77.5 -263
t-237.5 -97q-158 0 -235.5 97t-77.5 263zM160 1526l172 192h106l176 -192h-110l-119 127l-119 -127h-106z" />
    <glyph glyph-name="gcircumflex" unicode="&#x11d;" horiz-adv-x="768" 
d="M70 348v737q0 166 77.5 263.5t235.5 97.5q160 0 237.5 -97.5t77.5 -263.5v-112h-114v119q0 115 -47.5 179t-149.5 64q-100 0 -148.5 -65.5t-48.5 -177.5v-750q0 -113 48.5 -178.5t148.5 -65.5q102 0 149.5 64.5t47.5 179.5v301h-172v107h286v-402q0 -166 -77.5 -263
t-237.5 -97q-158 0 -235.5 97t-77.5 263zM160 1526l172 192h106l176 -192h-110l-119 127l-119 -127h-106z" />
    <glyph glyph-name="Gbreve" unicode="&#x11e;" horiz-adv-x="768" 
d="M70 348v737q0 166 77.5 263.5t235.5 97.5q160 0 237.5 -97.5t77.5 -263.5v-112h-114v119q0 115 -47.5 179t-149.5 64q-100 0 -148.5 -65.5t-48.5 -177.5v-750q0 -113 48.5 -178.5t148.5 -65.5q102 0 149.5 64.5t47.5 179.5v301h-172v107h286v-402q0 -166 -77.5 -263
t-237.5 -97q-158 0 -235.5 97t-77.5 263zM180 1714h76q8 -113 129 -112q55 0 91 27.5t40 84.5h74q-2 -90 -57.5 -140t-147.5 -50t-147.5 50t-57.5 140z" />
    <glyph glyph-name="gbreve" unicode="&#x11f;" horiz-adv-x="768" 
d="M70 348v737q0 166 77.5 263.5t235.5 97.5q160 0 237.5 -97.5t77.5 -263.5v-112h-114v119q0 115 -47.5 179t-149.5 64q-100 0 -148.5 -65.5t-48.5 -177.5v-750q0 -113 48.5 -178.5t148.5 -65.5q102 0 149.5 64.5t47.5 179.5v301h-172v107h286v-402q0 -166 -77.5 -263
t-237.5 -97q-158 0 -235.5 97t-77.5 263zM180 1714h76q8 -113 129 -112q55 0 91 27.5t40 84.5h74q-2 -90 -57.5 -140t-147.5 -50t-147.5 50t-57.5 140z" />
    <glyph glyph-name="Gdotaccent" unicode="&#x120;" horiz-adv-x="768" 
d="M70 348v737q0 166 77.5 263.5t235.5 97.5q160 0 237.5 -97.5t77.5 -263.5v-112h-114v119q0 115 -47.5 179t-149.5 64q-100 0 -148.5 -65.5t-48.5 -177.5v-750q0 -113 48.5 -178.5t148.5 -65.5q102 0 149.5 64.5t47.5 179.5v301h-172v107h286v-402q0 -166 -77.5 -263
t-237.5 -97q-158 0 -235.5 97t-77.5 263zM340 1520v178h106v-178h-106z" />
    <glyph glyph-name="gdotaccent" unicode="&#x121;" horiz-adv-x="768" 
d="M70 348v737q0 166 77.5 263.5t235.5 97.5q160 0 237.5 -97.5t77.5 -263.5v-112h-114v119q0 115 -47.5 179t-149.5 64q-100 0 -148.5 -65.5t-48.5 -177.5v-750q0 -113 48.5 -178.5t148.5 -65.5q102 0 149.5 64.5t47.5 179.5v301h-172v107h286v-402q0 -166 -77.5 -263
t-237.5 -97q-158 0 -235.5 97t-77.5 263zM340 1520v178h106v-178h-106z" />
    <glyph glyph-name="Hcircumflex" unicode="&#x124;" horiz-adv-x="813" 
d="M82 0v1434h121v-664h409v664h119v-1434h-119v664h-409v-664h-121zM180 1522l174 194h107l174 -194h-111l-116 127l-119 -127h-109z" />
    <glyph glyph-name="hcircumflex" unicode="&#x125;" horiz-adv-x="813" 
d="M82 0v1434h121v-664h409v664h119v-1434h-119v664h-409v-664h-121zM180 1522l174 194h107l174 -194h-111l-116 127l-119 -127h-109z" />
    <glyph glyph-name="Hbar" unicode="&#x126;" horiz-adv-x="831" 
d="M14 1067v90h76v277h121v-277h407v277h123v-277h76v-90h-76v-1067h-123v664h-407v-664h-121v1067h-76zM211 770h407v297h-407v-297z" />
    <glyph glyph-name="hbar" unicode="&#x127;" horiz-adv-x="831" 
d="M14 1067v90h76v277h121v-277h407v277h123v-277h76v-90h-76v-1067h-123v664h-407v-664h-121v1067h-76zM211 770h407v297h-407v-297z" />
    <glyph glyph-name="Itilde" unicode="&#x128;" horiz-adv-x="292" 
d="M-88 1577q45 106 141 106q45 0 103 -36q18 -10 38.5 -19.5t38.5 -9.5q55 0 84 61l64 -41q-21 -51 -55.5 -78.5t-79.5 -27.5t-99 35q-6 2 -32.5 16t-55.5 14q-53 0 -86 -61zM84 0v1434h121v-1434h-121z" />
    <glyph glyph-name="itilde" unicode="&#x129;" horiz-adv-x="292" 
d="M-88 1577q45 106 141 106q45 0 103 -36q18 -10 38.5 -19.5t38.5 -9.5q55 0 84 61l64 -41q-21 -51 -55.5 -78.5t-79.5 -27.5t-99 35q-6 2 -32.5 16t-55.5 14q-53 0 -86 -61zM84 0v1434h121v-1434h-121z" />
    <glyph glyph-name="Imacron" unicode="&#x12a;" horiz-adv-x="286" 
d="M-43 1548v86h371v-86h-371zM82 0v1434h123v-1434h-123z" />
    <glyph glyph-name="imacron" unicode="&#x12b;" horiz-adv-x="286" 
d="M-43 1548v86h371v-86h-371zM82 0v1434h123v-1434h-123z" />
    <glyph glyph-name="Ibreve" unicode="&#x12c;" horiz-adv-x="305" 
d="M-51 1704h76q2 -59 36.5 -87t90.5 -28q55 0 91 28t40 87h73q0 -90 -56 -141.5t-148 -51.5t-146.5 51.5t-56.5 141.5zM92 0v1434h123v-1434h-123z" />
    <glyph glyph-name="ibreve" unicode="&#x12d;" horiz-adv-x="305" 
d="M-51 1704h76q2 -59 36.5 -87t90.5 -28q55 0 91 28t40 87h73q0 -90 -56 -141.5t-148 -51.5t-146.5 51.5t-56.5 141.5zM92 0v1434h123v-1434h-123z" />
    <glyph glyph-name="Iogonek" unicode="&#x12e;" horiz-adv-x="303" 
d="M16 -176q0 47 31 93t86 83h-41v1434h121v-1434h-20q-35 -29 -58.5 -72t-23.5 -78q0 -33 22.5 -51t56.5 -18q43 0 86 24v-69q-49 -25 -118 -25q-66 0 -104 29t-38 84z" />
    <glyph glyph-name="iogonek" unicode="&#x12f;" horiz-adv-x="303" 
d="M16 -176q0 47 31 93t86 83h-41v1434h121v-1434h-18q-37 -29 -60.5 -72t-23.5 -78q0 -33 22.5 -51t56.5 -18q43 0 86 24v-69q-49 -25 -118 -25q-66 0 -104 29t-38 84z" />
    <glyph glyph-name="Idotaccent" unicode="&#x130;" horiz-adv-x="284" 
d="M82 0v1434h121v-1434h-121zM90 1516v178h105v-178h-105z" />
    <glyph glyph-name="dotlessi" unicode="&#x131;" horiz-adv-x="284" 
d="M82 0v1434h121v-1434h-121z" />
    <glyph glyph-name="Jcircumflex" unicode="&#x134;" horiz-adv-x="514" 
d="M41 0v111q29 -2 49.5 -1t32.5 1q96 8 142 61t46 174v1088h121v-1082q0 -182 -78 -263t-217 -89q-20 -2 -55 -2q-27 0 -41 2zM125 1516l174 194h107l176 -194h-109l-119 129l-118 -129h-111z" />
    <glyph glyph-name="jcircumflex" unicode="&#x135;" horiz-adv-x="514" 
d="M41 0v111q29 -2 49.5 -1t32.5 1q96 8 142 61t46 174v1088h121v-1082q0 -182 -78 -263t-217 -89q-20 -2 -55 -2q-27 0 -41 2zM125 1516l174 194h107l176 -194h-109l-119 129l-118 -129h-111z" />
    <glyph glyph-name="kgreenlandic" unicode="&#x138;" horiz-adv-x="819" 
d="M82 0v1434h121v-732l432 732h125l-391 -662l409 -772h-123l-358 651l-94 -147v-504h-121z" />
    <glyph glyph-name="Lacute" unicode="&#x139;" horiz-adv-x="675" 
d="M82 0v1434h121v-1323h434v-111h-555zM104 1516l146 200h123l-180 -200h-89z" />
    <glyph glyph-name="lacute" unicode="&#x13a;" horiz-adv-x="675" 
d="M82 0v1434h121v-1323h434v-111h-555zM96 1516l142 200h124l-180 -200h-86z" />
    <glyph glyph-name="Lcaron" unicode="&#x13d;" horiz-adv-x="675" 
d="M82 0v1434h121v-1323h434v-111h-555zM436 1079l47 166h-45v189h119v-177l-68 -178h-53z" />
    <glyph glyph-name="Ldot" unicode="&#x13f;" horiz-adv-x="675" 
d="M82 0v1434h121v-1323h434v-111h-555zM389 629v186h117v-186h-117z" />
    <glyph glyph-name="ldot" unicode="&#x140;" horiz-adv-x="675" 
d="M82 0v1434h121v-1323h434v-111h-555zM389 629v186h117v-186h-117z" />
    <glyph glyph-name="Lslash" unicode="&#x141;" horiz-adv-x="700" 
d="M0 397v115l106 100v822h119v-693l209 211v-114l-209 -211v-516h437v-111h-556v498z" />
    <glyph glyph-name="lslash" unicode="&#x142;" horiz-adv-x="700" 
d="M0 397v115l106 100v822h119v-693l209 211v-114l-209 -211v-516h437v-111h-556v498z" />
    <glyph glyph-name="Nacute" unicode="&#x143;" horiz-adv-x="815" 
d="M80 0v1434h156l389 -1137v1137h108v-1434h-127l-416 1231v-1231h-110zM330 1518l145 200h123l-180 -200h-88z" />
    <glyph glyph-name="nacute" unicode="&#x144;" horiz-adv-x="815" 
d="M80 0v1434h156l389 -1137v1137h108v-1434h-127l-416 1231v-1231h-110zM330 1518l145 200h123l-180 -200h-88z" />
    <glyph glyph-name="Ncaron" unicode="&#x147;" horiz-adv-x="815" 
d="M80 0v1434h156l389 -1139v1139h108v-1434h-127l-416 1229v-1229h-110zM182 1716h109l119 -127l118 127h109l-172 -194h-107z" />
    <glyph glyph-name="ncaron" unicode="&#x148;" horiz-adv-x="815" 
d="M80 0v1434h156l389 -1139v1139h108v-1434h-127l-416 1229v-1229h-110zM182 1716h109l119 -127l118 127h109l-172 -194h-107z" />
    <glyph glyph-name="Omacron" unicode="&#x14c;" horiz-adv-x="780" 
d="M70 348v737q0 166 79.5 263.5t239.5 97.5t241 -97.5t81 -263.5v-737q0 -166 -81 -263t-241 -97q-158 0 -238.5 97t-80.5 263zM190 342q0 -115 49.5 -179.5t149.5 -64.5q102 0 151.5 64.5t49.5 179.5v750q0 115 -49 179t-152 64q-100 0 -149.5 -64.5t-49.5 -178.5v-750z
M193 1548v88h399v-88h-399z" />
    <glyph glyph-name="omacron" unicode="&#x14d;" horiz-adv-x="780" 
d="M70 348v737q0 166 79.5 263.5t239.5 97.5t241 -97.5t81 -263.5v-737q0 -166 -81 -263t-241 -97q-158 0 -238.5 97t-80.5 263zM190 342q0 -115 49.5 -179.5t149.5 -64.5q102 0 151.5 64.5t49.5 179.5v750q0 115 -49 179t-152 64q-100 0 -149.5 -64.5t-49.5 -178.5v-750z
M193 1548v88h399v-88h-399z" />
    <glyph glyph-name="Obreve" unicode="&#x14e;" horiz-adv-x="780" 
d="M70 348v737q0 166 79.5 263.5t239.5 97.5t241 -97.5t81 -263.5v-737q0 -166 -81 -263t-241 -97q-158 0 -238.5 97t-80.5 263zM186 1714h74q2 -57 37 -84.5t90 -27.5q57 0 93 26.5t40 85.5h74q-2 -90 -57.5 -140t-149.5 -50q-90 0 -144.5 50t-56.5 140zM190 342
q0 -115 49.5 -179.5t149.5 -64.5q102 0 151.5 64.5t49.5 179.5v750q0 115 -49 179t-152 64q-100 0 -149.5 -64.5t-49.5 -178.5v-750z" />
    <glyph glyph-name="obreve" unicode="&#x14f;" horiz-adv-x="780" 
d="M70 348v737q0 166 79.5 263.5t239.5 97.5t241 -97.5t81 -263.5v-737q0 -166 -81 -263t-241 -97q-158 0 -238.5 97t-80.5 263zM186 1714h74q2 -57 37 -84.5t90 -27.5q57 0 93 26.5t40 85.5h74q-2 -90 -57.5 -140t-149.5 -50q-90 0 -144.5 50t-56.5 140zM190 342
q0 -115 49.5 -179.5t149.5 -64.5q102 0 151.5 64.5t49.5 179.5v750q0 115 -49 179t-152 64q-100 0 -149.5 -64.5t-49.5 -178.5v-750z" />
    <glyph glyph-name="Ohungarumlaut" unicode="&#x150;" horiz-adv-x="780" 
d="M70 348v737q0 166 79.5 263.5t239.5 97.5t241 -97.5t81 -263.5v-737q0 -166 -81 -263t-241 -97q-158 0 -238.5 97t-80.5 263zM190 342q0 -115 49.5 -179.5t149.5 -64.5q102 0 151.5 64.5t49.5 179.5v750q0 115 -49 179t-152 64q-100 0 -149.5 -64.5t-49.5 -178.5v-750z
M225 1526l125 200h115l-160 -200h-80zM418 1526l125 200h116l-161 -200h-80z" />
    <glyph glyph-name="ohungarumlaut" unicode="&#x151;" horiz-adv-x="780" 
d="M70 348v737q0 166 79.5 263.5t239.5 97.5t241 -97.5t81 -263.5v-737q0 -166 -81 -263t-241 -97q-158 0 -238.5 97t-80.5 263zM190 342q0 -115 49.5 -179.5t149.5 -64.5q102 0 151.5 64.5t49.5 179.5v750q0 115 -49 179t-152 64q-100 0 -149.5 -64.5t-49.5 -178.5v-750z
M225 1526l125 200h115l-160 -200h-80zM418 1526l125 200h116l-161 -200h-80z" />
    <glyph glyph-name="OE" unicode="&#x152;" horiz-adv-x="1163" 
d="M68 356v721q0 164 74.5 260.5t230.5 96.5h725v-111h-414v-543h338v-106h-338v-563h414v-111h-725q-156 0 -230.5 96.5t-74.5 259.5zM188 350q0 -109 45.5 -174t141.5 -65h188v1212h-188q-96 0 -141.5 -65.5t-45.5 -174.5v-733z" />
    <glyph glyph-name="oe" unicode="&#x153;" horiz-adv-x="1163" 
d="M68 356v721q0 164 74.5 260.5t230.5 96.5h725v-111h-414v-543h338v-106h-338v-563h414v-111h-725q-156 0 -230.5 96.5t-74.5 259.5zM188 350q0 -109 45.5 -174t141.5 -65h188v1212h-188q-96 0 -141.5 -65.5t-45.5 -174.5v-733z" />
    <glyph glyph-name="Racute" unicode="&#x154;" horiz-adv-x="788" 
d="M82 0v1434h307q162 0 236.5 -83t74.5 -243v-121q0 -125 -47 -197.5t-147 -99.5q102 -25 149 -99.5t47 -195.5v-223q0 -117 31 -172h-123q-16 33 -22 72t-6 100v225q0 129 -62.5 180.5t-183.5 51.5h-133v-629h-121zM203 739h139q121 0 180.5 48.5t59.5 175.5v135
q0 111 -46.5 168t-148.5 57h-184v-584zM289 1526l143 200h125l-180 -200h-88z" />
    <glyph glyph-name="racute" unicode="&#x155;" horiz-adv-x="788" 
d="M82 0v1434h307q162 0 236.5 -83t74.5 -243v-121q0 -125 -47 -197.5t-147 -99.5q102 -25 149 -99.5t47 -195.5v-223q0 -117 31 -172h-123q-16 33 -22 72t-6 100v225q0 129 -62.5 180.5t-183.5 51.5h-133v-629h-121zM203 739h139q121 0 180.5 48.5t59.5 175.5v135
q0 111 -46.5 168t-148.5 57h-184v-584zM289 1526l143 200h125l-180 -200h-88z" />
    <glyph glyph-name="Rcaron" unicode="&#x158;" horiz-adv-x="788" 
d="M82 0v1434h307q162 0 236.5 -83t74.5 -243v-121q0 -125 -47 -197.5t-147 -99.5q102 -25 149 -99.5t47 -195.5v-223q0 -117 31 -172h-123q-16 33 -22 72t-6 100v225q0 129 -62.5 180.5t-183.5 51.5h-133v-629h-121zM143 1716h109l119 -127l118 127h111l-176 -192h-107z
M203 739h139q121 0 180.5 48.5t59.5 175.5v135q0 111 -46.5 168t-148.5 57h-184v-584z" />
    <glyph glyph-name="rcaron" unicode="&#x159;" horiz-adv-x="788" 
d="M82 0v1434h307q162 0 236.5 -83t74.5 -243v-121q0 -125 -47 -197.5t-147 -99.5q102 -25 149 -99.5t47 -195.5v-223q0 -117 31 -172h-123q-16 33 -22 72t-6 100v225q0 129 -62.5 180.5t-183.5 51.5h-133v-629h-121zM143 1716h109l119 -127l118 127h111l-176 -192h-107z
M203 739h139q121 0 180.5 48.5t59.5 175.5v135q0 111 -46.5 168t-148.5 57h-184v-584z" />
    <glyph glyph-name="Sacute" unicode="&#x15a;" horiz-adv-x="745" 
d="M59 344v78h113v-84q0 -113 49 -176.5t150 -63.5q100 0 148 63.5t48 176.5q0 74 -31.5 133t-77.5 102t-124 103q-88 68 -141.5 119t-90 123.5t-36.5 171.5q0 168 77.5 262t231.5 94q157 0 234 -96.5t77 -259.5v-35h-115v41q0 113 -46 176t-146 63q-193 0 -193 -237
q0 -76 32 -135.5t78 -102.5t126 -104q88 -68 140 -118t89 -123t37 -171q0 -164 -79 -260t-236 -96q-158 0 -236 96t-78 260zM299 1526l143 200h125l-180 -200h-88z" />
    <glyph glyph-name="sacute" unicode="&#x15b;" horiz-adv-x="745" 
d="M59 344v78h113v-84q0 -113 49 -176.5t150 -63.5q100 0 148 63.5t48 176.5q0 74 -31.5 133t-77.5 102t-124 103q-88 68 -141.5 119t-90 123.5t-36.5 171.5q0 168 77.5 262t231.5 94q157 0 234 -96.5t77 -259.5v-35h-115v41q0 113 -46 176t-146 63q-193 0 -193 -237
q0 -76 32 -135.5t78 -102.5t126 -104q88 -68 140 -118t89 -123t37 -171q0 -164 -79 -260t-236 -96q-158 0 -236 96t-78 260zM299 1526l143 200h125l-180 -200h-88z" />
    <glyph glyph-name="Scircumflex" unicode="&#x15c;" horiz-adv-x="745" 
d="M59 344v78h113v-84q0 -113 49 -176.5t150 -63.5q100 0 148 63.5t48 176.5q0 74 -31.5 133t-77.5 102t-124 103q-88 68 -141.5 119t-90 123.5t-36.5 171.5q0 168 77.5 262t231.5 94q157 0 234 -96.5t77 -259.5v-35h-115v41q0 113 -46 176t-146 63q-193 0 -193 -237
q0 -76 32 -135.5t78 -102.5t126 -104q88 -68 140 -118t89 -123t37 -171q0 -164 -79 -260t-236 -96q-158 0 -236 96t-78 260zM154 1522l174 194h106l174 -194h-108l-119 127l-119 -127h-108z" />
    <glyph glyph-name="scircumflex" unicode="&#x15d;" horiz-adv-x="745" 
d="M59 344v78h113v-84q0 -113 49 -176.5t150 -63.5q100 0 148 63.5t48 176.5q0 74 -31.5 133t-77.5 102t-124 103q-88 68 -141.5 119t-90 123.5t-36.5 171.5q0 168 77.5 262t231.5 94q157 0 234 -96.5t77 -259.5v-35h-115v41q0 113 -46 176t-146 63q-193 0 -193 -237
q0 -76 32 -135.5t78 -102.5t126 -104q88 -68 140 -118t89 -123t37 -171q0 -164 -79 -260t-236 -96q-158 0 -236 96t-78 260zM154 1522l174 194h106l174 -194h-108l-119 127l-119 -127h-108z" />
    <glyph glyph-name="Scaron" unicode="&#x160;" horiz-adv-x="745" 
d="M59 344v78h113v-84q0 -113 49 -176.5t150 -63.5q100 0 148 63.5t48 176.5q0 74 -31.5 133t-77.5 102t-124 103q-88 68 -141.5 119t-90 123.5t-36.5 171.5q0 168 77.5 262t231.5 94q157 0 234 -96.5t77 -259.5v-35h-115v41q0 113 -46 176t-146 63q-193 0 -193 -237
q0 -76 32 -135.5t78 -102.5t126 -104q88 -68 140 -118t89 -123t37 -171q0 -164 -79 -260t-236 -96q-158 0 -236 96t-78 260zM152 1716h108l117 -127l119 127h110l-174 -192h-108z" />
    <glyph glyph-name="scaron" unicode="&#x161;" horiz-adv-x="745" 
d="M59 344v78h113v-84q0 -113 49 -176.5t150 -63.5q100 0 148 63.5t48 176.5q0 74 -31.5 133t-77.5 102t-124 103q-88 68 -141.5 119t-90 123.5t-36.5 171.5q0 168 77.5 262t231.5 94q157 0 234 -96.5t77 -259.5v-35h-115v41q0 113 -46 176t-146 63q-193 0 -193 -237
q0 -76 32 -135.5t78 -102.5t126 -104q88 -68 140 -118t89 -123t37 -171q0 -164 -79 -260t-236 -96q-158 0 -236 96t-78 260zM150 1716h108l119 -127l119 127h108l-174 -192h-106z" />
    <glyph glyph-name="uni0162" unicode="&#x162;" horiz-adv-x="755" 
d="M37 1323v111h682v-111h-281v-1323h-30v-74q63 -2 102 -30.5t39 -85.5q0 -72 -51.5 -108t-124.5 -36q-70 0 -122 34t-52 99v13h73v-13q0 -37 30 -54t69 -17q41 0 71.5 19.5t30.5 57.5q0 76 -111 76h-16v119h-29v1323h-280z" />
    <glyph glyph-name="uni0163" unicode="&#x163;" horiz-adv-x="755" 
d="M37 1323v111h682v-111h-281v-1323h-30v-76q63 0 102 -28.5t39 -85.5q0 -72 -51.5 -108t-124.5 -36q-70 0 -122 34t-52 99v13h73v-13q0 -37 30 -54t69 -17q41 0 71.5 19.5t30.5 57.5q0 76 -111 76h-16v119h-29v1323h-280z" />
    <glyph glyph-name="Tcaron" unicode="&#x164;" horiz-adv-x="755" 
d="M37 1323v111h682v-111h-281v-1323h-121v1323h-280zM152 1710h108l117 -127l121 127h108l-176 -194h-106z" />
    <glyph glyph-name="tcaron" unicode="&#x165;" horiz-adv-x="755" 
d="M37 1323v111h682v-111h-281v-1323h-121v1323h-280zM152 1710h108l117 -127l121 127h108l-176 -194h-106z" />
    <glyph glyph-name="Tbar" unicode="&#x166;" horiz-adv-x="755" 
d="M37 1323v111h682v-111h-281v-360h152v-93h-152v-870h-121v870h-151v93h151v360h-280z" />
    <glyph glyph-name="tbar" unicode="&#x167;" horiz-adv-x="755" 
d="M37 1323v111h682v-111h-281v-360h152v-93h-152v-870h-121v870h-151v93h151v360h-280z" />
    <glyph glyph-name="Utilde" unicode="&#x168;" 
d="M76 348v1086h121v-1092q0 -115 47 -179.5t147 -64.5t147.5 64.5t47.5 179.5v1092h114v-1086q0 -166 -76.5 -264t-236.5 -98q-158 0 -234.5 98t-76.5 264zM158 1581q20 53 57 79t82 26q27 0 48.5 -8.5t53.5 -26.5q49 -31 82 -31q49 0 80 61l64 -41q-44 -106 -136 -106
q-27 0 -49 9t-51 26q-49 31 -84 30q-53 0 -86 -61z" />
    <glyph glyph-name="utilde" unicode="&#x169;" 
d="M76 348v1086h121v-1092q0 -115 47 -179.5t147 -64.5t147.5 64.5t47.5 179.5v1092h114v-1086q0 -166 -76.5 -264t-236.5 -98q-158 0 -234.5 98t-76.5 264zM158 1581q20 53 57 79t82 26q27 0 48.5 -8.5t53.5 -26.5q49 -31 82 -31q49 0 80 61l64 -41q-44 -106 -136 -106
q-27 0 -49 9t-51 26q-49 31 -84 30q-53 0 -86 -61z" />
    <glyph glyph-name="Umacron" unicode="&#x16a;" 
d="M76 348v1086h121v-1092q0 -115 47 -179.5t147 -64.5t147.5 64.5t47.5 179.5v1092h114v-1086q0 -166 -76.5 -264t-236.5 -98q-158 0 -234.5 98t-76.5 264zM199 1548v86h389v-86h-389z" />
    <glyph glyph-name="umacron" unicode="&#x16b;" 
d="M76 348v1086h121v-1092q0 -115 47 -179.5t147 -64.5t147.5 64.5t47.5 179.5v1092h114v-1086q0 -166 -76.5 -264t-236.5 -98q-158 0 -234.5 98t-76.5 264zM199 1548v86h389v-86h-389z" />
    <glyph glyph-name="Ubreve" unicode="&#x16c;" 
d="M76 348v1086h121v-1092q0 -115 47 -179.5t147 -64.5t147.5 64.5t47.5 179.5v1092h114v-1086q0 -166 -76.5 -264t-236.5 -98q-158 0 -234.5 98t-76.5 264zM186 1704h76q6 -115 127 -115q55 0 91 28t40 87h76q-2 -90 -58.5 -141.5t-148.5 -51.5t-146.5 51.5t-56.5 141.5z
" />
    <glyph glyph-name="ubreve" unicode="&#x16d;" 
d="M76 348v1086h121v-1092q0 -115 47 -179.5t147 -64.5t147.5 64.5t47.5 179.5v1092h114v-1086q0 -166 -76.5 -264t-236.5 -98q-158 0 -234.5 98t-76.5 264zM186 1704h76q6 -115 127 -115q55 0 91 28t40 87h76q-2 -90 -58.5 -141.5t-148.5 -51.5t-146.5 51.5t-56.5 141.5z
" />
    <glyph glyph-name="Uring" unicode="&#x16e;" 
d="M76 348v1086h121v-1092q0 -115 47 -179.5t147 -64.5t147.5 64.5t47.5 179.5v1092h114v-1086q0 -166 -76.5 -264t-236.5 -98q-158 0 -234.5 98t-76.5 264zM254 1647q0 61 41 101t100 40q62 0 103 -40t41 -101q0 -57 -42 -98.5t-102 -41.5q-59 0 -100 40t-41 100zM313 1647
q0 -33 23.5 -56.5t58.5 -23.5t59.5 23.5t24.5 56.5q0 37 -24.5 59.5t-59.5 22.5t-58.5 -23t-23.5 -59z" />
    <glyph glyph-name="uring" unicode="&#x16f;" 
d="M76 348v1086h121v-1092q0 -115 47 -179.5t147 -64.5t147.5 64.5t47.5 179.5v1092h114v-1086q0 -166 -76.5 -264t-236.5 -98q-158 0 -234.5 98t-76.5 264zM254 1647q0 61 41 101t100 40q62 0 103 -40t41 -101q0 -57 -42 -98.5t-102 -41.5q-59 0 -100 40t-41 100zM313 1647
q0 -33 23.5 -56.5t58.5 -23.5t59.5 23.5t24.5 56.5q0 37 -24.5 59.5t-59.5 22.5t-58.5 -23t-23.5 -59z" />
    <glyph glyph-name="Uhungarumlaut" unicode="&#x170;" 
d="M76 348v1086h121v-1092q0 -115 47 -179.5t147 -64.5t147.5 64.5t47.5 179.5v1092h114v-1086q0 -166 -76.5 -264t-236.5 -98q-158 0 -234.5 98t-76.5 264zM223 1522l125 202h115l-160 -202h-80zM416 1522l125 202h114l-159 -202h-80z" />
    <glyph glyph-name="uhungarumlaut" unicode="&#x171;" 
d="M76 348v1086h121v-1092q0 -115 47 -179.5t147 -64.5t147.5 64.5t47.5 179.5v1092h114v-1086q0 -166 -76.5 -264t-236.5 -98q-158 0 -234.5 98t-76.5 264zM223 1522l125 202h115l-160 -202h-80zM416 1522l125 202h114l-159 -202h-80z" />
    <glyph glyph-name="Uogonek" unicode="&#x172;" 
d="M76 348v1086h121v-1092q0 -115 47 -179.5t147 -64.5t147.5 64.5t47.5 179.5v1092h114v-1086q0 -262 -168 -340q-39 -33 -64.5 -80t-21.5 -82q0 -33 23 -49t55 -16q49 0 88 24v-69q-51 -25 -120 -25q-63 0 -102.5 29t-39.5 84q0 43 29 88t76 80q-31 -6 -68 -6
q-158 0 -234.5 98t-76.5 264z" />
    <glyph glyph-name="uogonek" unicode="&#x173;" 
d="M76 348v1086h121v-1092q0 -115 47 -179.5t147 -64.5t147.5 64.5t47.5 179.5v1092h114v-1086q0 -262 -168 -340q-39 -33 -64.5 -80t-21.5 -82q0 -33 23 -49t55 -16q49 0 88 24v-69q-51 -25 -120 -25q-63 0 -102.5 29t-39.5 84q0 43 29 88t76 80q-31 -6 -68 -6
q-158 0 -234.5 98t-76.5 264z" />
    <glyph glyph-name="Wcircumflex" unicode="&#x174;" horiz-adv-x="1198" 
d="M47 1434h119l194 -1272l191 1268h123l182 -1266l188 1270h107l-215 -1434h-158l-170 1092l-176 -1092h-168zM377 1520l174 194h104l176 -194h-108l-119 127l-119 -127h-108z" />
    <glyph glyph-name="wcircumflex" unicode="&#x175;" horiz-adv-x="1198" 
d="M47 1434h119l194 -1272l191 1268h123l182 -1266l188 1270h107l-215 -1434h-158l-170 1092l-176 -1092h-168zM377 1520l174 194h104l176 -194h-108l-119 127l-119 -127h-108z" />
    <glyph glyph-name="Ycircumflex" unicode="&#x176;" horiz-adv-x="815" 
d="M33 1434h125l254 -734l254 734h116l-315 -897v-537h-121v537zM184 1520l174 192h107l176 -192h-111l-118 125l-119 -125h-109z" />
    <glyph glyph-name="ycircumflex" unicode="&#x177;" horiz-adv-x="815" 
d="M33 1434h125l254 -734l254 734h116l-315 -897v-537h-121v537zM184 1520l174 192h107l176 -192h-111l-118 125l-119 -125h-109z" />
    <glyph glyph-name="Ydieresis" unicode="&#x178;" horiz-adv-x="815" 
d="M33 1434h125l254 -734l254 734h116l-315 -897v-537h-121v537zM246 1516v178h106v-178h-106zM467 1516v178h106v-178h-106z" />
    <glyph glyph-name="Zacute" unicode="&#x179;" horiz-adv-x="774" 
d="M59 0v111l529 1212h-504v111h629v-111l-531 -1212h525v-111h-648zM326 1526l145 200h123l-180 -200h-88z" />
    <glyph glyph-name="zacute" unicode="&#x17a;" horiz-adv-x="774" 
d="M59 0v111l529 1212h-504v111h629v-111l-531 -1212h525v-111h-648zM326 1526l145 200h123l-180 -200h-88z" />
    <glyph glyph-name="Zdotaccent" unicode="&#x17b;" horiz-adv-x="774" 
d="M59 0v111l529 1212h-504v111h629v-111l-531 -1212h525v-111h-648zM356 1524v178h107v-178h-107z" />
    <glyph glyph-name="zdotaccent" unicode="&#x17c;" horiz-adv-x="774" 
d="M59 0v111l529 1212h-504v111h629v-111l-531 -1212h525v-111h-648zM356 1524v178h107v-178h-107z" />
    <glyph glyph-name="Zcaron" unicode="&#x17d;" horiz-adv-x="774" 
d="M59 0v111l529 1212h-504v111h629v-111l-531 -1212h525v-111h-648zM172 1716h109l116 -127l121 127h109l-176 -194h-105z" />
    <glyph glyph-name="zcaron" unicode="&#x17e;" horiz-adv-x="774" 
d="M59 0v111l529 1212h-504v111h629v-111l-531 -1212h525v-111h-648zM172 1716h109l116 -127l121 127h109l-176 -194h-105z" />
    <glyph glyph-name="AEacute" unicode="&#x1fc;" horiz-adv-x="1185" 
d="M33 0l483 1434h604v-111h-415v-543h342v-106h-342v-563h415v-111h-534v309h-332l-107 -309h-114zM285 416h301v866zM561 1522l146 202h120l-178 -202h-88z" />
    <glyph glyph-name="aeacute" unicode="&#x1fd;" horiz-adv-x="1185" 
d="M33 0l483 1434h604v-111h-415v-543h342v-106h-342v-563h415v-111h-534v309h-332l-107 -309h-114zM285 416h301v866zM561 1522l146 202h120l-178 -202h-88z" />
    <glyph glyph-name="uni0237" unicode="&#x237;" horiz-adv-x="507" 
d="M41 0v111q29 -2 49.5 -1t32.5 1q96 8 142 61t46 174v1088h121v-1082q0 -182 -78 -263t-217 -89q-20 -2 -55 -2q-27 0 -41 2z" />
    <glyph glyph-name="uni02BC" unicode="&#x2bc;" horiz-adv-x="292" 
d="M92 1079l45 166h-43v189h117v-177l-68 -178h-51z" />
    <glyph glyph-name="circumflex" unicode="&#x2c6;" horiz-adv-x="471" 
d="M8 1544l174 193h107l174 -193h-109l-118 127l-119 -127h-109z" />
    <glyph glyph-name="caron" unicode="&#x2c7;" horiz-adv-x="471" 
d="M8 1737h109l119 -127l118 127h109l-174 -193h-107z" />
    <glyph glyph-name="breve" unicode="&#x2d8;" horiz-adv-x="497" 
d="M45 1692h74q2 -57 38 -85t91 -28q57 0 93 27.5t38 85.5h76q-2 -88 -58.5 -139.5t-148.5 -51.5t-146.5 51.5t-56.5 139.5z" />
    <glyph glyph-name="dotaccent" unicode="&#x2d9;" horiz-adv-x="372" 
d="M133 1530v176h107v-176h-107z" />
    <glyph glyph-name="ring" unicode="&#x2da;" horiz-adv-x="462" 
d="M88 1667q0 59 42 100t101 41q60 0 101 -41t41 -100t-41 -100t-101 -41q-59 0 -101 41t-42 100zM147 1667q0 -35 25 -58.5t59 -23.5q35 0 58.5 23.5t23.5 58.5t-23.5 58.5t-58.5 23.5q-34 0 -59 -23.5t-25 -58.5z" />
    <glyph glyph-name="ogonek" unicode="&#x2db;" horiz-adv-x="444" 
d="M92 -176q0 47 34 95t89 85h59q-41 -29 -64.5 -75t-21.5 -83q0 -33 22.5 -49t55.5 -16q47 0 86 24v-69q-51 -25 -121 -25q-63 0 -101 29t-38 84z" />
    <glyph glyph-name="tilde" unicode="&#x2dc;" horiz-adv-x="493" 
d="M12 1577q45 106 142 106q45 0 102 -36q18 -10 38.5 -19.5t39.5 -9.5q55 0 84 61l63 -41q-43 -106 -135 -106q-45 0 -98 35q-6 2 -33 16t-55 14q-53 0 -86 -61z" />
    <glyph glyph-name="hungarumlaut" unicode="&#x2dd;" horiz-adv-x="444" 
d="M-8 1536l127 201h114l-159 -201h-82zM186 1536l125 201h115l-160 -201h-80z" />
    <glyph glyph-name="uni0401" unicode="&#x401;" horiz-adv-x="722" 
d="M82 0v1434h575v-111h-454v-543h375v-106h-375v-563h454v-111h-575zM205 1522v178h106v-178h-106zM426 1522v178h109v-178h-109z" />
    <glyph glyph-name="uni0410" unicode="&#x410;" horiz-adv-x="858" 
d="M41 0l299 1434h174l301 -1434h-121l-65 305h-412l-65 -305h-111zM236 410h376l-192 886z" />
    <glyph glyph-name="uni0411" unicode="&#x411;" horiz-adv-x="802" 
d="M84 0v1434h588v-111h-467v-492h188q168 0 252 -78.5t84 -248.5v-160q0 -344 -323 -344h-322zM205 111h201q106 0 154 55t48 170v176q0 117 -51 163t-164 46h-188v-610z" />
    <glyph glyph-name="uni0412" unicode="&#x412;" horiz-adv-x="780" 
d="M82 0v1434h309q160 0 230.5 -77t70.5 -233v-77q0 -121 -40 -190t-138 -93q109 -25 156 -102.5t47 -204.5v-123q0 -334 -320 -334h-315zM203 111h194q105 0 153 56t48 169v129q0 127 -56.5 181t-176.5 54h-162v-589zM203 811h143q121 0 173 45t52 168v88q0 109 -41 160
t-141 51h-186v-512z" />
    <glyph glyph-name="uni0413" unicode="&#x413;" horiz-adv-x="716" 
d="M84 0v1434h559v-111h-438v-1323h-121z" />
    <glyph glyph-name="uni0414" unicode="&#x414;" horiz-adv-x="985" 
d="M49 109h96q37 41 50.5 92t17.5 129l55 1104h545v-1325h115v-308h-117v199h-645v-199h-117v308zM264 109h428v1214h-311l-51 -993q-4 -82 -17.5 -133.5t-48.5 -87.5z" />
    <glyph glyph-name="uni0415" unicode="&#x415;" horiz-adv-x="722" 
d="M82 0v1434h575v-111h-454v-543h375v-106h-375v-563h454v-111h-575z" />
    <glyph glyph-name="uni0417" unicode="&#x417;" 
d="M74 348v127h114v-133q0 -113 48.5 -178.5t148.5 -65.5q197 0 197 252v113q0 109 -53.5 170t-151.5 61h-76v107h82q88 0 143.5 62.5t55.5 160.5v57q0 254 -197 254q-100 0 -149.5 -64.5t-49.5 -178.5v-84h-110v79q0 168 76.5 263.5t234.5 95.5q160 0 237.5 -97.5
t77.5 -263.5v-36q0 -109 -48 -187t-138 -110q92 -27 139 -104t47 -187v-113q0 -166 -77.5 -263t-237.5 -97q-158 0 -235.5 97t-77.5 263z" />
    <glyph glyph-name="uni041A" unicode="&#x41a;" horiz-adv-x="819" 
d="M82 0v1434h121v-732l432 732h125l-391 -662l409 -772h-123l-358 651l-94 -147v-504h-121z" />
    <glyph glyph-name="uni041B" unicode="&#x41b;" horiz-adv-x="892" 
d="M39 -2v111q72 0 107.5 29.5t48 78.5t14.5 131l39 1086h557v-1434h-121v1323h-319l-37 -971q-6 -176 -61.5 -265t-205.5 -89h-22z" />
    <glyph glyph-name="uni041C" unicode="&#x41c;" horiz-adv-x="1048" 
d="M80 0v1434h172l274 -1217l269 1217h172v-1434h-115v1225l-268 -1223h-121l-277 1215v-1217h-106z" />
    <glyph glyph-name="uni041D" unicode="&#x41d;" horiz-adv-x="813" 
d="M82 0v1434h121v-664h409v664h119v-1434h-119v664h-409v-664h-121z" />
    <glyph glyph-name="uni041E" unicode="&#x41e;" horiz-adv-x="780" 
d="M70 348v737q0 166 79.5 263.5t239.5 97.5t241 -97.5t81 -263.5v-737q0 -166 -81 -263t-241 -97q-158 0 -238.5 97t-80.5 263zM190 342q0 -115 49.5 -179.5t149.5 -64.5q102 0 151.5 64.5t49.5 179.5v750q0 115 -49 179t-152 64q-100 0 -149.5 -64.5t-49.5 -178.5v-750z
" />
    <glyph glyph-name="uni041F" unicode="&#x41f;" horiz-adv-x="813" 
d="M82 0v1434h649v-1434h-119v1323h-409v-1323h-121z" />
    <glyph glyph-name="uni0420" unicode="&#x420;" horiz-adv-x="741" 
d="M82 0v1434h303q162 0 237.5 -91.5t75.5 -257.5v-163q0 -172 -81.5 -257t-251.5 -85h-162v-580h-121zM203 690h162q110 0 161.5 53.5t51.5 171.5v177q0 115 -44.5 173t-148.5 58h-182v-633z" />
    <glyph glyph-name="uni0421" unicode="&#x421;" horiz-adv-x="761" 
d="M70 348v737q0 166 77.5 263.5t235.5 97.5q160 0 237.5 -97.5t77.5 -263.5v-122h-114v129q0 115 -47.5 179t-149.5 64q-100 0 -148.5 -65.5t-48.5 -177.5v-750q0 -113 48.5 -178.5t148.5 -65.5q102 0 149.5 64.5t47.5 179.5v176h114v-170q0 -166 -77.5 -263t-237.5 -97
q-158 0 -235.5 97t-77.5 263z" />
    <glyph glyph-name="uni0422" unicode="&#x422;" horiz-adv-x="755" 
d="M37 1323v111h682v-111h-281v-1323h-121v1323h-280z" />
    <glyph glyph-name="uni0424" unicode="&#x424;" horiz-adv-x="1142" 
d="M70 516v391q0 360 329 361h111v166h121v-166h108q330 -1 330 -361v-391q0 -360 -330 -360h-108v-156h-121v156h-111q-330 0 -329 360zM190 508q0 -121 50.5 -183.5t158.5 -62.5h111v897h-111q-108 0 -158.5 -61.5t-50.5 -182.5v-407zM631 262h108q111 0 162 62.5
t51 183.5v407q0 121 -50 182.5t-163 61.5h-108v-897z" />
    <glyph glyph-name="uni0425" unicode="&#x425;" horiz-adv-x="878" 
d="M47 0l309 741l-288 693h127l249 -598l252 598h115l-287 -693l307 -741h-129l-268 647l-270 -647h-117z" />
    <glyph glyph-name="uni0426" unicode="&#x426;" horiz-adv-x="915" 
d="M96 0v1434h119v-1323h408v1323h122v-1325h115v-302h-117v193h-647z" />
    <glyph glyph-name="uni0427" unicode="&#x427;" horiz-adv-x="802" 
d="M72 883v551h121v-541q0 -109 52 -177.5t150 -68.5q164 0 203 178v609h121v-1434h-121v668q-39 -64 -101.5 -97.5t-138.5 -33.5q-141 0 -213.5 97t-72.5 249z" />
    <glyph glyph-name="uni0428" unicode="&#x428;" horiz-adv-x="1167" 
d="M82 0v1434h121v-1323h321v1323h123v-1323h320v1323h118v-1434h-1003z" />
    <glyph glyph-name="uni0429" unicode="&#x429;" horiz-adv-x="1257" 
d="M82 0v1434h121v-1323h321v1323h121v-1323h322v1323h118v-1325h117v-302h-117v193h-1003z" />
    <glyph glyph-name="uni042A" unicode="&#x42a;" horiz-adv-x="886" 
d="M20 1323v111h310v-580h164q168 0 249.5 -85t81.5 -257v-164q0 -166 -75.5 -257t-237.5 -91h-301v1323h-191zM330 111h182q104 0 148.5 58t44.5 173v176q0 121 -50.5 173t-160.5 52h-164v-632z" />
    <glyph glyph-name="uni042B" unicode="&#x42b;" horiz-adv-x="1034" 
d="M82 0v1434h121v-580h162q170 0 251.5 -85t81.5 -257v-164q0 -166 -75.5 -257t-237.5 -91h-303zM203 111h182q102 0 147.5 58t45.5 173v176q0 121 -50.5 173t-162.5 52h-162v-632zM831 0v1434h121v-1434h-121z" />
    <glyph glyph-name="uni042C" unicode="&#x42c;" horiz-adv-x="761" 
d="M82 0v1434h121v-580h162q170 0 251.5 -85t81.5 -257v-164q0 -166 -75.5 -257t-237.5 -91h-303zM203 111h182q102 0 147.5 58t45.5 173v176q0 121 -50.5 173t-162.5 52h-162v-632z" />
    <glyph glyph-name="uni042D" unicode="&#x42d;" horiz-adv-x="761" 
d="M63 348v146h115v-152q0 -113 48 -178.5t147 -65.5q102 0 150 65.5t48 178.5v346h-274v107h274v297q0 113 -48 178t-150 65q-98 0 -146.5 -65.5t-48.5 -177.5v-103h-112v96q0 166 76.5 263.5t234.5 97.5t235.5 -97.5t77.5 -263.5v-737q0 -166 -77.5 -263t-235.5 -97
t-236 97t-78 263z" />
    <glyph glyph-name="uni042E" unicode="&#x42e;" horiz-adv-x="1148" 
d="M82 0v1434h121v-664h231v315q0 166 81 263.5t241 97.5q159 0 240 -97.5t81 -263.5v-737q0 -164 -81 -262t-240 -98q-160 0 -241 97t-81 263v316h-231v-664h-121zM555 342q0 -115 49 -179.5t152 -64.5q100 0 150 65.5t50 178.5v750q0 113 -50 178t-150 65
q-103 0 -152 -64.5t-49 -178.5v-750z" />
    <glyph glyph-name="uni042F" unicode="&#x42f;" horiz-adv-x="788" 
d="M55 0q33 57 33 172v223q0 121 46 196t149 99q-98 27 -146.5 100.5t-48.5 196.5v121q0 160 75 243t236 83h308v-1434h-119v629h-135q-121 0 -182.5 -51.5t-61.5 -180.5v-225q0 -61 -6 -100t-23 -72h-125zM209 963q0 -127 58.5 -175.5t178.5 -48.5h142v584h-185
q-102 0 -148 -57.5t-46 -167.5v-135z" />
    <glyph glyph-name="uni0430" unicode="&#x430;" horiz-adv-x="858" 
d="M41 0l299 1434h174l301 -1434h-121l-65 305h-412l-65 -305h-111zM236 410h376l-192 886z" />
    <glyph glyph-name="uni0431" unicode="&#x431;" horiz-adv-x="802" 
d="M84 0v1434h588v-111h-467v-492h188q168 0 252 -78.5t84 -248.5v-160q0 -344 -323 -344h-322zM205 111h201q106 0 154 55t48 170v176q0 117 -51 163t-164 46h-188v-610z" />
    <glyph glyph-name="uni0432" unicode="&#x432;" horiz-adv-x="780" 
d="M82 0v1434h309q160 0 230.5 -77t70.5 -233v-77q0 -121 -41 -190t-141 -93q109 -25 158 -103.5t49 -203.5v-123q0 -334 -320 -334h-315zM203 111h194q105 0 153 56t48 169v129q0 127 -56.5 181t-176.5 54h-162v-589zM203 811h143q121 0 173 45t52 168v88q0 109 -41 160
t-141 51h-186v-512z" />
    <glyph glyph-name="uni0433" unicode="&#x433;" horiz-adv-x="716" 
d="M84 0v1434h559v-111h-438v-1323h-121z" />
    <glyph glyph-name="uni0434" unicode="&#x434;" horiz-adv-x="985" 
d="M49 109h96q37 41 50.5 92t17.5 129l55 1104h545v-1325h115v-308h-117v199h-645v-199h-117v308zM264 109h428v1214h-311l-51 -993q-4 -82 -17.5 -133.5t-48.5 -87.5z" />
    <glyph glyph-name="uni0435" unicode="&#x435;" horiz-adv-x="722" 
d="M82 0v1434h575v-111h-454v-543h375v-106h-375v-563h454v-111h-575z" />
    <glyph glyph-name="uni0437" unicode="&#x437;" 
d="M74 348v127h114v-133q0 -113 48.5 -178.5t148.5 -65.5q197 0 197 252v113q0 109 -53.5 170t-151.5 61h-76v107h82q88 0 143.5 62.5t55.5 160.5v57q0 254 -197 254q-100 0 -149.5 -64.5t-49.5 -178.5v-84h-110v79q0 168 76.5 263.5t234.5 95.5q160 0 237.5 -97.5
t77.5 -263.5v-36q0 -109 -48 -187t-138 -110q92 -27 139 -104t47 -187v-113q0 -166 -77.5 -263t-237.5 -97q-158 0 -235.5 97t-77.5 263z" />
    <glyph glyph-name="uni0438" unicode="&#x438;" horiz-adv-x="815" 
d="M82 0v1434h108v-1162l152 441l256 721h137v-1434h-108v1214l-193 -550l-223 -664h-129z" />
    <glyph glyph-name="uni0439" unicode="&#x439;" horiz-adv-x="817" 
d="M82 0v1434h108v-1162l162 469l246 693h137v-1434h-108v1214l-174 -505l-242 -709h-129zM207 1710h78q8 -109 135 -108q127 0 133 108h78q0 -86 -57.5 -135t-153.5 -49t-153.5 49t-59.5 135z" />
    <glyph glyph-name="uni043A" unicode="&#x43a;" horiz-adv-x="819" 
d="M82 0v1434h121v-732l432 732h125l-391 -662l409 -772h-123l-358 651l-94 -147v-504h-121z" />
    <glyph glyph-name="uni043B" unicode="&#x43b;" horiz-adv-x="892" 
d="M39 -2v111q72 0 107.5 29.5t48 78.5t14.5 131l39 1086h557v-1434h-121v1323h-319l-37 -971q-6 -176 -61.5 -265t-205.5 -89h-22z" />
    <glyph glyph-name="uni043C" unicode="&#x43c;" horiz-adv-x="1048" 
d="M80 0v1434h172l274 -1217l269 1217h172v-1434h-115v1225l-268 -1223h-121l-277 1215v-1217h-106z" />
    <glyph glyph-name="uni043D" unicode="&#x43d;" horiz-adv-x="813" 
d="M82 0v1434h121v-664h409v664h119v-1434h-119v664h-409v-664h-121z" />
    <glyph glyph-name="uni043E" unicode="&#x43e;" horiz-adv-x="780" 
d="M70 348v737q0 166 79.5 263.5t239.5 97.5t241 -97.5t81 -263.5v-737q0 -166 -81 -263t-241 -97q-158 0 -238.5 97t-80.5 263zM190 342q0 -115 49.5 -179.5t149.5 -64.5q102 0 151.5 64.5t49.5 179.5v750q0 115 -49 179t-152 64q-100 0 -149.5 -64.5t-49.5 -178.5v-750z
" />
    <glyph glyph-name="uni043F" unicode="&#x43f;" horiz-adv-x="813" 
d="M82 0v1434h649v-1434h-119v1323h-409v-1323h-121z" />
    <glyph glyph-name="uni0440" unicode="&#x440;" horiz-adv-x="741" 
d="M82 0v1434h303q162 0 237.5 -91.5t75.5 -257.5v-163q0 -172 -81.5 -257t-251.5 -85h-162v-580h-121zM203 690h162q110 0 161.5 53.5t51.5 171.5v177q0 115 -44.5 173t-148.5 58h-182v-633z" />
    <glyph glyph-name="uni0441" unicode="&#x441;" horiz-adv-x="761" 
d="M70 348v737q0 166 77.5 263.5t235.5 97.5q160 0 237.5 -97.5t77.5 -263.5v-122h-114v129q0 115 -47.5 179t-149.5 64q-100 0 -148.5 -65.5t-48.5 -177.5v-750q0 -113 48.5 -178.5t148.5 -65.5q102 0 149.5 64.5t47.5 179.5v176h114v-170q0 -166 -77.5 -263t-237.5 -97
q-158 0 -235.5 97t-77.5 263z" />
    <glyph glyph-name="uni0442" unicode="&#x442;" horiz-adv-x="755" 
d="M37 1323v111h682v-111h-281v-1323h-121v1323h-280z" />
    <glyph glyph-name="uni0444" unicode="&#x444;" horiz-adv-x="1142" 
d="M70 516v391q0 360 329 361h111v166h121v-166h108q330 -1 330 -361v-391q0 -360 -330 -360h-108v-156h-121v156h-111q-330 0 -329 360zM190 508q0 -121 50.5 -183.5t158.5 -62.5h111v897h-111q-108 0 -158.5 -61.5t-50.5 -182.5v-407zM631 262h108q111 0 162 62.5
t51 183.5v407q0 121 -50 182.5t-163 61.5h-108v-897z" />
    <glyph glyph-name="uni0445" unicode="&#x445;" horiz-adv-x="878" 
d="M47 0l309 741l-288 693h127l249 -598l252 598h115l-287 -693l307 -741h-129l-268 647l-270 -647h-117z" />
    <glyph glyph-name="uni0446" unicode="&#x446;" horiz-adv-x="915" 
d="M96 0v1434h119v-1323h408v1323h122v-1325h115v-302h-117v193h-647z" />
    <glyph glyph-name="uni0447" unicode="&#x447;" horiz-adv-x="802" 
d="M72 883v551h121v-541q0 -109 52 -177.5t150 -68.5q164 0 203 178v609h121v-1434h-121v666q-37 -64 -99.5 -96.5t-140.5 -32.5q-141 0 -213.5 97t-72.5 249z" />
    <glyph glyph-name="uni0448" unicode="&#x448;" horiz-adv-x="1167" 
d="M82 0v1434h121v-1323h321v1323h123v-1323h320v1323h118v-1434h-1003z" />
    <glyph glyph-name="uni0449" unicode="&#x449;" horiz-adv-x="1257" 
d="M82 0v1434h121v-1323h321v1323h121v-1323h322v1323h118v-1325h117v-302h-117v193h-1003z" />
    <glyph glyph-name="uni044A" unicode="&#x44a;" horiz-adv-x="886" 
d="M20 1323v111h310v-580h164q168 0 249.5 -85t81.5 -257v-164q0 -166 -75.5 -257t-237.5 -91h-301v1323h-191zM330 111h182q104 0 148.5 58t44.5 173v176q0 121 -50.5 173t-160.5 52h-164v-632z" />
    <glyph glyph-name="uni044B" unicode="&#x44b;" horiz-adv-x="1034" 
d="M82 0v1434h121v-580h162q170 0 251.5 -85t81.5 -257v-164q0 -166 -75.5 -257t-237.5 -91h-303zM203 111h182q102 0 147.5 58t45.5 173v176q0 121 -50.5 173t-162.5 52h-162v-632zM831 0v1434h121v-1434h-121z" />
    <glyph glyph-name="uni044C" unicode="&#x44c;" horiz-adv-x="761" 
d="M82 0v1434h121v-580h162q170 0 251.5 -85t81.5 -257v-164q0 -166 -75.5 -257t-237.5 -91h-303zM203 111h182q102 0 147.5 58t45.5 173v176q0 121 -50.5 173t-162.5 52h-162v-632z" />
    <glyph glyph-name="uni044D" unicode="&#x44d;" horiz-adv-x="761" 
d="M63 348v146h115v-152q0 -113 48 -178.5t147 -65.5q102 0 150 65.5t48 178.5v346h-274v107h274v297q0 113 -48 178t-150 65q-98 0 -146.5 -65.5t-48.5 -177.5v-103h-112v96q0 166 76.5 263.5t234.5 97.5t235.5 -97.5t77.5 -263.5v-737q0 -166 -77.5 -263t-235.5 -97
t-236 97t-78 263z" />
    <glyph glyph-name="uni044E" unicode="&#x44e;" horiz-adv-x="1148" 
d="M82 0v1434h121v-664h231v315q0 166 81 263.5t241 97.5q159 0 240 -97.5t81 -263.5v-737q0 -164 -81 -262t-240 -98q-160 0 -241 97t-81 263v316h-231v-664h-121zM555 342q0 -115 49 -179.5t152 -64.5q100 0 150 65.5t50 178.5v750q0 113 -50 178t-150 65
q-103 0 -152 -64.5t-49 -178.5v-750z" />
    <glyph glyph-name="uni044F" unicode="&#x44f;" horiz-adv-x="788" 
d="M55 0q33 57 33 172v223q0 121 46 196t149 99q-98 27 -146.5 100.5t-48.5 196.5v121q0 160 75 243t236 83h308v-1434h-119v629h-135q-121 0 -182.5 -51.5t-61.5 -180.5v-225q0 -61 -6 -100t-23 -72h-125zM209 963q0 -127 58.5 -175.5t178.5 -48.5h142v584h-185
q-102 0 -148 -57.5t-46 -167.5v-135z" />
    <glyph glyph-name="uni0451" unicode="&#x451;" horiz-adv-x="722" 
d="M82 0v1434h575v-111h-454v-543h375v-106h-375v-563h454v-111h-575zM205 1522v178h106v-178h-106zM426 1522v178h109v-178h-109z" />
    <glyph glyph-name="an-georgian" unicode="&#x10d0;" horiz-adv-x="550" 
d="M61 195v311h121v-311q0 -100 84 -101q82 0 82 101v630q0 109 -45 199l-133 256q-27 49 -35 102q-6 35 -6 70h121q0 -72 41 -149l131 -246q35 -68 41 -121q6 -39 6 -129v-612q0 -217 -203 -218q-205 0 -205 218z" />
    <glyph glyph-name="ban-georgian" unicode="&#x10d1;" horiz-adv-x="571" 
d="M82 195v475q0 180 143 211v329q0 37 -37 47q-18 8 -34 11q-43 10 -62 37q-10 16 -10 47v100h119v-76q0 -14 10 -20t29 -10q12 -4 32 -9q41 -6 62 -34q12 -18 12 -48v-374q143 -31 143 -211v-475q0 -217 -202 -218q-205 0 -205 218zM201 195q0 -100 86 -101q82 0 82 101
v475q0 100 -82 100q-86 0 -86 -100v-475z" />
    <glyph glyph-name="gan-georgian" unicode="&#x10d2;" horiz-adv-x="573" 
d="M82 195v690q0 188 156 215h2q29 10 47 28q25 20 24 60v119q0 16 -12 24t-29 8q-12 0 -22 -8q-16 -16 -17 -33v-34h-110v51q0 68 41 102.5t110 34.5q68 0 109 -35q45 -39 45 -102v-103q0 -43 -5 -72.5t-24 -52.5l-6 -4q100 -49 101 -198v-690q0 -217 -205 -218
q-205 0 -205 218zM203 195q0 -100 84 -101q84 0 84 101v690q0 98 -84 98t-84 -98v-690z" />
    <glyph glyph-name="don-georgian" unicode="&#x10d3;" horiz-adv-x="552" 
d="M82 193v1040q0 217 205 217q104 0 154.5 -54.5t50.5 -162.5v-406q0 -217 -205 -217q-49 0 -86 13v-430q0 -100 86 -101h205v-115h-205q-205 0 -205 216zM201 827q0 -100 86 -100q84 0 84 100v406q0 98 -84 98q-86 0 -86 -98v-406z" />
    <glyph glyph-name="en-georgian" unicode="&#x10d4;" horiz-adv-x="571" 
d="M82 195v311h121v-311q0 -100 84 -101q84 0 84 101v1040q0 100 -84 100t-84 -100v-121h-121v121q0 217 205 217q202 0 202 -217v-1040q0 -217 -202 -218q-205 0 -205 218z" />
    <glyph glyph-name="vin-georgian" unicode="&#x10d5;" horiz-adv-x="571" 
d="M82 193v313h119v-313q0 -100 84 -101q84 0 84 101v573q0 16 -13 33l-12 12q-10 10 -30.5 18.5t-41.5 8.5h-30v118h30q47 0 72 25q14 12 18 27q6 10 7 18v180q0 78 -21 105q-18 25 -63 24q-84 0 -84 -102v-121h-119v121q0 217 203 217q204 0 204 -217v-193q0 -51 -24 -98
q-12 -23 -35 -45q55 -59 59 -139v-565q0 -215 -204 -216q-203 0 -203 216z" />
    <glyph glyph-name="zen-georgian" unicode="&#x10d6;" horiz-adv-x="794" 
d="M41 1055v180q0 217 203 217q205 0 205 -217v-365q39 14 81 15q203 0 203 -217v-475q0 -215 -203 -216q-203 0 -202 216v657q-37 -12 -84 -12q-203 0 -203 217zM160 1055q0 -102 84 -103q84 1 84 103v180q0 102 -84 102t-84 -102v-180zM446 193q0 -98 84 -99q84 0 84 99
v475q0 100 -84 100q-82 0 -81 -98v-312h-3v-165z" />
    <glyph glyph-name="tan-georgian" unicode="&#x10d7;" horiz-adv-x="858" 
d="M82 195v1038q0 217 205 217q94 0 141 -45q53 47 143 47q205 0 205 -217v-1258h-121v1258q0 100 -84 100q-80 0 -82 -88v-1052q0 -217 -202 -218q-205 0 -205 218zM203 195q0 -100 84 -101q84 1 84 101v378h-2v674q-4 88 -82 88q-84 0 -84 -102v-1038z" />
    <glyph glyph-name="in-georgian" unicode="&#x10d8;" horiz-adv-x="571" 
d="M82 -14v1255q0 217 203 217q204 0 204 -217v-1255h-118v1255q0 102 -86 102q-84 0 -84 -102v-1255h-119z" />
    <glyph glyph-name="kan-georgian" unicode="&#x10d9;" horiz-adv-x="540" 
d="M51 193v313h119v-313q0 -100 84 -101q84 0 84 101v573q0 20 -25 45q-31 25 -73 25h-29v118h29q47 0 73 27q12 10 19 25q6 10 6 18v428h121v-414q0 -57 -27 -98q-12 -25 -33 -45q55 -59 60 -139v-563q0 -215 -205 -216q-203 0 -203 216z" />
    <glyph glyph-name="las-georgian" unicode="&#x10da;" horiz-adv-x="552" 
d="M82 215v1042q0 217 203 218q207 0 207 -218v-399h-121v399q0 96 -86 97q-84 0 -84 -97v-1042q0 -100 84 -100h207v-115h-207q-102 0 -152.5 52t-50.5 163z" />
    <glyph glyph-name="man-georgian" unicode="&#x10db;" horiz-adv-x="563" 
d="M72 195v469q0 217 204 217q51 0 84 -13v367q0 100 -84 100t-83 -100v-121h-119v121q0 217 202 217q205 0 205 -217v-1040q0 -217 -205 -218q-205 0 -204 218zM190 195q0 -100 86 -101q84 1 84 101v471q0 96 -84 96q-86 0 -86 -98v-469z" />
    <glyph glyph-name="nar-georgian" unicode="&#x10dc;" horiz-adv-x="573" 
d="M82 195v1257h410v-119h-289v-465q37 12 84 13q205 0 205 -217v-469q0 -217 -205 -218q-205 0 -205 218zM203 195q0 -100 84 -101q84 0 84 101v469q0 96 -84 96t-84 -96v-469z" />
    <glyph glyph-name="on-georgian" unicode="&#x10dd;" horiz-adv-x="858" 
d="M82 0v1255q0 217 205 218q90 0 141 -46q51 45 143 46q205 -1 205 -218v-1255h-121v1255q0 102 -84 103q-78 0 -82 -88v-676h-120v674q-6 88 -82 88q-84 0 -84 -101v-1255h-121z" />
    <glyph glyph-name="par-georgian" unicode="&#x10de;" horiz-adv-x="540" 
d="M51 195v311h119v-311q0 -100 84 -101q84 0 84 101v507l-4 17q-6 16 -21 26q-10 10 -30.5 18.5t-40.5 8.5h-31v119h31q20 0 40.5 7t30.5 17q14 10 21 27q4 12 4 19v167q0 68 -2 84q-4 12 -23 39l-32 35q-41 37 -64 94q-12 31 -12 72h121q0 -25 8 -42t26 -36q12 -14 31 -31
q39 -39 58 -90q10 -35 10 -73v-205q0 -55 -25 -98q-20 -33 -35 -46q20 -20 35 -47q25 -45 25 -92v-497q0 -217 -205 -218q-203 0 -203 218z" />
    <glyph glyph-name="zhar-georgian" unicode="&#x10df;" horiz-adv-x="614" 
d="M20 1077h107q0 -23 14 -37q20 -16 39 -16q18 0 39 16q14 14 14 37t-15 39.5t-38 16.5v108h2l242 211h108v-1259q0 -215 -202 -216q-203 0 -203 216v313h119v-313q0 -98 84 -99q84 0 84 99v1105l-119 -104q49 -55 49 -117q0 -63 -49 -112q-47 -47 -115 -47t-114 47
q-45 45 -46 112z" />
    <glyph glyph-name="rae-georgian" unicode="&#x10e0;" horiz-adv-x="550" 
d="M82 0v1475h119v-717q41 10 86 10q202 0 202 -217v-551h-118v551q0 102 -84 102q-82 0 -86 -100v-553h-119z" />
    <glyph glyph-name="san-georgian" unicode="&#x10e1;" horiz-adv-x="530" 
d="M82 195v1257h119v-1257q0 -100 86 -101q84 0 84 101v311h118v-311q0 -217 -202 -218q-205 1 -205 218z" />
    <glyph glyph-name="tar-georgian" unicode="&#x10e2;" horiz-adv-x="823" 
d="M82 307v662q0 70 24.5 129t71.5 104q37 39 105 72q31 12 67 18v160h121v-160q61 -10 125 -49q33 -25 49 -41q39 -39 70 -104q26 -66 26 -129v-662q0 -68 -25.5 -127t-70.5 -106q-96 -96 -233 -97q-137 0 -234 97q-47 45 -71.5 104.5t-24.5 128.5zM203 307
q0 -90 60.5 -150.5t148.5 -60.5q86 0 147.5 60.5t61.5 150.5v662q0 82 -45.5 133t-104.5 67v-221h-121v223q-49 -14 -88 -53q-59 -59 -59 -149v-662z" />
    <glyph glyph-name="un-georgian" unicode="&#x10e3;" horiz-adv-x="636" 
d="M20 1337v115q66 0 99 -6q51 -10 88 -41q53 47 145 47q203 0 203 -217v-1032q0 -90 -66 -160q-70 -66 -159 -66q-94 0 -160 66t-66 160v303h119v-303q0 -45 31 -76t76 -31q43 0 73.5 31t30.5 76v1032q0 100 -82 100q-86 0 -86 -100v-121h-119v121q0 102 -81 102h-46z" />
    <glyph glyph-name="phar-georgian" unicode="&#x10e4;" horiz-adv-x="817" 
d="M41 1077v180q0 217 203 218q92 0 145 -48q53 43 141 43q205 0 205 -215v-262q0 -53 -26 -98q-12 -25 -33 -45q25 -29 33 -45q23 -41 26 -92v-488q0 -92 -67 -159q-66 -66 -158 -66q-47 0 -88 17.5t-72 48.5q-66 66 -65 159v301h118v-301q0 -45 31 -75.5t76 -30.5
q43 0 73.5 30.5t30.5 75.5v496l-2 10l-2 8q-8 16 -20 27q-12 10 -31 18q-20 6 -43 7h-31v118h31q47 0 74 27q8 8 20 25l2 10l2 8v276q0 98 -84 99q-82 0 -81 -97v-180q0 -217 -205 -217q-203 0 -203 217zM160 1077q0 -102 84 -102t84 102v180q0 102 -84 103q-84 0 -84 -103
v-180z" />
    <glyph glyph-name="khar-georgian" unicode="&#x10e5;" horiz-adv-x="561" 
d="M72 193v313h118v-313q0 -100 84 -101q84 0 84 101v690q0 100 -84 100t-84 -100v-33h-118v33q0 217 202 217q47 0 84 -13v363h121v-1257q0 -215 -205 -216q-203 0 -202 216z" />
    <glyph glyph-name="ghan-georgian" unicode="&#x10e6;" horiz-adv-x="837" 
d="M82 217v1038q0 217 203 218q96 0 143 -46q53 47 145 48q203 -1 203 -218v-395h-121v395q0 100 -82 101q-82 0 -84 -88v-301h-120v301q-6 88 -84 88q-84 0 -84 -103v-1038q0 -100 84 -100h207v-117h-207q-203 0 -203 217z" />
    <glyph glyph-name="qar-georgian" unicode="&#x10e7;" horiz-adv-x="559" 
d="M72 193v311h118v-311q0 -100 84 -101q84 0 84 101v655q-35 -12 -84 -12q-203 0 -202 215v395h118v-395q0 -100 84 -101q84 0 84 101v399h119v-1257q0 -215 -203 -216q-203 0 -202 216z" />
    <glyph glyph-name="shin-georgian" unicode="&#x10e8;" horiz-adv-x="638" 
d="M20 1335v117h46q90 0 143 -47q51 47 143 47q205 0 205 -217v-1040q0 -217 -205 -218q-104 0 -154.5 54.5t-50.5 163.5v469q0 109 50.5 163t154.5 54q49 0 82 -13v367q0 100 -82 100q-84 0 -84 -100v-121h-118v121q0 100 -84 100h-46zM266 195q0 -100 86 -101q82 0 82 101
v471q0 96 -82 96q-86 0 -86 -98v-469z" />
    <glyph glyph-name="chin-georgian" unicode="&#x10e9;" horiz-adv-x="552" 
d="M82 0v1257q0 217 205 218q205 0 205 -218v-202q0 -106 -97 -185q-47 -37 -92 -59l-96 -53q29 10 80 10q203 0 202 -217v-551h-118v551q0 102 -84 102t-84 -102v-551h-121zM203 893q51 31 84 55q35 25 59 53q25 29 25 54v202q0 98 -84 99q-84 0 -84 -99v-364z" />
    <glyph glyph-name="can-georgian" unicode="&#x10ea;" horiz-adv-x="823" 
d="M82 305v1145h119v-1145q0 -88 61.5 -148.5t149.5 -60.5q84 0 146.5 60.5t62.5 148.5v463q-2 20 -17.5 36.5t-38.5 24.5l-24 7l-49 2v118h30q49 0 74 25q18 14 25 45v111l-5 61q-2 18 -6 27.5t-16 23.5q-8 12 -31 35q-45 45 -63 96q-12 29 -13 70h121q0 -39 33 -76l33 -33
q39 -35 55 -88q10 -31 12 -73v-140q1 -53 -26 -98q-14 -27 -33 -45q18 -23 33 -47q23 -39 26 -92v-453q0 -66 -25.5 -126t-70.5 -105q-96 -96 -233 -97q-137 0 -234 97q-45 43 -70.5 103.5t-25.5 127.5z" />
    <glyph glyph-name="jil-georgian" unicode="&#x10eb;" horiz-adv-x="552" 
d="M61 195v469q0 217 205 217q47 0 84 -13v584h121v-1257q0 -217 -205 -218q-205 0 -205 218zM180 195q0 -100 86 -101q84 0 84 101v469q0 98 -84 98q-86 0 -86 -98v-469z" />
    <glyph glyph-name="cil-georgian" unicode="&#x10ec;" horiz-adv-x="636" 
d="M82 195v1040q0 217 205 217q92 0 143 -45q47 45 143 45h43v-115h-45q-82 -2 -82 -100v-123h-118v121q0 102 -84 102t-84 -102v-365q41 10 84 11q205 0 205 -217v-469q0 -217 -205 -218q-205 0 -205 218zM203 195q0 -100 84 -101q84 0 84 101v469q0 98 -84 98t-84 -94
v-473z" />
    <glyph glyph-name="char-georgian" unicode="&#x10ed;" horiz-adv-x="579" 
d="M41 1141q0 57 41 98q18 18 45 29.5t53 11.5q41 0 68 -16v186h121v-225l67 55l56 -76l-76 -63l76 -64l-56 -76l-67 54v-187l10 -2q2 -2 5 -2t5 -2h2h2q88 -39 101 -160v-2l4 -38v-469q0 -215 -205 -216q-205 0 -205 216v313h121v-313q0 -100 84 -101q84 0 84 101v475
q0 14 -4 34q0 2 -2 3q-10 29 -49 47q-23 6 -43 6h-31v260q-31 -18 -68 -19q-27 0 -53.5 11.5t-44.5 29.5q-41 41 -41 101zM135 1141q0 -20 13.5 -33.5t31.5 -13.5q15 0 31 10l47 37h-2l-2 4l-6 4l-33 25q-18 12 -35 12q-18 0 -31.5 -13.5t-13.5 -31.5z" />
    <glyph glyph-name="xan-georgian" unicode="&#x10ee;" horiz-adv-x="552" 
d="M82 195v1257h119v-582q41 10 84 11q104 0 155.5 -53.5t51.5 -163.5v-469q0 -217 -207 -218q-203 0 -203 218zM201 195q0 -100 84 -101q86 0 86 101v469q0 98 -86 98q-84 0 -84 -98v-469z" />
    <glyph glyph-name="jhan-georgian" unicode="&#x10ef;" horiz-adv-x="550" 
d="M61 193v313h119v-313q0 -100 84 -101q84 0 84 101v475q0 49 -26 67q-29 23 -101 23v327h-117v119h117v248h119v-248h129v-119h-129v-215q55 -12 92 -63q35 -51 35 -107v-4v-18q0 -25 2 -47v-86v-142v-210q0 -216 -205 -216q-203 0 -203 216z" />
    <glyph glyph-name="hae-georgian" unicode="&#x10f0;" horiz-adv-x="550" 
d="M61 195v311h121v-311q0 -100 84 -101q84 0 84 101v421q-10 29 -24 46q-35 25 -74 24h-31v119h31q43 0 74 26q12 12 18 25l2 10l4 8v44l-4 8l-2 8q-14 31 -51 45q-20 8 -41 8h-31v119h31q43 0 74 24q10 10 18 27q4 12 4 17q0 33 -6 47q-2 14 -18 30l-33 35q-41 37 -64 94
q-12 31 -12 72h121q0 -39 35 -78l30 -33q39 -39 58 -94q10 -35 10 -80q0 -33 -25 -77q-18 -27 -34 -43q18 -18 34 -46q15 -22 20 -40.5t5 -45.5v-41q-4 -74 -59 -129q57 -49 59 -139v-411q0 -217 -203 -218q-205 0 -205 218z" />
    <glyph glyph-name="uni1E02" unicode="&#x1e02;" horiz-adv-x="780" 
d="M82 0v1434h309q160 0 230.5 -77t70.5 -233v-77q0 -121 -41 -190t-141 -93q109 -25 158 -103.5t49 -203.5v-123q0 -334 -320 -334h-315zM203 111h194q105 0 153 56t48 169v129q0 127 -56.5 181t-176.5 54h-162v-589zM203 811h143q121 0 173 45t52 168v88q0 109 -41 160
t-141 51h-186v-512zM303 1518v178h105v-178h-105z" />
    <glyph glyph-name="uni1E03" unicode="&#x1e03;" horiz-adv-x="780" 
d="M82 0v1434h309q160 0 230.5 -77t70.5 -233v-77q0 -121 -41 -190t-141 -93q109 -25 158 -103.5t49 -203.5v-123q0 -334 -320 -334h-315zM203 111h194q105 0 153 56t48 169v129q0 127 -56.5 181t-176.5 54h-162v-589zM203 811h143q121 0 173 45t52 168v88q0 109 -41 160
t-141 51h-186v-512zM303 1518v178h105v-178h-105z" />
    <glyph glyph-name="uni1E0A" unicode="&#x1e0a;" horiz-adv-x="792" 
d="M82 0v1434h324q161 0 240 -94.5t79 -262.5v-723q0 -166 -80 -260t-239 -94h-324zM203 111h200q103 0 153 62.5t50 176.5v733q0 115 -50 177.5t-153 62.5h-200v-1212zM315 1518v178h107v-178h-107z" />
    <glyph glyph-name="uni1E0B" unicode="&#x1e0b;" horiz-adv-x="792" 
d="M82 0v1434h324q161 0 240 -94.5t79 -262.5v-723q0 -166 -80 -260t-239 -94h-324zM203 111h200q103 0 153 62.5t50 176.5v733q0 115 -50 177.5t-153 62.5h-200v-1212zM315 1518v178h107v-178h-107z" />
    <glyph glyph-name="uni1E1E" unicode="&#x1e1e;" horiz-adv-x="681" 
d="M82 0v1434h555v-111h-434v-575h354v-111h-354v-637h-121zM303 1516v178h107v-178h-107z" />
    <glyph glyph-name="uni1E1F" unicode="&#x1e1f;" horiz-adv-x="681" 
d="M82 0v1434h555v-111h-434v-575h354v-111h-354v-637h-121zM313 1518v178h107v-178h-107z" />
    <glyph glyph-name="uni1E40" unicode="&#x1e40;" horiz-adv-x="1048" 
d="M80 0v1434h172l274 -1217l269 1217h172v-1434h-115v1225l-268 -1223h-121l-277 1215v-1217h-106zM469 1522v180h109v-180h-109z" />
    <glyph glyph-name="uni1E41" unicode="&#x1e41;" horiz-adv-x="1048" 
d="M80 0v1434h172l274 -1217l269 1217h172v-1434h-115v1225l-268 -1223h-121l-277 1215v-1217h-106zM469 1526v178h109v-178h-109z" />
    <glyph glyph-name="uni1E56" unicode="&#x1e56;" horiz-adv-x="741" 
d="M82 0v1434h303q162 0 237.5 -91.5t75.5 -257.5v-163q0 -172 -81.5 -257t-251.5 -85h-162v-580h-121zM203 690h162q110 0 161.5 53.5t51.5 171.5v177q0 115 -44.5 173t-148.5 58h-182v-633zM303 1518v178h109v-178h-109z" />
    <glyph glyph-name="uni1E57" unicode="&#x1e57;" horiz-adv-x="741" 
d="M82 0v1434h303q162 0 237.5 -91.5t75.5 -257.5v-163q0 -172 -81.5 -257t-251.5 -85h-162v-580h-121zM203 690h162q110 0 161.5 53.5t51.5 171.5v177q0 115 -44.5 173t-148.5 58h-182v-633zM313 1518v178h107v-178h-107z" />
    <glyph glyph-name="uni1E60" unicode="&#x1e60;" horiz-adv-x="745" 
d="M59 344v78h113v-84q0 -113 49 -176.5t150 -63.5q100 0 148 63.5t48 176.5q0 74 -31.5 133t-77.5 102t-124 103q-88 68 -141.5 119t-90 123.5t-36.5 171.5q0 168 77.5 262t231.5 94q157 0 234 -96.5t77 -259.5v-35h-115v41q0 113 -46 176t-146 63q-193 0 -193 -237
q0 -76 32 -135.5t78 -102.5t126 -104q88 -68 140 -118t89 -123t37 -171q0 -164 -79 -260t-236 -96q-158 0 -236 96t-78 260zM322 1520v176h106v-176h-106z" />
    <glyph glyph-name="uni1E61" unicode="&#x1e61;" horiz-adv-x="745" 
d="M59 344v78h113v-84q0 -113 49 -176.5t150 -63.5q100 0 148 63.5t48 176.5q0 74 -31.5 133t-77.5 102t-124 103q-88 68 -141.5 119t-90 123.5t-36.5 171.5q0 168 77.5 262t231.5 94q157 0 234 -96.5t77 -259.5v-35h-115v41q0 113 -46 176t-146 63q-193 0 -193 -237
q0 -76 32 -135.5t78 -102.5t126 -104q88 -68 140 -118t89 -123t37 -171q0 -164 -79 -260t-236 -96q-158 0 -236 96t-78 260zM330 1530v176h106v-176h-106z" />
    <glyph glyph-name="uni1E6A" unicode="&#x1e6a;" horiz-adv-x="755" 
d="M37 1323v111h682v-111h-281v-1323h-121v1323h-280zM326 1520v178h106v-178h-106z" />
    <glyph glyph-name="uni1E6B" unicode="&#x1e6b;" horiz-adv-x="755" 
d="M35 1323v111h682v-111h-281v-1323h-121v1323h-280zM322 1518v178h108v-178h-108z" />
    <glyph glyph-name="Wgrave" unicode="&#x1e80;" horiz-adv-x="1198" 
d="M47 1434h119l194 -1272l191 1268h123l182 -1266l188 1270h107l-215 -1434h-158l-170 1092l-176 -1092h-168zM432 1726h127l146 -200h-93z" />
    <glyph glyph-name="wgrave" unicode="&#x1e81;" horiz-adv-x="1198" 
d="M47 1434h119l194 -1272l191 1268h123l182 -1266l188 1270h107l-215 -1434h-158l-170 1092l-176 -1092h-168zM432 1726h127l146 -200h-93z" />
    <glyph glyph-name="Wacute" unicode="&#x1e82;" horiz-adv-x="1198" 
d="M47 1434h119l194 -1272l191 1268h123l182 -1266l188 1270h107l-215 -1434h-158l-170 1092l-176 -1092h-168zM512 1516l145 200h123l-180 -200h-88z" />
    <glyph glyph-name="wacute" unicode="&#x1e83;" horiz-adv-x="1198" 
d="M47 1434h119l194 -1272l191 1268h123l182 -1266l188 1270h107l-215 -1434h-158l-170 1092l-176 -1092h-168zM512 1516l145 200h123l-180 -200h-88z" />
    <glyph glyph-name="Wdieresis" unicode="&#x1e84;" horiz-adv-x="1198" 
d="M47 1434h119l194 -1272l191 1268h123l182 -1266l188 1270h107l-215 -1434h-158l-170 1092l-176 -1092h-168zM440 1522v178h107v-178h-107zM662 1522v178h108v-178h-108z" />
    <glyph glyph-name="wdieresis" unicode="&#x1e85;" horiz-adv-x="1198" 
d="M47 1434h119l194 -1272l191 1268h123l182 -1266l188 1270h107l-215 -1434h-158l-170 1092l-176 -1092h-168zM440 1522v178h107v-178h-107zM662 1522v178h108v-178h-108z" />
    <glyph glyph-name="Ygrave" unicode="&#x1ef2;" horiz-adv-x="815" 
d="M33 1434h125l254 -734l254 734h116l-315 -897v-537h-121v537zM227 1726h129l144 -200h-92z" />
    <glyph glyph-name="ygrave" unicode="&#x1ef3;" horiz-adv-x="815" 
d="M33 1434h125l254 -734l254 734h116l-315 -897v-537h-121v537zM227 1726h129l144 -200h-92z" />
    <glyph glyph-name="uni2000" unicode="&#x2000;" horiz-adv-x="904" 
 />
    <glyph glyph-name="uni2001" unicode="&#x2001;" horiz-adv-x="1808" 
 />
    <glyph glyph-name="uni2002" unicode="&#x2002;" horiz-adv-x="904" 
 />
    <glyph glyph-name="uni2003" unicode="&#x2003;" horiz-adv-x="1808" 
 />
    <glyph glyph-name="uni2004" unicode="&#x2004;" horiz-adv-x="602" 
 />
    <glyph glyph-name="uni2005" unicode="&#x2005;" horiz-adv-x="452" 
 />
    <glyph glyph-name="uni2006" unicode="&#x2006;" horiz-adv-x="301" 
 />
    <glyph glyph-name="uni2007" unicode="&#x2007;" horiz-adv-x="301" 
 />
    <glyph glyph-name="uni2008" unicode="&#x2008;" horiz-adv-x="226" 
 />
    <glyph glyph-name="uni2009" unicode="&#x2009;" horiz-adv-x="361" 
 />
    <glyph glyph-name="uni200A" unicode="&#x200a;" horiz-adv-x="100" 
 />
    <glyph glyph-name="uni2010" unicode="&#x2010;" horiz-adv-x="534" 
d="M76 664v106h381v-106h-381z" />
    <glyph glyph-name="uni2011" unicode="&#x2011;" horiz-adv-x="534" 
d="M76 664v106h381v-106h-381z" />
    <glyph glyph-name="figuredash" unicode="&#x2012;" horiz-adv-x="874" 
d="M27 668v98h821v-98h-821z" />
    <glyph glyph-name="endash" unicode="&#x2013;" horiz-adv-x="858" 
d="M27 668v98h804v-98h-804z" />
    <glyph glyph-name="emdash" unicode="&#x2014;" horiz-adv-x="1478" 
d="M27 668v98h1425v-98h-1425z" />
    <glyph glyph-name="quoteleft" unicode="&#x2018;" horiz-adv-x="292" 
d="M82 1079v178l68 177h51l-41 -166l39 -4v-185h-117z" />
    <glyph glyph-name="quoteright" unicode="&#x2019;" horiz-adv-x="292" 
d="M92 1079l41 166l-39 6v183h117v-177l-68 -178h-51z" />
    <glyph glyph-name="quotesinglbase" unicode="&#x201a;" horiz-adv-x="292" 
d="M92 -166l41 166l-39 6v182h117v-178l-68 -176h-51z" />
    <glyph glyph-name="quotedblleft" unicode="&#x201c;" horiz-adv-x="481" 
d="M82 1079v178l68 177h51l-41 -166l39 -2v-187h-117zM270 1079v178l66 177h53l-41 -166l39 -2v-187h-117z" />
    <glyph glyph-name="quotedblright" unicode="&#x201d;" horiz-adv-x="481" 
d="M82 1079l41 166l-39 6v183h117v-177l-68 -178h-51zM270 1079l41 166l-39 6v183h117v-177l-67 -178h-52z" />
    <glyph glyph-name="quotedblbase" unicode="&#x201e;" horiz-adv-x="489" 
d="M92 -166l43 166h-41v188h117v-178l-68 -176h-51zM289 -166l43 166h-41v188h117v-178l-68 -176h-51z" />
    <glyph glyph-name="dagger" unicode="&#x2020;" horiz-adv-x="792" 
d="M61 940v96h287v398h98v-398h287v-96h-287v-1073h-98v1073h-287z" />
    <glyph glyph-name="daggerdbl" unicode="&#x2021;" horiz-adv-x="792" 
d="M61 266v96h287v578h-287v96h287v398h98v-398h287v-96h-287v-578h287v-96h-287v-399h-98v399h-287z" />
    <glyph glyph-name="bullet" unicode="&#x2022;" horiz-adv-x="591" 
d="M121 717q0 72 51 124t123 52t124 -52.5t52 -123.5q0 -72 -52 -124t-124 -52t-123 52t-51 124z" />
    <glyph glyph-name="ellipsis" unicode="&#x2026;" horiz-adv-x="661" 
d="M82 0v188h117v-188h-117zM272 0v188h117v-188h-117zM463 0v188h117v-188h-117z" />
    <glyph glyph-name="uni202F" unicode="&#x202f;" horiz-adv-x="361" 
 />
    <glyph glyph-name="perthousand" unicode="&#x2030;" horiz-adv-x="1753" 
d="M74 766v442q0 104 49 168t147 64q101 0 151 -63.5t50 -168.5v-442q0 -106 -50 -168.5t-151 -62.5q-98 0 -147 62t-49 169zM154 760q0 -154 116 -154q63 0 92 42t29 112v452q0 70 -28.5 112t-92.5 42q-116 0 -116 -154v-452zM297 0l565 1434h76l-565 -1434h-76zM774 227
v441q0 104 49 166.5t150 62.5q100 0 148 -62.5t48 -166.5v-441q0 -106 -48 -168.5t-148 -62.5t-149.5 63.5t-49.5 167.5zM854 221q0 -68 28.5 -110.5t90.5 -42.5q61 0 90 43t29 110v451q0 70 -29 110.5t-90 40.5q-62 0 -90.5 -41t-28.5 -110v-451zM1282 227v441
q0 104 49 166.5t150 62.5q100 0 149 -62.5t49 -166.5v-441q0 -106 -49 -168.5t-149 -62.5t-149.5 63.5t-49.5 167.5zM1364 221q0 -68 28.5 -110.5t88.5 -42.5q61 0 89.5 42t28.5 111v451q0 152 -118 151q-60 0 -88.5 -41t-28.5 -110v-451z" />
    <glyph glyph-name="guilsinglleft" unicode="&#x2039;" horiz-adv-x="342" 
d="M49 719l129 514h117l-131 -514l131 -531h-117z" />
    <glyph glyph-name="guilsinglright" unicode="&#x203a;" horiz-adv-x="342" 
d="M49 190l129 529l-129 516h113l133 -516l-133 -529h-113z" />
    <glyph glyph-name="fraction" unicode="&#x2044;" horiz-adv-x="313" 
d="M-162 0l565 1434h74l-565 -1434h-74z" />
    <glyph glyph-name="uni205F" unicode="&#x205f;" horiz-adv-x="452" 
 />
    <glyph glyph-name="uni2070" unicode="&#x2070;" horiz-adv-x="559" 
d="M74 940v467q0 106 51 168.5t154 62.5q102 0 154 -62.5t52 -168.5v-467q0 -106 -52 -168.5t-154 -62.5t-153.5 62.5t-51.5 168.5zM154 934q0 -72 30.5 -112t94.5 -40q66 0 96.5 40t30.5 112v479q0 72 -31 112t-96 40q-63 0 -94 -40t-31 -112v-479z" />
    <glyph glyph-name="uni2074" unicode="&#x2074;" horiz-adv-x="569" 
d="M59 909v74l295 645h88v-645h74v-74h-74v-190h-80v190h-303zM133 983h229v492z" />
    <glyph glyph-name="uni2075" unicode="&#x2075;" horiz-adv-x="555" 
d="M78 936v53h76v-57q0 -70 30.5 -111t91.5 -41q123 0 123 152v164q0 70 -29.5 110.5t-93.5 40.5q-43 0 -75.5 -25.5t-38.5 -72.5v-19h-78l27 496h348v-74h-279l-14 -305q45 76 139 76q88 0 131 -59.5t43 -161.5v-166q0 -106 -49 -168.5t-151 -62.5q-100 0 -150.5 62
t-50.5 169z" />
    <glyph glyph-name="uni2076" unicode="&#x2076;" horiz-adv-x="559" 
d="M76 940v463q0 109 51 172t156 63q102 0 151 -61t49 -168v-12h-75v16q0 152 -123 152q-127 0 -127 -164v-215q20 47 59 72.5t92 25.5q90 0 134 -60.5t44 -162.5v-121q0 -106 -51 -168.5t-153 -62.5t-154.5 62.5t-52.5 168.5zM158 934q0 -152 125 -152q61 0 93 41t32 111
v123q0 70 -32 111.5t-93 41.5q-66 0 -95.5 -41t-29.5 -112v-123z" />
    <glyph glyph-name="uni2077" unicode="&#x2077;" horiz-adv-x="552" 
d="M76 1554v74h403v-69l-248 -840h-79l245 835h-321z" />
    <glyph glyph-name="uni2078" unicode="&#x2078;" horiz-adv-x="563" 
d="M70 936v65q0 150 106 193q-106 43 -106 190v31q0 102 55 162.5t156 60.5q102 0 157.5 -60t55.5 -163v-31q0 -147 -107 -190q106 -43 107 -193v-65q0 -104 -54.5 -165.5t-158.5 -61.5t-157.5 60t-53.5 167zM150 936q0 -74 33.5 -114t97.5 -40q63 0 97 40t34 114v74
q0 74 -32 109.5t-99 35.5q-131 0 -131 -145v-74zM150 1372q0 -143 131 -143t131 143v39q0 154 -131 154q-64 0 -97.5 -39t-33.5 -115v-39z" />
    <glyph glyph-name="uni2079" unicode="&#x2079;" horiz-adv-x="559" 
d="M72 938v14h75v-18q0 -72 32 -112t95 -40q127 0 127 164v215q-39 -98 -153 -98q-88 0 -132 59.5t-44 161.5v123q0 106 51 168.5t153 62.5q103 0 154 -62.5t51 -168.5v-463q0 -111 -50 -173t-157 -62q-100 0 -151 61t-51 168zM152 1290q0 -72 30.5 -112.5t93.5 -40.5t94 41
t31 112v123q0 72 -30.5 112t-94.5 40q-63 0 -93.5 -40t-30.5 -112v-123z" />
    <glyph glyph-name="uni2080" unicode="&#x2080;" horiz-adv-x="559" 
d="M74 88v467q0 107 51 169t154 62q102 0 154 -62t52 -169v-467q0 -106 -52 -168.5t-154 -62.5t-153.5 62.5t-51.5 168.5zM154 82q0 -72 30.5 -112t94.5 -40q66 0 96.5 40t30.5 112v479q0 72 -31 112t-96 40q-63 0 -94 -40t-31 -112v-479z" />
    <glyph glyph-name="uni2081" unicode="&#x2081;" horiz-adv-x="372" 
d="M61 594v61q61 2 97.5 34t56.5 87h59v-909h-79v784q-52 -47 -134 -57z" />
    <glyph glyph-name="uni2082" unicode="&#x2082;" horiz-adv-x="555" 
d="M84 -74q0 109 44 182.5t130 163.5q76 82 113 141.5t37 139.5q0 162 -125 162q-63 0 -93 -43t-30 -115v-70h-76v66q0 106 50 170.5t153 64.5q102 0 151 -63t49 -170q0 -92 -42 -160.5t-126 -158.5q-78 -84 -116.5 -146.5t-38.5 -142.5v-6h313v-74h-393v59z" />
    <glyph glyph-name="uni2083" unicode="&#x2083;" horiz-adv-x="555" 
d="M76 88v55h76v-61q0 -70 30.5 -111t91.5 -41q125 0 125 160v70q0 68 -32.5 105.5t-92.5 37.5h-59v74h61q55 0 89 39t34 100v37q0 160 -125 160q-61 0 -91.5 -41t-30.5 -111v-41h-76v35q0 109 50 170t153 61q100 0 149 -61t49 -170v-23q0 -70 -27.5 -118.5t-82.5 -69.5
q55 -18 82.5 -68.5t27.5 -117.5v-70q0 -109 -49 -170t-149 -61q-102 0 -152.5 61.5t-50.5 169.5z" />
    <glyph glyph-name="uni2084" unicode="&#x2084;" horiz-adv-x="569" 
d="M59 53v74l295 643h88v-643h74v-74h-74v-192h-80v192h-303zM133 127h229v489z" />
    <glyph glyph-name="uni2085" unicode="&#x2085;" horiz-adv-x="555" 
d="M78 88v57h76v-59q0 -70 30.5 -111t91.5 -41q123 0 123 152v164q0 70 -29.5 110.5t-93.5 40.5q-43 0 -75.5 -26.5t-38.5 -73.5v-16h-78l27 495h348v-73h-279l-14 -306q47 74 139 74q88 0 131 -59.5t43 -161.5v-166q0 -104 -49 -166.5t-151 -62.5q-100 0 -150.5 62.5
t-50.5 166.5z" />
    <glyph glyph-name="uni2086" unicode="&#x2086;" horiz-adv-x="559" 
d="M76 88v463q0 109 51 172t156 63q102 0 151 -61t49 -168v-12h-75v16q0 152 -123 152q-127 0 -127 -164v-215q20 47 59 72.5t92 25.5q90 0 134 -60.5t44 -162.5v-121q0 -106 -51 -168.5t-153 -62.5t-154.5 62.5t-52.5 168.5zM158 82q0 -152 125 -152q61 0 93 41t32 111v123
q0 70 -32 111.5t-93 41.5q-66 0 -95.5 -41t-29.5 -112v-123z" />
    <glyph glyph-name="uni2087" unicode="&#x2087;" horiz-adv-x="552" 
d="M76 709v73h403v-69l-248 -840h-79l245 836h-321z" />
    <glyph glyph-name="uni2088" unicode="&#x2088;" horiz-adv-x="563" 
d="M70 84v66q0 150 106 192q-106 43 -106 190v31q0 102 55 162.5t156 60.5q102 0 157.5 -60t55.5 -163v-31q0 -147 -107 -190q106 -43 107 -192v-66q0 -104 -54.5 -165.5t-158.5 -61.5t-157.5 60t-53.5 167zM150 84q0 -74 33.5 -114t97.5 -40q63 0 97 40t34 114v74
q0 74 -32 109.5t-99 35.5q-131 0 -131 -145v-74zM150 520q0 -143 131 -143t131 143v39q0 154 -131 154q-64 0 -97.5 -39t-33.5 -115v-39z" />
    <glyph glyph-name="uni2089" unicode="&#x2089;" horiz-adv-x="559" 
d="M72 86v14h75v-18q0 -72 32 -112t95 -40q127 0 127 164v215q-39 -98 -153 -98q-88 0 -132 59.5t-44 161.5v123q0 106 51 168.5t153 62.5q103 0 154 -62t51 -169v-463q0 -111 -50 -173t-157 -62q-100 0 -151 61.5t-51 167.5zM152 438q0 -72 30.5 -112.5t93.5 -40.5t94 41
t31 112v123q0 72 -30.5 112t-94.5 40q-63 0 -93.5 -40t-30.5 -112v-123z" />
    <glyph glyph-name="Euro" unicode="&#x20ac;" horiz-adv-x="796" 
d="M27 578v65h90v158h-90v65h90v219q0 166 75.5 263.5t231.5 97.5t231.5 -97.5t75.5 -263.5v-84h-113v91q0 113 -45 178t-145 65t-145 -65.5t-45 -177.5v-226h376v-65h-376v-158h376v-65h-376v-236q0 -113 45 -178.5t145 -65.5t145 65.5t45 178.5v100h113v-94
q0 -164 -75.5 -262t-231.5 -98t-231.5 98t-75.5 262v230h-90z" />
    <glyph glyph-name="uni20B9" unicode="&#x20b9;" 
d="M63 674v92h152q125 0 186.5 58.5t65.5 164.5h-399v96h399q0 119 -64.5 185.5t-187.5 66.5h-147v97h645v-97h-264q67 -32 100 -101t35 -151h129v-96h-129q-8 -145 -96.5 -231t-243.5 -86h-49l505 -672h-131z" />
    <glyph glyph-name="uni2117" unicode="&#x2117;" horiz-adv-x="1511" 
d="M55 717q0 205 90.5 368.5t250 258t360.5 94.5q200 0 360 -94.5t250 -258t90 -368.5q0 -203 -90 -368t-251 -259t-359 -94q-199 0 -359.5 94t-251 259t-90.5 368zM137 717q0 -180 80 -326.5t220.5 -230.5t318.5 -84q176 0 318.5 84t222 230.5t79.5 326.5t-79.5 326.5
t-222 230.5t-318.5 84q-178 0 -318.5 -84t-220.5 -229.5t-80 -327.5zM584 260v877h215q114 0 165.5 -59.5t51.5 -174.5v-82q0 -119 -55.5 -175t-174.5 -56h-116v-330h-86zM670 672h110q80 0 115 38t35 121v64q0 78 -31 120t-104 42h-125v-385z" />
    <glyph glyph-name="trademark" unicode="&#x2122;" horiz-adv-x="1181" 
d="M25 1360v74h432v-74h-174v-655h-80v655h-178zM553 705v729h113l172 -603l170 603h112v-729h-78v608l-168 -602h-75l-174 598v-604h-72z" />
    <glyph glyph-name="uni2153" unicode="&#x2153;" horiz-adv-x="1193" 
d="M117 1251v62q61 2 97 33.5t56 87.5h60v-910h-80v785q-51 -48 -133 -58zM229 0l566 1434h77l-565 -1434h-78zM713 221v55h78v-61q0 -152 122 -152q123 0 123 160v70q0 68 -32.5 105.5t-94.5 37.5h-57v74h61q55 0 89 39t34 100v37q0 160 -123 160q-63 0 -92.5 -41
t-29.5 -111v-41h-78v35q0 109 50 170.5t152 61.5q101 0 152 -62.5t51 -169.5v-22q0 -70 -28.5 -119t-85.5 -70q57 -18 85.5 -67.5t28.5 -118.5v-70q0 -106 -51 -168.5t-152 -62.5q-102 0 -152 61.5t-50 169.5z" />
    <glyph glyph-name="uni2154" unicode="&#x2154;" horiz-adv-x="1255" 
d="M84 522v60q0 109 44 183.5t130 166.5q74 76 112 136t38 140q0 162 -125 162q-63 0 -93 -43t-30 -115v-67h-76v65q0 106 50 170t153 64q102 0 151 -62.5t49 -171.5q0 -92 -43 -161.5t-125 -155.5q-78 -84 -116.5 -146.5t-38.5 -142.5v-8h313v-74h-393zM315 0l566 1434h73
l-565 -1434h-74zM776 221v55h76v-61q0 -152 123 -152t123 160v70q0 68 -32 105.5t-93 37.5h-60v74h64q55 0 88 39t33 100v37q0 160 -123 160q-63 0 -93 -41t-30 -111v-41h-76v35q0 109 49 170.5t152 61.5q100 0 151.5 -62.5t51.5 -169.5v-22q0 -70 -30 -119t-85 -70
q57 -18 86 -67.5t29 -118.5v-70q0 -106 -51.5 -168.5t-151.5 -62.5q-102 0 -151.5 61.5t-49.5 169.5z" />
    <glyph glyph-name="oneeighth" unicode="&#x215b;" horiz-adv-x="1206" 
d="M117 1251v62q61 2 97 33.5t56 87.5h60v-910h-80v785q-51 -48 -133 -58zM229 0l566 1434h77l-565 -1434h-78zM713 217v66q0 150 106 192q-106 43 -106 191v30q0 102 55 163t158 61q100 0 155.5 -60.5t55.5 -163.5v-30q0 -147 -105 -191q104 -43 105 -192v-66
q0 -106 -53.5 -166.5t-157.5 -60.5t-158.5 61.5t-54.5 165.5zM795 217q0 -74 32.5 -114t98.5 -40t98.5 40t32.5 114v74q0 145 -131 145t-131 -145v-74zM795 653q0 -143 131 -143t131 143v39q0 76 -34 115t-97 39q-131 0 -131 -154v-39z" />
    <glyph glyph-name="threeeighths" unicode="&#x215c;" horiz-adv-x="1275" 
d="M76 745v56h76v-62q0 -70 30.5 -110.5t91.5 -40.5q125 0 125 160v69q0 68 -32.5 106t-92.5 38h-59v73h61q55 0 89 39t34 101v36q0 160 -125 160q-61 0 -91.5 -41t-30.5 -110v-41h-76v34q0 109 50 170.5t153 61.5q100 0 149 -61.5t49 -170.5v-22q0 -70 -27.5 -119
t-82.5 -70q111 -37 110 -186v-70q0 -109 -49 -170t-149 -61q-102 0 -152.5 61.5t-50.5 169.5zM313 0l566 1434h73l-565 -1434h-74zM784 217v66q0 152 107 192q-106 43 -107 191v30q0 104 54.5 164t156.5 60q103 0 157 -59.5t54 -164.5v-30q0 -147 -104 -191
q104 -43 104 -192v-66q0 -106 -53 -166.5t-158 -60.5q-104 0 -157.5 60.5t-53.5 166.5zM864 217q0 -74 33 -114t98 -40q63 0 97 40t34 114v74q0 74 -31.5 109.5t-99.5 35.5q-67 0 -99 -35.5t-32 -109.5v-74zM864 653q0 -143 131 -143t131 143v39q0 76 -33.5 115t-97.5 39
q-63 0 -97 -39t-34 -115v-39z" />
    <glyph glyph-name="seveneighths" unicode="&#x215e;" horiz-adv-x="1171" 
d="M76 1360v74h403v-70l-248 -840h-79l245 836h-321zM178 0l565 1434h76l-565 -1434h-76zM678 217v66q0 150 106 192q-106 43 -106 191v30q0 102 55 163t158 61q102 0 156.5 -59.5t54.5 -164.5v-30q0 -147 -107 -191q106 -43 107 -192v-66q0 -106 -53.5 -166.5t-157.5 -60.5
t-158.5 61.5t-54.5 165.5zM758 217q0 -74 33.5 -114t99.5 -40q63 0 96 40t33 114v74q0 74 -32 109.5t-97 35.5q-133 0 -133 -145v-74zM758 653q0 -143 133 -143q129 0 129 143v39q0 154 -129 154q-66 0 -99.5 -39t-33.5 -115v-39z" />
    <glyph glyph-name="minus" unicode="&#x2212;" horiz-adv-x="786" 
d="M61 672v90h664v-90h-664z" />
    <glyph glyph-name="infinity" unicode="&#x221e;" horiz-adv-x="1169" 
d="M80 743q0 119 69.5 181.5t192.5 62.5h27q174 0 225 -121q43 121 219 121h27q123 0 192.5 -62.5t69.5 -181.5t-69.5 -181t-192.5 -62h-27q-176 0 -219 118q-49 -119 -225 -118h-27q-123 0 -192.5 62.5t-69.5 180.5zM168 743q0 -158 176 -157h35q172 0 172 157
q0 76 -43 117t-129 41h-35q-88 0 -132 -41t-44 -117zM631 743q0 -158 170 -157h35q86 0 132 41t46 116q0 76 -46 117t-132 41h-35q-170 0 -170 -158z" />
    <glyph glyph-name="approxequal" unicode="&#x2248;" horiz-adv-x="786" 
d="M37 510q53 78 101 113.5t106 35.5q43 0 79.5 -16t92.5 -51q45 -29 76.5 -44.5t62.5 -15.5q39 0 66.5 27t66.5 86l62 -57q-47 -78 -93.5 -113t-101.5 -35q-39 0 -77 16.5t-87 49.5q-49 31 -82 46t-67 15q-41 0 -73 -26.5t-71 -83.5zM37 842q53 78 101 113.5t106 35.5
q43 0 79.5 -16.5t92.5 -50.5q45 -29 76.5 -44.5t62.5 -15.5q39 0 66.5 27t66.5 86l62 -57q-47 -78 -93.5 -113t-101.5 -35q-39 0 -77 16.5t-87 49.5q-53 31 -85 45t-64 14q-43 0 -74 -26.5t-70 -84.5z" />
    <glyph glyph-name="uni25FC" unicode="&#x25fc;" horiz-adv-x="1433" 
d="M0 0v1434h1434v-1434h-1434z" />
    <glyph glyph-name="uniF6C3" unicode="&#xf6c3;" horiz-adv-x="0" 
d="M145 -360l43 116h-36v176h102v-163l-61 -129h-48z" />
    <glyph glyph-name="NULL" horiz-adv-x="0" 
 />
    <glyph glyph-name="zero.alt" horiz-adv-x="780" 
d="M70 350v735q0 166 79.5 263.5t239.5 97.5t241 -97.5t81 -263.5v-735q0 -166 -81 -264t-241 -98t-239.5 98t-79.5 264zM190 342q0 -115 49.5 -179.5t149.5 -64.5q102 0 151.5 64.5t49.5 179.5v750q0 115 -49 180t-152 65q-100 0 -149.5 -65.5t-49.5 -179.5v-750z" />
    <glyph glyph-name="one.alt" horiz-adv-x="497" 
d="M53 1137v98q100 6 155.5 58.5t88.5 140.5h88v-1434h-119v1233q-84 -88 -213 -96z" />
    <glyph glyph-name="two.alt" horiz-adv-x="737" 
d="M63 0v92q0 119 38 215t92.5 167t142.5 165q80 86 126 144.5t77.5 132t31.5 161.5q0 125 -47 192.5t-151 67.5q-100 0 -147.5 -67.5t-47.5 -182.5v-110h-115v102q0 168 77 267.5t237 99.5t236.5 -97.5t76.5 -265.5q0 -100 -36 -186t-87 -152.5t-139 -162.5
q-82 -88 -130 -150.5t-82 -140.5t-34 -168v-12h498v-111h-617z" />
    <glyph glyph-name="three.alt" horiz-adv-x="755" 
d="M63 350v88h115v-96q0 -113 48 -178.5t149 -65.5q199 0 198 254v111q0 111 -51 171t-149 60h-92v107h100q90 6 141 65.5t51 157.5v57q0 256 -198 256q-100 0 -148.5 -65.5t-48.5 -179.5v-64h-115v57q0 168 78 264.5t238 96.5q158 0 235.5 -96.5t77.5 -264.5v-36
q0 -109 -47 -186t-135 -109q90 -31 136 -108t46 -185v-111q0 -168 -77.5 -265t-235.5 -97q-160 0 -238 97t-78 265z" />
    <glyph glyph-name="four.alt" horiz-adv-x="800" 
d="M45 305v111l463 1018h133v-1018h119v-111h-119v-305h-119v305h-477zM158 416h364v788z" />
    <glyph glyph-name="five.alt" horiz-adv-x="757" 
d="M66 350v84h112v-92q0 -113 49 -178.5t150 -65.5q102 0 149 64.5t47 179.5v258q0 115 -47 179.5t-149 64.5q-74 0 -123 -40t-64 -120v-27h-114l39 777h549v-109h-441l-24 -491q39 61 93 90.5t130 29.5q139 0 205.5 -93t66.5 -253v-258q0 -168 -77.5 -265t-237.5 -97
q-158 0 -235.5 97t-77.5 265z" />
    <glyph glyph-name="six.alt" horiz-adv-x="774" 
d="M70 350v729q0 172 78.5 269.5t242.5 97.5q160 0 238 -95.5t78 -260.5v-21h-115v29q0 113 -47 176t-150 63q-205 0 -205 -262v-346q68 158 246 158q139 0 207 -92.5t68 -251.5v-193q0 -166 -81 -264t-241 -98t-239.5 98t-79.5 264zM190 342q0 -115 49.5 -179.5
t149.5 -64.5q102 0 151.5 64.5t49.5 179.5v190q0 115 -49 180.5t-152 65.5q-100 0 -149.5 -66.5t-49.5 -179.5v-190z" />
    <glyph glyph-name="seven.alt" horiz-adv-x="702" 
d="M41 1325v109h621v-107l-377 -1327h-121l377 1325h-500z" />
    <glyph glyph-name="eight.alt" horiz-adv-x="788" 
d="M63 344v102q0 244 183 306q-182 61 -183 299v45q0 166 85 258t245 92q164 0 248 -92t84 -258v-45q0 -115 -43 -192t-133 -107q176 -59 176 -306v-102q0 -168 -84 -262t-248 -94q-162 0 -246 94t-84 262zM184 346q0 -121 53.5 -184.5t155.5 -63.5q104 0 157.5 63.5
t53.5 184.5v115q0 233 -211 233q-209 0 -209 -233v-115zM184 1030q0 -115 54.5 -172t154.5 -57q211 0 211 229v64q0 121 -53 182t-158 61q-100 0 -154.5 -62.5t-54.5 -180.5v-64z" />
    <glyph glyph-name="nine.alt" horiz-adv-x="774" 
d="M63 893v192q0 166 81 264.5t241 98.5t240 -98.5t80 -264.5v-729q0 -172 -79 -270t-243 -98q-160 0 -238.5 96t-78.5 262v23h114v-29q0 -113 50.5 -177.5t150.5 -64.5q205 0 205 260v349q-61 -158 -246 -158q-139 0 -208 92t-69 252zM184 901q0 -115 49.5 -180.5
t151.5 -65.5t151.5 65.5t49.5 180.5v191q0 115 -49.5 179t-151.5 64t-151.5 -64.5t-49.5 -178.5v-191z" />
    <glyph glyph-name="Edotaaccent" horiz-adv-x="829" 
 />
    <glyph glyph-name="edotaaccent" horiz-adv-x="829" 
 />
    <glyph glyph-name="lcute" horiz-adv-x="829" 
 />
    </font>
</defs>
</svg>
