<svg id="Layer_1" data-name="Layer 1" xmlns="http://www.w3.org/2000/svg" viewBox="0 0 1920 1167.6"><defs><style>.cls-1{fill:#344b76;}</style></defs><title>Artboard 1</title><path class="cls-1" d="M627.85,461.67a9,9,0,0,1-2.71-2.38,6.18,6.18,0,0,1-1.23-3.06,5,5,0,0,1,.69-3.15,4.58,4.58,0,0,1,1.26-1.4,3.4,3.4,0,0,1,1.63-.66l1-.11-7.89-4.62a4.64,4.64,0,0,0-1.28-.53,3.82,3.82,0,0,0-1.26-.06,2.6,2.6,0,0,0-1.2.5,3.84,3.84,0,0,0-1,1.16,3.42,3.42,0,0,0-.54,2.53,2.9,2.9,0,0,0,1.48,1.87,9.28,9.28,0,0,0,1.66.76l-.94,1.6a6.77,6.77,0,0,1-1.82-.67,4.31,4.31,0,0,1-2.1-2.91,5.43,5.43,0,0,1,.8-4,6.47,6.47,0,0,1,1.56-1.88,4,4,0,0,1,1.78-.85,4.72,4.72,0,0,1,1.87.05,6.91,6.91,0,0,1,1.93.79l12.12,7.1a8,8,0,0,1,3.66,4,5.05,5.05,0,0,1-.38,4.55,5.14,5.14,0,0,1-2.43,2.19,5.91,5.91,0,0,1-3.26.43A9.09,9.09,0,0,1,627.85,461.67Zm1-1.74A8.65,8.65,0,0,0,631.5,461a4.3,4.3,0,0,0,2.35-.13,3.09,3.09,0,0,0,1.69-1.42,3.29,3.29,0,0,0,.13-3.09,6.65,6.65,0,0,0-2.93-3,6.82,6.82,0,0,0-3.92-1.07,3.19,3.19,0,0,0-2.75,1.59,3.09,3.09,0,0,0-.41,2.15,4.43,4.43,0,0,0,1,2.11A8.15,8.15,0,0,0,628.86,459.93Z"/><path class="cls-1" d="M636.43,446.81l-15.82-10.13,1-1.6,15.5,9.93a8.36,8.36,0,0,0,4.34,1.56,3.39,3.39,0,0,0,3-1.69,3.47,3.47,0,0,0,.39-3.1,5.58,5.58,0,0,0-2.5-2.92,5.24,5.24,0,0,0-4.2-.76,4.63,4.63,0,0,1-3.68-.45,9,9,0,0,1-2-1.93l1.07-1.67a6.19,6.19,0,0,0,1.84,2.12,4.07,4.07,0,0,0,3.34.06,5.63,5.63,0,0,1,4.74,1,7.53,7.53,0,0,1,2.42,2.41,5.76,5.76,0,0,1,.91,3.06,5.91,5.91,0,0,1-2.82,5,5,5,0,0,1-2.36.72A7.74,7.74,0,0,1,639,448,10.64,10.64,0,0,1,636.43,446.81Z"/><path class="cls-1" d="M645,432.78q-5.34-3.81-2.16-8.27a5.42,5.42,0,0,1,.9-1,3.54,3.54,0,0,1,1-.61,3.44,3.44,0,0,1,1.1-.24,4.69,4.69,0,0,1,1.22.08l1.28.23.19-.27-.73-1c-1-1.38-.84-2.93.39-4.67a5.21,5.21,0,0,1,3.79-2.34,7.11,7.11,0,0,1,4.84,1.59c1.74,1.24,3.2,3.5,4.36,6.77l-1.64,2.3q-1.34-5.55-4-7.44a14.71,14.71,0,0,0-1.34-.87,6.06,6.06,0,0,0-1.23-.52,2.8,2.8,0,0,0-1.19-.12,2.56,2.56,0,0,0-1.11.46,4,4,0,0,0-1.08,1.1q-2.22,3.09,2,6.08l1.27.9-1,1.43-1.27-.9q-4.18-3-6.33,0a3.92,3.92,0,0,0-.73,1.6,2.48,2.48,0,0,0,.2,1.47,4.67,4.67,0,0,0,.92,1.31,10.45,10.45,0,0,0,1.55,1.31c1.74,1.24,4.56,1.72,8.48,1.43l-1.53,2.14C649.42,434.65,646.71,434,645,432.78Z"/><path class="cls-1" d="M659.9,412.81a11.2,11.2,0,0,1-1.07-1,8.92,8.92,0,0,1-.9-1.13,8.33,8.33,0,0,1-.66-1.25,5.79,5.79,0,0,1-.36-1.33,5.25,5.25,0,0,1,0-1.37,4.76,4.76,0,0,1,.39-1.4,5.55,5.55,0,0,1,.84-1.38,4.2,4.2,0,0,1,5-1.49c-.92-2-.8-3.71.34-5.14a4.66,4.66,0,0,1,3.63-2,7.26,7.26,0,0,1,4.52,1.94,6.25,6.25,0,0,1,2.64,5.78l.14.12a4.87,4.87,0,0,1,5.16,1l1.44,1.16a6.48,6.48,0,0,1,1.94,2.42,5,5,0,0,1,.34,2.92,6.82,6.82,0,0,1-1.51,3.13,8.92,8.92,0,0,1-2.15,2,5.76,5.76,0,0,1-2.2.88,5.39,5.39,0,0,1-2,0,3.94,3.94,0,0,1-1.6-.75,5.59,5.59,0,0,1-1.1-1.07l1.25-1.54c.53.49.91.83,1.13,1a2.58,2.58,0,0,0,.65.38,3.07,3.07,0,0,0,.92.2,3.38,3.38,0,0,0,1.13-.12,4.07,4.07,0,0,0,1.28-.65,6.88,6.88,0,0,0,1.35-1.31,4.25,4.25,0,0,0,.86-1.69,3.5,3.5,0,0,0,0-1.64,4.67,4.67,0,0,0-1.6-2.51L678,405.56l-.61-.48-.58-.4a3.43,3.43,0,0,0-.6-.33,3.47,3.47,0,0,0-.56-.15,1.17,1.17,0,0,0-.59,0A2.45,2.45,0,0,0,674,405l-1.05,1.3-1.3-1.05.85-1a2.14,2.14,0,0,0,.48-1.32,3,3,0,0,0-.37-1.44,7.53,7.53,0,0,0-.93-1.37,9.43,9.43,0,0,0-1.28-1.24,6.5,6.5,0,0,0-3.16-1.54,2.66,2.66,0,0,0-2.51,1.11,3.71,3.71,0,0,0-.2,4.27,12.41,12.41,0,0,1,2.59,1.46,11.11,11.11,0,0,1,1.55,1.51,8.18,8.18,0,0,1,1.12,1.72,6.2,6.2,0,0,1,.58,1.85,4.7,4.7,0,0,1-.16,1.92,5.44,5.44,0,0,1-1,1.89,4.77,4.77,0,0,1-1.56,1.29,4.66,4.66,0,0,1-1.86.53,6.93,6.93,0,0,1-2-.15,8.42,8.42,0,0,1-2-.72A11,11,0,0,1,659.9,412.81Zm1.29-1.55a16.48,16.48,0,0,0,1.34,1,8.38,8.38,0,0,0,1.41.69,4.26,4.26,0,0,0,1.41.3,2.82,2.82,0,0,0,1.34-.28,3.27,3.27,0,0,0,1.2-1,2.91,2.91,0,0,0,.66-1.57,3.47,3.47,0,0,0-.28-1.7,7.07,7.07,0,0,0-.95-1.62,8.48,8.48,0,0,0-1.4-1.41,12.16,12.16,0,0,0-1.1-.8,7.28,7.28,0,0,0-1.13-.63,4.6,4.6,0,0,0-1.15-.39,4.48,4.48,0,0,0-1.09-.07,2.47,2.47,0,0,0-1.05.35,3.23,3.23,0,0,0-1,.83,3.57,3.57,0,0,0-.65,1.27,3.16,3.16,0,0,0-.06,1.33,4.56,4.56,0,0,0,.44,1.32,6.42,6.42,0,0,0,.85,1.25A9.64,9.64,0,0,0,661.19,411.26Z"/><path class="cls-1" d="M674.68,393.87a10.64,10.64,0,0,1-1.33-1.46,7.17,7.17,0,0,1-.92-1.64A5.23,5.23,0,0,1,672,389a4.2,4.2,0,0,1,.28-1.75,5.53,5.53,0,0,1,3.31-3.19A4.47,4.47,0,0,1,678,384l1,.31.08-.08-.49-.87a3.58,3.58,0,0,1-.34-1.53,4.57,4.57,0,0,1,.23-1.59,3.46,3.46,0,0,1,.69-1.21,3.6,3.6,0,0,1,1.88-1,4.06,4.06,0,0,1,2.32.13l.94.38.1-.11-.45-.91a4.42,4.42,0,0,1-.08-2.4,5.21,5.21,0,0,1,1.31-2.36q3.33-3.63,7.7.39a15.35,15.35,0,0,1,3.88,6.9l-1.54,1.67q-1.32-5.07-3.62-7.19-3.12-2.88-5.19-.64a3.82,3.82,0,0,0-.81,1.3,3.53,3.53,0,0,0-.26,1.34,4.65,4.65,0,0,0,.19,1.24,3.94,3.94,0,0,0,1.08,1.85l2.15,2-1.1,1.19-2.19-2a4.87,4.87,0,0,0-2.8-1.39,2.55,2.55,0,0,0-2.3.77,2.7,2.7,0,0,0-.6,2.42,4.64,4.64,0,0,0,1.55,2.7l2.2,2-1.08,1.18-2.2-2a2.93,2.93,0,0,0-.78-.51,4.42,4.42,0,0,0-1.08-.35,4.86,4.86,0,0,0-1.26-.08,3.49,3.49,0,0,0-1.34.36,4.07,4.07,0,0,0-1.26.94,2.57,2.57,0,0,0-.57,2.61,6.94,6.94,0,0,0,2.06,3,9,9,0,0,0,3.55,2,11,11,0,0,0,4.18.41,17.79,17.79,0,0,0,4.41-1,21.61,21.61,0,0,0,4.36-2.22q7.05-4.12,10.15-2.11l-2,2.13a2.74,2.74,0,0,0-1.79-.68,7,7,0,0,0-2.65.51,19,19,0,0,0-3.47,1.74,13,13,0,0,0-2.61,2.29,12.18,12.18,0,0,0-2.53,4.94L686,399.11l2.6-3.82a20.26,20.26,0,0,1-4.28,1.21,13.22,13.22,0,0,1-3.8.08,10.78,10.78,0,0,1-3.2-.92A10.33,10.33,0,0,1,674.68,393.87Z"/><path class="cls-1" d="M696.83,370.54a8.26,8.26,0,0,1-1.52-2.13,6.94,6.94,0,0,1-.67-2.33,5.28,5.28,0,0,1,.34-2.37,6,6,0,0,1,1.45-2.15,5.52,5.52,0,0,1,2.92-1.54,6,6,0,0,1,3.18.32,7.91,7.91,0,0,1,2.85,1.94,16.24,16.24,0,0,1,3.85,6.71l-1.2,1.17a22.41,22.41,0,0,0-4.1-6.48,7,7,0,0,0-2.15-1.56,4.18,4.18,0,0,0-2.22-.35,3.37,3.37,0,0,0-1.94,1,3.47,3.47,0,0,0-1.16,3,5.94,5.94,0,0,0,1.8,3.34,23.37,23.37,0,0,0,6.58,4.33l-1.33,1.28A17.32,17.32,0,0,1,696.83,370.54Z"/><path class="cls-1" d="M708.57,359q-4.32-4.94-.21-8.55a5.78,5.78,0,0,1,1.11-.76,3.36,3.36,0,0,1,1.11-.36,3.89,3.89,0,0,1,1.13,0,4.61,4.61,0,0,1,1.17.36l1.2.51.24-.21-.47-1.19q-.95-2.35,1.46-4.45a5.18,5.18,0,0,1,4.22-1.42,7.12,7.12,0,0,1,4.35,2.66c1.41,1.61,2.3,4.14,2.69,7.59l-2.12,1.86q0-5.7-2.19-8.16a15.82,15.82,0,0,0-1.1-1.15,6.51,6.51,0,0,0-1.08-.79,2.71,2.71,0,0,0-1.13-.38,2.59,2.59,0,0,0-1.19.18,4.3,4.3,0,0,0-1.3.82q-2.87,2.52.53,6.38l1,1.17-1.32,1.16-1-1.18q-3.39-3.86-6.16-1.43a4,4,0,0,0-1.08,1.4,2.33,2.33,0,0,0-.15,1.47,4.78,4.78,0,0,0,.59,1.49,11.13,11.13,0,0,0,1.21,1.63c1.41,1.61,4.06,2.72,7.93,3.34l-2,1.73Q710.66,361.38,708.57,359Z"/><path class="cls-1" d="M719.2,334.19l-1.81-2.28a4.32,4.32,0,0,1-1.06-2.77,3,3,0,0,1,1.24-2.33,2.87,2.87,0,0,1,3-.2l1,.49.12-.09-.22-1.16a3.26,3.26,0,0,1,1.2-3.07,3.18,3.18,0,0,1,1.15-.57,3.37,3.37,0,0,1,1.35,0,3.69,3.69,0,0,1,1.49.63,6.7,6.7,0,0,1,1.51,1.43l9.11,11.5a8.06,8.06,0,0,1,2.07,5.12,5.54,5.54,0,0,1-4.43,5.13,5,5,0,0,1-2.44-.12,7.76,7.76,0,0,1-2.28-1.11,9.4,9.4,0,0,1-2-1.87,8.94,8.94,0,0,1-1.35-2.32,7.92,7.92,0,0,1-.55-2.47,5.23,5.23,0,0,1,.44-2.4,5.12,5.12,0,0,1,1.55-2,3.51,3.51,0,0,1,3.33-.75l1,.3.17-.13-6.37-8a4.46,4.46,0,0,0-.93-.92,1.83,1.83,0,0,0-1.66-.32,2.21,2.21,0,0,0-.68.38c-1.18.94-.95,2.46.72,4.56l2,2.52-1.1.87-2-2.52a7.09,7.09,0,0,0-2.31-2.14,1.68,1.68,0,0,0-1.83.29,1.79,1.79,0,0,0-.53.7,1.54,1.54,0,0,0,0,1,3.08,3.08,0,0,0,.6,1.14l2,2.47Zm10.56,7.44a8.79,8.79,0,0,0,2.07,1.92,4.52,4.52,0,0,0,2.25.74,3.11,3.11,0,0,0,2.1-.72,3.23,3.23,0,0,0,1.32-2.84,7.09,7.09,0,0,0-1.76-3.84,8.42,8.42,0,0,0-2-1.82,4.65,4.65,0,0,0-2.26-.78,3,3,0,0,0-2.12.66,3.31,3.31,0,0,0-1.06,1.42,3.47,3.47,0,0,0-.17,1.72,6.31,6.31,0,0,0,.53,1.79A8.48,8.48,0,0,0,729.76,341.63Z"/><path class="cls-1" d="M741,332.3a8.24,8.24,0,0,1-1.21-2.33,6.72,6.72,0,0,1-.35-2.4,5.29,5.29,0,0,1,.66-2.29,6,6,0,0,1,1.74-1.94,5.55,5.55,0,0,1,3.11-1.12,5.92,5.92,0,0,1,3.1.76,8,8,0,0,1,2.55,2.31,16.15,16.15,0,0,1,2.89,7.18l-1.35,1a22.83,22.83,0,0,0-3.16-7,6.88,6.88,0,0,0-1.92-1.83,4.08,4.08,0,0,0-2.15-.65,3.27,3.27,0,0,0-2,.69,3.42,3.42,0,0,0-1.57,2.85,5.9,5.9,0,0,0,1.31,3.55,23.47,23.47,0,0,0,5.93,5.2l-1.5,1.09A17.3,17.3,0,0,1,741,332.3Z"/><path class="cls-1" d="M767.05,328.85a9.27,9.27,0,0,1-.9-2l1.66-1.07a14.83,14.83,0,0,0,.94,2,4.33,4.33,0,0,0,.71.85,4,4,0,0,0,.94.66,4,4,0,0,0,1.09.37,2.82,2.82,0,0,0,1.19,0,3.56,3.56,0,0,0,1.23-.52,5.12,5.12,0,0,0,1.47-1.35,2.77,2.77,0,0,0,.52-1.49,4.38,4.38,0,0,0-.24-1.51,7.29,7.29,0,0,0-.8-1.57l-3.62-5.61-.16.11-.18,1.21a3.46,3.46,0,0,1-1.71,2.35,5,5,0,0,1-4.35.64,7.21,7.21,0,0,1-3.82-3.15,19.57,19.57,0,0,1-2.58-6.41l2.2-1.42a15.13,15.13,0,0,0,2,6.75,6.42,6.42,0,0,0,2.67,2.54,3,3,0,0,0,2.94-.36,3.73,3.73,0,0,0,.88-.79,2.69,2.69,0,0,0,.49-1,4,4,0,0,0,.14-1,4,4,0,0,0-.12-1.08,6.33,6.33,0,0,0-.33-1.07,8.86,8.86,0,0,0-.5-1L765.08,308l1.58-1,9.79,15.16a8.15,8.15,0,0,1,1,2.15,5.71,5.71,0,0,1,.19,2.17,4.48,4.48,0,0,1-.82,2.14,6.73,6.73,0,0,1-2,1.88,5.28,5.28,0,0,1-2.05.79,6,6,0,0,1-2.16,0,5.51,5.51,0,0,1-2-.84A5.7,5.7,0,0,1,767.05,328.85Z"/><path class="cls-1" d="M774.31,309.41q-3.28-5.69,1.46-8.42a5.38,5.38,0,0,1,1.23-.53,3.41,3.41,0,0,1,1.17-.14,3.5,3.5,0,0,1,1.1.24,4.34,4.34,0,0,1,1.07.58l1.08.73.28-.16-.23-1.26q-.47-2.49,2.29-4.08a5.18,5.18,0,0,1,4.42-.57,7.09,7.09,0,0,1,3.75,3.46q1.61,2.78,1.16,8l-2.44,1.41c.72-3.73.54-6.53-.55-8.42-.31-.53-.6-1-.86-1.34a6.49,6.49,0,0,0-.9-1,3,3,0,0,0-1-.6,2.79,2.79,0,0,0-1.2,0,4.36,4.36,0,0,0-1.44.56q-3.3,1.89-.72,6.35l.78,1.35-1.52.88-.78-1.35q-2.58-4.45-5.77-2.61a4.18,4.18,0,0,0-1.33,1.16,2.47,2.47,0,0,0-.43,1.42,5,5,0,0,0,.29,1.58,11.31,11.31,0,0,0,.87,1.83c1.07,1.85,3.45,3.46,7.12,4.82l-2.27,1.31Q775.89,312.15,774.31,309.41Z"/><path class="cls-1" d="M800.94,307.7a16.34,16.34,0,0,1-1-2.79l1.65-.85a18.59,18.59,0,0,0,1.12,2.71,6.48,6.48,0,0,0,1,1.43,5,5,0,0,0,1.29,1,3.18,3.18,0,0,0,1.6.38,4.11,4.11,0,0,0,1.8-.48A5.6,5.6,0,0,0,810,308a2.46,2.46,0,0,0,.67-1.32,3.46,3.46,0,0,0-.07-1.46,7.82,7.82,0,0,0-.67-1.7l-1.07-2.07a7.18,7.18,0,0,0-1-1.55,4.07,4.07,0,0,0-1.06-.89,2.74,2.74,0,0,0-1.07-.31,3.2,3.2,0,0,0-1,.08,4,4,0,0,0-.92.35l-1.65.85-.89-1.73,1.67-.86a2.16,2.16,0,0,0,.84-.81,3.56,3.56,0,0,0,.51-1.29,4.52,4.52,0,0,0,0-1.69,6.29,6.29,0,0,0-.62-1.88,6.66,6.66,0,0,0-.82-1.27,2.79,2.79,0,0,0-1-.74,2.25,2.25,0,0,0-1.28-.15,5.56,5.56,0,0,0-1.64.59,3.52,3.52,0,0,0-1.84,1.79,2.76,2.76,0,0,0,.26,2.31,12,12,0,0,0,1,1.62l-1.59.81a12.84,12.84,0,0,1-1-1.59,4,4,0,0,1-.45-1.64,5,5,0,0,1,.19-1.77,4.51,4.51,0,0,1,.91-1.67,5.39,5.39,0,0,1,1.66-1.31,7.51,7.51,0,0,1,2.1-.75,4.69,4.69,0,0,1,1.78,0,4.21,4.21,0,0,1,1.44.55,4.5,4.5,0,0,1,1.14,1,6.25,6.25,0,0,1,.83,1.26c1.11,2.15.86,4.36-.73,6.64l.14.28c2.65-.5,4.62.53,5.94,3.08l1,1.92a7,7,0,0,1,.71,2.17,6,6,0,0,1-.06,2.16,4.81,4.81,0,0,1-1,2,6.81,6.81,0,0,1-2.13,1.65,6.6,6.6,0,0,1-2.21.7,4.79,4.79,0,0,1-2-.13,6.19,6.19,0,0,1-1.69-.79,7,7,0,0,1-1.38-1.21A8,8,0,0,1,800.94,307.7Z"/><path class="cls-1" d="M814.93,300.85a14.26,14.26,0,0,1-1.25-4.24l1.73-.81a22.3,22.3,0,0,0,1.36,4.2,5.94,5.94,0,0,0,.9,1.42,4.55,4.55,0,0,0,1.18,1,2.88,2.88,0,0,0,1.49.39,4.25,4.25,0,0,0,1.75-.42,4.16,4.16,0,0,0,1-.69,3.18,3.18,0,0,0,.69-.86,3.84,3.84,0,0,0,.45-1.9,6.6,6.6,0,0,0-.12-.92,4,4,0,0,0-.28-.82l-5.81-12.44a6.46,6.46,0,0,0-.75-1.28,3.1,3.1,0,0,0-.92-.79,2.13,2.13,0,0,0-1.22-.23,4.52,4.52,0,0,0-1.57.47,4.28,4.28,0,0,0-1.34.89,1.9,1.9,0,0,0-.56,1.07,3.24,3.24,0,0,0,0,1.2,7.45,7.45,0,0,0,.5,1.39,4.13,4.13,0,0,0,1.3,1.51l-1.71.79a4.56,4.56,0,0,1-1.21-1.51,7.08,7.08,0,0,1-.61-2,4.83,4.83,0,0,1,.11-1.9,4.12,4.12,0,0,1,1-1.68,6.57,6.57,0,0,1,4.17-1.91,3.83,3.83,0,0,1,1.91.4,5.16,5.16,0,0,1,1.47,1.13,6.34,6.34,0,0,1,1.08,1.66l5.83,12.47a5.48,5.48,0,0,1,.47,2,6.81,6.81,0,0,1-.24,2.11,5.37,5.37,0,0,1-1.08,2,5.84,5.84,0,0,1-3.93,2,5.35,5.35,0,0,1-1.9-.2,6.78,6.78,0,0,1-1.66-.78,6.51,6.51,0,0,1-1.37-1.18A6,6,0,0,1,814.93,300.85Z"/><path class="cls-1" d="M825,282.93a10.91,10.91,0,0,1-.56-1.89,7.44,7.44,0,0,1-.12-1.88,5.34,5.34,0,0,1,.39-1.73,4.14,4.14,0,0,1,1-1.46,5.09,5.09,0,0,1,1.69-1.07,5.3,5.3,0,0,1,2.67-.38,4.53,4.53,0,0,1,2.22.94l.77.71.1,0-.06-1a3.62,3.62,0,0,1,.35-1.53,4.72,4.72,0,0,1,.9-1.33,3.44,3.44,0,0,1,1.15-.79,3.54,3.54,0,0,1,2.11-.08,4.09,4.09,0,0,1,2,1.12l.68.75.13,0v-1a4.31,4.31,0,0,1,1-2.2,5.09,5.09,0,0,1,2.19-1.56c3.06-1.22,5.31,0,6.78,3.69a15.53,15.53,0,0,1,.51,7.9l-2.12.84q1-5.16-.14-8.05c-1-2.63-2.52-3.58-4.41-2.83a3.9,3.9,0,0,0-1.29.82,3.59,3.59,0,0,0-.82,1.1,5.74,5.74,0,0,0-.37,1.2,4.24,4.24,0,0,0,0,1.17,3.76,3.76,0,0,0,.22,1L843,278l-1.5.6-1.1-2.77a4.86,4.86,0,0,0-1.92-2.47,2.56,2.56,0,0,0-2.4-.3,2.73,2.73,0,0,0-1.6,1.92,4.7,4.7,0,0,0,.23,3.11l1.11,2.77-1.49.59-1.1-2.77a2.93,2.93,0,0,0-.48-.79,5.27,5.27,0,0,0-.83-.79,5,5,0,0,0-1.1-.62,3.45,3.45,0,0,0-1.37-.25,4.16,4.16,0,0,0-1.53.3,2.55,2.55,0,0,0-1.65,2.1,6.92,6.92,0,0,0,.56,3.59,9,9,0,0,0,2.33,3.36,11,11,0,0,0,3.59,2.18,17.53,17.53,0,0,0,4.41,1,21.83,21.83,0,0,0,4.9-.11q8.15-.66,10.06,2.49l-2.69,1.08a2.69,2.69,0,0,0-1.32-1.39,7,7,0,0,0-2.6-.69,19.81,19.81,0,0,0-3.89.06,13.26,13.26,0,0,0-3.34.93,12.33,12.33,0,0,0-4.42,3.36l-.93-1.86,4-2.32a20.07,20.07,0,0,1-4.39-.77,13.28,13.28,0,0,1-3.46-1.56,11.08,11.08,0,0,1-2.48-2.22A10.45,10.45,0,0,1,825,282.93Z"/><path class="cls-1" d="M855,271.5a8.42,8.42,0,0,1-.44-2.58,6.71,6.71,0,0,1,.41-2.39,5.06,5.06,0,0,1,1.33-2,5.8,5.8,0,0,1,2.24-1.31,5.5,5.5,0,0,1,3.3-.12,5.9,5.9,0,0,1,2.72,1.67,7.82,7.82,0,0,1,1.73,3,16.23,16.23,0,0,1,.56,7.73l-1.59.52a22.57,22.57,0,0,0-.88-7.61,6.9,6.9,0,0,0-1.27-2.34,4,4,0,0,0-1.85-1.27,3.33,3.33,0,0,0-2.16,0,3.47,3.47,0,0,0-2.37,2.23,6,6,0,0,0,.17,3.79,23.7,23.7,0,0,0,4.06,6.75l-1.76.59A17.55,17.55,0,0,1,855,271.5Z"/><path class="cls-1" d="M877.81,264.76a9.08,9.08,0,0,1-.26-3.6,6.18,6.18,0,0,1,1.28-3,5,5,0,0,1,2.7-1.75,4.41,4.41,0,0,1,1.87-.12,3.36,3.36,0,0,1,1.63.68l.83.65-2.38-8.83a4.72,4.72,0,0,0-.54-1.27,3.77,3.77,0,0,0-.85-.93,2.66,2.66,0,0,0-1.21-.48,3.72,3.72,0,0,0-1.53.12,3.46,3.46,0,0,0-2.16,1.42,2.9,2.9,0,0,0-.25,2.37,9.33,9.33,0,0,0,.64,1.71l-1.79.48a6.6,6.6,0,0,1-.82-1.76,4.27,4.27,0,0,1,.54-3.54,5.43,5.43,0,0,1,3.38-2.29,6.84,6.84,0,0,1,2.43-.25,4.09,4.09,0,0,1,1.86.65,4.65,4.65,0,0,1,1.3,1.35,6.74,6.74,0,0,1,.82,1.92L889,261.81a8.07,8.07,0,0,1-.18,5.4,5.07,5.07,0,0,1-3.47,3A5.13,5.13,0,0,1,882,270a6.06,6.06,0,0,1-2.63-2A9.22,9.22,0,0,1,877.81,264.76Zm2-.53a8.38,8.38,0,0,0,1.14,2.6,4.34,4.34,0,0,0,1.76,1.56,3.08,3.08,0,0,0,2.2.18,3.3,3.3,0,0,0,2.26-2.12,6.55,6.55,0,0,0,0-4.17,6.71,6.71,0,0,0-2-3.51A3.17,3.17,0,0,0,882,258a3.1,3.1,0,0,0-1.8,1.24,4.4,4.4,0,0,0-.76,2.23A8.45,8.45,0,0,0,879.76,264.23Z"/><path class="cls-1" d="M896,271.68a14.2,14.2,0,0,1-.32-4.42l1.87-.42a22.43,22.43,0,0,0,.43,4.39,6.71,6.71,0,0,0,.58,1.58,4.57,4.57,0,0,0,.94,1.23,2.85,2.85,0,0,0,1.37.7,4.08,4.08,0,0,0,1.8,0,4.14,4.14,0,0,0,1.18-.45,3.13,3.13,0,0,0,.85-.69,4.19,4.19,0,0,0,.55-.84,3.86,3.86,0,0,0,.29-.93,4.84,4.84,0,0,0,.08-.92,4.71,4.71,0,0,0-.1-.86l-3-13.38a6.93,6.93,0,0,0-.47-1.42,3,3,0,0,0-.74-1,2.11,2.11,0,0,0-1.14-.48,4.76,4.76,0,0,0-1.63.12,4.41,4.41,0,0,0-1.49.59,1.91,1.91,0,0,0-.78.94,3.28,3.28,0,0,0-.21,1.17,8.22,8.22,0,0,0,.2,1.47,4.21,4.21,0,0,0,.95,1.75l-1.84.41a4.45,4.45,0,0,1-.86-1.73,7,7,0,0,1-.17-2.1,4.61,4.61,0,0,1,.51-1.82,4,4,0,0,1,1.3-1.44,6.09,6.09,0,0,1,2.13-.9,5.91,5.91,0,0,1,2.35-.09,3.82,3.82,0,0,1,1.78.79,5.3,5.3,0,0,1,1.2,1.42,6.48,6.48,0,0,1,.71,1.85l3,13.42a5.25,5.25,0,0,1,.05,2,6.48,6.48,0,0,1-.69,2,5.26,5.26,0,0,1-1.46,1.68,5.5,5.5,0,0,1-2.19,1,5.58,5.58,0,0,1-2.07.09,5.15,5.15,0,0,1-1.81-.6,6.79,6.79,0,0,1-1.46-1.11,6.37,6.37,0,0,1-1.7-3Z"/><path class="cls-1" d="M909.9,258.5a10.29,10.29,0,0,1-.13-2.81l1.92-.36a12.88,12.88,0,0,0,.15,2.8,10.24,10.24,0,0,0,.31,1.07,4.87,4.87,0,0,0,.51,1,2.82,2.82,0,0,0,.79.82,2.87,2.87,0,0,0,1.16.44,4.56,4.56,0,0,0,1.64,0,5,5,0,0,0,1.11-.35,3.73,3.73,0,0,0,.82-.52,2.83,2.83,0,0,0,.55-.69,3.57,3.57,0,0,0,.31-.8,5,5,0,0,0,.13-.9,7.61,7.61,0,0,0,0-1c0-.31-.08-.64-.15-1-.37-2-1.7-3.42-4-4.37s-3.56-2.3-3.88-4l2-.36q.42,2.28,3.81,3.61a6.08,6.08,0,0,1,4.06,4.78,7.56,7.56,0,0,1,.07,2.37,6.73,6.73,0,0,1-.66,2.18,4.78,4.78,0,0,1-1.49,1.72,5.58,5.58,0,0,1-2.31,1,5.74,5.74,0,0,1-2.48-.05,5,5,0,0,1-2-1,6.16,6.16,0,0,1-1.4-1.61A5.85,5.85,0,0,1,909.9,258.5Z"/><path class="cls-1" d="M925.2,253.85a8.51,8.51,0,0,1,0-2.67,6.91,6.91,0,0,1,.83-2.32,5.07,5.07,0,0,1,1.66-1.73,5.63,5.63,0,0,1,2.45-.89,4.55,4.55,0,0,1,4.23,1.43l.76,1,.49-1.27a3.66,3.66,0,0,1,3.18-2.31,5.81,5.81,0,0,1,2,.07,4.86,4.86,0,0,1,1.67.72,5.56,5.56,0,0,1,1.25,1.22,7.11,7.11,0,0,1,.86,1.58,8.17,8.17,0,0,1,.46,1.78,13,13,0,0,1-1.94,8.5l-2.51.34q3-4.94,2.47-8.57-.61-4.45-4-4a5.84,5.84,0,0,0-.63.13,3,3,0,0,0-.54.25c-.17.1-.31.2-.43.28a1.34,1.34,0,0,0-.37.38l-.3.42a3.32,3.32,0,0,0-.27.5c-.11.23-.19.4-.24.52a6,6,0,0,0-.26.57,7,7,0,0,1,1,2.75,8.93,8.93,0,0,1-.21,3.67,6.26,6.26,0,0,1-1.71,2.86,5.23,5.23,0,0,1-3,1.4,5.36,5.36,0,0,1-3.33-.54,6,6,0,0,1-2.4-2.36A10,10,0,0,1,925.2,253.85Zm2-.16a7.42,7.42,0,0,0,1.55,4,3.31,3.31,0,0,0,3.13,1.12,3.38,3.38,0,0,0,2-1A4.09,4.09,0,0,0,935,255.7a8.37,8.37,0,0,0,0-2.89,6.77,6.77,0,0,0-1.59-3.78,3.27,3.27,0,0,0-3-1.14,3.4,3.4,0,0,0-2.72,1.85A6.5,6.5,0,0,0,927.21,253.69Z"/><path class="cls-1" d="M950.37,262.29a14.08,14.08,0,0,1,.27-4.42l1.91-.17a22.47,22.47,0,0,0-.16,4.41,6.43,6.43,0,0,0,.36,1.65,4.53,4.53,0,0,0,.76,1.34,2.89,2.89,0,0,0,1.27.88,4,4,0,0,0,1.79.2,4.26,4.26,0,0,0,1.23-.28,3,3,0,0,0,.93-.57,3.64,3.64,0,0,0,.66-.76,3.35,3.35,0,0,0,.41-.88,4.88,4.88,0,0,0,.21-.9,5.1,5.1,0,0,0,0-.87l-1.21-13.67a6.67,6.67,0,0,0-.27-1.47,3,3,0,0,0-.6-1.05,2.17,2.17,0,0,0-1.07-.64,4.66,4.66,0,0,0-1.63-.09,4.58,4.58,0,0,0-1.56.37,2,2,0,0,0-.9.83,3.17,3.17,0,0,0-.36,1.14,7.17,7.17,0,0,0,0,1.47,4.16,4.16,0,0,0,.7,1.86l-1.88.17a4.59,4.59,0,0,1-.61-1.84,6.89,6.89,0,0,1,.11-2.1,5,5,0,0,1,.75-1.74,4,4,0,0,1,1.49-1.25,5.94,5.94,0,0,1,2.23-.59,5.71,5.71,0,0,1,2.34.22,3.85,3.85,0,0,1,1.66,1,5.3,5.3,0,0,1,1,1.56,6.49,6.49,0,0,1,.45,1.94l1.21,13.71a5.14,5.14,0,0,1-.22,2,6.51,6.51,0,0,1-.95,1.9,5.47,5.47,0,0,1-1.68,1.47,5.66,5.66,0,0,1-2.3.7,5.5,5.5,0,0,1-2.07-.19,5.06,5.06,0,0,1-1.71-.84,6.67,6.67,0,0,1-1.3-1.3,6.37,6.37,0,0,1-1.27-3.23Z"/><path class="cls-1" d="M973.21,249.21a9.81,9.81,0,0,1,.24-2.52,7.25,7.25,0,0,1,.89-2.17,5.16,5.16,0,0,1,1.68-1.67,6.33,6.33,0,0,1,2.49-.9,11.39,11.39,0,0,0,.47-3.39,3.73,3.73,0,0,0-2-3.48,5.34,5.34,0,0,1-3-4.82l2.18-.07a5.92,5.92,0,0,0,2.77,4.57,4.4,4.4,0,0,1,1.68,3.68,12,12,0,0,1-.46,3.6,4.71,4.71,0,0,1,2.49,1.17,6.62,6.62,0,0,1,1.74,2.44,9.31,9.31,0,0,1,.08,6.81,6.18,6.18,0,0,1-2,2.67,5.18,5.18,0,0,1-3.1,1.09,5.59,5.59,0,0,1-2.56-.5,5.33,5.33,0,0,1-1.93-1.51A7.37,7.37,0,0,1,973.7,252,9.44,9.44,0,0,1,973.21,249.21Zm2-.07a8.86,8.86,0,0,0,.17,1.55,6.59,6.59,0,0,0,.46,1.47,5.12,5.12,0,0,0,.78,1.25,3.21,3.21,0,0,0,1.15.84,3.48,3.48,0,0,0,1.56.29,3.29,3.29,0,0,0,2.84-1.59A8.32,8.32,0,0,0,982,245a4.13,4.13,0,0,0-2.87-1.85,4.83,4.83,0,0,0-1.84.76A4.1,4.1,0,0,0,976,245.3a6,6,0,0,0-.64,1.76A8.66,8.66,0,0,0,975.23,249.14Z"/><path class="cls-1" d="M989.62,250.21a9.74,9.74,0,0,1,.43-2.78l2,0a12.47,12.47,0,0,0-.42,2.78,10.62,10.62,0,0,0,.1,1.11,5.24,5.24,0,0,0,.3,1.06,3,3,0,0,0,.61,1,3.27,3.27,0,0,0,1,.66,4.54,4.54,0,0,0,1.61.29,4.26,4.26,0,0,0,1.16-.12,3.59,3.59,0,0,0,.91-.34,2.6,2.6,0,0,0,.67-.57,3.3,3.3,0,0,0,.47-.72,4.81,4.81,0,0,0,.3-.86,6.19,6.19,0,0,0,.17-.94c0-.31.05-.65.06-1q0-3-3-5.08T993,240l2,0c0,1.55,1,3,3,4.3a6.07,6.07,0,0,1,3,5.5,7.56,7.56,0,0,1-.4,2.34,6.39,6.39,0,0,1-1.08,2,4.79,4.79,0,0,1-1.8,1.39,5.67,5.67,0,0,1-2.46.49,5.93,5.93,0,0,1-2.43-.55,5.18,5.18,0,0,1-1.79-1.37,6.28,6.28,0,0,1-1-1.85A5.77,5.77,0,0,1,989.62,250.21Z"/><path class="cls-1" d="M1004.57,260a15.1,15.1,0,0,1,.54-2.91l1.85.08a19,19,0,0,0-.37,2.91,7.05,7.05,0,0,0,.15,1.74,5.17,5.17,0,0,0,.62,1.51,3.2,3.2,0,0,0,1.21,1.12,3.81,3.81,0,0,0,1.8.47,5.29,5.29,0,0,0,1.91-.2,2.54,2.54,0,0,0,1.24-.82,3.63,3.63,0,0,0,.66-1.3,8.06,8.06,0,0,0,.25-1.81l.1-2.33a7.18,7.18,0,0,0-.13-1.86,3.92,3.92,0,0,0-.48-1.29,2.8,2.8,0,0,0-.77-.8,3.39,3.39,0,0,0-.91-.43,4.91,4.91,0,0,0-1-.15l-1.85-.08.08-2,1.89.08a2.07,2.07,0,0,0,1.12-.28,3.8,3.8,0,0,0,1.09-.87,4.72,4.72,0,0,0,.85-1.46,6.14,6.14,0,0,0,.39-1.94,7,7,0,0,0-.08-1.51,2.8,2.8,0,0,0-.48-1.12,2.25,2.25,0,0,0-1-.76,5.56,5.56,0,0,0-1.71-.31,3.59,3.59,0,0,0-2.49.65,2.8,2.8,0,0,0-.92,2.13,14.3,14.3,0,0,0,0,1.88l-1.78-.07a13.85,13.85,0,0,1,0-1.85,4.3,4.3,0,0,1,.43-1.65,5,5,0,0,1,1-1.45,4.54,4.54,0,0,1,1.62-1,5.15,5.15,0,0,1,2.09-.31,7.65,7.65,0,0,1,2.2.38,4.62,4.62,0,0,1,1.56.85,4.48,4.48,0,0,1,1,1.19,4.79,4.79,0,0,1,.51,1.41,6.77,6.77,0,0,1,.1,1.51q-.17,3.62-3.93,5.41v.31q3.81,1.31,3.63,5.61l-.1,2.16a6.77,6.77,0,0,1-.45,2.24,5.87,5.87,0,0,1-1.12,1.84,4.78,4.78,0,0,1-1.91,1.25,6.68,6.68,0,0,1-2.66.38,6.57,6.57,0,0,1-2.28-.49,4.81,4.81,0,0,1-1.66-1.1,5.87,5.87,0,0,1-1.07-1.52,6.48,6.48,0,0,1-.6-1.73A7.45,7.45,0,0,1,1004.57,260Z"/><path class="cls-1" d="M1021.36,237.29l.24-2.9a4.28,4.28,0,0,1,1.12-2.75,3,3,0,0,1,2.49-.86,2.88,2.88,0,0,1,2.3,1.88l.4,1.05.15,0,.63-1a3.25,3.25,0,0,1,3-1.42,3.09,3.09,0,0,1,1.23.37,3.37,3.37,0,0,1,1,.88,3.62,3.62,0,0,1,.66,1.48,7,7,0,0,1,.12,2.08l-1.21,14.61a8,8,0,0,1-2,5.16,5.54,5.54,0,0,1-6.73.72,5.08,5.08,0,0,1-1.7-1.75,7.9,7.9,0,0,1-.91-2.38,9.39,9.39,0,0,1-.16-2.71,9,9,0,0,1,.6-2.61,7.85,7.85,0,0,1,1.29-2.18,5.14,5.14,0,0,1,4.44-1.85,3.52,3.52,0,0,1,3,1.73l.52.9.21,0,.84-10.22a4.59,4.59,0,0,0,0-1.31,2,2,0,0,0-.39-.88,1.73,1.73,0,0,0-.61-.48,2.18,2.18,0,0,0-.75-.19q-2.27-.18-2.59,3.82l-.27,3.2-1.39-.12.26-3.2a7.21,7.21,0,0,0-.22-3.14,1.67,1.67,0,0,0-1.54-1,1.49,1.49,0,0,0-1.54.82,2.93,2.93,0,0,0-.34,1.25l-.26,3.13Zm2.63,12.65a8.24,8.24,0,0,0,.2,2.81,4.35,4.35,0,0,0,1.13,2.07,3.14,3.14,0,0,0,2,.92,3.24,3.24,0,0,0,2.91-1.17,7,7,0,0,0,1.33-4,8.15,8.15,0,0,0-.19-2.68,4.63,4.63,0,0,0-1.12-2.11,2.93,2.93,0,0,0-2-1,3.18,3.18,0,0,0-1.74.31,3.43,3.43,0,0,0-1.31,1.14,6.68,6.68,0,0,0-.83,1.67A8,8,0,0,0,1024,249.94Z"/><path class="cls-1" d="M1036.77,262.18a15.6,15.6,0,0,1,.77-2.85l1.84.23a17.89,17.89,0,0,0-.59,2.87,6.32,6.32,0,0,0,0,1.74,4.84,4.84,0,0,0,.5,1.56,3.21,3.21,0,0,0,1.11,1.21,3.93,3.93,0,0,0,1.76.61,5.46,5.46,0,0,0,1.92-.05,2.55,2.55,0,0,0,1.3-.72,3.59,3.59,0,0,0,.76-1.25,8.13,8.13,0,0,0,.4-1.78l.28-2.31a7.32,7.32,0,0,0,0-1.87,3.91,3.91,0,0,0-.38-1.32,2.57,2.57,0,0,0-.7-.86,3.17,3.17,0,0,0-.88-.5,4.5,4.5,0,0,0-1-.23l-1.84-.22.24-1.94,1.87.23a2.15,2.15,0,0,0,1.14-.19,3.78,3.78,0,0,0,1.15-.78,4.68,4.68,0,0,0,1-1.39,6.21,6.21,0,0,0,.54-1.91,7.18,7.18,0,0,0,0-1.51,2.86,2.86,0,0,0-.39-1.15,2.21,2.21,0,0,0-1-.84,5.31,5.31,0,0,0-1.68-.44,3.56,3.56,0,0,0-2.53.45,2.79,2.79,0,0,0-1.09,2.05,14.35,14.35,0,0,0-.11,1.88l-1.78-.22a15.59,15.59,0,0,1,.11-1.85,4.31,4.31,0,0,1,.56-1.61,5.14,5.14,0,0,1,1.15-1.36A4.52,4.52,0,0,1,1043,245a5.3,5.3,0,0,1,2.11-.15,7.75,7.75,0,0,1,2.16.56,4.79,4.79,0,0,1,1.49,1,4.53,4.53,0,0,1,.89,1.28,4.78,4.78,0,0,1,.4,1.44,7,7,0,0,1,0,1.51q-.43,3.6-4.34,5.08l0,.31q3.69,1.61,3.18,5.88l-.27,2.15a6.83,6.83,0,0,1-.62,2.2,6.09,6.09,0,0,1-1.27,1.74,4.74,4.74,0,0,1-2,1.1,6.73,6.73,0,0,1-2.68.17,6.52,6.52,0,0,1-2.24-.67,5.06,5.06,0,0,1-1.57-1.22,6.53,6.53,0,0,1-1.4-3.38A7.49,7.49,0,0,1,1036.77,262.18Z"/><path class="cls-1" d="M1054.44,252.82a8.14,8.14,0,0,1,.8-2.5,6.92,6.92,0,0,1,1.46-1.93,5.23,5.23,0,0,1,2.1-1.14,5.94,5.94,0,0,1,2.6-.13,5.62,5.62,0,0,1,3,1.42,6,6,0,0,1,1.64,2.74,8,8,0,0,1,.16,3.44,16.35,16.35,0,0,1-3.08,7.11l-1.65-.27a22.57,22.57,0,0,0,2.74-7.16,6.87,6.87,0,0,0,0-2.65,4,4,0,0,0-1.05-2,3.35,3.35,0,0,0-1.93-1,3.5,3.5,0,0,0-3.13.89,6,6,0,0,0-1.6,3.44,23.29,23.29,0,0,0,.48,7.86l-1.83-.29A17.41,17.41,0,0,1,1054.44,252.82Z"/><path class="cls-1" d="M1077.85,257.12a10.79,10.79,0,0,1,.42-1.4,8.19,8.19,0,0,1,.63-1.3,8,8,0,0,1,.83-1.13,5.66,5.66,0,0,1,1-.91,5.19,5.19,0,0,1,1.22-.62,5,5,0,0,1,1.43-.27,6,6,0,0,1,1.61.16,4.18,4.18,0,0,1,3.51,3.84q2.12-2.55,4.78-1.93a4.66,4.66,0,0,1,3.35,2.4,7.3,7.3,0,0,1,.22,4.92,6.23,6.23,0,0,1-4.05,4.89l0,.18a4.89,4.89,0,0,1,1.4,5.06l-.42,1.8a6.46,6.46,0,0,1-1.33,2.8,5,5,0,0,1-2.48,1.58,6.81,6.81,0,0,1-3.48,0,8.91,8.91,0,0,1-2.69-1.08,5.64,5.64,0,0,1-1.76-1.6,5.43,5.43,0,0,1-.82-1.79,3.75,3.75,0,0,1,0-1.76,5.2,5.2,0,0,1,.48-1.46l1.93.45c-.21.69-.36,1.18-.42,1.47a2.88,2.88,0,0,0-.06.74,3.43,3.43,0,0,0,.23.92,3.7,3.7,0,0,0,.6,1,4,4,0,0,0,1.14.86,7.18,7.18,0,0,0,1.77.65,4.32,4.32,0,0,0,1.89,0,3.51,3.51,0,0,0,1.49-.71,5,5,0,0,0,1-1.16,4.74,4.74,0,0,0,.57-1.38l.47-2.07c.08-.32.13-.58.17-.76s.07-.42.11-.7a2.72,2.72,0,0,0-.08-1.25,1.16,1.16,0,0,0-.26-.52,2.39,2.39,0,0,0-1.23-.65l-1.63-.38.38-1.63,1.32.3a2.07,2.07,0,0,0,1.39-.14,2.94,2.94,0,0,0,1.14-.95,7.83,7.83,0,0,0,.83-1.44,9.83,9.83,0,0,0,.55-1.69,6.43,6.43,0,0,0,0-3.52,2.67,2.67,0,0,0-2.1-1.78,3.7,3.7,0,0,0-3.92,1.69,12.9,12.9,0,0,1-.19,3,11.2,11.2,0,0,1-.68,2.05,8,8,0,0,1-1.06,1.76,6.09,6.09,0,0,1-1.41,1.33,4.76,4.76,0,0,1-1.8.69,5.38,5.38,0,0,1-2.14-.08,4.74,4.74,0,0,1-3.13-2.29,7.37,7.37,0,0,1-.74-1.87,8.26,8.26,0,0,1-.23-2.12A10.16,10.16,0,0,1,1077.85,257.12Zm2,.48a13.53,13.53,0,0,0-.29,1.64,7.39,7.39,0,0,0,0,1.56,4.56,4.56,0,0,0,.34,1.41,3.1,3.1,0,0,0,.84,1.08,3.33,3.33,0,0,0,1.39.66,2.88,2.88,0,0,0,1.7-.1,3.43,3.43,0,0,0,1.41-1,6.63,6.63,0,0,0,1-1.56,8.47,8.47,0,0,0,.66-1.87c.11-.47.19-.91.25-1.34a10.91,10.91,0,0,0,.07-1.29,5.64,5.64,0,0,0-.15-1.21,4.3,4.3,0,0,0-.42-1,2.55,2.55,0,0,0-.77-.8,3.65,3.65,0,0,0-1.17-.49,3.41,3.41,0,0,0-1.42,0,3.08,3.08,0,0,0-1.23.52,4.53,4.53,0,0,0-1,1,6.06,6.06,0,0,0-.76,1.31A9,9,0,0,0,1079.81,257.6Z"/><path class="cls-1" d="M1101.68,262.82l5.11-18.08,1.83.52-5,17.72a8.17,8.17,0,0,0-.23,4.61,3.38,3.38,0,0,0,2.48,2.36,3.51,3.51,0,0,0,3.08-.53,5.66,5.66,0,0,0,2.07-3.24,5.21,5.21,0,0,0-.5-4.24,4.63,4.63,0,0,1-.64-3.65,9.07,9.07,0,0,1,1.27-2.47l1.91.54a5.94,5.94,0,0,0-1.49,2.37,4,4,0,0,0,.9,3.21,5.6,5.6,0,0,1,.46,4.81,7.49,7.49,0,0,1-1.6,3,5.8,5.8,0,0,1-2.66,1.76,5.48,5.48,0,0,1-3.26,0,5.55,5.55,0,0,1-2.34-1.28,5.18,5.18,0,0,1-1.37-2,7.5,7.5,0,0,1-.43-2.55A10.74,10.74,0,0,1,1101.68,262.82Z"/><path class="cls-1" d="M1117.51,267.16a8.49,8.49,0,0,1,1.18-2.35,7,7,0,0,1,1.75-1.68,5.19,5.19,0,0,1,2.24-.8,5.83,5.83,0,0,1,2.59.27,5.54,5.54,0,0,1,2.72,1.87,5.88,5.88,0,0,1,1.21,3,8,8,0,0,1-.38,3.42,16.39,16.39,0,0,1-4.14,6.55l-1.59-.52a22.78,22.78,0,0,0,3.81-6.66,6.7,6.7,0,0,0,.37-2.62,4.06,4.06,0,0,0-.73-2.13,3.35,3.35,0,0,0-1.76-1.26,3.45,3.45,0,0,0-3.23.39,5.93,5.93,0,0,0-2.11,3.15,23.5,23.5,0,0,0-.75,7.84l-1.76-.57A17.47,17.47,0,0,1,1117.51,267.16Z"/><path class="cls-1" d="M1128.74,283a12.32,12.32,0,0,1,1.83-3.23l1.72.64a11.16,11.16,0,0,0-1.43,2.59c-.16.42-.29.78-.38,1.1s-.19.66-.28,1.06a5.45,5.45,0,0,0-.12,1.05,4.2,4.2,0,0,0,.12,1,2.31,2.31,0,0,0,.39.89,3.68,3.68,0,0,0,.77.75,4.74,4.74,0,0,0,1.19.61,4.53,4.53,0,0,0,1.57.32,3.18,3.18,0,0,0,1.28-.23,3,3,0,0,0,1-.73,5.26,5.26,0,0,0,.78-1.06,10.76,10.76,0,0,0,.62-1.35l4.25-11.48a5.65,5.65,0,0,0,.38-2.22,3.43,3.43,0,0,0-.64-1.85,3.37,3.37,0,0,0-1.67-1.22,2.67,2.67,0,0,0-2.23,0,3.65,3.65,0,0,0-1.48,2.08,18.14,18.14,0,0,0-.72,3.46l-1.73-.64a12.24,12.24,0,0,1,.68-3.56,4.65,4.65,0,0,1,2.47-2.88,4.72,4.72,0,0,1,3.6,0,4,4,0,0,1,2.39,2.29l.12.84.18.06,4.82-13,1.78.66L1139.56,287a8.5,8.5,0,0,1-1.19,2.19,6.18,6.18,0,0,1-1.68,1.52,4.75,4.75,0,0,1-2.17.65A6.23,6.23,0,0,1,1132,291a5.67,5.67,0,0,1-2.1-1.33,5.19,5.19,0,0,1-1.23-1.95,6.64,6.64,0,0,1-.36-2.3A7.31,7.31,0,0,1,1128.74,283Z"/><path class="cls-1" d="M1148.29,278.06a8.71,8.71,0,0,1,1.36-2.25,6.91,6.91,0,0,1,1.87-1.53,5,5,0,0,1,2.31-.63,5.83,5.83,0,0,1,2.55.48,5.48,5.48,0,0,1,2.57,2.07,5.85,5.85,0,0,1,1,3,7.91,7.91,0,0,1-.65,3.38,16.29,16.29,0,0,1-4.63,6.21l-1.55-.65a22.29,22.29,0,0,0,4.32-6.33,6.68,6.68,0,0,0,.57-2.59,4,4,0,0,0-.56-2.18,3.34,3.34,0,0,0-1.65-1.39,3.45,3.45,0,0,0-3.25.14,6,6,0,0,0-2.36,3,23.69,23.69,0,0,0-1.35,7.76l-1.71-.71A17.36,17.36,0,0,1,1148.29,278.06Z"/><path class="cls-1" d="M1158.14,295a12.47,12.47,0,0,1,1.69-2.66l1.65.76c-.73,1.25-1.23,2.16-1.5,2.75-1.23,2.67-.66,4.56,1.73,5.66a3.79,3.79,0,0,0,3.09.24,4.23,4.23,0,0,0,2.19-2.33l1.32-2.86a4.51,4.51,0,0,0,.41-1.53,4.72,4.72,0,0,0-.12-1.59,3.48,3.48,0,0,0-.77-1.47,4.09,4.09,0,0,0-1.48-1.11l-1.49-.69.7-1.52,1.54.71a4.62,4.62,0,0,0,1.51.44,3.08,3.08,0,0,0,1.21-.1,2.55,2.55,0,0,0,1-.58,4.38,4.38,0,0,0,.75-.88,9.87,9.87,0,0,0,.6-1.14q1.08-2.32-.81-5.85l2.8,1.29a6.92,6.92,0,0,1-.11,5.27q-1.32,2.85-5.2,3.14l-.13.28a4.58,4.58,0,0,1,1.48,6.14l-1.35,2.92a6.68,6.68,0,0,1-1.83,2.45,4.68,4.68,0,0,1-2.66,1,6.71,6.71,0,0,1-3.31-.7,6.4,6.4,0,0,1-2.63-2.11,5.1,5.1,0,0,1-.94-2.83A7,7,0,0,1,1158.14,295Z"/><path class="cls-1" d="M1179,286.75l1-2a4.62,4.62,0,0,0,1.51,1.94,1.46,1.46,0,0,0,.65.17,3,3,0,0,0,.64-.06,3,3,0,0,1,.63-.08,1.26,1.26,0,0,1,.6.13,2.21,2.21,0,0,1,1.07,2.52l-.17,1,.78-.64a3.08,3.08,0,0,1,.77-.46,2.86,2.86,0,0,1,.84-.18,3,3,0,0,1,1,.1,5.53,5.53,0,0,1,1.09.44,4.19,4.19,0,0,1,1.4,1.09,2.78,2.78,0,0,1,.56,1.43,4.47,4.47,0,0,1-.17,1.67,10.07,10.07,0,0,1-.78,1.94l-5.93,11.56A7.59,7.59,0,0,1,1181,311a5.35,5.35,0,0,1-4.6-.48,7.14,7.14,0,0,1-1.42-.94,6.33,6.33,0,0,1-1-1.11,6.89,6.89,0,0,1-.68-1.25,5.34,5.34,0,0,1-.35-1.33,6.65,6.65,0,0,1,0-1.34,7,7,0,0,1,.23-1.31,7,7,0,0,1,.49-1.24,14.65,14.65,0,0,1,2.72-3.78l1.53.78a31.12,31.12,0,0,0-2.41,3.83,6.09,6.09,0,0,0-.37.88,5.38,5.38,0,0,0-.22.94,6.31,6.31,0,0,0,0,1,4,4,0,0,0,.16,1,4,4,0,0,0,.42.91,4.09,4.09,0,0,0,.71.82,5.08,5.08,0,0,0,1,.71,3.57,3.57,0,0,0,3.1.24,5.58,5.58,0,0,0,2.58-2.8l6.2-12.1a5,5,0,0,0,.73-2.27,1.31,1.31,0,0,0-.8-1.13l-.83-.43a2.33,2.33,0,0,0-1.27-.32,1.83,1.83,0,0,0-1.08.66,10.13,10.13,0,0,0-1.23,1.95l-2.19,4.27-1.42-.73,2.19-4.27a11.76,11.76,0,0,0,.64-1.44,4.48,4.48,0,0,0,.26-1,1.32,1.32,0,0,0-.08-.67,1,1,0,0,0-.31-.45,2.1,2.1,0,0,0-.48-.31,3,3,0,0,0-1.5-.2,2.44,2.44,0,0,1-2.64-1.29Z"/><path class="cls-1" d="M1194.19,299.53a9.11,9.11,0,0,1,4.52-3.71l9.22-4a12.66,12.66,0,0,0,4.27-2.78l2.16,1.25a23.09,23.09,0,0,1-6.28,3.14,71.93,71.93,0,0,0-7.71,3l1,.21a2,2,0,0,1,1.32.2,3.73,3.73,0,0,1,1.77,4.48l-.09.65.36.21.49-.42a4.33,4.33,0,0,1,5.07-.52,4.69,4.69,0,0,1,1.94,2.14,6,6,0,0,1,.51,3.07,7.66,7.66,0,0,1-1,3.27c-1.19,2.05-3.35,3.75-6.49,5.13l-2.33-1.35q5.5-2.11,7.06-4.8a6.16,6.16,0,0,0,1-3.58,2.87,2.87,0,0,0-1.47-2.43,3,3,0,0,0-1.25-.39,4.1,4.1,0,0,0-1.45.15,4,4,0,0,0-1.52.89,6.59,6.59,0,0,0-1.4,1.74l-.86,1.49-1.6-.93.86-1.49a6.12,6.12,0,0,0,1.09-3.66,3.33,3.33,0,0,0-1.88-2.44,3.05,3.05,0,0,0-2.86-.16,6.11,6.11,0,0,0-2.66,2.7q-1.57,2.71-.44,8.5l-2.51-1.46Q1192.39,302.63,1194.19,299.53Z"/><path class="cls-1" d="M1215.52,312.21a8.31,8.31,0,0,1,1.74-2,6.86,6.86,0,0,1,2.12-1.18,5.12,5.12,0,0,1,2.38-.2,5.89,5.89,0,0,1,2.43.93,5.5,5.5,0,0,1,2.15,2.5,5.91,5.91,0,0,1,.41,3.17,8,8,0,0,1-1.24,3.21,16.42,16.42,0,0,1-5.68,5.27l-1.41-.91a22.62,22.62,0,0,0,5.4-5.46,6.78,6.78,0,0,0,1-2.44,4.14,4.14,0,0,0-.16-2.25,3.73,3.73,0,0,0-4.6-2.11,5.93,5.93,0,0,0-2.85,2.5,23.74,23.74,0,0,0-2.73,7.39l-1.55-1A17.29,17.29,0,0,1,1215.52,312.21Z"/><path class="cls-1" d="M1234.15,326.94a9.91,9.91,0,0,1,2-2l1.57,1.15a12.36,12.36,0,0,0-1.94,2,8.64,8.64,0,0,0-.56,1,5.23,5.23,0,0,0-.36,1,2.8,2.8,0,0,0-.06,1.14,3,3,0,0,0,.47,1.15,4.58,4.58,0,0,0,1.16,1.17,4.3,4.3,0,0,0,1,.57,3.61,3.61,0,0,0,.94.24,2.57,2.57,0,0,0,.87-.08,3,3,0,0,0,.8-.32,4.83,4.83,0,0,0,.75-.52,8.73,8.73,0,0,0,.68-.68c.2-.23.41-.5.63-.79,1.17-1.62,1.32-3.58.45-5.9s-.78-4.16.26-5.59l1.6,1.17c-.91,1.25-.91,3,0,5.25a6,6,0,0,1-.69,6.24,7.65,7.65,0,0,1-1.68,1.68,6.77,6.77,0,0,1-2,1,4.81,4.81,0,0,1-2.27.09,5.64,5.64,0,0,1-2.29-1,5.83,5.83,0,0,1-1.67-1.84,5.07,5.07,0,0,1-.67-2.15,5.83,5.83,0,0,1,.21-2.12A5.7,5.7,0,0,1,1234.15,326.94Z"/><path class="cls-1" d="M1254.6,324.73l1.8-2.28a4.31,4.31,0,0,1,2.45-1.67,3,3,0,0,1,2.56.67,2.88,2.88,0,0,1,.87,2.84l-.25,1.1.11.09,1.08-.48a3.25,3.25,0,0,1,3.27.47,3,3,0,0,1,.82,1,3.33,3.33,0,0,1,.36,1.29,3.71,3.71,0,0,1-.27,1.6,6.47,6.47,0,0,1-1.05,1.8l-9.1,11.5a8,8,0,0,1-4.51,3.19,5.15,5.15,0,0,1-4.42-1.11,5.22,5.22,0,0,1-1.59-2,5.29,5.29,0,0,1-.45-2.4,8,8,0,0,1,.57-2.48,9.34,9.34,0,0,1,3.31-4.19,8,8,0,0,1,2.28-1.1,5.25,5.25,0,0,1,2.43-.13,5.09,5.09,0,0,1,2.29,1,3.53,3.53,0,0,1,1.5,3.08l-.06,1,.16.13,6.36-8a4.64,4.64,0,0,0,.68-1.13,2,2,0,0,0,.17-1,2.09,2.09,0,0,0-.24-.73,2.55,2.55,0,0,0-.52-.58q-1.79-1.41-4.28,1.74l-2,2.52-1.1-.87,2-2.52a7.32,7.32,0,0,0,1.56-2.73,1.66,1.66,0,0,0-.71-1.71,1.57,1.57,0,0,0-.8-.36,1.61,1.61,0,0,0-.94.19,3,3,0,0,0-1,.84l-2,2.47Zm-4.82,12a8.49,8.49,0,0,0-1.39,2.45,4.41,4.41,0,0,0-.21,2.36,3.07,3.07,0,0,0,1.18,1.88,3.23,3.23,0,0,0,3.07.64,7.08,7.08,0,0,0,3.33-2.6,8.41,8.41,0,0,0,1.32-2.33,4.71,4.71,0,0,0,.24-2.39,3,3,0,0,0-1.13-1.9,3.16,3.16,0,0,0-1.62-.7,3.38,3.38,0,0,0-1.72.22,6.64,6.64,0,0,0-1.62.93A8.57,8.57,0,0,0,1249.78,336.72Z"/><path class="cls-1" d="M1261.69,345.3a10.62,10.62,0,0,1,1.43-1.35,7.62,7.62,0,0,1,1.63-.95,5.43,5.43,0,0,1,1.72-.43,4.22,4.22,0,0,1,1.76.26,5.11,5.11,0,0,1,1.71,1,5.21,5.21,0,0,1,1.53,2.22,4.39,4.39,0,0,1,.16,2.4l-.29,1,.08.07.86-.5a3.67,3.67,0,0,1,1.53-.37,4.57,4.57,0,0,1,1.59.21,3.43,3.43,0,0,1,1.21.67,3.51,3.51,0,0,1,1,1.86,4.09,4.09,0,0,1-.09,2.33l-.37.94.11.09.91-.45a4.32,4.32,0,0,1,2.4-.12,5.16,5.16,0,0,1,2.38,1.26q3.69,3.28-.26,7.71a15.47,15.47,0,0,1-6.84,4l-1.7-1.52q5.05-1.41,7.13-3.73c1.89-2.12,2.07-3.86.56-5.21a4,4,0,0,0-1.31-.79,3.55,3.55,0,0,0-1.35-.23,4.66,4.66,0,0,0-1.24.2,4.19,4.19,0,0,0-1.07.48,3.45,3.45,0,0,0-.75.64l-2,2.18-1.2-1.08,2-2.22a4.87,4.87,0,0,0,1.35-2.82,2.56,2.56,0,0,0-.81-2.29,2.72,2.72,0,0,0-2.43-.57,4.71,4.71,0,0,0-2.68,1.6l-2,2.23-1.19-1.06,2-2.23a3.27,3.27,0,0,0,.5-.78,4.6,4.6,0,0,0,.32-1.1,4.81,4.81,0,0,0,.07-1.26,3.52,3.52,0,0,0-.39-1.33,4.06,4.06,0,0,0-1-1.24,2.55,2.55,0,0,0-2.61-.53,6.91,6.91,0,0,0-3,2.11,9,9,0,0,0-2,3.59,10.83,10.83,0,0,0-.34,4.18,17.34,17.34,0,0,0,1.1,4.39,21.42,21.42,0,0,0,2.29,4.32q4.24,7,2.28,10.12l-2.17-1.93a2.75,2.75,0,0,0,.66-1.8,7.07,7.07,0,0,0-.56-2.64,20.11,20.11,0,0,0-1.79-3.44,13.32,13.32,0,0,0-2.33-2.57,12.19,12.19,0,0,0-5-2.45l1.25-1.67,3.87,2.54a19.8,19.8,0,0,1-1.28-4.27,13,13,0,0,1-.15-3.79,11,11,0,0,1,.87-3.21A10.14,10.14,0,0,1,1261.69,345.3Z"/><path class="cls-1" d="M1285.37,367.07a8.64,8.64,0,0,1,2.12-1.56,6.86,6.86,0,0,1,2.31-.71,5.39,5.39,0,0,1,2.37.3,5.91,5.91,0,0,1,2.18,1.42,5.55,5.55,0,0,1,1.59,2.9,6,6,0,0,1-.27,3.18,7.83,7.83,0,0,1-1.89,2.88,16.29,16.29,0,0,1-6.65,4l-1.19-1.18a22.5,22.5,0,0,0,6.42-4.21,6.67,6.67,0,0,0,1.51-2.17,4.09,4.09,0,0,0,.32-2.23,3.75,3.75,0,0,0-4.06-3,5.91,5.91,0,0,0-3.31,1.85,23.23,23.23,0,0,0-4.21,6.66l-1.31-1.31A17.35,17.35,0,0,1,1285.37,367.07Z"/><path class="cls-1" d="M1297.2,378.57a10.14,10.14,0,0,1,1.59-1.17,6.78,6.78,0,0,1,1.72-.76,5.17,5.17,0,0,1,1.76-.23,4.19,4.19,0,0,1,1.71.45,5.09,5.09,0,0,1,1.59,1.23,5.21,5.21,0,0,1,1.26,2.38,4.43,4.43,0,0,1-.12,2.4l-.4,1,.07.08.91-.4a3.61,3.61,0,0,1,1.56-.19,4.83,4.83,0,0,1,1.56.39,3.49,3.49,0,0,1,1.13.81,3.55,3.55,0,0,1,.8,2,3.91,3.91,0,0,1-.36,2.3l-.46.9.09.1,1-.35a4.4,4.4,0,0,1,2.4.16,5.21,5.21,0,0,1,2.23,1.53q3.27,3.67-1.15,7.63a15.5,15.5,0,0,1-7.26,3.18l-1.51-1.7c3.46-.54,6-1.51,7.51-2.89,2.12-1.89,2.51-3.59,1.15-5.11a3.85,3.85,0,0,0-1.21-.93,3.43,3.43,0,0,0-1.31-.39,5.22,5.22,0,0,0-1.25.06,4.09,4.09,0,0,0-1.12.36,3.64,3.64,0,0,0-.82.54l-2.18,1.94-1.07-1.2,2.22-2a4.85,4.85,0,0,0,1.66-2.64,2.57,2.57,0,0,0-.54-2.37,2.71,2.71,0,0,0-2.35-.84,4.65,4.65,0,0,0-2.84,1.28l-2.23,2-1.06-1.2,2.23-2a3.09,3.09,0,0,0,.58-.72,4.61,4.61,0,0,0,.45-1,5.19,5.19,0,0,0,.21-1.25,3.65,3.65,0,0,0-.23-1.37,4,4,0,0,0-.81-1.34,2.54,2.54,0,0,0-2.54-.82,6.83,6.83,0,0,0-3.18,1.75,9,9,0,0,0-2.36,3.34,11.12,11.12,0,0,0-.82,4.11A17.38,17.38,0,0,0,1296,392a21.2,21.2,0,0,0,1.78,4.56q3.4,7.43,1.1,10.31l-1.93-2.16a2.81,2.81,0,0,0,.86-1.72,7.14,7.14,0,0,0-.25-2.68,19.52,19.52,0,0,0-1.39-3.63,13.16,13.16,0,0,0-2-2.82,12.29,12.29,0,0,0-4.67-3l1.44-1.51,3.55,3a19.68,19.68,0,0,1-.79-4.39,13,13,0,0,1,.29-3.78,11,11,0,0,1,1.23-3.1A10.8,10.8,0,0,1,1297.2,378.57Z"/><path class="cls-1" d="M1318.43,402.81c3.45-2.69,6.3-2.58,8.54.3a5,5,0,0,1,.69,1.15,3.44,3.44,0,0,1,.3,1.14,3.86,3.86,0,0,1-.09,1.12,4.72,4.72,0,0,1-.43,1.14l-.58,1.17.2.25,1.22-.39c1.6-.54,3,0,4.35,1.72a5.16,5.16,0,0,1,1.16,4.29,7.08,7.08,0,0,1-2.92,4.19c-1.69,1.31-4.26,2.05-7.73,2.23l-1.73-2.23q5.68.32,8.27-1.69a14.7,14.7,0,0,0,1.21-1,5.67,5.67,0,0,0,.86-1,2.74,2.74,0,0,0,.45-1.11,2.69,2.69,0,0,0-.11-1.2,4.34,4.34,0,0,0-.74-1.35q-2.34-3-6.4.15l-1.23,1-1.08-1.39,1.24-1q4-3.15,1.79-6.06a3.89,3.89,0,0,0-1.32-1.16,2.47,2.47,0,0,0-1.46-.24,5.08,5.08,0,0,0-1.53.5,11.17,11.17,0,0,0-1.7,1.12q-2.52,2-3.8,7.7l-1.61-2.07C1315.37,406.5,1316.77,404.1,1318.43,402.81Z"/><path class="cls-1" d="M1333.05,422.91a9.42,9.42,0,0,1,2.23-1.18,7.18,7.18,0,0,1,2.31-.45,5.17,5.17,0,0,1,2.31.49,6.49,6.49,0,0,1,2.13,1.6,11.69,11.69,0,0,0,3.09-1.46,3.77,3.77,0,0,0,1.85-3.54,5.29,5.29,0,0,1,2.39-5.15l1.24,1.78a5.89,5.89,0,0,0-2.3,4.82,4.43,4.43,0,0,1-2.17,3.42,11.91,11.91,0,0,1-3.26,1.58,4.73,4.73,0,0,1,.38,2.72,6.74,6.74,0,0,1-1.09,2.8,9.28,9.28,0,0,1-5.66,3.79,6.35,6.35,0,0,1-3.33-.2,5.22,5.22,0,0,1-2.6-2,5.47,5.47,0,0,1-1-2.42,5.28,5.28,0,0,1,.21-2.44,7.24,7.24,0,0,1,1.22-2.24A9.32,9.32,0,0,1,1333.05,422.91Zm1.15,1.65a9.55,9.55,0,0,0-1.19,1,6.67,6.67,0,0,0-1,1.2,5,5,0,0,0-.63,1.33,3.25,3.25,0,0,0-.07,1.43,3.43,3.43,0,0,0,.61,1.46,3.32,3.32,0,0,0,2.89,1.51,7.06,7.06,0,0,0,3.91-1.49,7.17,7.17,0,0,0,2.6-3,4.14,4.14,0,0,0,0-3.41,4.74,4.74,0,0,0-1.64-1.13,4.18,4.18,0,0,0-1.81-.29,6.26,6.26,0,0,0-1.82.43A8.63,8.63,0,0,0,1334.2,424.56Z"/><path class="cls-1" d="M1342.74,436.16a8.61,8.61,0,0,1,2.39-1.07,6.91,6.91,0,0,1,2.42-.2,5.2,5.2,0,0,1,2.25.79,6.1,6.1,0,0,1,1.83,1.85,5.49,5.49,0,0,1,.93,3.17,6,6,0,0,1-.93,3.05,8,8,0,0,1-2.46,2.41,16.18,16.18,0,0,1-7.34,2.47l-.91-1.41a22.44,22.44,0,0,0,7.16-2.75,7,7,0,0,0,2-1.81,4,4,0,0,0,.77-2.11,3.35,3.35,0,0,0-.56-2.08,3.47,3.47,0,0,0-2.76-1.74,6,6,0,0,0-3.63,1.11,23.44,23.44,0,0,0-5.53,5.61l-1-1.56A17.39,17.39,0,0,1,1342.74,436.16Z"/><path class="cls-1" d="M1351.63,450.6l16.19-9.54,1,1.64-15.87,9.35a8.13,8.13,0,0,0-3.35,3.17,3.36,3.36,0,0,0,.16,3.42,3.49,3.49,0,0,0,2.59,1.74,5.59,5.59,0,0,0,3.74-.91,5.22,5.22,0,0,0,2.57-3.4,4.6,4.6,0,0,1,2.06-3.08,8.77,8.77,0,0,1,2.62-.91l1,1.7a6.07,6.07,0,0,0-2.72.69,4,4,0,0,0-1.56,2.95,5.65,5.65,0,0,1-3,3.79,7.73,7.73,0,0,1-3.24,1.08,5.83,5.83,0,0,1-3.14-.57,5.94,5.94,0,0,1-3.19-4.78,5.26,5.26,0,0,1,.43-2.43,7.76,7.76,0,0,1,1.46-2.14A10.43,10.43,0,0,1,1351.63,450.6Z"/><path class="cls-1" d="M1408,728.26l18.56,2.92-.3,1.88-18.19-2.87a8.29,8.29,0,0,0-4.6.32,3.38,3.38,0,0,0-2,2.75,3.49,3.49,0,0,0,.89,3,5.59,5.59,0,0,0,3.46,1.67,5.22,5.22,0,0,0,4.15-1,4.6,4.6,0,0,1,3.55-1.07,8.86,8.86,0,0,1,2.6,1l-.3,2a6.19,6.19,0,0,0-2.54-1.2,4,4,0,0,0-3.08,1.29,5.65,5.65,0,0,1-4.72,1,7.61,7.61,0,0,1-3.19-1.23,5.89,5.89,0,0,1-2.07-2.44,5.89,5.89,0,0,1,.58-5.7,5.18,5.18,0,0,1,1.88-1.61,7.53,7.53,0,0,1,2.48-.72A10.08,10.08,0,0,1,1408,728.26Z"/><path class="cls-1" d="M1405.58,744.49a8.37,8.37,0,0,1,2.47.9,6.53,6.53,0,0,1,1.87,1.53,5.11,5.11,0,0,1,1.07,2.13,6,6,0,0,1,0,2.6,5.43,5.43,0,0,1-1.53,2.93,5.94,5.94,0,0,1-2.79,1.55,8,8,0,0,1-3.44,0,16.44,16.44,0,0,1-7-3.33l.33-1.65a22.3,22.3,0,0,0,7.06,3,6.8,6.8,0,0,0,2.65.05,4.07,4.07,0,0,0,2-1,3.34,3.34,0,0,0,1-1.89,3.44,3.44,0,0,0-.78-3.16,5.9,5.9,0,0,0-3.37-1.72,23.38,23.38,0,0,0-7.88.19l.36-1.82A17.42,17.42,0,0,1,1405.58,744.49Z"/><path class="cls-1" d="M1401.71,761l13.92,3.36c2.77.66,3.73,2.73,2.9,6.2l-.5,2c-.26,1.08-.07,1.69.57,1.84l-.53,2.21c-1.73-.41-2.28-1.89-1.67-4.44l.63-2.6q.72-3-1.88-3.61l-9.26-2.22.69.91a4.28,4.28,0,0,1,.69,3.81,5,5,0,0,1-1.16,2.22,5.59,5.59,0,0,1-2,1.45,7.83,7.83,0,0,1-2.5.6,8.41,8.41,0,0,1-2.69-.22,8.72,8.72,0,0,1-3.3-1.53,6.22,6.22,0,0,1-2-2.64,5.13,5.13,0,0,1-.24-3.24,5.73,5.73,0,0,1,1.18-2.38,5.24,5.24,0,0,1,2-1.47,7.49,7.49,0,0,1,2.48-.56A9.51,9.51,0,0,1,1401.71,761Zm-.45,1.85a9.36,9.36,0,0,0-1.55-.23,6.56,6.56,0,0,0-1.53.09,5,5,0,0,0-1.4.46,3.28,3.28,0,0,0-1.12.93,3.69,3.69,0,0,0-.69,1.45,3.18,3.18,0,0,0,.27,2.27,4.78,4.78,0,0,0,1.65,1.76,8.17,8.17,0,0,0,2.5,1,7.87,7.87,0,0,0,2.7.21,4.69,4.69,0,0,0,2.27-.83,3.17,3.17,0,0,0,1.29-1.92,3.46,3.46,0,0,0-.8-3.23A6.66,6.66,0,0,0,1401.26,762.87Z"/><path class="cls-1" d="M1397.73,777a10.88,10.88,0,0,1,2.63,1.14,7.24,7.24,0,0,1,1.92,1.66,4.74,4.74,0,0,1,1,2.22,5.92,5.92,0,0,1-.2,2.71q-.46,1.56-3.3,3.17a4.94,4.94,0,0,1,.94,4.86,5.11,5.11,0,0,1-.62,1.36,4.67,4.67,0,0,1-.91,1.06,5.52,5.52,0,0,1-1.14.76,5.36,5.36,0,0,1-1.3.49,7.29,7.29,0,0,1-1.4.22,8.66,8.66,0,0,1-1.44,0,7.49,7.49,0,0,1-1.41-.28,10.12,10.12,0,0,1-3.45-1.7,6.17,6.17,0,0,1-2-2.66,5.07,5.07,0,0,1-.09-3.27,5.24,5.24,0,0,1,1.25-2.19,5.15,5.15,0,0,1,2-1.31,7.36,7.36,0,0,1,2.52-.42,9.86,9.86,0,0,1,2.75.41,11,11,0,0,1,3.19,1.51q2.41-1.18,2.79-2.49a4.35,4.35,0,0,0,.2-1.69,2.85,2.85,0,0,0-.42-1.29,3.44,3.44,0,0,0-1-1,7.08,7.08,0,0,0-1.38-.74,15.43,15.43,0,0,0-1.72-.59,11.48,11.48,0,0,0-6.58-.15,10.85,10.85,0,0,0-5.35,3.69q-5.91,6.81-8.58,6l.75-2.55a3.12,3.12,0,0,0,2.27-.3,7.76,7.76,0,0,0,2.3-1.78,7.27,7.27,0,0,0,1.57-8.24l2,.59-.67,4.23.11,0a12.15,12.15,0,0,1,5.85-3.68A12.55,12.55,0,0,1,1397.73,777Zm-2.8,10.13a7.06,7.06,0,0,0-4.16-.17,3.15,3.15,0,0,0-2.22,2.22,3.12,3.12,0,0,0,.06,2,4.2,4.2,0,0,0,1.5,1.8,9.16,9.16,0,0,0,2.91,1.35,7.52,7.52,0,0,0,1.79.29,7.11,7.11,0,0,0,1.79-.16,3.49,3.49,0,0,0,1.54-.76,2.91,2.91,0,0,0,.92-1.42,3.11,3.11,0,0,0-.11-2.19,4.38,4.38,0,0,0-1.5-1.81A8,8,0,0,0,1394.93,787.08Z"/><path class="cls-1" d="M1391.27,800.71a9.17,9.17,0,0,1,4.45,3.78q5.34,8,5.61,8.36a12.77,12.77,0,0,0,3.5,3.71l-.85,2.35a23.31,23.31,0,0,1-4.21-5.63,70.57,70.57,0,0,0-4.31-7l0,1a2,2,0,0,1,0,1.33,3.73,3.73,0,0,1-4.1,2.55l-.65,0-.14.39.5.4a4.35,4.35,0,0,1,1.42,4.9,4.73,4.73,0,0,1-1.76,2.29,6,6,0,0,1-2.93,1.05,7.78,7.78,0,0,1-3.41-.45q-3.33-1.21-6.2-5.47l.91-2.54q3.06,5.06,6,6.1a6.35,6.35,0,0,0,3.7.34,2.89,2.89,0,0,0,2.13-1.89,3.13,3.13,0,0,0,.16-1.3,3.93,3.93,0,0,0-.41-1.39,4,4,0,0,0-1.14-1.35,6.93,6.93,0,0,0-2-1.06l-1.62-.58.63-1.75,1.62.59a6.18,6.18,0,0,0,3.8.42,3.33,3.33,0,0,0,2.06-2.28,3,3,0,0,0-.35-2.85,6.08,6.08,0,0,0-3.13-2.14q-3-1.07-8.44,1.09l1-2.73Q1387.88,799.5,1391.27,800.71Z"/><path class="cls-1" d="M1382.79,824.09q6,2.58,3.86,7.62a5.58,5.58,0,0,1-.66,1.16,3.64,3.64,0,0,1-.86.81,4.11,4.11,0,0,1-1,.47,5,5,0,0,1-1.21.17l-1.3.06-.13.29.94.88q1.86,1.71.6,4.64a5.21,5.21,0,0,1-3.2,3.1,7.1,7.1,0,0,1-5.07-.53c-2-.84-3.86-2.74-5.7-5.69l1.11-2.59q2.49,5.13,5.49,6.42a14.68,14.68,0,0,0,1.49.56,5.83,5.83,0,0,0,1.31.25,2.83,2.83,0,0,0,1.19-.14,2.49,2.49,0,0,0,1-.68,4.28,4.28,0,0,0,.83-1.3q1.5-3.5-3.23-5.52l-1.43-.62.69-1.61,1.43.61c3.15,1.36,5.21.9,6.18-1.36a3.9,3.9,0,0,0,.38-1.72,2.45,2.45,0,0,0-.5-1.39,5,5,0,0,0-1.18-1.1,11.41,11.41,0,0,0-1.8-.94c-2-.85-4.83-.71-8.59.4l1-2.42Q1379.88,822.84,1382.79,824.09Z"/><path class="cls-1" d="M1372.25,846.61a9.18,9.18,0,0,1,2.88,2.17,6.14,6.14,0,0,1,1.45,3,4.9,4.9,0,0,1-.45,3.18,4.48,4.48,0,0,1-1.15,1.49,3.36,3.36,0,0,1-1.58.78l-1,.19,8.22,4a5,5,0,0,0,1.31.42,3.33,3.33,0,0,0,1.26,0,2.52,2.52,0,0,0,1.16-.59,3.81,3.81,0,0,0,.92-1.23,3.49,3.49,0,0,0,.35-2.56,2.92,2.92,0,0,0-1.62-1.75,9,9,0,0,0-1.71-.64l.81-1.67a6.86,6.86,0,0,1,1.87.54,4.25,4.25,0,0,1,2.31,2.74,5.43,5.43,0,0,1-.5,4.05,6.54,6.54,0,0,1-1.41,2,4,4,0,0,1-1.72,1,4.52,4.52,0,0,1-1.87.09,6.64,6.64,0,0,1-2-.65l-12.61-6.17a8,8,0,0,1-4-3.69,5,5,0,0,1,0-4.57,5.15,5.15,0,0,1,2.26-2.37,6,6,0,0,1,3.22-.67A9.22,9.22,0,0,1,1372.25,846.61Zm-.88,1.81a8.71,8.71,0,0,0-2.71-.85,4.52,4.52,0,0,0-2.34.3,3.12,3.12,0,0,0-1.57,1.55,3.29,3.29,0,0,0,.1,3.09,6.6,6.6,0,0,0,3.14,2.74,6.82,6.82,0,0,0,4,.78,3.19,3.19,0,0,0,2.62-1.79,3.08,3.08,0,0,0,.25-2.18,4.38,4.38,0,0,0-1.18-2A8.46,8.46,0,0,0,1371.37,848.42Z"/><path class="cls-1" d="M1365.28,861.64a8.63,8.63,0,0,1,2.1,1.58,6.9,6.9,0,0,1,1.34,2,5.28,5.28,0,0,1,.4,2.35,6,6,0,0,1-.74,2.5,5.48,5.48,0,0,1-2.32,2.35,5.92,5.92,0,0,1-3.13.65,7.88,7.88,0,0,1-3.29-1,16.17,16.17,0,0,1-5.71-5.24l.8-1.47a22.7,22.7,0,0,0,5.86,4.94,7,7,0,0,0,2.52.83,4.23,4.23,0,0,0,2.23-.34,3.43,3.43,0,0,0,1.55-1.51,3.46,3.46,0,0,0,.19-3.25,6,6,0,0,0-2.73-2.64,23.3,23.3,0,0,0-7.58-2.13l.88-1.63A17.51,17.51,0,0,1,1365.28,861.64Z"/><path class="cls-1" d="M1357.31,876.06a8.62,8.62,0,0,1,2.06,1.7,7.1,7.1,0,0,1,1.28,2.1,5.32,5.32,0,0,1,.3,2.39,5.84,5.84,0,0,1-.85,2.46,4.52,4.52,0,0,1-3.78,2.39h-1.21l.67,1.18a3.64,3.64,0,0,1-.21,3.92,5.3,5.3,0,0,1-1.34,1.54,4.52,4.52,0,0,1-1.6.85,5.33,5.33,0,0,1-1.74.2,6.34,6.34,0,0,1-1.77-.32,7.6,7.6,0,0,1-1.67-.76,12.92,12.92,0,0,1-5.38-6.85l1.31-2.17q2,5.41,5.1,7.31,3.86,2.32,5.65-.64a4.48,4.48,0,0,0,.29-.58,2.4,2.4,0,0,0,.15-.57c0-.19,0-.37,0-.51a1.29,1.29,0,0,0-.06-.53c-.06-.21-.1-.37-.14-.49a3.11,3.11,0,0,0-.21-.53c-.12-.23-.2-.4-.25-.51s-.15-.31-.29-.56a7.13,7.13,0,0,1-2.74-1,8.85,8.85,0,0,1-2.72-2.49,6.2,6.2,0,0,1-1.15-3.12,5.24,5.24,0,0,1,.78-3.19,5.49,5.49,0,0,1,2.51-2.25,6.09,6.09,0,0,1,3.35-.38A10,10,0,0,1,1357.31,876.06Zm-1.14,1.67a7.49,7.49,0,0,0-4.05-1.29,3.3,3.3,0,0,0-2.84,1.73,3.36,3.36,0,0,0-.51,2.19,4.23,4.23,0,0,0,1,2.14,8.36,8.36,0,0,0,2.22,1.85,6.76,6.76,0,0,0,3.94,1.14,3.24,3.24,0,0,0,2.77-1.62,3.37,3.37,0,0,0,.27-3.27A6.42,6.42,0,0,0,1356.17,877.73Z"/><path class="cls-1" d="M1336.47,899.67a28.43,28.43,0,0,1,8.13,9l-1.18,1.68a27.36,27.36,0,0,0-8.1-9,22.46,22.46,0,0,0-3.41-2,14.55,14.55,0,0,0-3-1.07,8.74,8.74,0,0,0-2.49-.2,4.74,4.74,0,0,0-2,.51,3.74,3.74,0,0,0-1.33,1.16,4,4,0,0,0-.67,1.78,5.33,5.33,0,0,0,.14,2,6.37,6.37,0,0,0,1,2.11,8.28,8.28,0,0,0,1.94,1.88,10.59,10.59,0,0,0,2.07,1.16,4.48,4.48,0,0,0,1.72.34,2.72,2.72,0,0,0,1.35-.36,3.23,3.23,0,0,0,1-1l1.4-2,1.37,1-1.4,2a2.88,2.88,0,0,0-.56,1.62,2.92,2.92,0,0,0,.34,1.53,3.14,3.14,0,0,0,1,1.12q1,.72,3.18-.33a3.64,3.64,0,0,1,3.94.44l.33.23-1,1.41-.24-.16a3.07,3.07,0,0,0-3.56,0,3.32,3.32,0,0,1-3.81,0c-1-.73-1.54-2-1.5-4l0-.51-.12-.09-.42.3q-2.79,1.35-6.31-1.12a9.83,9.83,0,0,1-2.45-2.4,7.35,7.35,0,0,1-1.24-2.72,6.75,6.75,0,0,1,0-2.76,6.85,6.85,0,0,1,1.12-2.61,5.92,5.92,0,0,1,4.1-2.5,9.18,9.18,0,0,1,3,0,14.49,14.49,0,0,1,3.51,1.16A25.77,25.77,0,0,1,1336.47,899.67Z"/><path class="cls-1" d="M1329.59,918l14.88,11.39-1.15,1.51-10.88-8.32-.17.22.13,1c.39.9.1,2-.87,3.25a5.34,5.34,0,0,1-2,1.61,5.27,5.27,0,0,1-2.38.54,7.85,7.85,0,0,1-2.48-.46,8.55,8.55,0,0,1-2.35-1.28,9.62,9.62,0,0,1-1.92-2,8.16,8.16,0,0,1-1.16-2.3,5.33,5.33,0,0,1,.9-4.87,5.24,5.24,0,0,1,4.23-2.22A8.16,8.16,0,0,1,1329.59,918Zm-1.17,1.5a8.6,8.6,0,0,0-2.52-1.37,4.44,4.44,0,0,0-2.44-.11,3.59,3.59,0,0,0-2,1.37,3.17,3.17,0,0,0-.7,2.12,4.48,4.48,0,0,0,.78,2.25,9,9,0,0,0,2,2.09,6.4,6.4,0,0,0,3.74,1.49,3.3,3.3,0,0,0,2.87-1.29,3.79,3.79,0,0,0,.77-1.75,3.66,3.66,0,0,0-.17-1.77,5.94,5.94,0,0,0-.91-1.62A8,8,0,0,0,1328.42,919.47Z"/><path class="cls-1" d="M1320,931.31q5,4.25,1.46,8.42a5.52,5.52,0,0,1-1,.92,3.72,3.72,0,0,1-1.06.52,3.52,3.52,0,0,1-1.12.15,4.82,4.82,0,0,1-1.2-.19l-1.26-.33-.21.25.64,1.11q1.27,2.19-.78,4.62a5.24,5.24,0,0,1-4,2,7.17,7.17,0,0,1-4.7-2q-2.44-2.07-3.78-7.1l1.82-2.15q.87,5.63,3.37,7.74a12,12,0,0,0,1.26,1,5.77,5.77,0,0,0,1.18.62,2.73,2.73,0,0,0,1.18.22,2.69,2.69,0,0,0,1.15-.36,4.53,4.53,0,0,0,1.17-1q2.44-2.91-1.47-6.23l-1.19-1,1.13-1.34,1.19,1c2.62,2.22,4.72,2.38,6.31.51a3.94,3.94,0,0,0,.86-1.54,2.41,2.41,0,0,0-.07-1.48,5.08,5.08,0,0,0-.81-1.39,10.81,10.81,0,0,0-1.44-1.43q-2.45-2.07-8.33-2.13l1.7-2C1315.7,929.09,1318.35,930,1320,931.31Z"/><path class="cls-1" d="M1295.43,941.94a15.34,15.34,0,0,1,1.85,2.3L1296,945.6a19.5,19.5,0,0,0-2-2.18,6.72,6.72,0,0,0-1.42-1,5,5,0,0,0-1.55-.51,3.11,3.11,0,0,0-1.64.18,4.11,4.11,0,0,0-1.53,1.06,5.47,5.47,0,0,0-1.08,1.59,2.64,2.64,0,0,0-.19,1.47,3.62,3.62,0,0,0,.57,1.35,7.87,7.87,0,0,0,1.2,1.37l1.7,1.59a7.58,7.58,0,0,0,1.5,1.11,4,4,0,0,0,1.3.47A2.59,2.59,0,0,0,1294,952a3.38,3.38,0,0,0,.92-.41,4.85,4.85,0,0,0,.74-.65l1.27-1.35,1.42,1.33-1.28,1.37a2.18,2.18,0,0,0-.52,1,4,4,0,0,0,0,1.39,4.66,4.66,0,0,0,.56,1.6,6.23,6.23,0,0,0,1.22,1.56,6.65,6.65,0,0,0,1.2.92,2.87,2.87,0,0,0,1.16.37,2.26,2.26,0,0,0,1.25-.3,5.49,5.49,0,0,0,1.35-1.1,3.54,3.54,0,0,0,1.13-2.31,2.79,2.79,0,0,0-1-2.09,13.9,13.9,0,0,0-1.45-1.19l1.22-1.31a13.87,13.87,0,0,1,1.43,1.18,4.09,4.09,0,0,1,1,1.39,5.43,5.43,0,0,1,.43,1.73,4.52,4.52,0,0,1-.3,1.88,5.23,5.23,0,0,1-1.12,1.79,7.53,7.53,0,0,1-1.72,1.42,4.67,4.67,0,0,1-1.66.64,4.49,4.49,0,0,1-1.55,0,4.62,4.62,0,0,1-1.4-.53,7.23,7.23,0,0,1-1.21-.91c-1.76-1.65-2.28-3.81-1.55-6.5l-.23-.21c-2.32,1.37-4.52,1.07-6.62-.89l-1.58-1.48a7,7,0,0,1-1.41-1.8,6,6,0,0,1-.67-2.05,4.89,4.89,0,0,1,.29-2.26,6.66,6.66,0,0,1,1.45-2.27,6.55,6.55,0,0,1,1.85-1.41,4.84,4.84,0,0,1,1.91-.55,5.88,5.88,0,0,1,1.86.18,6.55,6.55,0,0,1,1.7.67A7.79,7.79,0,0,1,1295.43,941.94Z"/><path class="cls-1" d="M1292.68,961.86a9.11,9.11,0,0,1,2.35,5.35c.87,6.33,1.33,9.66,1.38,10a12.52,12.52,0,0,0,1.52,4.86l-1.79,1.74a22.92,22.92,0,0,1-1.32-6.9,71.27,71.27,0,0,0-.79-8.23l-.47.93a2,2,0,0,1-.55,1.21,3.73,3.73,0,0,1-4.8.5l-.59-.26-.3.29.27.58a4.35,4.35,0,0,1-.87,5,4.8,4.8,0,0,1-2.59,1.29,6,6,0,0,1-3.1-.34,7.92,7.92,0,0,1-2.86-1.9c-1.65-1.7-2.7-4.24-3.17-7.64l1.93-1.87q.54,5.87,2.7,8.09a6.27,6.27,0,0,0,3.18,1.93,2.9,2.9,0,0,0,2.74-.76,3.07,3.07,0,0,0,.71-1.1,4.09,4.09,0,0,0,.25-1.43,4,4,0,0,0-.44-1.71,7,7,0,0,0-1.3-1.82l-1.2-1.23,1.32-1.29,1.2,1.23a6.23,6.23,0,0,0,3.23,2,3.38,3.38,0,0,0,2.86-1.15,3,3,0,0,0,.93-2.71,6.11,6.11,0,0,0-1.87-3.3q-2.19-2.25-8.07-2.72l2.08-2A12.69,12.69,0,0,1,1292.68,961.86Z"/><path class="cls-1" d="M1274.83,979.14q4.29,5,.14,8.55a6,6,0,0,1-1.11.75,3.63,3.63,0,0,1-1.12.35,3.58,3.58,0,0,1-1.13,0,4.32,4.32,0,0,1-1.16-.37l-1.19-.52-.25.21.46,1.2q.93,2.36-1.49,4.44a5.23,5.23,0,0,1-4.23,1.39,7.18,7.18,0,0,1-4.33-2.7c-1.4-1.62-2.27-4.15-2.63-7.61l2.13-1.84q0,5.7,2.12,8.17a14.29,14.29,0,0,0,1.1,1.16,6.09,6.09,0,0,0,1.07.8,2.94,2.94,0,0,0,1.13.39,2.71,2.71,0,0,0,1.19-.17,4.33,4.33,0,0,0,1.31-.82q2.88-2.47-.48-6.37l-1-1.18,1.33-1.15,1,1.18q3.36,3.88,6.15,1.48a4,4,0,0,0,1.09-1.39,2.48,2.48,0,0,0,.16-1.47,5.2,5.2,0,0,0-.59-1.5,10.66,10.66,0,0,0-1.19-1.63c-1.4-1.62-4-2.75-7.9-3.4l2-1.72C1271,976.28,1273.45,977.55,1274.83,979.14Z"/><path class="cls-1" d="M1255.51,994.8a9.6,9.6,0,0,1,1.3,2.17,7.33,7.33,0,0,1,.56,2.28,5.23,5.23,0,0,1-.37,2.34,6.38,6.38,0,0,1-1.48,2.2,11.64,11.64,0,0,0,1.62,3,3.75,3.75,0,0,0,3.63,1.66,5.32,5.32,0,0,1,5.27,2.12l-1.71,1.34a5.93,5.93,0,0,0-4.94-2.06,4.41,4.41,0,0,1-3.53-2,12.43,12.43,0,0,1-1.75-3.17,4.76,4.76,0,0,1-2.7.52,6.59,6.59,0,0,1-2.84-.94,8.75,8.75,0,0,1-2.43-2.17,8.86,8.86,0,0,1-1.66-3.28,6.3,6.3,0,0,1,0-3.34,5.2,5.2,0,0,1,1.87-2.7,5.39,5.39,0,0,1,2.36-1.11,5.32,5.32,0,0,1,2.45.07,7.64,7.64,0,0,1,2.31,1.1A9.44,9.44,0,0,1,1255.51,994.8Zm-1.59,1.24a8.16,8.16,0,0,0-1.05-1.14,6.65,6.65,0,0,0-1.24-.92,4.92,4.92,0,0,0-1.37-.55,3.14,3.14,0,0,0-1.43,0,3.54,3.54,0,0,0-1.42.69,3.31,3.31,0,0,0-1.36,3,8.3,8.3,0,0,0,4.86,6.26,4.11,4.11,0,0,0,3.41-.2,4.82,4.82,0,0,0,1-1.7,4.06,4.06,0,0,0,.19-1.82,5.68,5.68,0,0,0-.52-1.8A8.34,8.34,0,0,0,1253.92,996Z"/><path class="cls-1" d="M1242.21,1005.31l11,15.25-1.54,1.11-10.76-14.95a8.25,8.25,0,0,0-3.46-3.05,3.38,3.38,0,0,0-3.39.48,3.46,3.46,0,0,0-1.5,2.74,5.56,5.56,0,0,0,1.24,3.63,5.25,5.25,0,0,0,3.63,2.26,4.63,4.63,0,0,1,3.26,1.76,9,9,0,0,1,1.14,2.53l-1.61,1.16a6,6,0,0,0-.93-2.64,4,4,0,0,0-3.08-1.29,5.62,5.62,0,0,1-4-2.63,7.8,7.8,0,0,1-1.37-3.14,5.94,5.94,0,0,1,.28-3.18,5.93,5.93,0,0,1,4.47-3.6,5.23,5.23,0,0,1,2.46.2,7.71,7.71,0,0,1,2.26,1.26A10.49,10.49,0,0,1,1242.21,1005.31Z"/></svg>