<?xml version="1.0" encoding="utf-8"?>
<!-- Generator: Adobe Illustrator 22.1.0, SVG Export Plug-In . SVG Version: 6.00 Build 0)  -->
<svg version="1.1" id="Layer_1" xmlns="http://www.w3.org/2000/svg" xmlns:xlink="http://www.w3.org/1999/xlink" x="0px" y="0px"
	 viewBox="0 0 1366 768" enable-background="new 0 0 1366 768" xml:space="preserve">
<g>
	<g>
		<path fill="#B12B2B" d="M468.3,294.1c-0.6-0.4-1.1-0.8-1.5-1.3c-0.4-0.5-0.6-1.1-0.7-1.7c-0.1-0.6,0.1-1.2,0.4-1.7
			c0.2-0.3,0.4-0.6,0.7-0.8c0.3-0.2,0.6-0.3,0.9-0.4l0.6-0.1l-4.3-2.5c-0.2-0.1-0.5-0.2-0.7-0.3c-0.2-0.1-0.5-0.1-0.7,0
			c-0.2,0-0.4,0.1-0.7,0.3c-0.2,0.2-0.4,0.4-0.6,0.6c-0.3,0.5-0.4,1-0.3,1.4s0.4,0.8,0.8,1c0.3,0.2,0.6,0.3,0.9,0.4l-0.5,0.9
			c-0.4-0.1-0.7-0.2-1-0.4c-0.6-0.4-1-0.9-1.2-1.6c-0.2-0.7,0-1.4,0.4-2.2c0.3-0.4,0.5-0.8,0.9-1c0.3-0.2,0.6-0.4,1-0.5s0.7-0.1,1,0
			c0.3,0.1,0.7,0.2,1.1,0.4l6.6,3.9c1,0.6,1.7,1.3,2,2.2c0.3,0.9,0.3,1.7-0.2,2.5c-0.3,0.6-0.8,1-1.3,1.2c-0.6,0.2-1.2,0.3-1.8,0.2
			C469.6,294.7,469,294.4,468.3,294.1z M468.9,293.1c0.5,0.3,1,0.5,1.4,0.6c0.5,0.1,0.9,0.1,1.3-0.1c0.4-0.1,0.7-0.4,0.9-0.8
			c0.3-0.5,0.3-1.1,0.1-1.7c-0.3-0.6-0.8-1.2-1.6-1.6c-0.7-0.4-1.5-0.6-2.1-0.6c-0.7,0-1.2,0.3-1.5,0.9c-0.2,0.4-0.3,0.8-0.2,1.2
			c0.1,0.4,0.3,0.8,0.6,1.2C468,292.5,468.4,292.8,468.9,293.1z"/>
		<path fill="#B12B2B" d="M473,285.9l-8.7-5.6l0.6-0.9l8.5,5.4c0.9,0.6,1.7,0.9,2.4,0.9c0.7,0,1.2-0.3,1.6-0.9
			c0.3-0.5,0.4-1.1,0.2-1.7c-0.2-0.6-0.7-1.1-1.4-1.6c-0.7-0.5-1.5-0.6-2.3-0.4c-0.8,0.2-1.5,0.1-2-0.2c-0.3-0.2-0.7-0.6-1.1-1.1
			l0.6-0.9c0.3,0.5,0.7,0.9,1,1.2c0.4,0.3,1,0.3,1.8,0c0.8-0.2,1.7-0.1,2.6,0.5c0.6,0.4,1,0.8,1.3,1.3c0.3,0.5,0.5,1.1,0.5,1.7
			c0,0.6-0.2,1.2-0.5,1.7c-0.3,0.4-0.6,0.8-1,1s-0.8,0.4-1.3,0.4c-0.5,0-0.9,0-1.4-0.2C474,286.4,473.5,286.2,473,285.9z"/>
		<path fill="#B12B2B" d="M477.7,278.2c-2-1.4-2.3-2.9-1.2-4.5c0.2-0.2,0.3-0.4,0.5-0.5c0.2-0.1,0.4-0.3,0.6-0.3
			c0.2-0.1,0.4-0.1,0.6-0.1c0.2,0,0.4,0,0.7,0l0.7,0.1l0.1-0.1l-0.4-0.6c-0.5-0.8-0.5-1.6,0.2-2.6c0.6-0.8,1.2-1.2,2.1-1.3
			c0.8-0.1,1.7,0.2,2.7,0.9c1,0.7,1.7,1.9,2.4,3.7l-0.9,1.3c-0.5-2-1.2-3.4-2.2-4.1c-0.3-0.2-0.5-0.4-0.7-0.5
			c-0.2-0.1-0.4-0.2-0.7-0.3c-0.2-0.1-0.5-0.1-0.7-0.1c-0.2,0-0.4,0.1-0.6,0.2s-0.4,0.3-0.6,0.6c-0.8,1.1-0.4,2.2,1.1,3.3l0.7,0.5
			l-0.6,0.8l-0.7-0.5c-1.5-1.1-2.7-1.1-3.5,0c-0.2,0.3-0.4,0.6-0.4,0.9c0,0.3,0,0.5,0.1,0.8c0.1,0.3,0.3,0.5,0.5,0.7
			c0.2,0.2,0.5,0.5,0.9,0.7c1,0.7,2.5,0.9,4.6,0.8l-0.8,1.2C480.2,279.3,478.7,278.9,477.7,278.2z"/>
		<path fill="#B12B2B" d="M485.9,267.3c-0.2-0.2-0.4-0.3-0.6-0.5c-0.2-0.2-0.3-0.4-0.5-0.6c-0.1-0.2-0.3-0.4-0.4-0.7
			c-0.1-0.2-0.2-0.5-0.2-0.7c0-0.3,0-0.5,0-0.8s0.1-0.5,0.2-0.8c0.1-0.3,0.3-0.5,0.5-0.8c0.7-0.9,1.6-1.2,2.7-0.8
			c-0.5-1.1-0.4-2,0.2-2.8c0.6-0.7,1.2-1.1,2-1.1c0.8,0,1.6,0.3,2.5,1.1c1.1,0.9,1.6,1.9,1.4,3.2l0.1,0.1c1-0.4,1.9-0.2,2.8,0.5
			l0.8,0.6c0.5,0.4,0.8,0.8,1.1,1.3c0.2,0.5,0.3,1,0.2,1.6c-0.1,0.6-0.4,1.2-0.8,1.7c-0.4,0.4-0.8,0.8-1.2,1.1
			c-0.4,0.3-0.8,0.4-1.2,0.5c-0.4,0.1-0.7,0-1.1,0c-0.3-0.1-0.6-0.2-0.9-0.4c-0.3-0.2-0.5-0.4-0.6-0.6l0.7-0.8
			c0.3,0.3,0.5,0.5,0.6,0.6c0.1,0.1,0.2,0.1,0.4,0.2c0.1,0.1,0.3,0.1,0.5,0.1c0.2,0,0.4,0,0.6-0.1c0.2-0.1,0.4-0.2,0.7-0.4
			c0.3-0.2,0.5-0.4,0.7-0.7c0.2-0.3,0.4-0.6,0.5-0.9c0.1-0.3,0.1-0.6,0-0.9c-0.1-0.3-0.2-0.5-0.3-0.8c-0.2-0.2-0.3-0.4-0.5-0.6
			l-0.9-0.7c-0.1-0.1-0.3-0.2-0.3-0.3c-0.1-0.1-0.2-0.1-0.3-0.2c-0.1-0.1-0.2-0.1-0.3-0.2c-0.1,0-0.2-0.1-0.3-0.1
			c-0.1,0-0.2,0-0.3,0s-0.2,0.1-0.3,0.2c-0.1,0.1-0.2,0.2-0.3,0.3l-0.6,0.7l-0.7-0.6l0.5-0.6c0.2-0.2,0.3-0.5,0.3-0.7
			c0-0.3-0.1-0.5-0.2-0.8s-0.3-0.5-0.5-0.8c-0.2-0.2-0.4-0.5-0.7-0.7c-0.6-0.5-1.2-0.8-1.7-0.8c-0.5-0.1-1,0.1-1.4,0.6
			c-0.5,0.7-0.6,1.4-0.1,2.3c0.6,0.3,1.1,0.6,1.4,0.8c0.3,0.3,0.6,0.5,0.8,0.8s0.5,0.6,0.6,0.9s0.3,0.7,0.3,1c0,0.3,0,0.7-0.1,1.1
			c-0.1,0.4-0.3,0.7-0.6,1c-0.2,0.3-0.5,0.5-0.9,0.7c-0.3,0.2-0.7,0.3-1,0.3c-0.4,0-0.7,0-1.1-0.1c-0.4-0.1-0.7-0.2-1.1-0.4
			S486.2,267.5,485.9,267.3z M486.6,266.4c0.3,0.2,0.5,0.4,0.7,0.5c0.2,0.2,0.5,0.3,0.8,0.4c0.3,0.1,0.5,0.2,0.8,0.2
			c0.2,0,0.5,0,0.7-0.2c0.2-0.1,0.5-0.3,0.7-0.5c0.2-0.3,0.3-0.5,0.4-0.9c0-0.3,0-0.6-0.1-0.9c-0.1-0.3-0.3-0.6-0.5-0.9
			c-0.2-0.3-0.5-0.5-0.8-0.8c-0.2-0.2-0.4-0.3-0.6-0.4c-0.2-0.1-0.4-0.2-0.6-0.3c-0.2-0.1-0.4-0.2-0.6-0.2c-0.2,0-0.4-0.1-0.6,0
			c-0.2,0-0.4,0.1-0.6,0.2c-0.2,0.1-0.4,0.3-0.5,0.5c-0.2,0.2-0.3,0.4-0.4,0.7c-0.1,0.2-0.1,0.5,0,0.7c0,0.2,0.1,0.5,0.2,0.7
			c0.1,0.2,0.3,0.5,0.5,0.7C486.2,266,486.4,266.2,486.6,266.4z"/>
		<path fill="#B12B2B" d="M494,256.9c-0.3-0.3-0.5-0.5-0.7-0.8c-0.2-0.3-0.4-0.6-0.5-0.9c-0.1-0.3-0.2-0.6-0.2-0.9
			c0-0.3,0-0.6,0.2-1c0.1-0.3,0.3-0.6,0.6-0.9c0.4-0.4,0.8-0.7,1.2-0.8c0.4-0.1,0.9-0.2,1.3-0.1l0.5,0.2l0,0l-0.3-0.5
			c-0.1-0.2-0.2-0.5-0.2-0.8c0-0.3,0-0.6,0.1-0.9c0.1-0.3,0.2-0.5,0.4-0.7c0.2-0.3,0.6-0.4,1-0.5c0.4-0.1,0.9-0.1,1.3,0.1l0.5,0.2
			l0.1-0.1l-0.2-0.5c-0.1-0.4-0.2-0.9,0-1.3c0.1-0.5,0.3-0.9,0.7-1.3c1.2-1.3,2.6-1.3,4.2,0.2c0.9,0.8,1.6,2.1,2.1,3.8l-0.8,0.9
			c-0.5-1.9-1.1-3.2-2-3.9c-1.1-1.1-2.1-1.2-2.8-0.4c-0.2,0.2-0.3,0.5-0.4,0.7c-0.1,0.3-0.1,0.5-0.1,0.7c0,0.2,0,0.5,0.1,0.7
			c0.1,0.2,0.1,0.4,0.3,0.6c0.1,0.2,0.2,0.3,0.3,0.4l1.2,1.1l-0.6,0.6l-1.2-1.1c-0.5-0.5-1-0.7-1.5-0.8c-0.5-0.1-1,0.1-1.3,0.4
			c-0.3,0.3-0.4,0.8-0.3,1.3c0.1,0.5,0.4,1,0.9,1.5l1.2,1.1l-0.6,0.6l-1.2-1.1c-0.1-0.1-0.3-0.2-0.4-0.3c-0.2-0.1-0.4-0.1-0.6-0.2
			c-0.2,0-0.5-0.1-0.7,0c-0.2,0-0.5,0.1-0.7,0.2c-0.3,0.1-0.5,0.3-0.7,0.5c-0.4,0.4-0.5,0.9-0.3,1.4c0.2,0.5,0.5,1.1,1.1,1.6
			c0.6,0.5,1.2,0.9,1.9,1.1c0.7,0.2,1.5,0.3,2.3,0.2c0.8-0.1,1.6-0.3,2.4-0.6c0.8-0.3,1.6-0.7,2.4-1.2c2.6-1.5,4.4-1.9,5.6-1.2
			l-1.1,1.2c-0.3-0.2-0.6-0.4-1-0.4c-0.4,0-0.9,0.1-1.5,0.3c-0.6,0.2-1.2,0.5-1.9,1c-0.4,0.3-0.9,0.7-1.4,1.3
			c-0.6,0.6-1,1.5-1.4,2.7l-0.9-0.7l1.4-2.1c-0.8,0.3-1.6,0.5-2.3,0.7c-0.8,0.1-1.4,0.1-2.1,0c-0.6-0.1-1.2-0.3-1.8-0.5
			C494.9,257.6,494.5,257.3,494,256.9z"/>
		<path fill="#B12B2B" d="M506.2,244.1c-0.4-0.4-0.6-0.8-0.8-1.2c-0.2-0.4-0.3-0.8-0.4-1.3c0-0.4,0-0.9,0.2-1.3s0.4-0.8,0.8-1.2
			c0.5-0.5,1-0.7,1.6-0.8c0.6-0.1,1.2,0,1.7,0.2c0.6,0.2,1.1,0.6,1.6,1.1c1,1,1.7,2.2,2.1,3.7l-0.7,0.6c-0.7-1.5-1.4-2.7-2.2-3.6
			c-0.4-0.4-0.8-0.7-1.2-0.8c-0.4-0.2-0.8-0.2-1.2-0.2s-0.8,0.2-1.1,0.5c-0.5,0.5-0.7,1-0.6,1.7c0.1,0.6,0.4,1.2,1,1.8
			c0.8,0.8,2,1.6,3.6,2.4l-0.7,0.7C508.3,245.9,507.1,245.1,506.2,244.1z"/>
		<path fill="#B12B2B" d="M512.6,237.8c-1.6-1.8-1.6-3.4-0.1-4.7c0.2-0.2,0.4-0.3,0.6-0.4c0.2-0.1,0.4-0.2,0.6-0.2
			c0.2,0,0.4,0,0.6,0c0.2,0,0.4,0.1,0.6,0.2l0.7,0.3l0.1-0.1l-0.3-0.7c-0.3-0.9-0.1-1.7,0.8-2.4c0.7-0.6,1.5-0.9,2.3-0.8
			s1.6,0.6,2.4,1.5c0.8,0.9,1.3,2.3,1.5,4.2l-1.2,1c0-2.1-0.4-3.6-1.2-4.5c-0.2-0.3-0.4-0.5-0.6-0.6c-0.2-0.2-0.4-0.3-0.6-0.4
			c-0.2-0.1-0.4-0.2-0.6-0.2c-0.2,0-0.4,0-0.7,0.1c-0.2,0.1-0.5,0.2-0.7,0.5c-1,0.9-0.9,2.1,0.3,3.5l0.6,0.6l-0.7,0.6l-0.6-0.6
			c-1.2-1.4-2.4-1.7-3.4-0.8c-0.3,0.2-0.5,0.5-0.6,0.8c-0.1,0.3-0.1,0.5-0.1,0.8c0.1,0.3,0.2,0.5,0.3,0.8c0.2,0.3,0.4,0.6,0.7,0.9
			c0.8,0.9,2.2,1.5,4.3,1.8l-1.1,0.9C514.7,239.3,513.4,238.7,512.6,237.8z"/>
		<path fill="#B12B2B" d="M518.4,224.2l-1-1.2c-0.4-0.5-0.6-1-0.6-1.5c0-0.5,0.2-0.9,0.7-1.3c0.4-0.3,1-0.4,1.6-0.1l0.6,0.3l0.1,0
			l-0.1-0.6c-0.1-0.7,0.1-1.3,0.7-1.7c0.2-0.1,0.4-0.3,0.6-0.3c0.2-0.1,0.5-0.1,0.7,0c0.3,0,0.5,0.2,0.8,0.3
			c0.3,0.2,0.6,0.5,0.8,0.8l5,6.3c0.8,1,1.2,1.9,1.1,2.8c0,0.9-0.4,1.6-1.1,2.2c-0.4,0.3-0.8,0.5-1.3,0.6c-0.5,0.1-0.9,0.1-1.3-0.1
			c-0.4-0.1-0.8-0.3-1.3-0.6c-0.4-0.3-0.8-0.6-1.1-1c-0.3-0.4-0.6-0.8-0.7-1.3c-0.2-0.5-0.3-0.9-0.3-1.4c0-0.5,0.1-0.9,0.2-1.3
			c0.2-0.4,0.5-0.8,0.8-1.1c0.6-0.5,1.2-0.6,1.8-0.4l0.5,0.2l0.1-0.1l-3.5-4.4c-0.2-0.2-0.3-0.4-0.5-0.5s-0.3-0.2-0.5-0.2
			c-0.2,0-0.3,0-0.4,0c-0.1,0-0.3,0.1-0.4,0.2c-0.6,0.5-0.5,1.3,0.4,2.5l1.1,1.4l-0.6,0.5l-1.1-1.4c-0.5-0.6-0.9-1-1.3-1.2
			c-0.3-0.2-0.7-0.1-1,0.2c-0.1,0.1-0.2,0.2-0.3,0.4c-0.1,0.1-0.1,0.3,0,0.5c0,0.2,0.2,0.4,0.3,0.6l1.1,1.4L518.4,224.2z
			 M524.2,228.3c0.4,0.4,0.7,0.8,1.1,1.1c0.4,0.3,0.8,0.4,1.2,0.4c0.4,0,0.8-0.1,1.2-0.4c0.5-0.4,0.8-0.9,0.7-1.6
			c0-0.6-0.4-1.3-1-2.1c-0.3-0.4-0.7-0.7-1.1-1c-0.4-0.3-0.8-0.4-1.2-0.4c-0.4,0-0.8,0.1-1.2,0.4c-0.3,0.2-0.5,0.5-0.6,0.8
			c-0.1,0.3-0.1,0.6-0.1,0.9c0,0.3,0.1,0.7,0.3,1C523.8,227.6,524,228,524.2,228.3z"/>
		<path fill="#B12B2B" d="M530.4,223.2c-0.3-0.4-0.5-0.8-0.7-1.3c-0.1-0.4-0.2-0.9-0.2-1.3c0-0.4,0.1-0.9,0.4-1.3
			c0.2-0.4,0.5-0.8,1-1.1c0.5-0.4,1.1-0.6,1.7-0.6c0.6,0,1.2,0.1,1.7,0.4c0.5,0.3,1,0.7,1.4,1.3c0.8,1.1,1.3,2.4,1.6,3.9l-0.7,0.5
			c-0.5-1.6-1-2.9-1.7-3.8c-0.3-0.4-0.7-0.8-1.1-1c-0.4-0.2-0.8-0.4-1.2-0.4c-0.4,0-0.8,0.1-1.1,0.4c-0.6,0.4-0.9,0.9-0.9,1.6
			c0,0.6,0.2,1.3,0.7,1.9c0.6,0.9,1.7,1.8,3.2,2.8l-0.8,0.6C532.3,225.2,531.2,224.3,530.4,223.2z"/>
		<path fill="#B12B2B" d="M544.6,221.3c-0.2-0.3-0.3-0.6-0.5-1.1l0.9-0.6c0.2,0.6,0.4,0.9,0.5,1.1c0.1,0.2,0.2,0.3,0.4,0.5
			c0.2,0.1,0.3,0.3,0.5,0.4c0.2,0.1,0.4,0.2,0.6,0.2c0.2,0,0.4,0,0.7,0c0.2,0,0.5-0.1,0.7-0.3c0.4-0.2,0.6-0.5,0.8-0.7
			c0.2-0.3,0.3-0.5,0.3-0.8c0-0.3,0-0.6-0.1-0.8c-0.1-0.3-0.2-0.6-0.4-0.9l-2-3.1l-0.1,0.1l-0.1,0.7c-0.1,0.5-0.4,0.9-0.9,1.3
			c-0.8,0.5-1.6,0.6-2.4,0.4s-1.5-0.8-2.1-1.7c-0.6-1-1.1-2.2-1.4-3.5l1.2-0.8c0.2,1.6,0.5,2.8,1.1,3.7c0.5,0.7,0.9,1.2,1.5,1.4
			c0.5,0.2,1.1,0.2,1.6-0.2c0.2-0.1,0.4-0.3,0.5-0.4c0.1-0.2,0.2-0.3,0.3-0.5c0.1-0.2,0.1-0.4,0.1-0.6c0-0.2,0-0.4-0.1-0.6
			c0-0.2-0.1-0.4-0.2-0.6c-0.1-0.2-0.2-0.4-0.3-0.6l-2.1-3.2l0.9-0.6l5.4,8.3c0.3,0.4,0.4,0.8,0.5,1.2c0.1,0.4,0.1,0.8,0.1,1.2
			c0,0.4-0.2,0.8-0.4,1.2c-0.3,0.4-0.6,0.7-1.1,1c-0.3,0.2-0.7,0.4-1.1,0.4c-0.4,0.1-0.8,0.1-1.2,0c-0.4-0.1-0.7-0.2-1.1-0.5
			C545.2,221.9,544.9,221.6,544.6,221.3z"/>
		<path fill="#B12B2B" d="M548.6,210.6c-1.2-2.1-0.9-3.6,0.8-4.6c0.2-0.1,0.5-0.2,0.7-0.3c0.2-0.1,0.4-0.1,0.6-0.1
			c0.2,0,0.4,0.1,0.6,0.1c0.2,0.1,0.4,0.2,0.6,0.3l0.6,0.4l0.2-0.1l-0.1-0.7c-0.2-0.9,0.2-1.7,1.3-2.2c0.8-0.5,1.6-0.6,2.4-0.3
			c0.8,0.3,1.5,0.9,2.1,1.9c0.6,1,0.8,2.5,0.6,4.4l-1.3,0.8c0.4-2,0.3-3.6-0.3-4.6c-0.2-0.3-0.3-0.5-0.5-0.7
			c-0.1-0.2-0.3-0.4-0.5-0.5c-0.2-0.2-0.4-0.3-0.6-0.3c-0.2-0.1-0.4-0.1-0.7,0c-0.2,0-0.5,0.1-0.8,0.3c-1.2,0.7-1.3,1.9-0.4,3.5
			l0.4,0.7l-0.8,0.5l-0.4-0.7c-0.9-1.6-2-2.1-3.2-1.4c-0.3,0.2-0.6,0.4-0.7,0.6c-0.2,0.2-0.2,0.5-0.2,0.8c0,0.3,0.1,0.6,0.2,0.9
			c0.1,0.3,0.3,0.6,0.5,1c0.6,1,1.9,1.9,3.9,2.6l-1.2,0.7C550.4,212.5,549.2,211.6,548.6,210.6z"/>
		<path fill="#B12B2B" d="M563.2,209.7c-0.2-0.3-0.3-0.8-0.5-1.5l0.9-0.5c0.2,0.6,0.4,1,0.6,1.5c0.2,0.3,0.3,0.6,0.5,0.8
			c0.2,0.2,0.4,0.4,0.7,0.6s0.6,0.2,0.9,0.2c0.3,0,0.7-0.1,1-0.3c0.4-0.2,0.7-0.4,0.9-0.6c0.2-0.2,0.3-0.5,0.4-0.7
			c0-0.3,0-0.5,0-0.8c-0.1-0.3-0.2-0.6-0.4-0.9l-0.6-1.1c-0.2-0.3-0.4-0.6-0.6-0.9c-0.2-0.2-0.4-0.4-0.6-0.5
			c-0.2-0.1-0.4-0.2-0.6-0.2c-0.2,0-0.4,0-0.6,0c-0.2,0-0.3,0.1-0.5,0.2l-0.9,0.5l-0.5-1l0.9-0.5c0.2-0.1,0.3-0.2,0.5-0.4
			c0.1-0.2,0.2-0.4,0.3-0.7c0.1-0.3,0.1-0.6,0-0.9s-0.2-0.7-0.3-1c-0.1-0.3-0.3-0.5-0.4-0.7c-0.1-0.2-0.3-0.3-0.5-0.4
			c-0.2-0.1-0.4-0.1-0.7-0.1c-0.3,0-0.6,0.1-0.9,0.3c-0.5,0.3-0.9,0.6-1,1c-0.1,0.4-0.1,0.8,0.1,1.3c0.2,0.3,0.3,0.6,0.5,0.9
			l-0.9,0.4c-0.2-0.3-0.3-0.5-0.5-0.9c-0.1-0.3-0.2-0.6-0.2-0.9c0-0.3,0-0.7,0.1-1c0.1-0.3,0.3-0.6,0.5-0.9c0.2-0.3,0.5-0.5,0.9-0.7
			c0.4-0.2,0.8-0.3,1.2-0.4c0.4-0.1,0.7-0.1,1,0c0.3,0.1,0.5,0.2,0.8,0.3c0.2,0.1,0.5,0.3,0.6,0.5c0.2,0.2,0.3,0.4,0.5,0.7
			c0.6,1.2,0.5,2.4-0.4,3.6l0.1,0.2c1.4-0.3,2.5,0.3,3.3,1.7l0.5,1.1c0.2,0.4,0.3,0.8,0.4,1.2c0.1,0.4,0,0.8,0,1.2
			c-0.1,0.4-0.3,0.8-0.6,1.1c-0.3,0.4-0.7,0.7-1.2,0.9c-0.4,0.2-0.8,0.3-1.2,0.4c-0.4,0-0.8,0-1.1-0.1c-0.3-0.1-0.6-0.2-0.9-0.4
			c-0.3-0.2-0.5-0.4-0.8-0.7C563.5,210.2,563.4,210,563.2,209.7z"/>
		<path fill="#B12B2B" d="M570.9,205.9c-0.4-0.8-0.6-1.5-0.7-2.3l1-0.4c0.2,1,0.5,1.7,0.7,2.3c0.1,0.3,0.3,0.6,0.5,0.8
			c0.2,0.2,0.4,0.4,0.6,0.5c0.2,0.1,0.5,0.2,0.8,0.2c0.3,0,0.6-0.1,1-0.2c0.2-0.1,0.4-0.2,0.6-0.4c0.2-0.1,0.3-0.3,0.4-0.5
			c0.1-0.2,0.2-0.3,0.2-0.5c0-0.2,0.1-0.4,0.1-0.5c0-0.2,0-0.3-0.1-0.5c0-0.2-0.1-0.3-0.2-0.4l-3.2-6.8c-0.1-0.3-0.3-0.5-0.4-0.7
			c-0.1-0.2-0.3-0.3-0.5-0.4c-0.2-0.1-0.4-0.1-0.7-0.1c-0.3,0-0.5,0.1-0.9,0.3c-0.3,0.1-0.6,0.3-0.7,0.5c-0.2,0.2-0.3,0.4-0.3,0.6
			c0,0.2,0,0.4,0,0.7c0.1,0.2,0.1,0.5,0.3,0.8c0.1,0.3,0.4,0.6,0.7,0.8l-0.9,0.4c-0.3-0.3-0.5-0.5-0.7-0.8c-0.2-0.4-0.3-0.7-0.3-1.1
			s0-0.7,0.1-1c0.1-0.3,0.3-0.6,0.5-0.9c0.3-0.3,0.6-0.5,1-0.7c0.4-0.2,0.9-0.3,1.2-0.3c0.4,0,0.7,0.1,1,0.2
			c0.3,0.2,0.6,0.4,0.8,0.6c0.2,0.3,0.4,0.6,0.6,0.9l3.2,6.8c0.2,0.3,0.2,0.7,0.3,1.1c0,0.4,0,0.8-0.1,1.2c-0.1,0.4-0.3,0.7-0.6,1.1
			c-0.3,0.3-0.6,0.6-1.1,0.8c-0.4,0.2-0.7,0.3-1.1,0.3c-0.4,0-0.7,0-1-0.1c-0.3-0.1-0.6-0.2-0.9-0.4c-0.3-0.2-0.5-0.4-0.8-0.6
			C571.2,206.5,571,206.2,570.9,205.9z"/>
		<path fill="#B12B2B" d="M576.4,196.1c-0.1-0.3-0.2-0.7-0.3-1c-0.1-0.3-0.1-0.7-0.1-1c0-0.3,0.1-0.7,0.2-0.9
			c0.1-0.3,0.3-0.6,0.6-0.8s0.6-0.4,0.9-0.6c0.5-0.2,1-0.3,1.5-0.2c0.5,0.1,0.9,0.2,1.2,0.5l0.4,0.4l0.1,0l0-0.5
			c0-0.3,0.1-0.6,0.2-0.8c0.1-0.3,0.3-0.5,0.5-0.7c0.2-0.2,0.4-0.3,0.6-0.4c0.3-0.1,0.7-0.1,1.2,0c0.4,0.1,0.8,0.3,1.1,0.6l0.4,0.4
			l0.1,0l0-0.6c0.1-0.4,0.2-0.8,0.5-1.2c0.3-0.4,0.7-0.7,1.2-0.9c1.7-0.7,2.9,0,3.7,2c0.4,1.1,0.5,2.6,0.3,4.3l-1.2,0.5
			c0.4-1.9,0.3-3.4-0.1-4.4c-0.6-1.4-1.4-2-2.4-1.6c-0.3,0.1-0.5,0.3-0.7,0.4c-0.2,0.2-0.3,0.4-0.4,0.6c-0.1,0.2-0.2,0.4-0.2,0.7
			c0,0.2,0,0.4,0,0.6c0,0.2,0.1,0.4,0.1,0.5l0.6,1.5l-0.8,0.3l-0.6-1.5c-0.2-0.6-0.6-1.1-1.1-1.4c-0.5-0.3-0.9-0.3-1.3-0.2
			c-0.4,0.2-0.7,0.5-0.9,1.1c-0.2,0.5-0.1,1.1,0.1,1.7l0.6,1.5l-0.8,0.3l-0.6-1.5c-0.1-0.1-0.1-0.3-0.3-0.4
			c-0.1-0.1-0.3-0.3-0.5-0.4c-0.2-0.1-0.4-0.3-0.6-0.3c-0.2-0.1-0.5-0.1-0.7-0.1s-0.6,0.1-0.8,0.2c-0.5,0.2-0.8,0.6-0.9,1.2
			c-0.1,0.6,0,1.2,0.3,2c0.3,0.7,0.7,1.3,1.3,1.8s1.2,0.9,2,1.2s1.6,0.5,2.4,0.5c0.9,0.1,1.8,0.1,2.7-0.1c3-0.2,4.8,0.2,5.5,1.4
			l-1.5,0.6c-0.1-0.3-0.4-0.6-0.7-0.8c-0.4-0.2-0.8-0.3-1.4-0.4c-0.6-0.1-1.3,0-2.1,0c-0.5,0.1-1.1,0.2-1.8,0.5
			c-0.8,0.3-1.6,0.9-2.4,1.8l-0.5-1l2.2-1.3c-0.9-0.1-1.7-0.2-2.4-0.4c-0.7-0.2-1.4-0.5-1.9-0.9c-0.5-0.4-1-0.8-1.4-1.2
			C576.9,197.2,576.6,196.7,576.4,196.1z"/>
		<path fill="#B12B2B" d="M592.9,189.8c-0.2-0.5-0.2-1-0.2-1.4c0-0.5,0.1-0.9,0.2-1.3c0.1-0.4,0.4-0.8,0.7-1.1s0.7-0.6,1.2-0.7
			c0.6-0.2,1.2-0.2,1.8-0.1c0.6,0.2,1.1,0.5,1.5,0.9c0.4,0.4,0.7,1,0.9,1.6c0.4,1.3,0.5,2.7,0.3,4.2l-0.9,0.3c0-1.7-0.1-3.1-0.5-4.2
			c-0.2-0.5-0.4-0.9-0.7-1.3c-0.3-0.3-0.6-0.6-1-0.7c-0.4-0.1-0.8-0.1-1.2,0c-0.7,0.2-1.1,0.6-1.3,1.2c-0.2,0.6-0.2,1.3,0.1,2.1
			c0.3,1,1.1,2.3,2.2,3.7l-1,0.3C594.1,192.4,593.3,191.1,592.9,189.8z"/>
		<path fill="#B12B2B" d="M605.4,186.1c-0.2-0.7-0.2-1.3-0.1-2c0.1-0.6,0.3-1.2,0.7-1.7c0.4-0.5,0.9-0.8,1.5-1
			c0.3-0.1,0.7-0.1,1-0.1c0.3,0.1,0.6,0.2,0.9,0.4l0.5,0.4l-1.3-4.8c-0.1-0.3-0.2-0.5-0.3-0.7c-0.1-0.2-0.3-0.4-0.5-0.5
			c-0.2-0.1-0.4-0.2-0.7-0.3c-0.3,0-0.5,0-0.8,0.1c-0.6,0.2-1,0.4-1.2,0.8c-0.2,0.4-0.3,0.8-0.1,1.3c0.1,0.3,0.2,0.6,0.4,0.9l-1,0.3
			c-0.2-0.4-0.4-0.7-0.5-1c-0.2-0.7-0.1-1.3,0.3-1.9c0.4-0.6,1-1,1.9-1.3c0.5-0.1,0.9-0.2,1.3-0.1c0.4,0,0.7,0.2,1,0.4
			c0.3,0.2,0.5,0.4,0.7,0.7c0.2,0.3,0.3,0.6,0.4,1.1l2,7.4c0.3,1.1,0.3,2.1-0.1,3s-1,1.4-1.9,1.6c-0.6,0.2-1.2,0.1-1.8-0.1
			c-0.6-0.2-1-0.6-1.4-1.1C605.8,187.4,605.5,186.8,605.4,186.1z M606.4,185.8c0.1,0.6,0.4,1,0.6,1.4c0.3,0.4,0.6,0.7,1,0.9
			c0.4,0.2,0.8,0.2,1.2,0.1c0.6-0.2,1-0.5,1.2-1.2c0.2-0.6,0.2-1.4,0-2.3c-0.2-0.8-0.6-1.5-1.1-1.9c-0.5-0.5-1.1-0.6-1.7-0.4
			c-0.4,0.1-0.7,0.3-1,0.7c-0.2,0.3-0.4,0.7-0.4,1.2C606.2,184.8,606.3,185.3,606.4,185.8z"/>
		<path fill="#B12B2B" d="M615.3,189.9c-0.2-0.8-0.2-1.6-0.2-2.4l1-0.2c0,1,0.1,1.8,0.2,2.4c0.1,0.3,0.2,0.6,0.3,0.9
			c0.1,0.3,0.3,0.5,0.5,0.7c0.2,0.2,0.5,0.3,0.8,0.4c0.3,0.1,0.6,0.1,1,0c0.2-0.1,0.5-0.1,0.6-0.2c0.2-0.1,0.3-0.2,0.5-0.4
			c0.1-0.1,0.2-0.3,0.3-0.5c0.1-0.2,0.1-0.3,0.2-0.5c0-0.2,0-0.3,0-0.5c0-0.2,0-0.3-0.1-0.5l-1.7-7.3c-0.1-0.3-0.2-0.6-0.3-0.8
			c-0.1-0.2-0.2-0.4-0.4-0.5c-0.2-0.1-0.4-0.2-0.6-0.3c-0.3,0-0.6,0-0.9,0.1c-0.3,0.1-0.6,0.2-0.8,0.3c-0.2,0.1-0.3,0.3-0.4,0.5
			c-0.1,0.2-0.1,0.4-0.1,0.6c0,0.2,0,0.5,0.1,0.8c0.1,0.3,0.2,0.6,0.5,1l-1,0.2c-0.2-0.3-0.4-0.6-0.5-1c-0.1-0.4-0.1-0.8-0.1-1.1
			c0-0.4,0.1-0.7,0.3-1c0.2-0.3,0.4-0.6,0.7-0.8c0.3-0.2,0.7-0.4,1.2-0.5c0.5-0.1,0.9-0.1,1.3-0.1c0.4,0.1,0.7,0.2,1,0.4
			c0.3,0.2,0.5,0.5,0.7,0.8c0.2,0.3,0.3,0.6,0.4,1l1.7,7.4c0.1,0.4,0.1,0.7,0,1.1c-0.1,0.4-0.2,0.8-0.4,1.1
			c-0.2,0.3-0.5,0.7-0.8,0.9c-0.4,0.3-0.7,0.5-1.2,0.6c-0.4,0.1-0.8,0.1-1.1,0c-0.4-0.1-0.7-0.2-1-0.3c-0.3-0.2-0.6-0.4-0.8-0.6
			c-0.2-0.2-0.4-0.5-0.6-0.8C615.5,190.5,615.4,190.2,615.3,189.9z"/>
		<path fill="#B12B2B" d="M622.9,182.7c-0.1-0.5-0.1-1-0.1-1.5l1.1-0.2c0,0.4,0,0.9,0.1,1.5c0.1,0.2,0.1,0.4,0.2,0.6
			c0.1,0.2,0.2,0.3,0.3,0.5c0.1,0.2,0.3,0.3,0.4,0.5c0.2,0.1,0.4,0.2,0.6,0.2c0.3,0,0.6,0,0.9,0c0.2,0,0.4-0.1,0.6-0.2
			c0.2-0.1,0.3-0.2,0.4-0.3c0.1-0.1,0.2-0.2,0.3-0.4c0.1-0.1,0.1-0.3,0.2-0.4c0-0.2,0.1-0.3,0.1-0.5c0-0.2,0-0.4,0-0.5
			c0-0.2,0-0.4-0.1-0.6c-0.2-1.1-0.9-1.9-2.2-2.4c-1.2-0.5-2-1.3-2.1-2.2l1.1-0.2c0.2,0.8,0.9,1.5,2.1,2c1.2,0.5,2,1.4,2.2,2.6
			c0.1,0.4,0.1,0.9,0,1.3c-0.1,0.4-0.2,0.8-0.4,1.2c-0.2,0.4-0.5,0.7-0.8,0.9c-0.4,0.3-0.8,0.4-1.3,0.5c-0.5,0.1-0.9,0.1-1.4,0
			c-0.4-0.1-0.8-0.3-1.1-0.5c-0.3-0.3-0.6-0.5-0.8-0.9C623.1,183.4,623,183.1,622.9,182.7z"/>
		<path fill="#B12B2B" d="M631.3,180.2c-0.1-0.5-0.1-1,0-1.5c0.1-0.5,0.2-0.9,0.5-1.3c0.2-0.4,0.5-0.7,0.9-1
			c0.4-0.3,0.8-0.4,1.3-0.5c1-0.1,1.7,0.1,2.3,0.8l0.4,0.5l0.3-0.7c0.3-0.7,0.9-1.1,1.7-1.3c0.4-0.1,0.8,0,1.1,0
			c0.4,0.1,0.7,0.2,0.9,0.4c0.3,0.2,0.5,0.4,0.7,0.7c0.2,0.3,0.4,0.6,0.5,0.9c0.1,0.3,0.2,0.6,0.3,1c0.2,1.5-0.1,3.1-1.1,4.7
			l-1.4,0.2c1.1-1.8,1.5-3.4,1.4-4.7c-0.2-1.6-1-2.4-2.2-2.2c-0.1,0-0.2,0-0.3,0.1c-0.1,0-0.2,0.1-0.3,0.1c-0.1,0.1-0.2,0.1-0.2,0.2
			c-0.1,0-0.1,0.1-0.2,0.2c-0.1,0.1-0.1,0.2-0.2,0.2s-0.1,0.1-0.1,0.3c-0.1,0.1-0.1,0.2-0.1,0.3c0,0.1-0.1,0.2-0.1,0.3
			c0.3,0.4,0.5,1,0.5,1.5c0.1,0.7,0.1,1.4-0.1,2c-0.2,0.6-0.5,1.1-0.9,1.6c-0.4,0.4-1,0.7-1.6,0.8c-0.7,0.1-1.3,0-1.8-0.3
			c-0.5-0.3-1-0.7-1.3-1.3C631.6,181.6,631.4,180.9,631.3,180.2z M632.4,180.1c0.1,0.9,0.4,1.7,0.9,2.2c0.4,0.5,1,0.7,1.7,0.6
			c0.4-0.1,0.8-0.2,1.1-0.5c0.3-0.3,0.5-0.7,0.6-1.1c0.1-0.5,0.1-1,0-1.6c-0.1-0.9-0.4-1.6-0.9-2.1c-0.5-0.5-1-0.7-1.6-0.6
			c-0.7,0.1-1.2,0.4-1.5,1C632.4,178.5,632.3,179.2,632.4,180.1z"/>
		<path fill="#B12B2B" d="M645.1,184.8c-0.1-0.8,0-1.7,0.1-2.4l1-0.1c-0.1,1-0.1,1.8-0.1,2.4c0,0.3,0.1,0.6,0.2,0.9
			c0.1,0.3,0.2,0.5,0.4,0.7c0.2,0.2,0.4,0.4,0.7,0.5c0.3,0.1,0.6,0.1,1,0.1c0.2,0,0.5-0.1,0.7-0.2c0.2-0.1,0.4-0.2,0.5-0.3
			c0.1-0.1,0.3-0.3,0.4-0.4c0.1-0.2,0.2-0.3,0.2-0.5c0.1-0.2,0.1-0.3,0.1-0.5c0-0.2,0-0.3,0-0.5l-0.7-7.5c0-0.3-0.1-0.6-0.2-0.8
			c-0.1-0.2-0.2-0.4-0.3-0.6c-0.1-0.2-0.3-0.3-0.6-0.3c-0.2-0.1-0.5-0.1-0.9-0.1c-0.3,0-0.6,0.1-0.9,0.2c-0.2,0.1-0.4,0.3-0.5,0.5
			c-0.1,0.2-0.2,0.4-0.2,0.6c0,0.2,0,0.5,0,0.8c0,0.3,0.2,0.7,0.4,1l-1,0.1c-0.2-0.3-0.3-0.7-0.3-1c0-0.4,0-0.8,0.1-1.2
			c0.1-0.4,0.2-0.7,0.4-1c0.2-0.3,0.5-0.5,0.8-0.7c0.3-0.2,0.8-0.3,1.2-0.3c0.5,0,0.9,0,1.3,0.1c0.4,0.1,0.7,0.3,0.9,0.6
			c0.2,0.3,0.4,0.5,0.5,0.9c0.1,0.3,0.2,0.7,0.2,1.1l0.7,7.5c0,0.4,0,0.7-0.1,1.1c-0.1,0.4-0.3,0.7-0.5,1c-0.2,0.3-0.5,0.6-0.9,0.8
			c-0.4,0.2-0.8,0.3-1.3,0.4c-0.4,0-0.8,0-1.1-0.1c-0.4-0.1-0.7-0.3-0.9-0.5c-0.3-0.2-0.5-0.4-0.7-0.7c-0.2-0.3-0.4-0.6-0.5-0.9
			C645.2,185.4,645.1,185.1,645.1,184.8z"/>
		<path fill="#B12B2B" d="M657.6,177.6c0-0.5,0-0.9,0.1-1.4c0.1-0.4,0.3-0.8,0.5-1.2c0.2-0.4,0.5-0.7,0.9-0.9
			c0.4-0.2,0.8-0.4,1.4-0.5c0.2-0.7,0.3-1.3,0.3-1.9c0-0.9-0.4-1.5-1.1-1.9c-1.1-0.6-1.6-1.4-1.6-2.6l1.2,0c0,1,0.6,1.8,1.5,2.5
			c0.6,0.4,0.9,1.1,0.9,2c0,0.6-0.1,1.3-0.3,2c0.5,0.1,1,0.3,1.4,0.6c0.4,0.4,0.7,0.8,1,1.3c0.2,0.5,0.4,1.1,0.4,1.7
			c0,0.7-0.1,1.4-0.3,2c-0.2,0.6-0.6,1.1-1.1,1.5c-0.5,0.4-1.1,0.6-1.7,0.6c-0.5,0-1-0.1-1.4-0.3c-0.4-0.2-0.8-0.5-1.1-0.8
			c-0.3-0.4-0.5-0.8-0.7-1.2C657.7,178.7,657.7,178.1,657.6,177.6z M658.7,177.6c0,0.3,0,0.6,0.1,0.8c0.1,0.3,0.1,0.5,0.3,0.8
			c0.1,0.3,0.3,0.5,0.4,0.7c0.2,0.2,0.4,0.3,0.6,0.5c0.3,0.1,0.5,0.2,0.9,0.2c0.7,0,1.2-0.3,1.6-0.9c0.4-0.6,0.5-1.3,0.5-2.2
			c0-0.8-0.2-1.5-0.6-2.1c-0.4-0.6-0.9-0.9-1.6-1c-0.4,0.1-0.7,0.2-1,0.4c-0.3,0.2-0.5,0.4-0.7,0.7c-0.2,0.3-0.3,0.6-0.4,1
			C658.8,176.8,658.7,177.2,658.7,177.6z"/>
		<path fill="#B12B2B" d="M666.6,178.2c0-0.5,0.1-1,0.2-1.5l1.1,0c-0.1,0.4-0.2,0.9-0.2,1.5c0,0.2,0,0.4,0.1,0.6
			c0,0.2,0.1,0.4,0.2,0.6c0.1,0.2,0.2,0.4,0.3,0.5c0.1,0.1,0.3,0.3,0.6,0.4c0.2,0.1,0.5,0.2,0.9,0.2c0.2,0,0.4,0,0.6-0.1
			c0.2,0,0.4-0.1,0.5-0.2c0.1-0.1,0.3-0.2,0.4-0.3c0.1-0.1,0.2-0.3,0.3-0.4c0.1-0.1,0.1-0.3,0.2-0.5c0-0.2,0.1-0.3,0.1-0.5
			c0-0.2,0-0.4,0-0.6c0-1.1-0.5-2-1.7-2.8c-1.1-0.8-1.7-1.6-1.6-2.6l1.1,0c0,0.8,0.5,1.6,1.6,2.4c1.1,0.7,1.7,1.7,1.7,3
			c0,0.4-0.1,0.9-0.2,1.3c-0.1,0.4-0.3,0.8-0.6,1.1c-0.3,0.3-0.6,0.6-1,0.8c-0.4,0.2-0.9,0.3-1.3,0.3c-0.5,0-0.9-0.1-1.3-0.3
			c-0.4-0.2-0.7-0.4-1-0.7c-0.3-0.3-0.4-0.6-0.6-1C666.7,178.9,666.6,178.5,666.6,178.2z"/>
		<path fill="#B12B2B" d="M674.8,183.5c0-0.3,0.1-0.9,0.3-1.6l1,0c-0.1,0.6-0.2,1.1-0.2,1.6c0,0.3,0,0.7,0.1,1s0.2,0.6,0.3,0.8
			c0.2,0.3,0.4,0.5,0.7,0.6c0.3,0.2,0.6,0.2,1,0.3c0.4,0,0.8,0,1-0.1c0.3-0.1,0.5-0.2,0.7-0.4s0.3-0.4,0.4-0.7
			c0.1-0.3,0.1-0.6,0.1-1l0.1-1.3c0-0.4,0-0.7-0.1-1c-0.1-0.3-0.2-0.5-0.3-0.7c-0.1-0.2-0.3-0.3-0.4-0.4c-0.2-0.1-0.3-0.2-0.5-0.2
			s-0.3-0.1-0.5-0.1l-1,0l0-1.1l1,0c0.2,0,0.4,0,0.6-0.2c0.2-0.1,0.4-0.3,0.6-0.5c0.2-0.2,0.3-0.5,0.5-0.8c0.1-0.3,0.2-0.7,0.2-1.1
			c0-0.3,0-0.6,0-0.8c0-0.2-0.1-0.4-0.3-0.6s-0.3-0.3-0.6-0.4s-0.6-0.2-0.9-0.2c-0.6,0-1,0.1-1.4,0.4c-0.3,0.3-0.5,0.7-0.5,1.2
			c0,0.4,0,0.7,0,1l-1,0c0-0.3,0-0.6,0-1c0-0.3,0.1-0.6,0.2-0.9c0.1-0.3,0.3-0.6,0.6-0.8c0.2-0.2,0.5-0.4,0.9-0.5
			c0.4-0.1,0.7-0.2,1.1-0.2c0.5,0,0.9,0.1,1.2,0.2c0.4,0.1,0.6,0.3,0.9,0.5c0.2,0.2,0.4,0.4,0.5,0.7c0.1,0.3,0.2,0.5,0.3,0.8
			c0,0.3,0.1,0.5,0.1,0.8c-0.1,1.3-0.8,2.3-2.2,3l0,0.2c1.4,0.5,2.1,1.5,2,3.1l-0.1,1.2c0,0.4-0.1,0.9-0.2,1.2
			c-0.1,0.4-0.4,0.7-0.6,1c-0.3,0.3-0.6,0.5-1,0.7c-0.4,0.2-0.9,0.2-1.5,0.2c-0.5,0-0.9-0.1-1.2-0.3c-0.4-0.2-0.7-0.4-0.9-0.6
			c-0.2-0.2-0.4-0.5-0.6-0.8c-0.2-0.3-0.3-0.6-0.3-0.9C674.8,184.2,674.8,183.9,674.8,183.5z"/>
		<path fill="#B12B2B" d="M684,171.1l0.1-1.6c0.1-0.6,0.3-1.1,0.6-1.5c0.4-0.4,0.8-0.5,1.4-0.5c0.5,0,0.9,0.4,1.3,1l0.2,0.6l0.1,0
			l0.3-0.5c0.4-0.6,1-0.8,1.6-0.8c0.2,0,0.5,0.1,0.7,0.2c0.2,0.1,0.4,0.3,0.6,0.5c0.2,0.2,0.3,0.5,0.4,0.8c0.1,0.3,0.1,0.7,0.1,1.1
			l-0.7,8c-0.1,1.2-0.5,2.2-1.1,2.8c-0.6,0.6-1.4,0.9-2.4,0.8c-0.5,0-0.9-0.2-1.3-0.4c-0.4-0.3-0.7-0.6-0.9-1s-0.4-0.8-0.5-1.3
			c-0.1-0.5-0.1-1-0.1-1.5c0-0.5,0.2-1,0.3-1.4c0.2-0.5,0.4-0.8,0.7-1.2c0.3-0.3,0.6-0.6,1.1-0.8s0.9-0.3,1.4-0.2
			c0.7,0.1,1.3,0.4,1.6,0.9l0.3,0.5l0.1,0l0.5-5.6c0-0.3,0-0.5,0-0.7c0-0.2-0.1-0.4-0.2-0.5c-0.1-0.1-0.2-0.2-0.3-0.3
			c-0.1-0.1-0.3-0.1-0.4-0.1c-0.8-0.1-1.3,0.6-1.4,2.1l-0.1,1.8l-0.8-0.1l0.1-1.8c0.1-0.8,0-1.4-0.1-1.7c-0.1-0.3-0.4-0.5-0.8-0.6
			c-0.2,0-0.3,0-0.5,0.1c-0.1,0.1-0.3,0.2-0.4,0.4c-0.1,0.2-0.2,0.4-0.2,0.7l-0.1,1.7L684,171.1z M685.5,178c0,0.6,0,1.1,0.1,1.5
			c0.1,0.5,0.3,0.8,0.6,1.1c0.3,0.3,0.7,0.5,1.1,0.5c0.7,0.1,1.2-0.2,1.6-0.6c0.4-0.5,0.6-1.2,0.7-2.2c0-0.5,0-1-0.1-1.5
			c-0.1-0.5-0.3-0.8-0.6-1.2c-0.3-0.3-0.7-0.5-1.1-0.5c-0.3,0-0.7,0-1,0.2c-0.3,0.1-0.5,0.4-0.7,0.6c-0.2,0.3-0.3,0.6-0.5,0.9
			C685.6,177.3,685.5,177.6,685.5,178z"/>
		<path fill="#B12B2B" d="M692.5,184.7c0-0.3,0.2-0.9,0.4-1.6l1,0.1c-0.2,0.6-0.3,1.1-0.3,1.6c0,0.3,0,0.7,0,1
			c0,0.3,0.1,0.6,0.3,0.9c0.1,0.3,0.3,0.5,0.6,0.7c0.3,0.2,0.6,0.3,1,0.3c0.4,0,0.8,0,1.1,0c0.3-0.1,0.5-0.2,0.7-0.4
			c0.2-0.2,0.3-0.4,0.4-0.7s0.2-0.6,0.2-1l0.2-1.3c0-0.4,0-0.7,0-1c0-0.3-0.1-0.5-0.2-0.7c-0.1-0.2-0.2-0.3-0.4-0.5
			c-0.2-0.1-0.3-0.2-0.5-0.3c-0.2-0.1-0.3-0.1-0.5-0.1l-1-0.1l0.1-1.1l1,0.1c0.2,0,0.4,0,0.6-0.1c0.2-0.1,0.4-0.2,0.6-0.4
			s0.4-0.4,0.5-0.8c0.2-0.3,0.3-0.7,0.3-1c0-0.3,0-0.6,0-0.8c0-0.2-0.1-0.4-0.2-0.6c-0.1-0.2-0.3-0.3-0.5-0.5
			c-0.2-0.1-0.5-0.2-0.9-0.2c-0.6-0.1-1.1,0-1.4,0.2c-0.3,0.2-0.5,0.6-0.6,1.1c0,0.4-0.1,0.7-0.1,1l-1-0.1c0-0.3,0-0.6,0.1-1
			c0-0.3,0.1-0.6,0.3-0.9c0.2-0.3,0.4-0.5,0.6-0.7c0.3-0.2,0.6-0.4,0.9-0.5c0.4-0.1,0.8-0.1,1.2-0.1c0.4,0.1,0.8,0.2,1.2,0.3
			c0.3,0.1,0.6,0.3,0.8,0.5c0.2,0.2,0.4,0.4,0.5,0.7c0.1,0.3,0.2,0.5,0.2,0.8c0,0.3,0,0.5,0,0.8c-0.2,1.3-1,2.2-2.4,2.8l0,0.2
			c1.4,0.6,1.9,1.7,1.7,3.2l-0.1,1.2c-0.1,0.4-0.2,0.8-0.3,1.2c-0.2,0.4-0.4,0.7-0.7,1s-0.7,0.5-1.1,0.6c-0.4,0.1-0.9,0.2-1.5,0.1
			c-0.5-0.1-0.9-0.2-1.2-0.4c-0.4-0.2-0.6-0.4-0.9-0.7c-0.2-0.3-0.4-0.6-0.5-0.9c-0.1-0.3-0.2-0.6-0.3-1
			C692.4,185.4,692.4,185,692.5,184.7z"/>
		<path fill="#B12B2B" d="M702.2,179.6c0.1-0.5,0.2-1,0.4-1.4c0.2-0.4,0.5-0.8,0.8-1.1c0.3-0.3,0.7-0.5,1.1-0.6
			c0.4-0.1,0.9-0.1,1.4-0.1c0.7,0.1,1.2,0.4,1.6,0.8s0.7,0.9,0.9,1.5c0.2,0.6,0.2,1.2,0.1,1.9c-0.2,1.4-0.8,2.7-1.7,3.9l-0.9-0.1
			c0.8-1.5,1.3-2.8,1.5-3.9c0.1-0.5,0.1-1,0-1.5c-0.1-0.4-0.3-0.8-0.6-1.1c-0.3-0.3-0.6-0.5-1.1-0.5c-0.7-0.1-1.3,0.1-1.7,0.5
			c-0.5,0.4-0.7,1.1-0.9,1.9c-0.2,1.1-0.1,2.5,0.3,4.3l-1-0.2C702.1,182.4,701.9,181,702.2,179.6z"/>
		<path fill="#B12B2B" d="M715,181.9c0.1-0.3,0.1-0.5,0.2-0.8s0.2-0.5,0.3-0.7c0.1-0.2,0.3-0.4,0.5-0.6c0.2-0.2,0.4-0.4,0.6-0.5
			c0.2-0.1,0.4-0.3,0.7-0.3c0.2-0.1,0.5-0.1,0.8-0.1c0.3,0,0.6,0,0.9,0.1c1.1,0.3,1.8,1,1.9,2.1c0.8-0.9,1.6-1.3,2.6-1.1
			c0.9,0.2,1.5,0.6,1.8,1.3c0.3,0.7,0.4,1.6,0.1,2.7c-0.3,1.4-1.1,2.3-2.2,2.7l0,0.1c0.8,0.7,1,1.6,0.8,2.8l-0.2,1
			c-0.1,0.6-0.4,1.1-0.7,1.5c-0.3,0.4-0.8,0.7-1.4,0.9c-0.6,0.2-1.2,0.2-1.9,0c-0.6-0.1-1.1-0.3-1.5-0.6c-0.4-0.3-0.7-0.6-1-0.9
			c-0.2-0.3-0.4-0.6-0.4-1c-0.1-0.3-0.1-0.7,0-1c0.1-0.4,0.2-0.6,0.3-0.8l1.1,0.2c-0.1,0.4-0.2,0.7-0.2,0.8c0,0.1,0,0.3,0,0.4
			c0,0.1,0.1,0.3,0.1,0.5c0.1,0.2,0.2,0.4,0.3,0.5c0.1,0.2,0.4,0.3,0.6,0.5c0.3,0.2,0.6,0.3,1,0.4c0.4,0.1,0.7,0.1,1,0
			c0.3-0.1,0.6-0.2,0.8-0.4c0.2-0.2,0.4-0.4,0.5-0.6c0.1-0.2,0.2-0.5,0.3-0.8l0.3-1.1c0-0.2,0.1-0.3,0.1-0.4c0-0.1,0-0.2,0.1-0.4
			c0-0.2,0-0.3,0-0.4c0-0.1,0-0.2-0.1-0.3c0-0.1-0.1-0.2-0.1-0.3c-0.1-0.1-0.2-0.1-0.3-0.2c-0.1-0.1-0.2-0.1-0.4-0.2l-0.9-0.2
			l0.2-0.9l0.7,0.2c0.3,0.1,0.5,0,0.8-0.1c0.2-0.1,0.4-0.3,0.6-0.5c0.2-0.2,0.3-0.5,0.5-0.8c0.1-0.3,0.2-0.6,0.3-0.9
			c0.2-0.8,0.2-1.4,0-1.9c-0.2-0.5-0.6-0.8-1.1-1c-0.8-0.2-1.5,0.1-2.2,0.9c0,0.7,0,1.2-0.1,1.6c-0.1,0.4-0.2,0.8-0.4,1.1
			c-0.2,0.4-0.4,0.7-0.6,1c-0.2,0.3-0.5,0.5-0.8,0.7c-0.3,0.2-0.6,0.3-1,0.4c-0.4,0.1-0.8,0-1.2,0c-0.4-0.1-0.7-0.2-1-0.5
			c-0.3-0.2-0.5-0.5-0.7-0.8c-0.2-0.3-0.3-0.6-0.4-1c-0.1-0.4-0.1-0.8-0.1-1.2C714.9,182.7,714.9,182.3,715,181.9z M716.1,182.2
			c-0.1,0.3-0.1,0.6-0.2,0.9c0,0.3,0,0.6,0,0.9c0,0.3,0.1,0.5,0.2,0.8c0.1,0.2,0.3,0.4,0.5,0.6c0.2,0.2,0.5,0.3,0.8,0.4
			c0.3,0.1,0.6,0.1,0.9-0.1c0.3-0.1,0.6-0.3,0.8-0.5c0.2-0.2,0.4-0.5,0.6-0.9c0.2-0.3,0.3-0.7,0.4-1c0.1-0.3,0.1-0.5,0.1-0.7
			c0-0.2,0-0.5,0-0.7c0-0.2,0-0.5-0.1-0.7c-0.1-0.2-0.1-0.4-0.2-0.6c-0.1-0.2-0.2-0.3-0.4-0.4c-0.2-0.1-0.4-0.2-0.6-0.3
			c-0.3-0.1-0.5-0.1-0.8,0c-0.3,0-0.5,0.1-0.7,0.3c-0.2,0.1-0.4,0.3-0.5,0.5c-0.2,0.2-0.3,0.5-0.4,0.7S716.1,181.9,716.1,182.2z"/>
		<path fill="#B12B2B" d="M728.1,185.1l2.8-9.9l1,0.3l-2.7,9.7c-0.3,1-0.3,1.9-0.1,2.5c0.2,0.7,0.7,1.1,1.4,1.3
			c0.6,0.2,1.2,0.1,1.7-0.3c0.5-0.4,0.9-1,1.1-1.8c0.2-0.8,0.1-1.6-0.3-2.3c-0.4-0.7-0.5-1.4-0.4-2c0.1-0.4,0.3-0.8,0.7-1.4l1,0.3
			c-0.4,0.5-0.7,0.9-0.8,1.3c-0.1,0.5,0,1.1,0.5,1.8c0.5,0.7,0.5,1.6,0.3,2.6c-0.2,0.6-0.5,1.2-0.9,1.7c-0.4,0.5-0.9,0.8-1.5,1
			c-0.6,0.2-1.2,0.2-1.8,0c-0.5-0.1-0.9-0.4-1.3-0.7c-0.3-0.3-0.6-0.7-0.8-1.1c-0.2-0.4-0.2-0.9-0.2-1.4
			C727.8,186.1,727.9,185.6,728.1,185.1z"/>
		<path fill="#B12B2B" d="M736.7,187.5c0.2-0.5,0.4-0.9,0.6-1.3c0.3-0.4,0.6-0.7,1-0.9c0.4-0.2,0.8-0.4,1.2-0.4
			c0.5-0.1,0.9,0,1.4,0.2c0.6,0.2,1.1,0.5,1.5,1c0.4,0.5,0.6,1,0.7,1.6c0.1,0.6,0,1.2-0.2,1.9c-0.4,1.3-1.2,2.5-2.3,3.6l-0.9-0.3
			c1-1.3,1.7-2.5,2.1-3.6c0.2-0.5,0.2-1,0.2-1.4c0-0.5-0.2-0.8-0.4-1.2c-0.2-0.3-0.6-0.6-1-0.7c-0.7-0.2-1.3-0.1-1.8,0.2
			c-0.5,0.4-0.9,0.9-1.2,1.7c-0.3,1-0.5,2.5-0.4,4.3l-1-0.3C736.2,190.2,736.3,188.8,736.7,187.5z"/>
		<path fill="#B12B2B" d="M742.9,196.1c0.2-0.6,0.6-1.2,1-1.8l0.9,0.3c-0.4,0.5-0.6,1-0.8,1.4c-0.1,0.2-0.2,0.4-0.2,0.6
			c-0.1,0.2-0.1,0.4-0.1,0.6c0,0.2-0.1,0.4-0.1,0.6c0,0.2,0,0.3,0.1,0.5c0,0.2,0.1,0.3,0.2,0.5c0.1,0.1,0.2,0.3,0.4,0.4
			c0.2,0.1,0.4,0.2,0.7,0.3c0.3,0.1,0.6,0.2,0.9,0.2c0.3,0,0.5,0,0.7-0.1c0.2-0.1,0.4-0.2,0.5-0.4c0.2-0.2,0.3-0.4,0.4-0.6
			c0.1-0.2,0.2-0.5,0.3-0.7l2.3-6.3c0.2-0.4,0.2-0.8,0.2-1.2c0-0.4-0.1-0.7-0.3-1c-0.2-0.3-0.5-0.5-0.9-0.7c-0.5-0.2-0.9-0.2-1.2,0
			c-0.3,0.2-0.6,0.6-0.8,1.1c-0.2,0.4-0.3,1-0.4,1.9l-1-0.4c0-0.7,0.2-1.4,0.4-2c0.3-0.8,0.7-1.3,1.4-1.6c0.6-0.3,1.3-0.3,2,0
			c0.6,0.2,1.1,0.6,1.3,1.3l0.1,0.5l0.1,0l2.6-7.1l1,0.4l-5.7,15.4c-0.2,0.5-0.4,0.9-0.7,1.2c-0.3,0.3-0.6,0.6-0.9,0.8
			c-0.3,0.2-0.7,0.3-1.2,0.4c-0.4,0-0.9-0.1-1.4-0.2c-0.5-0.2-0.8-0.4-1.1-0.7c-0.3-0.3-0.5-0.7-0.7-1.1c-0.1-0.4-0.2-0.8-0.2-1.3
			C742.6,197,742.7,196.6,742.9,196.1z"/>
		<path fill="#B12B2B" d="M753.6,193.4c0.2-0.5,0.4-0.9,0.7-1.2c0.3-0.4,0.6-0.6,1-0.8c0.4-0.2,0.8-0.3,1.3-0.3
			c0.5,0,0.9,0.1,1.4,0.3c0.6,0.3,1.1,0.6,1.4,1.1c0.3,0.5,0.5,1.1,0.5,1.7c0,0.6-0.1,1.2-0.4,1.9c-0.5,1.3-1.4,2.4-2.5,3.4
			l-0.8-0.4c1.1-1.2,1.9-2.4,2.4-3.5c0.2-0.5,0.3-1,0.3-1.4c0-0.5-0.1-0.8-0.3-1.2c-0.2-0.3-0.5-0.6-0.9-0.8
			c-0.6-0.3-1.2-0.2-1.8,0.1c-0.5,0.3-1,0.9-1.3,1.6c-0.4,1-0.7,2.4-0.7,4.3l-0.9-0.4C752.9,196.1,753.1,194.7,753.6,193.4z"/>
		<path fill="#B12B2B" d="M759,202.7c0.2-0.5,0.5-1,0.9-1.5l0.9,0.4c-0.4,0.7-0.7,1.2-0.8,1.5c-0.7,1.5-0.4,2.5,0.9,3.1
			c0.6,0.3,1.2,0.3,1.7,0.1c0.5-0.2,0.9-0.6,1.2-1.3l0.7-1.6c0.1-0.3,0.2-0.5,0.2-0.8c0-0.3,0-0.6-0.1-0.9c-0.1-0.3-0.2-0.6-0.4-0.8
			c-0.2-0.3-0.5-0.5-0.8-0.6l-0.8-0.4l0.4-0.8l0.8,0.4c0.3,0.1,0.6,0.2,0.8,0.2c0.3,0,0.5,0,0.7-0.1c0.2-0.1,0.4-0.2,0.5-0.3
			c0.2-0.2,0.3-0.3,0.4-0.5c0.1-0.2,0.2-0.4,0.3-0.6c0.4-0.8,0.2-1.9-0.4-3.2l1.5,0.7c0.4,1.1,0.3,2-0.1,2.9c-0.5,1-1.4,1.6-2.8,1.7
			l-0.1,0.2c1.2,0.9,1.4,2,0.8,3.4l-0.7,1.6c-0.3,0.6-0.6,1-1,1.3c-0.4,0.3-0.9,0.5-1.5,0.6c-0.6,0-1.2-0.1-1.8-0.4
			c-0.6-0.3-1.1-0.7-1.4-1.2c-0.3-0.5-0.5-1-0.5-1.6C758.6,203.8,758.7,203.3,759,202.7z"/>
		<path fill="#B12B2B" d="M770.4,198.2l0.6-1.1c0.3,0.6,0.6,0.9,0.8,1.1c0.1,0.1,0.2,0.1,0.4,0.1c0.1,0,0.2,0,0.4,0
			c0.1,0,0.2,0,0.3,0c0.1,0,0.2,0,0.3,0.1c0.5,0.2,0.7,0.7,0.6,1.4l-0.1,0.5l0.4-0.4c0.1-0.1,0.3-0.2,0.4-0.2
			c0.1-0.1,0.3-0.1,0.5-0.1c0.2,0,0.3,0,0.5,0.1c0.2,0,0.4,0.1,0.6,0.2c0.3,0.2,0.6,0.4,0.8,0.6c0.2,0.2,0.3,0.5,0.3,0.8
			c0,0.3,0,0.6-0.1,0.9c-0.1,0.3-0.2,0.7-0.4,1.1l-3.2,6.3c-0.5,1.1-1.2,1.8-1.9,2.1c-0.7,0.3-1.6,0.2-2.5-0.3
			c-0.3-0.1-0.5-0.3-0.8-0.5c-0.2-0.2-0.4-0.4-0.6-0.6c-0.2-0.2-0.3-0.4-0.4-0.7c-0.1-0.2-0.2-0.5-0.2-0.7c0-0.2,0-0.5,0-0.7
			c0-0.2,0.1-0.5,0.1-0.7c0.1-0.2,0.2-0.5,0.3-0.7c0.4-0.8,0.9-1.5,1.5-2.1l0.8,0.4c-0.6,0.8-1,1.5-1.3,2.1
			c-0.1,0.2-0.1,0.3-0.2,0.5c-0.1,0.2-0.1,0.3-0.1,0.5c0,0.2,0,0.4,0,0.5c0,0.2,0,0.3,0.1,0.5c0.1,0.2,0.1,0.3,0.2,0.5
			c0.1,0.2,0.2,0.3,0.4,0.5c0.2,0.1,0.4,0.3,0.6,0.4c0.6,0.3,1.2,0.3,1.7,0.1c0.5-0.2,1-0.7,1.4-1.5l3.4-6.6c0.3-0.6,0.4-1,0.4-1.2
			c0-0.3-0.2-0.5-0.4-0.6l-0.5-0.2c-0.3-0.1-0.5-0.2-0.7-0.2c-0.2,0-0.4,0.1-0.6,0.4c-0.2,0.2-0.4,0.6-0.7,1.1l-1.2,2.3l-0.8-0.4
			l1.2-2.3c0.2-0.3,0.3-0.6,0.3-0.8c0.1-0.2,0.1-0.4,0.1-0.5c0-0.1,0-0.3,0-0.4c0-0.1-0.1-0.2-0.2-0.2c-0.1-0.1-0.2-0.1-0.3-0.2
			c-0.2-0.1-0.5-0.1-0.8-0.1c-0.4,0-0.6,0-0.8-0.1C770.8,198.7,770.6,198.5,770.4,198.2z"/>
		<path fill="#B12B2B" d="M778.8,205.2c0.5-0.9,1.3-1.5,2.5-2c3.2-1.4,4.9-2.1,5.1-2.2c1.1-0.5,1.9-1,2.3-1.5l1.2,0.7
			c-1.1,0.8-2.3,1.3-3.4,1.7c-1.2,0.4-2.7,0.9-4.2,1.6l0.6,0.1c0.3,0,0.5,0,0.7,0.1c0.9,0.5,1.2,1.3,1,2.5l-0.1,0.4l0.2,0.1l0.3-0.2
			c1-0.7,1.9-0.8,2.8-0.3c0.5,0.3,0.8,0.7,1.1,1.2c0.2,0.5,0.3,1.1,0.3,1.7c-0.1,0.6-0.2,1.2-0.6,1.8c-0.6,1.1-1.8,2.1-3.6,2.8
			l-1.3-0.7c2-0.8,3.3-1.6,3.9-2.6c0.4-0.7,0.6-1.4,0.5-2s-0.3-1-0.8-1.3c-0.2-0.1-0.4-0.2-0.7-0.2c-0.3,0-0.5,0-0.8,0.1
			c-0.3,0.1-0.6,0.2-0.8,0.5c-0.3,0.2-0.5,0.6-0.8,1l-0.5,0.8l-0.9-0.5l0.5-0.8c0.5-0.8,0.7-1.5,0.6-2c-0.1-0.5-0.4-1-1-1.3
			c-0.5-0.3-1-0.3-1.6-0.1c-0.5,0.2-1,0.7-1.5,1.5c-0.6,1-0.7,2.5-0.2,4.7l-1.4-0.8C777.9,207.8,778.1,206.3,778.8,205.2z"/>
		<path fill="#B12B2B" d="M790.5,212.1c0.3-0.4,0.6-0.8,1-1.1c0.4-0.3,0.7-0.5,1.2-0.6c0.4-0.1,0.8-0.2,1.3-0.1
			c0.5,0.1,0.9,0.2,1.3,0.5c0.6,0.4,0.9,0.8,1.2,1.4c0.2,0.6,0.3,1.1,0.2,1.7c-0.1,0.6-0.3,1.2-0.7,1.8c-0.8,1.2-1.8,2.1-3.1,2.9
			l-0.8-0.5c1.3-1,2.3-2,3-3c0.3-0.4,0.5-0.9,0.6-1.3c0.1-0.4,0.1-0.9-0.1-1.2s-0.4-0.7-0.8-0.9c-0.6-0.4-1.2-0.5-1.8-0.2
			c-0.6,0.2-1.1,0.7-1.6,1.4c-0.6,0.9-1.1,2.3-1.5,4.1l-0.9-0.6C789.2,214.7,789.7,213.3,790.5,212.1z"/>
		<path fill="#B12B2B" d="M800.7,220.2c0.3-0.4,0.7-0.8,1.1-1.1l0.9,0.6c-0.3,0.3-0.7,0.6-1.1,1.1c-0.1,0.2-0.2,0.4-0.3,0.5
			c-0.1,0.2-0.1,0.3-0.2,0.6c-0.1,0.2-0.1,0.4,0,0.6c0,0.2,0.1,0.4,0.3,0.6c0.1,0.2,0.4,0.4,0.6,0.6c0.2,0.1,0.4,0.2,0.6,0.3
			c0.2,0.1,0.4,0.1,0.5,0.1c0.2,0,0.3,0,0.5,0c0.2,0,0.3-0.1,0.4-0.2c0.1-0.1,0.3-0.2,0.4-0.3c0.1-0.1,0.3-0.2,0.4-0.4
			c0.1-0.1,0.2-0.3,0.3-0.4c0.6-0.9,0.7-2,0.2-3.2c-0.5-1.3-0.4-2.3,0.1-3.1l0.9,0.6c-0.5,0.7-0.5,1.6,0,2.9
			c0.5,1.2,0.4,2.4-0.4,3.4c-0.3,0.4-0.6,0.7-0.9,0.9c-0.3,0.3-0.7,0.4-1.1,0.6c-0.4,0.1-0.8,0.1-1.2,0.1c-0.4-0.1-0.9-0.3-1.3-0.6
			c-0.4-0.3-0.7-0.6-0.9-1c-0.2-0.4-0.3-0.8-0.4-1.2c0-0.4,0-0.8,0.1-1.2C800.3,220.9,800.4,220.5,800.7,220.2z"/>
		<path fill="#B12B2B" d="M811.9,219l1-1.3c0.4-0.5,0.8-0.8,1.3-0.9c0.5-0.1,1,0,1.4,0.4c0.4,0.3,0.6,0.8,0.5,1.6l-0.1,0.6l0.1,0
			l0.6-0.3c0.7-0.2,1.3-0.1,1.8,0.3c0.2,0.1,0.3,0.3,0.5,0.5c0.1,0.2,0.2,0.4,0.2,0.7c0,0.3,0,0.6-0.1,0.9c-0.1,0.3-0.3,0.7-0.6,1
			l-5,6.3c-0.8,1-1.6,1.6-2.5,1.7c-0.9,0.2-1.7,0-2.4-0.6c-0.4-0.3-0.7-0.7-0.9-1.1c-0.2-0.4-0.3-0.9-0.2-1.3c0-0.4,0.1-0.9,0.3-1.4
			c0.2-0.5,0.4-0.9,0.7-1.3c0.3-0.4,0.7-0.7,1.1-1c0.4-0.3,0.8-0.5,1.2-0.6c0.4-0.1,0.9-0.1,1.3-0.1s0.9,0.3,1.3,0.6
			c0.6,0.5,0.9,1,0.8,1.7l0,0.6l0.1,0.1l3.5-4.4c0.2-0.2,0.3-0.4,0.4-0.6c0.1-0.2,0.1-0.4,0.1-0.5c0-0.2-0.1-0.3-0.1-0.4
			c-0.1-0.1-0.2-0.2-0.3-0.3c-0.7-0.5-1.4-0.2-2.3,1l-1.1,1.4l-0.6-0.5l1.1-1.4c0.5-0.6,0.8-1.1,0.9-1.5c0.1-0.4-0.1-0.7-0.4-0.9
			c-0.1-0.1-0.3-0.2-0.4-0.2c-0.2,0-0.3,0-0.5,0.1c-0.2,0.1-0.4,0.2-0.5,0.5l-1.1,1.4L811.9,219z M809.2,225.6
			c-0.4,0.4-0.6,0.9-0.8,1.3c-0.2,0.4-0.2,0.9-0.1,1.3c0.1,0.4,0.3,0.8,0.6,1c0.5,0.4,1.1,0.5,1.7,0.3c0.6-0.2,1.2-0.7,1.8-1.4
			c0.3-0.4,0.6-0.8,0.7-1.3c0.2-0.4,0.2-0.9,0.1-1.3c-0.1-0.4-0.3-0.8-0.6-1c-0.3-0.2-0.6-0.3-0.9-0.4c-0.3,0-0.6,0-0.9,0.1
			c-0.3,0.1-0.6,0.3-0.9,0.5S809.5,225.3,809.2,225.6z"/>
		<path fill="#B12B2B" d="M815.8,230.3c0.2-0.3,0.5-0.5,0.8-0.7c0.3-0.2,0.6-0.4,0.9-0.5c0.3-0.1,0.6-0.2,0.9-0.2c0.3,0,0.6,0,1,0.1
			c0.3,0.1,0.6,0.3,0.9,0.6c0.4,0.4,0.7,0.8,0.8,1.2c0.2,0.4,0.2,0.9,0.1,1.3l-0.2,0.6l0,0l0.5-0.3c0.2-0.1,0.5-0.2,0.8-0.2
			c0.3,0,0.6,0,0.9,0.1c0.3,0.1,0.5,0.2,0.7,0.4c0.3,0.2,0.5,0.6,0.6,1c0.1,0.4,0.1,0.9,0,1.3l-0.2,0.5l0.1,0.1l0.5-0.3
			c0.4-0.1,0.8-0.2,1.3-0.1c0.5,0.1,0.9,0.3,1.3,0.7c1.3,1.2,1.3,2.6-0.1,4.2c-0.8,0.9-2.1,1.6-3.7,2.2l-0.9-0.8
			c1.8-0.5,3.2-1.2,3.9-2c1-1.2,1.1-2.1,0.3-2.9c-0.2-0.2-0.5-0.3-0.7-0.4c-0.3-0.1-0.5-0.1-0.7-0.1c-0.2,0-0.5,0-0.7,0.1
			c-0.2,0.1-0.4,0.2-0.6,0.3c-0.2,0.1-0.3,0.2-0.4,0.3l-1.1,1.2l-0.7-0.6l1.1-1.2c0.4-0.5,0.7-1,0.7-1.5s-0.1-0.9-0.4-1.3
			c-0.3-0.3-0.8-0.4-1.3-0.3c-0.5,0.1-1,0.4-1.5,0.9l-1.1,1.2l-0.7-0.6l1.1-1.2c0.1-0.1,0.2-0.3,0.3-0.4c0.1-0.2,0.1-0.4,0.2-0.6
			c0-0.2,0.1-0.5,0-0.7s-0.1-0.5-0.2-0.7c-0.1-0.3-0.3-0.5-0.5-0.7c-0.4-0.4-0.9-0.5-1.4-0.3c-0.5,0.2-1.1,0.6-1.6,1.2
			c-0.5,0.6-0.9,1.2-1.1,2c-0.2,0.7-0.3,1.5-0.2,2.3c0.1,0.8,0.3,1.6,0.6,2.4c0.3,0.8,0.7,1.6,1.3,2.4c1.5,2.6,2,4.4,1.2,5.5
			l-1.2-1.1c0.2-0.3,0.3-0.6,0.4-1c0-0.4-0.1-0.9-0.3-1.4c-0.2-0.6-0.5-1.2-1-1.9c-0.3-0.4-0.7-0.9-1.3-1.4c-0.6-0.6-1.6-1-2.7-1.3
			l0.7-0.9l2.1,1.4c-0.3-0.8-0.6-1.6-0.7-2.3c-0.1-0.8-0.2-1.4-0.1-2.1c0.1-0.6,0.2-1.2,0.5-1.8C815,231.2,815.4,230.7,815.8,230.3z
			"/>
		<path fill="#B12B2B" d="M828.7,242.2c0.4-0.4,0.7-0.6,1.2-0.9c0.4-0.2,0.8-0.3,1.3-0.4c0.4,0,0.9,0,1.3,0.2s0.8,0.4,1.2,0.8
			c0.5,0.5,0.8,1,0.9,1.6c0.1,0.6,0.1,1.2-0.1,1.7c-0.2,0.6-0.6,1.1-1,1.6c-1,1-2.2,1.7-3.6,2.2l-0.6-0.6c1.5-0.7,2.7-1.5,3.5-2.3
			c0.4-0.4,0.7-0.8,0.8-1.2s0.2-0.8,0.2-1.2c-0.1-0.4-0.2-0.7-0.5-1.1c-0.5-0.5-1.1-0.7-1.7-0.6c-0.6,0.1-1.2,0.4-1.8,1
			c-0.8,0.8-1.5,2-2.3,3.6l-0.7-0.7C827,244.4,827.8,243.2,828.7,242.2z"/>
		<path fill="#B12B2B" d="M835.2,248.5c0.3-0.2,0.6-0.5,0.9-0.6c0.3-0.2,0.6-0.3,0.9-0.4c0.3-0.1,0.7-0.1,1-0.1
			c0.3,0,0.6,0.1,0.9,0.2c0.3,0.2,0.6,0.4,0.9,0.7c0.4,0.4,0.6,0.8,0.7,1.3c0.1,0.5,0.1,0.9-0.1,1.3l-0.2,0.5l0,0l0.5-0.2
			c0.3-0.1,0.5-0.1,0.9-0.1c0.3,0,0.6,0.1,0.9,0.2c0.3,0.1,0.5,0.3,0.6,0.4c0.2,0.3,0.4,0.6,0.4,1.1c0.1,0.5,0,0.9-0.2,1.3l-0.3,0.5
			l0.1,0.1l0.5-0.2c0.4-0.1,0.9-0.1,1.3,0.1c0.5,0.2,0.9,0.4,1.2,0.8c1.2,1.3,1,2.7-0.6,4.2c-0.9,0.8-2.2,1.4-4,1.7l-0.8-0.9
			c1.9-0.3,3.3-0.8,4.1-1.6c1.2-1,1.4-2,0.6-2.8c-0.2-0.2-0.4-0.4-0.7-0.5c-0.2-0.1-0.5-0.2-0.7-0.2c-0.2,0-0.5,0-0.7,0
			c-0.2,0-0.4,0.1-0.6,0.2c-0.2,0.1-0.3,0.2-0.5,0.3l-1.2,1.1l-0.6-0.7l1.2-1.1c0.5-0.4,0.8-0.9,0.9-1.4c0.1-0.5,0-1-0.3-1.3
			c-0.3-0.3-0.7-0.5-1.3-0.5c-0.6,0-1.1,0.3-1.6,0.7l-1.2,1.1l-0.6-0.7l1.2-1.1c0.1-0.1,0.2-0.2,0.3-0.4c0.1-0.2,0.2-0.4,0.2-0.6
			c0.1-0.2,0.1-0.4,0.1-0.7c0-0.2,0-0.5-0.1-0.8c-0.1-0.3-0.2-0.5-0.4-0.7c-0.4-0.4-0.8-0.6-1.4-0.5c-0.6,0.1-1.1,0.4-1.7,1
			c-0.6,0.5-1,1.1-1.3,1.8c-0.3,0.7-0.4,1.5-0.4,2.3c0,0.8,0.1,1.6,0.3,2.5c0.2,0.8,0.5,1.7,1,2.5c1.2,2.7,1.4,4.6,0.6,5.7l-1.1-1.2
			c0.3-0.2,0.4-0.5,0.5-0.9c0.1-0.4,0-0.9-0.1-1.5c-0.1-0.6-0.4-1.2-0.8-2c-0.2-0.5-0.6-1-1.1-1.5c-0.6-0.6-1.4-1.2-2.6-1.6l0.8-0.8
			l1.9,1.6c-0.2-0.8-0.4-1.6-0.4-2.4c0-0.8,0-1.5,0.2-2.1c0.1-0.6,0.4-1.2,0.7-1.7C834.4,249.4,834.8,248.9,835.2,248.5z"/>
		<path fill="#B12B2B" d="M846.9,261.8c1.9-1.5,3.5-1.4,4.7,0.2c0.2,0.2,0.3,0.4,0.4,0.6c0.1,0.2,0.1,0.4,0.2,0.6c0,0.2,0,0.4,0,0.6
			c0,0.2-0.1,0.4-0.2,0.6l-0.3,0.6l0.1,0.1l0.7-0.2c0.9-0.3,1.7,0,2.4,0.9c0.6,0.7,0.8,1.5,0.6,2.4c-0.2,0.8-0.7,1.6-1.6,2.3
			c-0.9,0.7-2.3,1.1-4.2,1.2l-0.9-1.2c2.1,0.1,3.6-0.2,4.5-0.9c0.3-0.2,0.5-0.4,0.7-0.6s0.3-0.4,0.5-0.6c0.1-0.2,0.2-0.4,0.2-0.6
			c0-0.2,0-0.4-0.1-0.7s-0.2-0.5-0.4-0.7c-0.9-1.1-2-1.1-3.5,0.1l-0.7,0.5l-0.6-0.8l0.7-0.5c1.5-1.2,1.8-2.3,1-3.3
			c-0.2-0.3-0.5-0.5-0.7-0.6c-0.3-0.1-0.5-0.2-0.8-0.1c-0.3,0-0.6,0.1-0.8,0.3c-0.3,0.1-0.6,0.3-0.9,0.6c-0.9,0.7-1.6,2.1-2.1,4.2
			l-0.9-1.1C845.2,263.8,845.9,262.5,846.9,261.8z"/>
		<path fill="#B12B2B" d="M854.9,272.8c0.4-0.3,0.8-0.5,1.2-0.6c0.4-0.2,0.8-0.2,1.3-0.2c0.4,0,0.8,0.1,1.3,0.3
			c0.4,0.2,0.8,0.5,1.2,0.9c0.7-0.2,1.2-0.5,1.7-0.8c0.7-0.5,1.1-1.2,1-1.9c-0.1-1.2,0.3-2.1,1.3-2.8l0.7,1
			c-0.8,0.6-1.2,1.5-1.3,2.6c0,0.7-0.4,1.3-1.2,1.9c-0.5,0.4-1.1,0.6-1.8,0.9c0.2,0.5,0.3,1,0.2,1.5c-0.1,0.5-0.3,1-0.6,1.5
			c-0.3,0.5-0.7,0.9-1.3,1.3c-0.6,0.4-1.2,0.7-1.8,0.8s-1.2,0.1-1.8-0.1c-0.6-0.2-1.1-0.6-1.4-1.1c-0.3-0.4-0.5-0.9-0.5-1.3
			c-0.1-0.5,0-0.9,0.1-1.3s0.4-0.8,0.7-1.2C854.1,273.5,854.4,273.1,854.9,272.8z M855.5,273.7c-0.2,0.2-0.5,0.3-0.7,0.5
			c-0.2,0.2-0.4,0.4-0.5,0.7c-0.2,0.2-0.3,0.5-0.3,0.7c-0.1,0.2-0.1,0.5,0,0.8c0,0.3,0.2,0.5,0.3,0.8c0.4,0.6,0.9,0.8,1.6,0.8
			c0.7,0,1.4-0.3,2.1-0.8c0.7-0.5,1.2-1,1.4-1.7c0.3-0.6,0.3-1.3,0-1.9c-0.3-0.3-0.6-0.5-0.9-0.6c-0.3-0.1-0.7-0.2-1-0.2
			c-0.3,0-0.7,0.1-1,0.2C856.2,273.3,855.8,273.5,855.5,273.7z"/>
		<path fill="#B12B2B" d="M860.2,280.1c0.4-0.3,0.9-0.5,1.3-0.6c0.4-0.1,0.9-0.2,1.3-0.1c0.4,0,0.8,0.2,1.2,0.4c0.4,0.2,0.7,0.6,1,1
			c0.4,0.6,0.5,1.1,0.5,1.7c0,0.6-0.2,1.2-0.5,1.7c-0.3,0.5-0.8,1-1.3,1.3c-1.2,0.8-2.5,1.2-4,1.4l-0.5-0.8c1.6-0.4,2.9-0.9,3.9-1.5
			c0.4-0.3,0.8-0.6,1.1-1c0.3-0.4,0.4-0.8,0.4-1.2c0-0.4-0.1-0.8-0.3-1.1c-0.4-0.6-0.9-0.9-1.5-1c-0.6,0-1.3,0.2-2,0.6
			c-0.9,0.6-1.9,1.6-3,3.1l-0.5-0.9C858,281.9,859,280.8,860.2,280.1z"/>
		<path fill="#B12B2B" d="M865.1,288l8.9-5.2l0.5,0.9l-8.7,5.1c-0.9,0.5-1.5,1.1-1.8,1.7c-0.3,0.6-0.3,1.2,0.1,1.9
			c0.3,0.5,0.8,0.9,1.4,1c0.6,0.1,1.3-0.1,2-0.5c0.8-0.4,1.2-1.1,1.4-1.9c0.2-0.8,0.6-1.4,1.1-1.7c0.3-0.2,0.8-0.4,1.4-0.5l0.6,0.9
			c-0.6,0-1.1,0.2-1.5,0.4c-0.4,0.2-0.7,0.8-0.9,1.6c-0.1,0.8-0.7,1.5-1.6,2.1c-0.6,0.3-1.2,0.5-1.8,0.6c-0.6,0.1-1.2-0.1-1.7-0.3
			c-0.5-0.3-1-0.7-1.3-1.2c-0.3-0.5-0.4-0.9-0.4-1.4c0-0.5,0.1-0.9,0.2-1.3s0.5-0.8,0.8-1.2C864.2,288.6,864.6,288.3,865.1,288z"/>
		<path fill="#B12B2B" d="M896,440.2l10.2,1.6l-0.2,1l-10-1.6c-1-0.2-1.9-0.1-2.5,0.2c-0.6,0.3-1,0.8-1.1,1.5
			c-0.1,0.6,0.1,1.2,0.5,1.6c0.4,0.5,1.1,0.8,1.9,0.9c0.9,0.1,1.6,0,2.3-0.5c0.7-0.5,1.3-0.7,1.9-0.6c0.4,0.1,0.9,0.2,1.4,0.5
			l-0.2,1.1c-0.5-0.4-1-0.6-1.4-0.7c-0.5-0.1-1,0.2-1.7,0.7c-0.6,0.5-1.5,0.7-2.6,0.6c-0.7-0.1-1.2-0.3-1.7-0.7
			c-0.5-0.3-0.9-0.8-1.1-1.3c-0.3-0.5-0.3-1.1-0.2-1.8c0.1-0.5,0.3-1,0.5-1.4c0.3-0.4,0.6-0.7,1-0.9c0.4-0.2,0.9-0.3,1.4-0.4
			C894.9,440.1,895.4,440.1,896,440.2z"/>
		<path fill="#B12B2B" d="M894.6,449.1c0.5,0.1,0.9,0.3,1.4,0.5c0.4,0.2,0.7,0.5,1,0.8c0.3,0.3,0.5,0.7,0.6,1.2
			c0.1,0.4,0.1,0.9,0,1.4c-0.1,0.6-0.4,1.2-0.8,1.6c-0.4,0.4-0.9,0.7-1.5,0.8c-0.6,0.1-1.2,0.1-1.9,0c-1.4-0.3-2.6-0.9-3.8-1.8
			l0.2-0.9c1.4,0.9,2.7,1.4,3.9,1.6c0.5,0.1,1,0.1,1.5,0c0.4-0.1,0.8-0.3,1.1-0.5c0.3-0.3,0.5-0.6,0.6-1c0.1-0.7,0-1.3-0.4-1.7
			c-0.4-0.5-1-0.8-1.9-0.9c-1.1-0.2-2.5-0.2-4.3,0.1l0.2-1C891.8,448.9,893.3,448.8,894.6,449.1z"/>
		<path fill="#B12B2B" d="M892.5,458.1l7.6,1.8c1.5,0.4,2,1.5,1.6,3.4l-0.3,1.1c-0.1,0.6,0,0.9,0.3,1l-0.3,1.2
			c-0.9-0.2-1.2-1-0.9-2.4l0.3-1.4c0.3-1.1-0.1-1.7-1-2l-5.1-1.2l0.4,0.5c0.4,0.6,0.6,1.3,0.4,2.1c-0.1,0.5-0.3,0.9-0.6,1.2
			c-0.3,0.3-0.7,0.6-1.1,0.8c-0.4,0.2-0.9,0.3-1.4,0.3c-0.5,0-1,0-1.5-0.1c-0.7-0.2-1.3-0.4-1.8-0.8c-0.5-0.4-0.9-0.9-1.1-1.4
			c-0.2-0.6-0.3-1.2-0.1-1.8c0.1-0.5,0.3-0.9,0.6-1.3c0.3-0.4,0.7-0.6,1.1-0.8c0.4-0.2,0.9-0.3,1.4-0.3
			C891.5,458,892,458,892.5,458.1z M892.3,459.2c-0.3-0.1-0.6-0.1-0.8-0.1c-0.3,0-0.6,0-0.8,0.1c-0.3,0.1-0.5,0.1-0.8,0.3
			c-0.2,0.1-0.4,0.3-0.6,0.5c-0.2,0.2-0.3,0.5-0.4,0.8c-0.1,0.4-0.1,0.9,0.1,1.2c0.2,0.4,0.5,0.7,0.9,1c0.4,0.3,0.9,0.4,1.4,0.6
			c0.5,0.1,1,0.2,1.5,0.1c0.5,0,0.9-0.2,1.2-0.5c0.4-0.3,0.6-0.6,0.7-1.1c0.2-0.7,0-1.2-0.4-1.8
			C893.8,459.7,893.1,459.4,892.3,459.2z"/>
		<path fill="#B12B2B" d="M890.3,466.9c0.5,0.2,1,0.4,1.4,0.6c0.4,0.3,0.8,0.6,1.1,0.9c0.3,0.3,0.5,0.8,0.5,1.2c0.1,0.5,0,1-0.1,1.5
			c-0.2,0.6-0.8,1.2-1.8,1.7c0.6,0.8,0.8,1.6,0.5,2.7c-0.1,0.3-0.2,0.5-0.3,0.7c-0.1,0.2-0.3,0.4-0.5,0.6c-0.2,0.2-0.4,0.3-0.6,0.4
			c-0.2,0.1-0.5,0.2-0.7,0.3c-0.2,0.1-0.5,0.1-0.8,0.1c-0.3,0-0.5,0-0.8,0c-0.3,0-0.5-0.1-0.8-0.2c-0.7-0.2-1.4-0.5-1.9-0.9
			c-0.5-0.4-0.9-0.9-1.1-1.5c-0.2-0.6-0.2-1.2,0-1.8c0.1-0.5,0.4-0.9,0.7-1.2c0.3-0.3,0.7-0.6,1.1-0.7c0.4-0.2,0.9-0.2,1.4-0.2
			c0.5,0,1,0.1,1.5,0.2c0.6,0.2,1.2,0.5,1.7,0.8c0.9-0.4,1.4-0.9,1.5-1.4c0.1-0.3,0.1-0.7,0.1-0.9c0-0.3-0.1-0.5-0.2-0.7
			c-0.1-0.2-0.3-0.4-0.5-0.5c-0.2-0.2-0.5-0.3-0.8-0.4c-0.3-0.1-0.6-0.2-0.9-0.3c-1.3-0.4-2.5-0.4-3.6-0.1c-1.1,0.3-2.1,1-2.9,2
			c-2.2,2.5-3.7,3.6-4.7,3.3l0.4-1.4c0.4,0.1,0.8,0.1,1.2-0.2c0.5-0.2,0.9-0.5,1.3-1c0.4-0.4,0.7-0.9,0.9-1.4c0.3-0.9,0.2-2-0.1-3.1
			l1.1,0.3l-0.4,2.3l0.1,0c0.9-1,2-1.7,3.2-2C887.7,466.4,889,466.5,890.3,466.9z M888.8,472.4c-0.9-0.3-1.6-0.3-2.3-0.1
			c-0.6,0.2-1,0.6-1.2,1.2c-0.1,0.4-0.1,0.8,0,1.1c0.1,0.4,0.4,0.7,0.8,1c0.4,0.3,0.9,0.5,1.6,0.7c0.3,0.1,0.6,0.1,1,0.2
			c0.3,0,0.7,0,1-0.1c0.3-0.1,0.6-0.2,0.8-0.4c0.2-0.2,0.4-0.5,0.5-0.8c0.1-0.4,0.1-0.8-0.1-1.2c-0.2-0.4-0.4-0.7-0.8-1
			C889.8,472.8,889.3,472.6,888.8,472.4z"/>
		<path fill="#B12B2B" d="M886.8,479.9c0.9,0.3,1.8,1,2.4,2.1c2,2.9,3,4.4,3.1,4.6c0.7,1,1.3,1.7,1.9,2l-0.5,1.3c-1-1-1.7-2-2.3-3.1
			c-0.6-1.2-1.4-2.4-2.4-3.9l0,0.6c0.1,0.3,0.1,0.5,0,0.7c-0.4,1-1.1,1.4-2.2,1.4l-0.4,0l-0.1,0.2l0.3,0.2c0.9,0.8,1.1,1.7,0.8,2.7
			c-0.2,0.5-0.5,0.9-1,1.3c-0.5,0.3-1,0.5-1.6,0.6c-0.6,0.1-1.2,0-1.9-0.2c-1.2-0.4-2.4-1.4-3.4-3l0.5-1.4c1.1,1.8,2.2,3,3.3,3.3
			c0.8,0.3,1.4,0.3,2,0.2c0.6-0.2,1-0.5,1.2-1c0.1-0.2,0.1-0.5,0.1-0.7c0-0.3-0.1-0.5-0.2-0.8c-0.1-0.3-0.3-0.5-0.6-0.7
			c-0.3-0.2-0.6-0.4-1.1-0.6l-0.9-0.3l0.3-1l0.9,0.3c0.9,0.3,1.6,0.4,2.1,0.2c0.5-0.2,0.9-0.6,1.1-1.3c0.2-0.5,0.1-1.1-0.2-1.6
			c-0.3-0.5-0.9-0.9-1.7-1.2c-1.1-0.4-2.6-0.2-4.6,0.6l0.5-1.5C884.1,479.5,885.5,479.5,886.8,479.9z"/>
		<path fill="#B12B2B" d="M882.1,492.7c2.2,0.9,2.9,2.3,2.1,4.2c-0.1,0.2-0.2,0.5-0.4,0.6c-0.1,0.2-0.3,0.3-0.5,0.4
			c-0.2,0.1-0.4,0.2-0.6,0.3c-0.2,0.1-0.4,0.1-0.7,0.1l-0.7,0l-0.1,0.2l0.5,0.5c0.7,0.6,0.8,1.5,0.3,2.5c-0.4,0.9-1,1.4-1.8,1.7
			c-0.8,0.3-1.7,0.2-2.8-0.3c-1.1-0.5-2.1-1.5-3.1-3.1l0.6-1.4c0.9,1.9,1.9,3,3,3.5c0.3,0.1,0.6,0.2,0.8,0.3
			c0.2,0.1,0.5,0.1,0.7,0.1c0.2,0,0.5,0,0.7-0.1c0.2-0.1,0.4-0.2,0.5-0.4c0.2-0.2,0.3-0.4,0.5-0.7c0.5-1.3,0-2.3-1.8-3l-0.8-0.3
			l0.4-0.9l0.8,0.3c1.7,0.7,2.9,0.5,3.4-0.7c0.1-0.3,0.2-0.7,0.2-0.9c0-0.3-0.1-0.5-0.3-0.8c-0.2-0.2-0.4-0.4-0.6-0.6
			c-0.3-0.2-0.6-0.3-1-0.5c-1.1-0.5-2.6-0.4-4.7,0.2l0.6-1.3C879.5,492.2,881.1,492.2,882.1,492.7z"/>
		<path fill="#B12B2B" d="M876.4,505.1c0.6,0.3,1.2,0.7,1.6,1.2c0.4,0.5,0.7,1,0.8,1.6c0.1,0.6,0,1.2-0.2,1.7
			c-0.2,0.3-0.4,0.6-0.6,0.8c-0.3,0.2-0.6,0.4-0.9,0.4l-0.6,0.1l4.5,2.2c0.2,0.1,0.5,0.2,0.7,0.2c0.2,0,0.5,0,0.7,0
			c0.2,0,0.4-0.2,0.6-0.3c0.2-0.2,0.4-0.4,0.5-0.7c0.3-0.5,0.3-1,0.2-1.4c-0.1-0.4-0.4-0.7-0.9-1c-0.3-0.1-0.6-0.3-0.9-0.4l0.4-0.9
			c0.4,0.1,0.8,0.2,1,0.3c0.6,0.3,1.1,0.8,1.3,1.5c0.2,0.7,0.1,1.4-0.3,2.2c-0.2,0.5-0.5,0.8-0.8,1.1c-0.3,0.3-0.6,0.5-0.9,0.5
			c-0.3,0.1-0.7,0.1-1,0c-0.3-0.1-0.7-0.2-1.1-0.4l-6.9-3.4c-1.1-0.5-1.8-1.2-2.2-2c-0.4-0.8-0.4-1.7,0-2.5c0.3-0.6,0.7-1,1.2-1.3
			c0.5-0.3,1.1-0.4,1.8-0.4C875.1,504.6,875.7,504.7,876.4,505.1z M875.9,506c-0.5-0.3-1-0.4-1.5-0.5s-0.9,0-1.3,0.2
			c-0.4,0.2-0.7,0.4-0.9,0.8c-0.3,0.5-0.2,1.1,0.1,1.7c0.3,0.6,0.9,1.1,1.7,1.5c0.8,0.4,1.5,0.5,2.2,0.4c0.7-0.1,1.2-0.4,1.4-1
			c0.2-0.4,0.2-0.8,0.1-1.2c-0.1-0.4-0.3-0.8-0.6-1.1C876.8,506.6,876.4,506.3,875.9,506z"/>
		<path fill="#B12B2B" d="M872.5,513.3c0.4,0.2,0.8,0.5,1.1,0.9s0.6,0.7,0.7,1.1c0.2,0.4,0.2,0.8,0.2,1.3c0,0.5-0.2,0.9-0.4,1.4
			c-0.3,0.6-0.7,1-1.3,1.3c-0.5,0.3-1.1,0.4-1.7,0.4c-0.6,0-1.2-0.2-1.8-0.5c-1.2-0.7-2.3-1.6-3.1-2.9l0.4-0.8
			c1.1,1.3,2.2,2.2,3.2,2.7c0.5,0.3,0.9,0.4,1.4,0.5c0.4,0,0.9,0,1.2-0.2c0.4-0.2,0.6-0.4,0.9-0.8c0.3-0.6,0.4-1.2,0.1-1.8
			c-0.3-0.6-0.8-1.1-1.5-1.4c-1-0.5-2.3-0.9-4.2-1.2l0.5-0.9C869.9,512.3,871.3,512.6,872.5,513.3z"/>
		<path fill="#B12B2B" d="M868.2,521.2c0.4,0.3,0.8,0.6,1.1,0.9c0.3,0.4,0.5,0.7,0.7,1.2s0.2,0.8,0.2,1.3c0,0.5-0.2,0.9-0.5,1.3
			c-0.5,0.8-1.2,1.3-2.1,1.3l-0.7,0l0.4,0.6c0.4,0.7,0.3,1.4-0.1,2.2c-0.2,0.3-0.5,0.6-0.7,0.8c-0.3,0.2-0.6,0.4-0.9,0.5
			s-0.6,0.1-1,0.1c-0.3,0-0.7-0.1-1-0.2c-0.3-0.1-0.6-0.2-0.9-0.4c-1.3-0.8-2.3-2.1-3-3.8l0.7-1.2c0.7,2,1.7,3.3,2.8,4
			c1.4,0.9,2.4,0.7,3.1-0.3c0.1-0.1,0.1-0.2,0.2-0.3c0-0.1,0.1-0.2,0.1-0.3c0-0.1,0-0.2,0-0.3c0-0.1,0-0.2,0-0.3
			c0-0.1-0.1-0.2-0.1-0.3c0-0.1-0.1-0.2-0.1-0.3c-0.1-0.1-0.1-0.2-0.1-0.3c0-0.1-0.1-0.2-0.2-0.3c-0.5-0.1-1-0.2-1.5-0.5
			c-0.6-0.4-1.1-0.8-1.5-1.4c-0.4-0.5-0.6-1.1-0.6-1.7c0-0.6,0.1-1.2,0.4-1.7c0.4-0.6,0.8-1,1.4-1.2c0.6-0.2,1.2-0.3,1.8-0.2
			C866.8,520.5,867.5,520.8,868.2,521.2z M867.5,522.1c-0.8-0.5-1.6-0.7-2.2-0.7c-0.7,0-1.2,0.3-1.6,0.9c-0.2,0.4-0.3,0.8-0.3,1.2
			c0.1,0.4,0.2,0.8,0.5,1.2c0.3,0.4,0.7,0.7,1.2,1c0.8,0.5,1.5,0.7,2.2,0.6c0.7,0,1.2-0.3,1.5-0.9c0.4-0.6,0.4-1.2,0.1-1.8
			C868.8,523.1,868.3,522.6,867.5,522.1z"/>
		<path fill="#B12B2B" d="M856.7,534.1c1.9,1.4,3.4,3.1,4.5,4.9l-0.6,0.9c-1-1.8-2.5-3.5-4.4-5c-0.6-0.4-1.3-0.8-1.9-1.1
			c-0.6-0.3-1.2-0.5-1.6-0.6c-0.5-0.1-0.9-0.1-1.4-0.1c-0.4,0-0.8,0.1-1.1,0.3c-0.3,0.2-0.5,0.4-0.7,0.6c-0.2,0.3-0.3,0.6-0.4,1
			c0,0.4,0,0.7,0.1,1.1c0.1,0.4,0.3,0.8,0.6,1.2c0.3,0.4,0.6,0.7,1.1,1c0.4,0.3,0.8,0.5,1.1,0.6c0.3,0.1,0.7,0.2,0.9,0.2
			c0.3,0,0.5-0.1,0.7-0.2c0.2-0.1,0.4-0.3,0.6-0.5l0.8-1.1l0.8,0.5l-0.8,1.1c-0.2,0.3-0.3,0.6-0.3,0.9c0,0.3,0.1,0.6,0.2,0.8
			c0.1,0.2,0.3,0.5,0.5,0.6c0.4,0.3,1,0.2,1.7-0.2c0.7-0.4,1.4-0.3,2.2,0.2l0.2,0.1l-0.5,0.8l-0.1-0.1c-0.6-0.4-1.2-0.4-2,0
			c-0.8,0.4-1.5,0.4-2.1,0c-0.6-0.4-0.8-1.1-0.8-2.2l0-0.3l-0.1,0l-0.2,0.2c-1,0.5-2.2,0.3-3.5-0.6c-0.6-0.4-1-0.8-1.3-1.3
			c-0.3-0.5-0.6-1-0.7-1.5c-0.1-0.5-0.1-1,0-1.5c0.1-0.5,0.3-1,0.6-1.4c0.3-0.4,0.6-0.7,0.9-0.9c0.4-0.2,0.8-0.4,1.3-0.5
			c0.5-0.1,1-0.1,1.6,0c0.6,0.1,1.2,0.3,1.9,0.6C855.2,533.2,856,533.6,856.7,534.1z"/>
		<path fill="#B12B2B" d="M853,544.2l8.2,6.2l-0.6,0.8l-6-4.6l-0.1,0.1l0.1,0.5c0.2,0.5,0.1,1.1-0.5,1.8c-0.3,0.4-0.7,0.7-1.1,0.9
			c-0.4,0.2-0.9,0.3-1.3,0.3c-0.4,0-0.9-0.1-1.4-0.3c-0.5-0.2-0.9-0.4-1.3-0.7c-0.4-0.3-0.8-0.7-1.1-1.1c-0.3-0.4-0.5-0.8-0.6-1.3
			c-0.1-0.4-0.2-0.9-0.1-1.4c0.1-0.5,0.3-0.9,0.6-1.3c0.6-0.8,1.4-1.2,2.3-1.2C851.1,543.1,852,543.4,853,544.2z M852.3,545
			c-0.5-0.4-0.9-0.6-1.4-0.8c-0.5-0.1-0.9-0.2-1.3-0.1s-0.8,0.4-1.1,0.7c-0.3,0.4-0.4,0.7-0.4,1.2c0,0.4,0.2,0.8,0.4,1.2
			c0.3,0.4,0.6,0.8,1.1,1.1c0.7,0.5,1.4,0.8,2,0.8c0.7,0,1.2-0.2,1.6-0.7c0.2-0.3,0.4-0.6,0.4-1c0.1-0.3,0-0.7-0.1-1
			c-0.1-0.3-0.3-0.6-0.5-0.9C852.9,545.5,852.6,545.2,852.3,545z"/>
		<path fill="#B12B2B" d="M847.7,551.5c1.8,1.5,2.1,3.1,0.8,4.6c-0.2,0.2-0.3,0.4-0.5,0.5c-0.2,0.1-0.4,0.2-0.6,0.3
			c-0.2,0.1-0.4,0.1-0.6,0.1c-0.2,0-0.4,0-0.7-0.1l-0.7-0.2l-0.1,0.1l0.4,0.6c0.5,0.8,0.3,1.6-0.4,2.5c-0.6,0.7-1.3,1.1-2.2,1.1
			c-0.8,0-1.7-0.3-2.6-1.1c-0.9-0.8-1.6-2.1-2.1-3.9l1-1.2c0.3,2.1,0.9,3.5,1.8,4.2c0.3,0.2,0.5,0.4,0.7,0.5
			c0.2,0.1,0.4,0.3,0.6,0.3c0.2,0.1,0.4,0.1,0.6,0.1c0.2,0,0.4-0.1,0.6-0.2c0.2-0.1,0.4-0.3,0.6-0.6c0.9-1.1,0.6-2.2-0.8-3.4
			l-0.7-0.6l0.6-0.7l0.7,0.6c1.4,1.2,2.6,1.3,3.5,0.3c0.2-0.3,0.4-0.6,0.5-0.8c0.1-0.3,0.1-0.5,0-0.8c-0.1-0.3-0.2-0.5-0.4-0.8
			c-0.2-0.2-0.5-0.5-0.8-0.8c-0.9-0.8-2.4-1.1-4.6-1.2l0.9-1.1C845.4,550.3,846.8,550.7,847.7,551.5z"/>
		<path fill="#B12B2B" d="M834.3,557.3c0.2,0.2,0.6,0.7,1,1.3l-0.7,0.7c-0.4-0.5-0.7-0.9-1.1-1.2c-0.2-0.2-0.5-0.4-0.8-0.6
			c-0.3-0.1-0.6-0.2-0.9-0.3c-0.3,0-0.6,0-0.9,0.1c-0.3,0.1-0.6,0.3-0.8,0.6c-0.3,0.3-0.5,0.6-0.6,0.9c-0.1,0.3-0.1,0.5-0.1,0.8
			c0,0.3,0.2,0.5,0.3,0.7c0.2,0.2,0.4,0.5,0.7,0.8l0.9,0.9c0.3,0.3,0.6,0.5,0.8,0.6s0.5,0.2,0.7,0.3c0.2,0,0.4,0,0.6,0
			c0.2-0.1,0.4-0.1,0.5-0.2c0.1-0.1,0.3-0.2,0.4-0.4l0.7-0.7l0.8,0.7l-0.7,0.8c-0.1,0.1-0.2,0.3-0.3,0.6c-0.1,0.2-0.1,0.5,0,0.8
			c0,0.3,0.1,0.6,0.3,0.9c0.2,0.3,0.4,0.6,0.7,0.9c0.2,0.2,0.5,0.4,0.7,0.5c0.2,0.1,0.4,0.2,0.6,0.2c0.2,0,0.5,0,0.7-0.2
			c0.2-0.1,0.5-0.3,0.7-0.6c0.4-0.4,0.6-0.9,0.6-1.3c0-0.4-0.2-0.8-0.6-1.1c-0.3-0.3-0.5-0.5-0.8-0.7l0.7-0.7
			c0.3,0.2,0.5,0.4,0.8,0.6c0.2,0.2,0.4,0.5,0.5,0.8c0.1,0.3,0.2,0.6,0.2,0.9c0,0.3,0,0.7-0.2,1c-0.1,0.4-0.3,0.7-0.6,1
			c-0.3,0.3-0.6,0.6-0.9,0.8s-0.6,0.3-0.9,0.3c-0.3,0-0.6,0-0.8,0c-0.3-0.1-0.5-0.2-0.8-0.3c-0.2-0.1-0.5-0.3-0.7-0.5
			c-1-0.9-1.3-2.1-0.9-3.6l-0.1-0.1c-1.3,0.7-2.5,0.6-3.6-0.5l-0.9-0.8c-0.3-0.3-0.6-0.6-0.8-1c-0.2-0.4-0.3-0.7-0.4-1.1
			c-0.1-0.4,0-0.8,0.2-1.2c0.2-0.4,0.4-0.8,0.8-1.2c0.3-0.3,0.7-0.6,1-0.8s0.7-0.3,1-0.3c0.3,0,0.7,0,1,0.1c0.3,0.1,0.7,0.2,0.9,0.4
			C833.8,556.9,834,557.1,834.3,557.3z"/>
		<path fill="#B12B2B" d="M832.7,568.2c0.7,0.7,1.1,1.7,1.3,2.9c0.5,3.5,0.7,5.3,0.8,5.5c0.2,1.2,0.5,2.1,0.8,2.7l-1,1
			c-0.4-1.3-0.7-2.5-0.7-3.8c0-1.3-0.2-2.8-0.4-4.5l-0.3,0.5c0,0.3-0.1,0.5-0.3,0.7c-0.7,0.7-1.6,0.8-2.6,0.3l-0.3-0.1l-0.2,0.2
			l0.1,0.3c0.4,1.1,0.3,2-0.5,2.8c-0.4,0.4-0.9,0.6-1.4,0.7c-0.6,0.1-1.1,0-1.7-0.2c-0.6-0.2-1.1-0.6-1.6-1
			c-0.9-0.9-1.5-2.3-1.7-4.2l1.1-1c0.2,2.1,0.7,3.6,1.5,4.4c0.6,0.6,1.2,0.9,1.7,1.1c0.6,0.1,1.1,0,1.5-0.4c0.2-0.2,0.3-0.4,0.4-0.6
			c0.1-0.2,0.1-0.5,0.1-0.8c0-0.3-0.1-0.6-0.2-0.9c-0.2-0.3-0.4-0.7-0.7-1l-0.7-0.7l0.7-0.7l0.7,0.7c0.6,0.7,1.2,1,1.8,1.1
			c0.5,0.1,1.1-0.1,1.6-0.6c0.4-0.4,0.6-0.9,0.5-1.5c-0.1-0.6-0.4-1.2-1-1.8c-0.8-0.8-2.3-1.3-4.4-1.5l1.1-1.1
			C830.5,566.7,831.8,567.3,832.7,568.2z"/>
		<path fill="#B12B2B" d="M823,577.7c1.6,1.8,1.6,3.4,0.1,4.7c-0.2,0.2-0.4,0.3-0.6,0.4c-0.2,0.1-0.4,0.2-0.6,0.2
			c-0.2,0-0.4,0-0.6,0c-0.2,0-0.4-0.1-0.6-0.2l-0.7-0.3l-0.1,0.1l0.3,0.7c0.3,0.9,0.1,1.7-0.8,2.4c-0.7,0.6-1.5,0.9-2.3,0.8
			c-0.8-0.1-1.6-0.6-2.4-1.5c-0.8-0.9-1.2-2.3-1.4-4.2l1.2-1c0,2.1,0.4,3.6,1.2,4.5c0.2,0.3,0.4,0.5,0.6,0.6
			c0.2,0.2,0.4,0.3,0.6,0.4c0.2,0.1,0.4,0.2,0.6,0.2c0.2,0,0.4,0,0.7-0.1c0.2-0.1,0.5-0.2,0.7-0.4c1.1-0.9,1-2.1-0.3-3.5l-0.6-0.6
			l0.7-0.6l0.6,0.6c1.2,1.4,2.4,1.7,3.4,0.8c0.3-0.2,0.5-0.5,0.6-0.8c0.1-0.3,0.1-0.5,0.1-0.8c-0.1-0.3-0.2-0.5-0.3-0.8
			c-0.2-0.3-0.4-0.6-0.7-0.9c-0.8-0.9-2.2-1.5-4.3-1.9l1.1-0.9C820.8,576.1,822.2,576.8,823,577.7z"/>
		<path fill="#B12B2B" d="M812.4,586.3c0.3,0.4,0.5,0.8,0.7,1.2c0.2,0.4,0.3,0.8,0.3,1.2c0,0.4,0,0.9-0.2,1.3
			c-0.2,0.4-0.4,0.8-0.8,1.2c0.2,0.7,0.5,1.2,0.9,1.7c0.6,0.7,1.2,1,2,0.9c1.2-0.2,2.2,0.2,2.9,1.2l-0.9,0.7
			c-0.6-0.8-1.5-1.1-2.7-1.1c-0.7,0-1.4-0.4-1.9-1.1c-0.4-0.5-0.7-1.1-1-1.7c-0.4,0.2-0.9,0.3-1.5,0.3c-0.5,0-1.1-0.2-1.6-0.5
			c-0.5-0.3-0.9-0.7-1.3-1.2c-0.4-0.6-0.7-1.2-0.9-1.8c-0.2-0.6-0.2-1.2,0-1.8c0.2-0.6,0.5-1.1,1-1.5c0.4-0.3,0.8-0.5,1.3-0.6
			c0.5-0.1,0.9-0.1,1.3,0c0.4,0.1,0.9,0.3,1.3,0.6C811.7,585.5,812,585.9,812.4,586.3z M811.5,587c-0.2-0.2-0.4-0.4-0.6-0.6
			c-0.2-0.2-0.4-0.4-0.7-0.5c-0.3-0.1-0.5-0.2-0.7-0.3c-0.2-0.1-0.5-0.1-0.8,0c-0.3,0.1-0.5,0.2-0.8,0.4c-0.5,0.4-0.8,1-0.7,1.6
			c0,0.7,0.4,1.4,0.9,2.1c0.5,0.7,1.1,1.1,1.7,1.3c0.6,0.2,1.3,0.2,1.9-0.1c0.3-0.3,0.5-0.6,0.6-0.9s0.1-0.7,0.1-1
			c0-0.3-0.1-0.7-0.3-1C812,587.6,811.8,587.3,811.5,587z"/>
		<path fill="#B12B2B" d="M805.1,592l6,8.4l-0.8,0.6l-5.9-8.2c-0.6-0.9-1.3-1.4-1.9-1.7c-0.6-0.3-1.3-0.2-1.9,0.3
			c-0.5,0.4-0.8,0.9-0.8,1.5c0,0.6,0.2,1.3,0.7,2c0.5,0.7,1.2,1.1,2,1.2c0.8,0.1,1.4,0.4,1.8,1c0.2,0.3,0.4,0.8,0.6,1.4l-0.9,0.6
			c-0.1-0.6-0.3-1.1-0.5-1.5c-0.3-0.4-0.8-0.6-1.7-0.7c-0.8-0.1-1.6-0.6-2.2-1.4c-0.4-0.5-0.6-1.1-0.8-1.7c-0.1-0.6-0.1-1.2,0.2-1.7
			c0.2-0.6,0.6-1,1.1-1.4c0.4-0.3,0.9-0.5,1.3-0.6c0.5-0.1,0.9,0,1.3,0.1c0.4,0.1,0.8,0.4,1.2,0.7
			C804.4,591.2,804.8,591.6,805.1,592z"/>
	</g>
</g>
</svg>
