<?xml version="1.0" encoding="utf-8"?>
<!-- Generator: Adobe Illustrator 17.1.0, SVG Export Plug-In . SVG Version: 6.00 Build 0)  -->
<!DOCTYPE svg PUBLIC "-//W3C//DTD SVG 1.1//EN" "http://www.w3.org/Graphics/SVG/1.1/DTD/svg11.dtd">
<svg version="1.1" id="Layer_1" xmlns="http://www.w3.org/2000/svg" xmlns:xlink="http://www.w3.org/1999/xlink" x="0px" y="0px"
	 viewBox="0 0 1093.1 1064" enable-background="new 0 0 1093.1 1064" xml:space="preserve">
<g>
	<path fill="none" stroke="#000000" stroke-width="2" stroke-linecap="round" stroke-linejoin="round" stroke-miterlimit="10" d="
		M19.4,298.3c-5.7,6-4.3,12.1,3.3,13.9c2.8,0.7,6.7,1.2,8.1-2.4c0.9-2.2,0.9-5.6-1.5-7.3c-6.7-4.6-13.6-9.1-20.7-13.2
		c-2.7-1.5-4.9,1.1-6.5,3.2c-2.6,3.7-0.1,6,2.4,8.2"/>
	<path fill="none" stroke="#000000" stroke-width="2" stroke-linecap="round" stroke-linejoin="round" stroke-miterlimit="10" d="
		M1021.1,844.1c5.2-6.9,3.7-12.2-4.1-14c-3.3-0.7-6.8-0.1-8.1,3.3c-0.9,2.4-0.9,5.7,2.3,7.4c6.9,3.6,13.6,7.4,20.7,10.6
		c3.4,1.6,6.2-1.7,7.1-4.1c1.3-3.5-0.8-6.4-4.7-7.3"/>
	<path fill="none" stroke="#000000" stroke-width="2" stroke-linecap="round" stroke-linejoin="round" stroke-miterlimit="10" d="
		M454.6,39c-1.5,3.4-1,6.4,1.6,9.1c1.6,1.7,3.3,3.1,5.8,2.4c2.9-0.8,5-2.7,4.9-5.8c-0.3-7.2-0.9-14.3-1.7-21.5
		c-0.3-3.1-2.9-3.6-5.7-3.3c-4.8,0.4-5.2,3.7-5,7.4"/>
	<path fill="none" stroke="#000000" stroke-width="2" stroke-linecap="round" stroke-linejoin="round" stroke-miterlimit="10" d="
		M663.5,22.5c-0.6,6.3-3.1,12.2-4.9,18.2c-0.5,1.7-1.3,3.4-1.5,5c-0.5,3.2-0.7,6.7,2.4,9c2,1.6,4.3,1.2,6.6,0.1
		c4.1-1.9,4.9-5.5,3.9-9.1c-0.9-3.4-2.1-6.5-0.7-10"/>
	<path fill="none" stroke="#000000" stroke-width="2" stroke-linecap="round" stroke-linejoin="round" stroke-miterlimit="10" d="
		M270.4,90.2c-0.6,3.2,1.2,5.5,3.4,7.4c2,1.7,4.3,3.7,7.4,1.7c3.1-2,4.4-5.2,3.1-8.2c-2.5-6.3-5.7-12.3-9.1-18.2
		c-1.4-2.5-4.4-4.1-7.3-1.7c-3.2,2.8-4.7,6-0.1,9"/>
	<path fill="none" stroke="#000000" stroke-width="2" stroke-linecap="round" stroke-linejoin="round" stroke-miterlimit="10" d="
		M26.8,276.8c2,4.6,6,2,9.1,2.4c4.3,0.5,6.3,3.1,7.4,6.7c0.9,3.1-1.2,4.9-3.3,6.6c-2.7,2.1-5.1,0.4-7.4-0.8
		c-7.6-4-14.3-9.7-22.3-13.2"/>
	<path fill="none" stroke="#000000" stroke-width="2" stroke-linecap="round" stroke-linejoin="round" stroke-miterlimit="10" d="
		M867.5,134.8c0.2-2.1,2.2-2.7,3.3-4.1c1.6-2,3.6-2.4,5.8-0.8c3.2,2.2,1.3,4.7-0.1,6.6c-3.6,4.9-8,9.2-11.4,14.2
		c-2.4,3.5-5.4,5.6-9.1,4.6c-2-0.6-4.9-2.9-4.2-6.3c0.9-4.3,3.5-7.5,7.5-9c4-1.5,6.3,1.2,7.4,4.8"/>
	<path fill="none" stroke="#000000" stroke-width="2" stroke-linecap="round" stroke-linejoin="round" stroke-miterlimit="10" d="
		M981.4,914.3c-2.5-8-9.4-11.7-15.8-15.6c-4.8-2.9-11.3-0.9-13.1,3.2c-1.7,3.9,1.4,10.8,6.7,12.2c3.6,0.9,6.2,1.1,8.5,5
		c2,3.3,6.8-0.8,10.4,0.2"/>
	<path fill="none" stroke="#000000" stroke-width="2" stroke-linecap="round" stroke-linejoin="round" stroke-miterlimit="10" d="
		M1092.1,675.7c-8.3-0.5-16.3-3.5-24.8-3.4c-3.1,0-6.3-1.1-8.3,2.6c-1.5,2.7-0.9,5.3,0.9,7.4c2.7,3.1,6,4.3,9.9,1.7
		c2.8-1.9,5.9-2.5,9.1-0.8"/>
	<path fill="none" stroke="#000000" stroke-width="2" stroke-linecap="round" stroke-linejoin="round" stroke-miterlimit="10" d="
		M562.8,21.6c-3.3-1.5-6.7-4.5-9.9,0c-2.4,3.5-3.8,7.5-1.5,11.5c1.2,2,3.6,4.1,6.4,3.3c2.7-0.8,5.1-2.5,4.9-5.7
		c-0.5-7,2.8-13.6,1.8-20.7c-0.4-2.4,0.8-6.2-2.5-6.3c-3-0.1-5.7,2.3-5,6.3c0.1,0.8,0,1.6,0,2.5"/>
	<path fill="none" stroke="#000000" stroke-width="2" stroke-linecap="round" stroke-linejoin="round" stroke-miterlimit="10" d="
		M720.5,40.6c-6.5,10.2-8.6,22.1-13.2,33c-0.7,1.7-1.4,3.4-2.3,5c-2,3.5-4.2,3.4-7.6,2.5c-4.6-1.2-4.3-4.4-4-7.6
		c0.2-1.7,1.5-3.3,2.4-5"/>
	<path fill="none" stroke="#000000" stroke-width="2" stroke-linecap="round" stroke-linejoin="round" stroke-miterlimit="10" d="
		M875.7,1051.4c0.2-1.3-1.1-2.3-1.7-2.4c-8.7-0.5-13.4-3.4-10.2-13.4c0.9-2.7-1.4-6-4.6-8.4c-3.3-2.4-5.9-1.4-8.3,0.3
		c-3.5,2.4-2,6.4-0.7,8.9c2.2,4.2,6.3,6.2,11.4,5.1"/>
	<path fill="none" stroke="#000000" stroke-width="2" stroke-linecap="round" stroke-linejoin="round" stroke-miterlimit="10" d="
		M365.4,37.3c-8.8,0.3-11.7,5.2-7.4,12.4c1.7,2.9,3.1,5,7.5,3.5c4.5-1.5,4.8-4.7,3.9-7.6c-2-6.6-3.5-13.2-5-19.8
		c-0.5-2.4-2.8-5.6-6.4-4.9c-4.5,0.8-5.5,4.1-5,8.2"/>
	<path fill="none" stroke="#000000" stroke-width="2" stroke-linecap="round" stroke-linejoin="round" stroke-miterlimit="10" d="
		M486,1c0,0.3-0.1,0.7,0,0.8c5.7,6.6,10.4,12.7,0.2,20.2c-2.7,2-2.2,7.7,1.4,11.3c3,3,5.9,1.7,8.2-0.2c3.8-3.1,3.2-7.6,1.5-11.4
		c-0.9-2-2.9-4.2-5.6-5"/>
	<path fill="none" stroke="#000000" stroke-width="2" stroke-linecap="round" stroke-linejoin="round" stroke-miterlimit="10" d="
		M979,261.1c-5.1-3-9.4-2.3-13.3,2.4c-2.4,3-2.2,5.3,0,8.4c2.5,3.6,5.9,3,8.2,1.4c3.4-2.3,7.2-5.2,5.9-10.5"/>
	<path fill="none" stroke="#000000" stroke-width="2" stroke-linecap="round" stroke-linejoin="round" stroke-miterlimit="10" d="
		M998,883.8c4.4-1.9,7.9-5,4.8-9.8c-2.6-4-6.9-7-12.2-4.2c-4.9,2.6-4.2,8.6,1.8,12.1c1.2,0.7,3.1,1.7,4.8,1.9"/>
	<path fill="none" stroke="#000000" stroke-width="2" stroke-linecap="round" stroke-linejoin="round" stroke-miterlimit="10" d="
		M159.8,138.9c-8.3,4.4-9.1,9.3-2.5,14.9c2.9,2.4,5.5,2.5,8.3,0c2.5-2.3,3.3-4.1,1-7.6c-4.4-6.6-9-13-14.4-18.7
		c-4.8-5.1-6,0.5-7.3,4"/>
	<path fill="none" stroke="#000000" stroke-width="2" stroke-linecap="round" stroke-linejoin="round" stroke-miterlimit="10" d="
		M1080.5,734.3c0.4-14,0.4-14.1-14-16.5c-2.3-0.4-4.4-0.8-6.6-1.6c-4.5-1.6-10.5,1-10.6,4.9c0,4.9,3,7.2,8.1,7.5
		c5.8,0.4,8.1-1.2,8.2-6.7c0-1.1-0.5-2.2-0.8-3.3"/>
	<path fill="none" stroke="#000000" stroke-width="2" stroke-linecap="round" stroke-linejoin="round" stroke-miterlimit="10" d="
		M685.8,63.8c2.9-2.4,5.2-5.4,5.7-9.1c0.5-3.9,1-8.4-4.8-9c-4.8-0.5-7.2,2.5-8.1,6.6c-0.6,2.6-0.1,5.5-0.1,8.2"/>
	<path fill="none" stroke="#000000" stroke-width="2" stroke-linecap="round" stroke-linejoin="round" stroke-miterlimit="10" d="
		M1014.5,286.7c-7.9,2.9-14.5,7.9-21.6,12.1c-3.6,2.1-5,4.1-4.7,7.7c0.2,2.8,2.2,4.3,4.9,5c3.6,0.9,6.1-0.9,8.2-3.4
		c2-2.4,1.9-6.4,5.8-7.4"/>
	<path fill="none" stroke="#000000" stroke-width="2" stroke-linecap="round" stroke-linejoin="round" stroke-miterlimit="10" d="
		M603.2,42.3c2.6-2.8,4.1-6,4.2-9.9c0-4.6-2.1-7.3-6.6-7.4c-4.1-0.1-6.4,2.4-6.6,6.5c-0.1,3,0,6.1,0,9.1"/>
	<path fill="none" stroke="#000000" stroke-width="2" stroke-linecap="round" stroke-linejoin="round" stroke-miterlimit="10" d="
		M979.8,293.3c4.2-0.2,7.7-2.2,10.7-5c2.7-2.6,2.5-5.4,0.1-8.3c-2.4-2.9-5.2-3.5-8.3-1.6c-3.2,2-6.4,4.2-7.5,8.2"/>
	<path fill="none" stroke="#000000" stroke-width="2" stroke-linecap="round" stroke-linejoin="round" stroke-miterlimit="10" d="
		M426.5,23.3c-3.7,1.5-6.3,3.5-5.9,8.3c0.3,4.1,1.2,7.3,5.1,9c2.8,1.2,5.3-1,6.4-2.6c2.1-3.1,3.2-7.1,0.1-10.5
		c-1.3-1.4-2.2-3.8-4.9-3.4"/>
	<path fill="none" stroke="#000000" stroke-width="2" stroke-linecap="round" stroke-linejoin="round" stroke-miterlimit="10" d="
		M380.3,50.5c2,2.2,0,5,1.6,7.5c1.9,3,4.4,5.3,7.4,3.8c2.7-1.3,5.5-3.8,4.3-8c-1.5-5.5-2.6-11.1-3.9-16.6c-1-4-1.8-6.4-6.1-5.7
		c-4.9,0.8-6,3.9-4.1,8.2"/>
	<path fill="none" stroke="#000000" stroke-width="2" stroke-linecap="round" stroke-linejoin="round" stroke-miterlimit="10" d="
		M905.5,200.8c3.1-2.1,6.5-3.7,9.1-6.6c3-3.3,2.1-6.7-0.2-9c-2.3-2.3-5.7-3.2-9-0.2c-2.9,2.6-4.5,6-6.6,9.1"/>
	<path fill="none" stroke="#000000" stroke-width="2" stroke-linecap="round" stroke-linejoin="round" stroke-miterlimit="10" d="
		M997.1,857.3c2.2,1.9,4.2,4.3,6.7,5.7c3.4,1.9,7.4,2.2,9.7-1.6c2.1-3.4,1.6-6.6-2.3-9.1c-3.1-2-6.1-3.8-10-3.2"/>
	<path fill="none" stroke="#000000" stroke-width="2" stroke-linecap="round" stroke-linejoin="round" stroke-miterlimit="10" d="
		M187,138.1c-1.4-3-2.3-6.4-4.2-9c-2.4-3.4-5.9-4.9-9.8-1.7c-3.6,3-3.2,6.6-0.8,9.8c1.8,2.5,4.3,4.5,6.5,6.7"/>
	<path fill="none" stroke="#000000" stroke-width="2" stroke-linecap="round" stroke-linejoin="round" stroke-miterlimit="10" d="
		M727.9,77.8c2-1.8,3.2-4.2,4.1-6.6c1.2-3.6,2.7-7.8-2.4-9.8c-4.9-1.9-8.1,0.9-9.7,5c-0.9,2.2-1,4.9-1.8,7.4"/>
	<path fill="none" stroke="#000000" stroke-width="2" stroke-linecap="round" stroke-linejoin="round" stroke-miterlimit="10" d="
		M127.6,187.6c-1.6-3.3-2.9-6.8-5.9-9c-2.7-2-5.7-3-9.1-0.2c-3.6,3.1-2.7,6.1-0.7,9.1c1.9,2.9,5.1,4.4,8.2,5.8"/>
	<path fill="none" stroke="#000000" stroke-width="2" stroke-linecap="round" stroke-linejoin="round" stroke-miterlimit="10" d="
		M742.8,81.1c6.7,5.9,6.3,12.6-0.8,16.6c-3,1.7-5.6,0.8-7.4-1c-3.7-3.7-1.9-7.8,0.7-11.4"/>
	<path fill="none" stroke="#000000" stroke-width="2" stroke-linecap="round" stroke-linejoin="round" stroke-miterlimit="10" d="
		M580.9,35.7c0.8,0.8,2,1.5,2.4,2.5c1.9,4.4,0.8,8.6-1.7,12.3c-1.7,2.5-5.2,2.5-7.3,1.5c-4.8-2.3-4-7.1-3.4-11.4"/>
	<path fill="none" stroke="#000000" stroke-width="2" stroke-linecap="round" stroke-linejoin="round" stroke-miterlimit="10" d="
		M402.6,26.6c2.1,2.1,5.1,3.2,7.3,5.1c3.6,3,3.6,9.2,0,11.3c-4.1,2.4-7.4,1-9.9-3.1c-0.9-1.5-0.4-2.8-0.7-4.2"/>
	<path fill="none" stroke="#000000" stroke-width="2" stroke-linecap="round" stroke-linejoin="round" stroke-miterlimit="10" d="
		M880.7,166.2c-0.3-0.6,0.1-1,0.8-1.7c4.2-3.9,3.1-8.2-1-10.4c-3-1.6-6.5,0.1-9.1,3.7c-3.9,5.4-1.1,11.2-2.3,16.6"/>
	<path fill="none" stroke="#000000" stroke-width="2" stroke-linecap="round" stroke-linejoin="round" stroke-miterlimit="10" d="
		M87.9,208.3c-3.3,1.6-9,0.9-8.1,6.6c0.8,4.8,5.1,7.3,9.7,8.2c3.2,0.7,6.7-0.9,9.9,0.9"/>
	<path fill="none" stroke="#000000" stroke-width="2" stroke-linecap="round" stroke-linejoin="round" stroke-miterlimit="10" d="
		M294.4,62.9c-3.3-0.8-6.9-2.8-9,1.7c-1.9,4-0.1,7.6,2.5,10.7c3,3.5,7.4,4.4,11.5,5.8"/>
	<path fill="none" stroke="#000000" stroke-width="2" stroke-linecap="round" stroke-linejoin="round" stroke-miterlimit="10" d="
		M917,960.6c-1.8-2-4-3.5-6.8-4.5c-3.3,2.2-7.8,4.1-6.2,8.6c2,5.4,6.6,8.6,13,7.5"/>
	<path fill="none" stroke="#000000" stroke-width="2" stroke-linecap="round" stroke-linejoin="round" stroke-miterlimit="10" d="
		M1057.4,750c3.1-2.4,4.9-5.3,2.4-9.1c-2.5-3.9-11.1-5.3-16.5-3.4c-6.5,2.3-9,9.4-14.8,12.4"/>
	<path fill="none" stroke="#000000" stroke-width="2" stroke-linecap="round" stroke-linejoin="round" stroke-miterlimit="10" d="
		M1027.7,810.3c3.6,4.9,8,2.4,10.5-0.2c3.3-3.5-0.2-7.1-3.2-8.7c-3.8-2.1-8.4-3.7-12.3,0.6"/>
	<path fill="none" stroke="#000000" stroke-width="2" stroke-linecap="round" stroke-linejoin="round" stroke-miterlimit="10" d="
		M538,33.2c0.6,0.8,1.3,1.6,1.6,2.5c1.7,4.6,1,8.8-2.4,12.4c-1.7,1.8-4.6,1.4-5.7,0.6c-3.8-2.6-5.7-6.5-4.3-11.4"/>
	<path fill="none" stroke="#000000" stroke-width="2" stroke-linecap="round" stroke-linejoin="round" stroke-miterlimit="10" d="
		M641.2,47.2c5,5.1,5.6,11.7,0.8,14.7c-4.1,2.6-8.3,1.1-11.4-2.4c-0.7-0.8-0.1-2.7-0.1-4"/>
	<path fill="none" stroke="#000000" stroke-width="2" stroke-linecap="round" stroke-linejoin="round" stroke-miterlimit="10" d="
		M339,62.1c1.9-3.7,0.4-7.3-0.9-10.7c-1.4-3.8-4.3-6.1-8.2-4.8c-4.6,1.5-5.7,5.4-4.1,9.7c0.9,2.4,2,4.8,4.1,6.6"/>
	<path fill="none" stroke="#000000" stroke-width="2" stroke-linecap="round" stroke-linejoin="round" stroke-miterlimit="10" d="
		M638.7,34.9c-3.2-0.6-4.3-6.6-9.1-3.4c-3.7,2.5-4.4,5.8-4.2,10c0.2,3.5,1.8,5.2,5,5.8c3.4,0.6,5.5-1.1,6.6-4.1
		c0.3-0.7-0.2-1.7,0.1-2.5c1-3.1,1.4-6.8,5.7-7.4c2.2-0.3,4,1.3,4.8,2.6c2.1,3.2,1.2,6.7-0.7,9.8c-0.8,1.3-2.2,2.2-3.3,3.3"/>
	<path fill="none" stroke="#000000" stroke-width="2" stroke-linecap="round" stroke-linejoin="round" stroke-miterlimit="10" d="
		M943.5,956.4c0.8-1.4,2.2-0.9,3.3-0.8c3.2,0.3,4.9-1.6,5.7-4.2c0.8-2.5-1.1-4.4-2.5-5.7c-3.2-2.7-6.8-5-11.5-4.2"/>
	<path fill="none" stroke="#000000" stroke-width="2" stroke-linecap="round" stroke-linejoin="round" stroke-miterlimit="10" d="
		M239.9,105c2.3-4.8-0.1-8.9-2.6-12.3c-3.7-5.2-8-3.3-11.4,4.9"/>
	<path fill="none" stroke="#000000" stroke-width="2" stroke-linecap="round" stroke-linejoin="round" stroke-miterlimit="10" d="
		M793.2,113.3c2.7,0.6,4.7-1.3,6.5-2.6c4.8-3.4,5.7-8.6,2.5-12.3c-2.3-2.8-3.7-2.4-9.9,2.5"/>
	<path fill="none" stroke="#000000" stroke-width="2" stroke-linecap="round" stroke-linejoin="round" stroke-miterlimit="10" d="
		M317.5,68.7c1.2-2.4,1.2-5,0.7-7.4c-0.7-3.4-1.7-7.5-5.7-8.1c-4.3-0.7-6.7,2.3-7.4,6.4"/>
	<path fill="none" stroke="#000000" stroke-width="2" stroke-linecap="round" stroke-linejoin="round" stroke-miterlimit="10" d="
		M149.9,166.2c-0.3-2.3-0.3-4.3-1.4-6.7c-2-4.7-5.4-7.3-9.2-5.4c-4.7,2.3-5.5,7.1-1,11.3"/>
	<path fill="none" stroke="#000000" stroke-width="2" stroke-linecap="round" stroke-linejoin="round" stroke-miterlimit="10" d="
		M866.7,1015.1c0.4,1.9-0.6,3.8,0.7,5.8c2.1,3.3,3.4,7.6,8.3,7.3c5.1-0.3,4.3-5.2,5.8-8.2"/>
	<path fill="none" stroke="#000000" stroke-width="2" stroke-linecap="round" stroke-linejoin="round" stroke-miterlimit="10" d="
		M213.5,119.1c1.9,1.1,2,3.6,3.4,4.9c3.6,3.5,3.7,6.8-0.1,9.9c-4.3,3.6-7.5,2.1-9.9-2.5"/>
	<path fill="none" stroke="#000000" stroke-width="2" stroke-linecap="round" stroke-linejoin="round" stroke-miterlimit="10" d="
		M46.7,259.5c-3.5,1.4-7.9,2.2-7.4,7.4c0.5,4.8,4.8,5.8,8.3,7.3c1.6,0.7,3.8,0.1,5.7,0.1"/>
	<path fill="none" stroke="#000000" stroke-width="2" stroke-linecap="round" stroke-linejoin="round" stroke-miterlimit="10" d="
		M859.2,1063c-6-3.4-7.8-10.3-12.3-15c-1.6-1.6-2.7-3.9-4.2-5.7c-3.1-3.7-6.9-3.6-9.8-0.7c-3.5,3.6-1.8,7.4,1.5,10.6
		c2.6,2.6,7.2,2,9.1,5.8"/>
	<path fill="none" stroke="#000000" stroke-width="2" stroke-linecap="round" stroke-linejoin="round" stroke-miterlimit="10" d="
		M926.9,970.5c2,3.2,4.2,6.1,0.9,10c-2.5,3-5.6,1.7-7.4,0.6c-4.7-3.1-4-7.7-1.8-12.2"/>
	<path fill="none" stroke="#000000" stroke-width="2" stroke-linecap="round" stroke-linejoin="round" stroke-miterlimit="10" d="
		M82.2,233.9c2.6-0.2,4.5,1.4,6.6,2.5c3.3,1.7,4.4,5.2,3.2,8.1c-1.6,3.9-4.3,7.7-9.7,5"/>
	<path fill="none" stroke="#000000" stroke-width="2" stroke-linecap="round" stroke-linejoin="round" stroke-miterlimit="10" d="
		M1031.8,813.6c2.5,3.3,2.9,7.1-0.1,9.8c-3.2,2.7-6.8,0.3-9.7-1.6c-1.9-1.2-3.4-3.2-5-4.9"/>
	<path fill="none" stroke="#000000" stroke-width="2" stroke-linecap="round" stroke-linejoin="round" stroke-miterlimit="10" d="
		M228.3,101.7c-0.9-2.4-2.5-4.3-5-4.9c-2.5-0.6-5-0.2-6.6,2.4c-1.3,2.2-1.3,4.4,0,6.6c2.3,3.9,5.6,6.3,9.9,7.4"/>
	<path fill="none" stroke="#000000" stroke-width="2" stroke-linecap="round" stroke-linejoin="round" stroke-miterlimit="10" d="
		M769.2,81.9c2.3,0,4.9-0.8,6.8,2c-3.6,9.1-7,18.6-14.6,25.5c-9.9-5.2-10.3-6.8-4.7-16"/>
	<path fill="none" stroke="#000000" stroke-width="2" stroke-linecap="round" stroke-linejoin="round" stroke-miterlimit="10" d="
		M933.5,219c7.2-4.2,7.2-4.2,13.3,1.7c-1.9,6.7-6.8,9.3-13.3,9.8"/>
	<path fill="none" stroke="#000000" stroke-width="2" stroke-linecap="round" stroke-linejoin="round" stroke-miterlimit="10" d="
		M62.3,259.5c-0.8-1.7-1.4-3.5-2.5-4.9c-3.1-3.7-7.3-6.6-11.3-2.4c-3.5,3.6-2.6,7.9,2.3,10.6"/>
	<path fill="none" stroke="#000000" stroke-width="2" stroke-linecap="round" stroke-linejoin="round" stroke-miterlimit="10" d="
		M510.7,14.2c1,3,3.9,4.4,5.8,6.6c2.6,3.1,4.7,6.6,2.4,10.7c-1.3,2.4-3.9,3.7-6.5,3.2c-4.7-0.9-6.1-4.6-5.8-9"/>
	<path fill="none" stroke="#000000" stroke-width="2" stroke-linecap="round" stroke-linejoin="round" stroke-miterlimit="10" d="
		M877.4,1005.1c5.9-1.2,9.5,2.1,12.4,6.6c1.2,1.8,1.3,3.4,0,5c-1.7,2-3.6,4.3-6.6,3.2c-2.4-0.9-5.1-1.8-5.8-4.9"/>
	<path fill="none" stroke="#000000" stroke-width="2" stroke-linecap="round" stroke-linejoin="round" stroke-miterlimit="10" d="
		M538,29.9c3.1-3.6,5.8-7.4,0-10.7c-5-2.8-8-0.4-9,4.9"/>
	<path fill="none" stroke="#000000" stroke-width="2" stroke-linecap="round" stroke-linejoin="round" stroke-miterlimit="10" d="
		M135,162.9c-2.9,0.7-6.8-2.5-8.4,3.3c-1.4,4.9,1.7,7.1,4.5,8.9c2.2,1.4,4.9,3.3,8.1,2.7"/>
	<path fill="none" stroke="#000000" stroke-width="2" stroke-linecap="round" stroke-linejoin="round" stroke-miterlimit="10" d="
		M931.9,207.4c-0.9-4-2-9.3-6.5-8.7c-3.7,0.6-7.9,3.6-9.3,8.6c-1,3.7-0.1,7.2-0.7,10.8"/>
	<path fill="none" stroke="#000000" stroke-width="2" stroke-linecap="round" stroke-linejoin="round" stroke-miterlimit="10" d="
		M318.3,82.8c-8.1-4.9-15.3-2.6-22.3,2.5"/>
	<path fill="none" stroke="#000000" stroke-width="2" stroke-linecap="round" stroke-linejoin="round" stroke-miterlimit="10" d="
		M253.1,93.5c6.8-3.9,9.6,0.9,12.4,5.8c2.6,4.4-0.3,7.4-3.4,8.9c-5.3,2.6-7.9-1.4-9.8-5.6"/>
	<path fill="none" stroke="#000000" stroke-width="2" stroke-linecap="round" stroke-linejoin="round" stroke-miterlimit="10" d="
		M79.7,237.2c1.5-6.5-0.5-11.3-5.8-12.3c-5.6-1.1-7.3,2.5-7.4,7.4"/>
	<path fill="none" stroke="#000000" stroke-width="2" stroke-linecap="round" stroke-linejoin="round" stroke-miterlimit="10" d="
		M110.2,201.7c-0.8-1.7-1.5-3.4-2.5-4.9c-2.4-3.4-4.9-7.7-9.8-3.3c-4.7,4.2-3.7,7.8,1.6,10.7"/>
	<path fill="none" stroke="#000000" stroke-width="2" stroke-linecap="round" stroke-linejoin="round" stroke-miterlimit="10" d="
		M981.4,942.4c-6.1-7.1-15-10.7-21.6-17.2c-2.6-2.6-6.7-1.1-8.8,1.6c-1.8,2.3-1.9,5.3,0.6,8.2c5.4,6.3,11.2,5.5,14.9-2.5"/>
	<path fill="none" stroke="#000000" stroke-width="2" stroke-linecap="round" stroke-linejoin="round" stroke-miterlimit="10" d="
		M1029.3,783.8c0.5,2.7,1.8,5.2,4.2,6.5c3,1.7,6.1,4.4,9.8,1.7c1.6-1.2,3.9-2.4,3.3-4.9c-0.9-3.8-3.1-6.4-7.4-6.6"/>
	<path fill="none" stroke="#000000" stroke-width="2" stroke-linecap="round" stroke-linejoin="round" stroke-miterlimit="10" d="
		M1054.1,694.7c4.1-1.1,8.3-1.7,12.4,0c3.1,1.3,6.1,2.5,4.3,7.4c-1.5,4-3.8,5.3-7.6,4.9c-3.9-0.5-7.3-2.4-10.7-4.1"/>
	<path fill="none" stroke="#000000" stroke-width="2" stroke-linecap="round" stroke-linejoin="round" stroke-miterlimit="10" d="
		M59.9,239.7c0.1,3.9,3.1,5.6,5.8,7.4c3,2.1,6.3,1.1,8.1-1c1.9-2.2,2.3-5.6-0.6-8.1c-1.9-1.6-3.8-3.3-5.8-5c-4.3-0.3-7,1.7-8.3,5.8"
		/>
	<path fill="none" stroke="#000000" stroke-width="2" stroke-linecap="round" stroke-linejoin="round" stroke-miterlimit="10" d="
		M1061.5,789.6c-3.9-4.7-6.5-10.3-10.7-14.9c-6.7-7.5-7.5-7.9-16.6-4.1"/>
	<path fill="none" stroke="#000000" stroke-width="2" stroke-linecap="round" stroke-linejoin="round" stroke-miterlimit="10" d="
		M196.1,112.5c1.2,1.9,2,3.9,3.2,5.8c4,6.1,5.1,6.3,11.6,1.6"/>
	<path fill="none" stroke="#000000" stroke-width="2" stroke-linecap="round" stroke-linejoin="round" stroke-miterlimit="10" d="
		M846,125.7c-0.6,2.1,0.3,4,0.9,5.7c1.8,4.9-0.3,7.7-4.2,10c-3,1.7-5.9,0.8-7.3-1.7c-2-3.6-1.7-7.3,2.3-9.8"/>
	<path fill="none" stroke="#000000" stroke-width="2" stroke-linecap="round" stroke-linejoin="round" stroke-miterlimit="10" d="
		M910.4,215.7c7.9,5,11.2,12.3,10.7,21.5"/>
	<path fill="none" stroke="#000000" stroke-width="2" stroke-linecap="round" stroke-linejoin="round" stroke-miterlimit="10" d="
		M432.3,26.6c1.5-3.9,4.8-5.6,8.2-3.9c3.5,1.7,5.1,5.2,3.6,9.8c-0.6,1.9-1.2,3.8-1.9,5.7"/>
	<path fill="none" stroke="#000000" stroke-width="2" stroke-linecap="round" stroke-linejoin="round" stroke-miterlimit="10" d="
		M806.4,81.9c-5,2.1-9.9,4.8-14.9,6.4c-8.7,2.8-11.7,8.3-10.7,16.7"/>
	<path fill="none" stroke="#000000" stroke-width="2" stroke-linecap="round" stroke-linejoin="round" stroke-miterlimit="10" d="
		M904.6,982c11.9,1.7,9.6,12.4,12.3,19.9c1.1,3,0.7,6.6,1,9.9"/>
	<path fill="none" stroke="#000000" stroke-width="2" stroke-linecap="round" stroke-linejoin="round" stroke-miterlimit="10" d="
		M116.9,216.5c-10-0.3-15.2,3.4-17.3,12.4"/>
	<path fill="none" stroke="#000000" stroke-width="2" stroke-linecap="round" stroke-linejoin="round" stroke-miterlimit="10" d="
		M890.6,991.9c2.1,2.4-0.1,5.6,2.3,8.4c2.9,3.5,6.3,6.8,9.9,4.5c4.7-2.9,4-7.7-0.6-11.3"/>
	<path fill="none" stroke="#000000" stroke-width="2" stroke-linecap="round" stroke-linejoin="round" stroke-miterlimit="10" d="
		M712.2,56.3c-7.4-5.3-8.9-4.8-11.6,4.1"/>
	<path fill="none" stroke="#000000" stroke-width="2" stroke-linecap="round" stroke-linejoin="round" stroke-miterlimit="10" d="
		M574.3,27.4c-0.7-4,1.7-5.8,4.9-5.6c3.1,0.2,6.8,1.7,6.4,5.6c-0.3,3.1-1.1,7-5.6,7.4c-1.1,0.1-2.2,0-3.3,0"/>
	<path fill="none" stroke="#000000" stroke-width="2" stroke-linecap="round" stroke-linejoin="round" stroke-miterlimit="10" d="
		M815.5,125.7c2.2-2.2,4.9-4.1,6.5-6.7c2.1-3.4,1.9-7.4-1.6-9.7c-3-2-6.9-2.1-8.9,1.6c-1.8,3.3-4.7,6.4-4.2,10.7"/>
	<path fill="none" stroke="#000000" stroke-width="2" stroke-linecap="round" stroke-linejoin="round" stroke-miterlimit="10" d="
		M958.3,242.1c2-4.9,1-8.6-4.1-10.7c-5.6,2.3-10.1,5.7-10.7,12.4"/>
	<path fill="none" stroke="#000000" stroke-width="2" stroke-linecap="round" stroke-linejoin="round" stroke-miterlimit="10" d="
		M988.9,249.6c-2.7,4.4-1.8,11.4-9.1,12.4"/>
	<path fill="none" stroke="#000000" stroke-width="2" stroke-linecap="round" stroke-linejoin="round" stroke-miterlimit="10" d="
		M955,245.4c1.8-4.5,5.8-3.4,9.1-3.1c2,0.2,3.2,3.1,3.1,4.8c-0.1,3.4-2.7,5.6-5.5,7.5c-2.7,1.7-5.5,1.5-8.3,1.6"/>
	<path fill="none" stroke="#000000" stroke-width="2" stroke-linecap="round" stroke-linejoin="round" stroke-miterlimit="10" d="
		M864.2,172.8c7.4,3.4,13.4,7.9,12.4,17.3"/>
	<path fill="none" stroke="#000000" stroke-width="2" stroke-linecap="round" stroke-linejoin="round" stroke-miterlimit="10" d="
		M928.6,954c0.9,3.2,1.3,6.6,4.1,9.1c2.8,2.5,5.6,3.9,9.1,1.6c4-2.6,2.5-5.9,0.8-9.1c-0.7-1.2-2.5-1.6-2.5-3.3"/>
	<path fill="none" stroke="#000000" stroke-width="2" stroke-linecap="round" stroke-linejoin="round" stroke-miterlimit="10" d="
		M246.5,88.5c-2.6-5.4,0.9-8.4,5-8.8c4.4-0.4,6.2,3.6,5.7,8c-0.2,1.4-0.5,2.8-0.8,4.1"/>
	<path fill="none" stroke="#000000" stroke-width="2" stroke-linecap="round" stroke-linejoin="round" stroke-miterlimit="10" d="
		M205.2,105c2.1,4.5,6,8,6.6,13.2"/>
	<path fill="none" stroke="#000000" stroke-width="2" stroke-linecap="round" stroke-linejoin="round" stroke-miterlimit="10" d="
		M149.1,136.4c0.3-0.6-0.1-1-0.8-1.7c-2.2-1.9-4.1-5.3-7.4-2.4c-3.2,2.8,0.9,4.9,1.6,7.3"/>
	<path fill="none" stroke="#000000" stroke-width="2" stroke-linecap="round" stroke-linejoin="round" stroke-miterlimit="10" d="
		M307.6,65.4c0.3-0.6-0.3-0.9-0.8-1.7c-1.9-3.4-3.9-8.2-8.2-6.3c-5,2.3-3.5,7.2-1,11.3"/>
	<path fill="none" stroke="#000000" stroke-width="2" stroke-linecap="round" stroke-linejoin="round" stroke-miterlimit="10" d="
		M893.1,168.6c4.2-0.8,6.6,1.6,8.3,4.7c-1.2,5.7-5.4,8.1-10,10.1"/>
	<path fill="none" stroke="#000000" stroke-width="2" stroke-linecap="round" stroke-linejoin="round" stroke-miterlimit="10" d="
		M926.9,212.4c2.1-3.5,4.3-6.2,9.1-4.2c4.2,1.7,1.8,5,2.4,7.5"/>
	<path fill="none" stroke="#000000" stroke-width="2" stroke-linecap="round" stroke-linejoin="round" stroke-miterlimit="10" d="
		M887.3,172.8c4.2-1.7,5.9-5.2,4.8-9c-1-3.3-4.3-3.1-7.2-1.7"/>
	<path fill="none" stroke="#000000" stroke-width="2" stroke-linecap="round" stroke-linejoin="round" stroke-miterlimit="10" d="
		M94.6,200c-8.6,2.9-8.8,5-1.7,12.4"/>
	<path fill="none" stroke="#000000" stroke-width="2" stroke-linecap="round" stroke-linejoin="round" stroke-miterlimit="10" d="
		M556.2,5.1c-1.1-0.9-1.2-3.6-3.2-2.4c-2.2,1.3-4.1,3.4-3.4,6.5"/>
	<path fill="none" stroke="#000000" stroke-width="2" stroke-linecap="round" stroke-linejoin="round" stroke-miterlimit="10" d="
		M997.1,884.6c0.3,3.3,0.2,6.8-3.3,8.1c-2.9,1.1-6,0.2-8.2-2.4c-1.4-1.6-2.8-3.3-4.1-5"/>
	<path fill="none" stroke="#000000" stroke-width="2" stroke-linecap="round" stroke-linejoin="round" stroke-miterlimit="10" d="
		M789,90.2c3.1,1.6,5,4,5.8,7.4"/>
	<path fill="none" stroke="#000000" stroke-width="2" stroke-linecap="round" stroke-linejoin="round" stroke-miterlimit="10" d="
		M761.8,75.3c0.4,3.5,5.7,2,5.8,7.3c-0.7,1.4-2,4-3.4,6.7"/>
	<path fill="none" stroke="#000000" stroke-width="2" stroke-linecap="round" stroke-linejoin="round" stroke-miterlimit="10" d="
		M913.7,994.4c-1.7,3.1-4.7,2.4-7.4,2.5"/>
	<path fill="none" stroke="#000000" stroke-width="2" stroke-linecap="round" stroke-linejoin="round" stroke-miterlimit="10" d="
		M871.6,129c-0.8-1.6-0.4-3.9-3.1-5.1c-2.8-0.5-3.1,4-6,4.2"/>
	<path fill="none" stroke="#000000" stroke-width="2" stroke-linecap="round" stroke-linejoin="round" stroke-miterlimit="10" d="
		M1051.6,777.2c-1.5,2-3.6,3.1-5.8,4.1"/>
	<path fill="none" stroke="#000000" stroke-width="2" stroke-linecap="round" stroke-linejoin="round" stroke-miterlimit="10" d="
		M754.6,72.5c-0.4,0.3-0.6,4.2-2.5,6.4s-5.6,2.7-6,3"/>
	<path fill="none" stroke="#000000" stroke-width="2" stroke-linecap="round" stroke-linejoin="round" stroke-miterlimit="10" d="
		M1045,748.3c-4.1,1.4-5.4,5.1-3.9,8.1c1.8,3.8,6.3,5.4,10.5,4.9c3-0.4,5.8-2.4,5.8-6.4c0-4-2.9-5.5-5.8-6.5
		c-1.7-0.6-3.8-0.1-5.7-0.1"/>
</g>
</svg>
