<?xml version="1.0" encoding="utf-8"?>
<!-- Generator: Adobe Illustrator 17.1.0, SVG Export Plug-In . SVG Version: 6.00 Build 0)  -->
<!DOCTYPE svg PUBLIC "-//W3C//DTD SVG 1.1//EN" "http://www.w3.org/Graphics/SVG/1.1/DTD/svg11.dtd">
<svg version="1.1" id="Layer_1" xmlns="http://www.w3.org/2000/svg" xmlns:xlink="http://www.w3.org/1999/xlink" x="0px" y="0px"
	 viewBox="452 0 1121.8 1080" enable-background="new 452 0 1121.8 1080" xml:space="preserve">
<g id="მშოფლიოში">
</g>
<g id="ყველა">
</g>
<g id="მეათე">
</g>
<g id="ბავშვი">
</g>
<g id="ფციქიკური">
</g>
<g id="აშლილობის">
</g>
<g id="სინდრომით">
</g>
<g id="ცხოვრობს">
	<path fill="none" stroke="#3B4960" stroke-width="4" stroke-linecap="round" stroke-linejoin="round" stroke-miterlimit="10" d="
		M484.8,302.8c-5.8,6.1-4.4,12.3,3.3,14.1c2.8,0.7,6.8,1.2,8.2-2.4c0.9-2.2,0.9-5.7-1.5-7.4c-6.8-4.7-13.8-9.2-21-13.4
		c-2.7-1.5-5,1.1-6.6,3.2c-2.6,3.8-0.1,6.1,2.4,8.3"/>
	<path fill="none" stroke="#3B4960" stroke-width="4" stroke-linecap="round" stroke-linejoin="round" stroke-miterlimit="10" d="
		M492.3,281c2,4.7,6.1,2,9.2,2.4c4.4,0.5,6.4,3.1,7.5,6.8c0.9,3.1-1.2,5-3.3,6.7c-2.7,2.1-5.2,0.4-7.5-0.8
		c-7.7-4.1-14.5-9.8-22.6-13.4"/>
	<path fill="none" stroke="#3B4960" stroke-width="4" stroke-linecap="round" stroke-linejoin="round" stroke-miterlimit="10" d="
		M528.5,263.4c-0.8-1.7-1.4-3.6-2.5-5c-3.1-3.8-7.4-6.7-11.5-2.4c-3.6,3.7-2.6,8,2.3,10.8l-4.2-3.3c-3.6,1.4-8,2.2-7.5,7.5
		c0.5,4.9,4.9,5.9,8.4,7.4c1.6,0.7,3.9,0.1,5.8,0.1"/>
	<path fill="none" stroke="#3B4960" stroke-width="4" stroke-linecap="round" stroke-linejoin="round" stroke-miterlimit="10" d="
		M534.2,236.9c1.8,1.5,3.7,3.2,5.4,4.6c2.9,2.5,2.5,6,0.6,8.2c-1.8,2.1-5.2,3.1-8.2,1c-2.7-1.8-5.1-3.8-6.4-7.3l-0.3-1.2
		c1.2-3.7,3.4-5.7,6.9-5.9l0.6-0.7c0.1-5,1.8-8.6,7.5-7.5c5.4,1,7.4,5.9,5.9,12.5l2.5-3.3c2.6-0.2,4.6,1.4,6.7,2.5
		c3.3,1.7,4.5,5.3,3.2,8.2c-1.6,4-4.4,7.8-9.8,5.1"/>
	<path fill="none" stroke="#3B4960" stroke-width="4" stroke-linecap="round" stroke-linejoin="round" stroke-miterlimit="10" d="
		M577,204.7c-0.8-1.7-1.5-3.5-2.5-5c-2.4-3.5-5-7.8-9.9-3.3c-4.8,4.3-3.8,7.9,1.6,10.9l-5-4.3c-8.7,2.9-8.9,5.1-1.7,12.6l-5.1-4.2
		c-3.3,1.6-9.1,0.9-8.2,6.7c0.8,4.9,5.2,7.4,9.8,8.3c3.2,0.7,6.8-0.9,10,0.9l0.2,5c2.1-9.1,7.4-12.9,17.6-12.6"/>
	<path fill="none" stroke="#3B4960" stroke-width="4" stroke-linecap="round" stroke-linejoin="round" stroke-miterlimit="10" d="
		M594.7,190.4c-1.6-3.3-2.9-6.9-6-9.1c-2.7-2-5.8-3-9.2-0.2c-3.7,3.1-2.7,6.2-0.7,9.2c1.9,2.9,5.2,4.5,8.3,5.9"/>
	<path fill="none" stroke="#3B4960" stroke-width="4" stroke-linecap="round" stroke-linejoin="round" stroke-miterlimit="10" d="
		M606.5,180.5c-3.2,0.6-6-1.3-8.2-2.7c-2.8-1.8-6-4.1-4.6-9c1.6-5.9,5.6-2.6,8.5-3.3l3.3,2.5c-4.6-4.3-3.8-9.1,1-11.5
		c3.9-1.9,7.3,0.7,9.3,5.5c1.1,2.4,1.1,4.5,1.4,6.8"/>
	<path fill="none" stroke="#3B4960" stroke-width="4" stroke-linecap="round" stroke-linejoin="round" stroke-miterlimit="10" d="
		M609.9,141.7c-0.7-2.4-4.9-4.6-1.6-7.4c3.3-2.9,5.3,0.5,7.5,2.4c0.7,0.7,1.1,1.1,0.8,1.7l-4.3-5c1.3-3.6,2.5-9.2,7.4-4.1
		c5.5,5.8,10.2,12.3,14.6,19c2.3,3.6,1.5,5.4-1,7.7c-2.8,2.5-5.5,2.4-8.4,0c-6.7-5.7-5.9-10.7,2.5-15.1"/>
	<path fill="none" stroke="#3B4960" stroke-width="4" stroke-linecap="round" stroke-linejoin="round" stroke-miterlimit="10" d="
		M654.9,140.2c-1.4-3-2.3-6.5-4.3-9.1c-2.4-3.5-6-5-9.9-1.7c-3.7,3-3.2,6.7-0.8,9.9c1.8,2.5,4.4,4.6,6.6,6.8"/>
	<path fill="none" stroke="#3B4960" stroke-width="4" stroke-linecap="round" stroke-linejoin="round" stroke-miterlimit="10" d="
		M664.2,114.2c1.2,1.9,2,4,3.2,5.9c4.1,6.2,9.4,9.4,11.8,1.6c1.2-3.9-5.8-15.1-5.8-15.1c2.1,4.6,6.1,8.1,6.7,13.4l1.7,0.9
		c1.9,1.1,2,3.7,3.5,5c3.7,3.6,3.8,6.9-0.1,10c-4.4,3.7-7.6,2.1-10-2.5"/>
	<path fill="none" stroke="#3B4960" stroke-width="4" stroke-linecap="round" stroke-linejoin="round" stroke-miterlimit="10" d="
		M695.1,114.9c-4.4-1.1-7.7-3.6-10-7.5c-1.3-2.2-1.3-4.5,0-6.7c1.6-2.6,4.2-3,6.7-2.4s4.2,2.5,5.1,5l-2.4-4.2
		c3.5-8.3,7.8-10.3,11.6-5c2.5,3.5,5,7.6,2.6,12.5"/>
	<path fill="none" stroke="#3B4960" stroke-width="4" stroke-linecap="round" stroke-linejoin="round" stroke-miterlimit="10" d="
		M715.4,89.8c-2.6-5.5,0.9-8.5,5.1-8.9c4.5-0.4,6.3,3.7,5.8,8.1c-0.2,1.4-0.5,2.8-0.8,4.2l-3.3,1.7c6.9-4,9.7,0.9,12.6,5.9
		c2.6,4.5-0.3,7.5-3.5,9c-5.4,2.6-8-1.4-9.9-5.7"/>
	<path fill="none" stroke="#3B4960" stroke-width="4" stroke-linecap="round" stroke-linejoin="round" stroke-miterlimit="10" d="
		M739.6,91.6c-0.6,3.2,1.2,5.6,3.5,7.5c2,1.7,4.4,3.8,7.5,1.7s4.5-5.3,3.1-8.3c-2.5-6.4-5.8-12.5-9.2-18.5c-1.4-2.5-4.5-4.2-7.4-1.7
		c-3.2,2.8-4.8,6.1-0.1,9.1"/>
	<path fill="none" stroke="#3B4960" stroke-width="4" stroke-linecap="round" stroke-linejoin="round" stroke-miterlimit="10" d="
		M787.5,69.7c1.2-2.4,1.2-5.1,0.7-7.5c-0.7-3.5-1.7-7.6-5.8-8.2c-4.4-0.7-6.8,2.3-7.5,6.5l2.5,5.9c0.3-0.6-0.3-0.9-0.8-1.7
		c-1.9-3.5-4-8.3-8.3-6.4c-5.1,2.3-3.6,7.3-1,11.5l-3.2-5.9c-3.3-0.8-7-2.8-9.1,1.7c-1.9,4.1-0.1,7.7,2.5,10.9
		c3,3.6,7.5,4.5,11.7,5.9l-3.5,4.3c7.1-5.2,14.4-7.5,22.6-2.5"/>
	<path fill="none" stroke="#3B4960" stroke-width="4" stroke-linecap="round" stroke-linejoin="round" stroke-miterlimit="10" d="
		M809.2,63c1.9-3.8,0.4-7.4-0.9-10.9c-1.4-3.9-4.4-6.2-8.3-4.9c-4.7,1.5-5.8,5.5-4.2,9.8c0.9,2.4,2,4.9,4.2,6.7"/>
	<path fill="none" stroke="#3B4960" stroke-width="4" stroke-linecap="round" stroke-linejoin="round" stroke-miterlimit="10" d="
		M836,37.9c-8.9,0.3-11.9,5.3-7.5,12.6c1.7,2.9,3.1,5.1,7.6,3.6c4.6-1.5,4.9-4.8,4-7.7c-2-6.7-3.6-13.4-5.1-20.1
		c-0.5-2.4-2.8-5.7-6.5-5c-4.6,0.8-5.6,4.2-5.1,8.3"/>
	<path fill="none" stroke="#3B4960" stroke-width="4" stroke-linecap="round" stroke-linejoin="round" stroke-miterlimit="10" d="
		M851.1,51.3c2,2.2,0,5.1,1.6,7.6c1.9,3,4.5,5.4,7.5,3.9c2.7-1.3,5.6-3.9,4.4-8.1c-1.5-5.6-2.6-11.3-4-16.8c-1-4.1-1.8-6.5-6.2-5.8
		c-5,0.8-6.1,4-4.2,8.3"/>
	<path fill="none" stroke="#3B4960" stroke-width="4" stroke-linecap="round" stroke-linejoin="round" stroke-miterlimit="10" d="
		M873.9,27c2.1,2.1,5.2,3.2,7.4,5.2c3.7,3,3.7,9.3,0,11.5c-4.2,2.4-7.5,1-10-3.1c-0.9-1.5-0.4-2.8-0.7-4.3"/>
	<path fill="none" stroke="#3B4960" stroke-width="4" stroke-linecap="round" stroke-linejoin="round" stroke-miterlimit="10" d="
		M914,38.8c0.7-1.9,1.3-3.9,1.9-5.8c1.5-4.7-0.1-8.2-3.7-9.9c-3.5-1.7-6.8,0-8.3,4l-5.1-2.5c2.7-0.4,3.7,2,5,3.5
		c3.1,3.5,2,7.5-0.1,10.7c-1.1,1.6-3.7,3.9-6.5,2.6c-4-1.7-4.9-5-5.2-9.1c-0.4-4.9,2.2-6.9,6-8.4"/>
	<path fill="none" stroke="#3B4960" stroke-width="4" stroke-linecap="round" stroke-linejoin="round" stroke-miterlimit="10" d="
		M926.6,39.6c-1.5,3.5-1,6.5,1.6,9.2c1.6,1.7,3.3,3.1,5.9,2.4c2.9-0.8,5.1-2.7,5-5.9c-0.3-7.3-0.9-14.5-1.7-21.8
		c-0.3-3.1-2.9-3.7-5.8-3.3c-4.9,0.4-5.3,3.8-5.1,7.5"/>
	<path fill="none" stroke="#3B4960" stroke-width="4" stroke-linecap="round" stroke-linejoin="round" stroke-miterlimit="10" d="
		M958.5,1c0,0.3-0.1,0.7,0,0.8c5.8,6.7,10.6,12.9,0.2,20.5c-2.7,2-2.2,7.8,1.4,11.5c3,3,6,1.7,8.3-0.2c3.9-3.1,3.2-7.7,1.5-11.6
		c-0.9-2-2.9-4.3-5.7-5.1"/>
	<path fill="none" stroke="#3B4960" stroke-width="4" stroke-linecap="round" stroke-linejoin="round" stroke-miterlimit="10" d="
		M983.5,14.4c1,3,4,4.5,5.9,6.7c2.6,3.1,4.8,6.7,2.4,10.9c-1.3,2.4-4,3.8-6.6,3.2c-4.8-0.9-6.2-4.7-5.9-9.1"/>
	<path fill="none" stroke="#3B4960" stroke-width="4" stroke-linecap="round" stroke-linejoin="round" stroke-miterlimit="10" d="
		M1002.1,24.5c1-5.4,4.1-7.8,9.1-5c5.9,3.3,3.1,7.2,0,10.9l-2.5,1.6l2.5,1.7c0.6,0.8,1.3,1.6,1.6,2.5c1.7,4.7,1,8.9-2.4,12.6
		c-1.7,1.8-4.7,1.4-5.8,0.6c-3.9-2.6-5.8-6.6-4.4-11.6"/>
	<path fill="none" stroke="#3B4960" stroke-width="4" stroke-linecap="round" stroke-linejoin="round" stroke-miterlimit="10" d="
		M1023,9.3c-0.7-3.1,1.2-5.3,3.5-6.6c2-1.2,2.1,1.5,3.2,2.4l0.8,7.5c0-0.9,0.1-1.7,0-2.5c-0.7-4.1,2-6.5,5.1-6.4
		c3.3,0.1,2.1,4,2.5,6.4c1,7.2-2.3,13.9-1.8,21c0.2,3.2-2.2,5-5,5.8c-2.8,0.8-5.3-1.3-6.5-3.3c-2.3-4.1-0.9-8.1,1.5-11.7
		c3.2-4.6,6.7-1.5,10,0"/>
	<path fill="none" stroke="#3B4960" stroke-width="4" stroke-linecap="round" stroke-linejoin="round" stroke-miterlimit="10" d="
		M1048.1,27.8c-0.7-4.1,1.7-5.9,5-5.7c3.1,0.2,6.9,1.7,6.5,5.7c-0.3,3.1-1.1,7.1-5.7,7.5c-1.1,0.1-2.2,0-3.3,0l4.3,0.9
		c0.8,0.8,2,1.5,2.4,2.5c1.9,4.5,0.8,8.7-1.7,12.5c-1.7,2.5-5.3,2.5-7.4,1.5c-4.9-2.3-4.1-7.2-3.5-11.6"/>
	<path fill="none" stroke="#3B4960" stroke-width="4" stroke-linecap="round" stroke-linejoin="round" stroke-miterlimit="10" d="
		M1077.5,42.9c2.6-2.8,4.2-6.1,4.3-10c0-4.7-2.1-7.4-6.7-7.5c-4.2-0.1-6.5,2.4-6.7,6.6c-0.1,3,0,6.2,0,9.2"/>
	<path fill="none" stroke="#3B4960" stroke-width="4" stroke-linecap="round" stroke-linejoin="round" stroke-miterlimit="10" d="
		M1113.5,35.4c-3.2-0.6-4.4-6.7-9.2-3.5c-3.8,2.5-4.5,5.9-4.3,10.2c0.2,3.6,1.8,5.3,5.1,5.9c3.5,0.6,5.6-1.1,6.7-4.2
		c0.3-0.7-0.2-1.7,0.1-2.5c1-3.1,1.4-6.9,5.8-7.5c2.2-0.3,4.1,1.3,4.9,2.6c2.1,3.2,1.2,6.8-0.7,9.9c-0.8,1.3-2.2,2.2-3.3,3.3
		l-2.4-1.8c5.1,5.2,5.7,11.9,0.8,14.9c-4.2,2.6-8.4,1.1-11.6-2.4c-0.7-0.8-0.1-2.7-0.1-4.1"/>
	<path fill="none" stroke="#3B4960" stroke-width="4" stroke-linecap="round" stroke-linejoin="round" stroke-miterlimit="10" d="
		M1138.6,22.8c-0.6,6.4-3.1,12.4-5,18.5c-0.5,1.7-1.3,3.5-1.5,5.1c-0.5,3.2-0.7,6.8,2.4,9.1c2,1.6,4.4,1.2,6.7,0.1
		c4.2-1.9,5-5.6,4-9.2c-0.9-3.5-2.1-6.6-0.7-10.2"/>
	<path fill="none" stroke="#3B4960" stroke-width="4" stroke-linecap="round" stroke-linejoin="round" stroke-miterlimit="10" d="
		M1161.3,64.8c2.9-2.4,5.3-5.5,5.8-9.2c0.5-4,1-8.5-4.9-9.1c-4.9-0.5-7.3,2.5-8.2,6.7c-0.6,2.6-0.1,5.6-0.1,8.3"/>
	<path fill="none" stroke="#3B4960" stroke-width="4" stroke-linecap="round" stroke-linejoin="round" stroke-miterlimit="10" d="
		M1176.4,61.3c2.7-9,4.3-9.5,11.8-4.2l8.4-15.9c-6.6,10.4-8.7,22.4-13.4,33.5c-0.7,1.7-1.4,3.5-2.3,5.1c-2,3.6-4.3,3.5-7.7,2.5
		c-4.7-1.2-4.4-4.5-4.1-7.7c0.2-1.7,1.5-3.3,2.4-5.1"/>
	<path fill="none" stroke="#3B4960" stroke-width="4" stroke-linecap="round" stroke-linejoin="round" stroke-miterlimit="10" d="
		M1204,79c2-1.8,3.2-4.3,4.2-6.7c1.2-3.7,2.7-7.9-2.4-9.9c-5-1.9-8.2,0.9-9.8,5.1c-0.9,2.2-1,5-1.8,7.5"/>
	<path fill="none" stroke="#3B4960" stroke-width="4" stroke-linecap="round" stroke-linejoin="round" stroke-miterlimit="10" d="
		M1231.1,73.6c-0.4,0.3-0.6,4.3-2.5,6.5s-5.7,2.7-6.1,3l-3.3-0.8c6.8,6,6.4,12.8-0.8,16.8c-3,1.7-5.7,0.8-7.5-1
		c-3.8-3.8-1.9-7.9,0.7-11.6"/>
	<path fill="none" stroke="#3B4960" stroke-width="4" stroke-linecap="round" stroke-linejoin="round" stroke-miterlimit="10" d="
		M1238.5,76.4c0.4,3.6,5.8,2,5.9,7.4c-0.7,1.4-2,4.1-3.5,6.8l5.1-7.5c2.3,0,5-0.8,6.9,2c-3.7,9.2-7.1,18.9-14.8,25.9
		c-10-5.3-10.5-6.9-4.8-16.2"/>
	<path fill="none" stroke="#3B4960" stroke-width="4" stroke-linecap="round" stroke-linejoin="round" stroke-miterlimit="10" d="
		M1270.4,115c2.7,0.6,4.8-1.3,6.6-2.6c4.9-3.5,5.8-8.7,2.5-12.5c-2.3-2.8-3.8-2.4-10,2.5l2.5-3.3c-0.8-3.5-2.7-5.9-5.9-7.5l17.7-8.4
		c-5.1,2.1-10,4.9-15.1,6.5c-8.8,2.8-11.9,8.4-10.9,17"/>
	<path fill="none" stroke="#3B4960" stroke-width="4" stroke-linecap="round" stroke-linejoin="round" stroke-miterlimit="10" d="
		M1292.9,127.6c2.2-2.2,5-4.2,6.6-6.8c2.1-3.5,1.9-7.5-1.6-9.8c-3-2-7-2.1-9,1.6c-1.8,3.3-4.8,6.5-4.3,10.9"/>
	<path fill="none" stroke="#3B4960" stroke-width="4" stroke-linecap="round" stroke-linejoin="round" stroke-miterlimit="10" d="
		M1323.9,127.6c-0.6,2.1,0.3,4.1,0.9,5.8c1.8,5-0.3,7.8-4.3,10.2c-3,1.7-6,0.8-7.4-1.7c-2-3.7-1.7-7.4,2.3-9.9"/>
	<path fill="none" stroke="#3B4960" stroke-width="4" stroke-linecap="round" stroke-linejoin="round" stroke-miterlimit="10" d="
		M1340.6,130c2.9-0.2,3.2-4.8,6.1-4.3c2.7,1.2,2.3,3.6,3.1,5.2l-4.2,5.9c0.2-2.1,2.2-2.7,3.3-4.2c1.6-2,3.7-2.4,5.9-0.8
		c3.2,2.2,1.3,4.8-0.1,6.7c-3.7,5-8.1,9.3-11.6,14.4c-2.4,3.6-5.5,5.7-9.2,4.7c-2-0.6-5-2.9-4.3-6.4c0.9-4.4,3.6-7.6,7.6-9.1
		s6.4,1.2,7.5,4.9"/>
	<path fill="none" stroke="#3B4960" stroke-width="4" stroke-linecap="round" stroke-linejoin="round" stroke-miterlimit="10" d="
		M1354.9,193c1-9.5-5.1-14.1-12.6-17.6l5,1.6c1.2-5.5-1.6-11.4,2.3-16.8c2.6-3.7,6.2-5.4,9.2-3.8c4.2,2.2,5.3,6.6,1,10.6
		c-0.7,0.7-1.1,1.1-0.8,1.7l4.3-4.2c2.9-1.4,6.3-1.6,7.3,1.7c1.1,3.9-0.6,7.4-4.9,9.1l5.9-4.3c4.3-0.8,6.7,1.6,8.4,4.8
		c-1.2,5.8-5.5,8.2-10.2,10.3"/>
	<path fill="none" stroke="#3B4960" stroke-width="4" stroke-linecap="round" stroke-linejoin="round" stroke-miterlimit="10" d="
		M1384.3,203.8c3.1-2.1,6.6-3.8,9.2-6.7c3-3.3,2.1-6.8-0.2-9.1c-2.3-2.3-5.8-3.2-9.1-0.2c-2.9,2.6-4.6,6.1-6.7,9.2"/>
	<path fill="none" stroke="#3B4960" stroke-width="4" stroke-linecap="round" stroke-linejoin="round" stroke-miterlimit="10" d="
		M1412.8,234c6.6-0.5,11.6-3.1,13.5-9.9c-6.2-6-6.2-6-13.5-1.7l5-3.3c-0.6-2.5,1.8-5.9-2.4-7.6c-4.9-2-7.1,0.7-9.2,4.3l5.1-5.1
		c-0.9-4.1-2-9.4-6.6-8.8c-3.8,0.6-8,3.7-9.4,8.7c-1,3.8-0.1,7.3-0.7,11l-5.1-2.4c8,5.1,11.4,12.5,10.9,21.8"/>
	<path fill="none" stroke="#3B4960" stroke-width="4" stroke-linecap="round" stroke-linejoin="round" stroke-miterlimit="10" d="
		M1432.9,260.1c2.8-0.1,5.7,0.1,8.4-1.6c2.8-1.9,5.5-4.2,5.6-7.6c0.1-1.7-1.1-4.7-3.1-4.9c-3.3-0.3-7.4-1.4-9.2,3.1l3.3-3.3
		c2-5,1-8.7-4.2-10.9c-5.7,2.3-10.3,5.8-10.9,12.6"/>
	<path fill="none" stroke="#3B4960" stroke-width="4" stroke-linecap="round" stroke-linejoin="round" stroke-miterlimit="10" d="
		M1468.9,253.4c-2.7,4.5-1.8,11.6-9.2,12.6v0.6c1.3,5.4-2.5,8.4-6,10.7c-2.3,1.6-5.8,2.3-8.3-1.4c-2.2-3.1-2.4-5.5,0-8.5
		c4-4.7,8.3-5.4,13.5-2.4"/>
	<path fill="none" stroke="#3B4960" stroke-width="4" stroke-linecap="round" stroke-linejoin="round" stroke-miterlimit="10" d="
		M1459.8,297.7c4.3-0.2,7.8-2.2,10.9-5.1c2.7-2.6,2.5-5.5,0.1-8.4s-5.3-3.6-8.4-1.6c-3.2,2-6.5,4.3-7.6,8.3"/>
	<path fill="none" stroke="#3B4960" stroke-width="4" stroke-linecap="round" stroke-linejoin="round" stroke-miterlimit="10" d="
		M1494.9,291c-8,2.9-14.7,8-21.9,12.3c-3.7,2.1-5.1,4.2-4.8,7.8c0.2,2.8,2.2,4.4,5,5.1c3.7,0.9,6.2-0.9,8.3-3.5
		c2-2.4,1.9-6.5,5.9-7.5"/>
	<path fill="none" stroke="#3B4960" stroke-width="4" stroke-linecap="round" stroke-linejoin="round" stroke-miterlimit="10" d="
		M1573.8,685.9c-8.4-0.5-16.5-3.6-25.2-3.5c-3.1,0-6.4-1.1-8.4,2.6c-1.5,2.7-0.9,5.4,0.9,7.5c2.7,3.1,6.1,4.4,10,1.7
		c2.8-1.9,6-2.5,9.2-0.8"/>
	<path fill="none" stroke="#3B4960" stroke-width="4" stroke-linecap="round" stroke-linejoin="round" stroke-miterlimit="10" d="
		M1535.1,705.1c4.2-1.1,8.4-1.7,12.6,0c3.1,1.3,6.2,2.5,4.4,7.5c-1.5,4.1-3.9,5.4-7.7,5c-4-0.5-7.4-2.4-10.9-4.2"/>
	<path fill="none" stroke="#3B4960" stroke-width="4" stroke-linecap="round" stroke-linejoin="round" stroke-miterlimit="10" d="
		M1561.9,745.3c0.4-14.2,0.4-14.3-14.2-16.7c-2.3-0.4-4.5-0.8-6.7-1.6c-4.6-1.6-10.7,1-10.8,5c0,5,3,7.3,8.2,7.6
		c5.9,0.4,8.2-1.2,8.3-6.8c0-1.1-0.5-2.2-0.8-3.3"/>
	<path fill="none" stroke="#3B4960" stroke-width="4" stroke-linecap="round" stroke-linejoin="round" stroke-miterlimit="10" d="
		M1525.9,759.6c-4.2,1.4-5.5,5.2-4,8.2c1.8,3.9,6.4,5.5,10.7,5c3-0.4,5.9-2.4,5.9-6.5s-2.9-5.6-5.9-6.6c-1.7-0.6-3.9-0.1-5.8-0.1
		l11.7,1.7c3.1-2.4,5-5.4,2.4-9.2c-2.5-4-11.3-5.4-16.7-3.5c-6.6,2.3-9.1,9.5-15,12.6"/>
	<path fill="none" stroke="#3B4960" stroke-width="4" stroke-linecap="round" stroke-linejoin="round" stroke-miterlimit="10" d="
		M1509.9,795.6c0.5,2.7,1.8,5.3,4.3,6.6c3,1.7,6.2,4.5,9.9,1.7c1.6-1.2,4-2.4,3.3-5c-0.9-3.9-3.1-6.5-7.5-6.7l6.7,0.8
		c2.2-1,4.4-2.1,5.9-4.2l10,12.6c-4-4.8-6.6-10.5-10.9-15.1c-6.8-7.6-7.6-8-16.8-4.2"/>
	<path fill="none" stroke="#3B4960" stroke-width="4" stroke-linecap="round" stroke-linejoin="round" stroke-miterlimit="10" d="
		M1497.5,829.2c1.6,1.7,3.1,3.8,5.1,5c2.9,1.9,6.6,4.4,9.8,1.6c3-2.7,2.6-6.6,0.1-9.9l-4.2-3.3c3.7,5,8.1,2.4,10.7-0.2
		c3.3-3.6-0.2-7.2-3.2-8.8c-3.9-2.1-8.5-3.8-12.5,0.6"/>
	<path fill="none" stroke="#3B4960" stroke-width="4" stroke-linecap="round" stroke-linejoin="round" stroke-miterlimit="10" d="
		M1501.6,856.8c5.3-7,3.8-12.4-4.2-14.2c-3.3-0.7-6.9-0.1-8.2,3.3c-0.9,2.4-0.9,5.8,2.3,7.5c7,3.7,13.8,7.5,21,10.8
		c3.5,1.6,6.3-1.7,7.2-4.2c1.3-3.6-0.8-6.5-4.8-7.4"/>
	<path fill="none" stroke="#3B4960" stroke-width="4" stroke-linecap="round" stroke-linejoin="round" stroke-miterlimit="10" d="
		M1477.3,870.2c2.2,1.9,4.3,4.4,6.8,5.8c3.5,1.9,7.5,2.2,9.8-1.6c2.1-3.5,1.6-6.7-2.3-9.2c-3.1-2-6.2-3.9-10.2-3.2"/>
	<path fill="none" stroke="#3B4960" stroke-width="4" stroke-linecap="round" stroke-linejoin="round" stroke-miterlimit="10" d="
		M1461.5,898.6c1.3,1.7,2.7,3.5,4.2,5.1c2.2,2.6,5.4,3.6,8.3,2.4c3.6-1.3,3.7-4.9,3.3-8.2l0.1-0.8c-1.7-0.2-3.7-1.2-4.9-1.9
		c-6.1-3.6-6.8-9.6-1.8-12.3c5.4-2.8,9.7,0.2,12.4,4.3c3.1,4.9-0.4,8-4.9,9.9"/>
	<path fill="none" stroke="#3B4960" stroke-width="4" stroke-linecap="round" stroke-linejoin="round" stroke-miterlimit="10" d="
		M1461.4,928c-2.5-8.1-9.5-11.9-16-15.8c-4.9-2.9-11.5-0.9-13.3,3.2c-1.7,4,1.4,11,6.8,12.4c3.7,0.9,6.3,1.1,8.6,5.1
		c2,3.3,6.9-0.8,10.6,0.2"/>
	<path fill="none" stroke="#3B4960" stroke-width="4" stroke-linecap="round" stroke-linejoin="round" stroke-miterlimit="10" d="
		M1461.4,956.6c-6.2-7.2-15.2-10.9-21.9-17.5c-2.6-2.6-6.8-1.1-8.9,1.6c-1.8,2.3-1.9,5.4,0.6,8.3c5.5,6.4,11.4,5.6,15.1-2.5"/>
	<path fill="none" stroke="#3B4960" stroke-width="4" stroke-linecap="round" stroke-linejoin="round" stroke-miterlimit="10" d="
		M1407.8,968.3c0.9,3.2,1.3,6.7,4.2,9.2c2.8,2.5,5.7,4,9.2,1.6c4.1-2.6,2.5-6,0.8-9.2c-0.7-1.2-2.5-1.6-2.5-3.3l3.5,4.2
		c0.8-1.4,2.2-0.9,3.3-0.8c3.2,0.3,5-1.6,5.8-4.3c0.8-2.5-1.1-4.5-2.5-5.8c-3.2-2.7-6.9-5.1-11.7-4.3"/>
	<path fill="none" stroke="#3B4960" stroke-width="4" stroke-linecap="round" stroke-linejoin="round" stroke-miterlimit="10" d="
		M1406,985.1c2,3.2,4.3,6.2,0.9,10.2c-2.5,3-5.7,1.7-7.5,0.6c-4.8-3.1-4.1-7.8-1.8-12.4l-1.6,3.3c-6.5,1.1-11.2-2.1-13.2-7.6
		c-1.6-4.6,2.9-6.5,6.3-8.7c2.8,1,5.1,2.5,6.9,4.6"/>
	<path fill="none" stroke="#3B4960" stroke-width="4" stroke-linecap="round" stroke-linejoin="round" stroke-miterlimit="10" d="
		M1383.4,996.8c12.1,1.7,9.7,12.6,12.5,20.2c1.1,3,0.7,6.7,1,10l-2.8-18.2c-1.7,3.1-6.3,3-9,3.1l-4.2-3.5c4.7,3.7,5.4,8.5,0.6,11.5
		c-3.7,2.3-7.1-1-10-4.6c-2.4-2.8-0.2-6.1-2.3-8.5"/>
	<path fill="none" stroke="#3B4960" stroke-width="4" stroke-linecap="round" stroke-linejoin="round" stroke-miterlimit="10" d="
		M1355.8,1020.2c6-1.2,9.6,2.1,12.6,6.7c1.2,1.8,1.3,3.5,0,5.1c-1.7,2-3.7,4.4-6.7,3.2c-2.4-0.9-5.2-1.8-5.9-5l4.2,5.1
		c-1.5,3-0.7,8-5.9,8.3c-5,0.3-6.3-4.1-8.4-7.4c-1.3-2-0.3-4-0.7-5.9"/>
	<path fill="none" stroke="#3B4960" stroke-width="4" stroke-linecap="round" stroke-linejoin="round" stroke-miterlimit="10" d="
		M1354,1067.2c0.2-1.3-1.1-2.3-1.7-2.4c-8.8-0.5-13.6-3.5-10.4-13.6c0.9-2.7-1.4-6.1-4.7-8.5c-3.3-2.4-6-1.4-8.4,0.3
		c-3.6,2.4-2,6.5-0.7,9c2.2,4.3,6.4,6.3,11.6,5.2"/>
	<path fill="none" stroke="#3B4960" stroke-width="4" stroke-linecap="round" stroke-linejoin="round" stroke-miterlimit="10" d="
		M1337.4,1079c-6.1-3.5-7.9-10.5-12.5-15.2c-1.6-1.6-2.7-4-4.3-5.8c-3.1-3.8-7-3.7-9.9-0.7c-3.6,3.7-1.8,7.5,1.5,10.8
		c2.6,2.6,7.3,2,9.2,5.9"/>
</g>
</svg>
